<svg height="512pt" viewBox="0 0 512 512" width="512pt" xmlns="http://www.w3.org/2000/svg"><path d="m416 512h-320c-53.023438 0-96-42.976562-96-96v-320c0-53.023438 42.976562-96 96-96h320c53.023438 0 96 42.976562 96 96v320c0 53.007812-42.992188 96-96 96zm0 0" fill="#fff9dd"/><path d="m383.328125 255.328125c0 70.691406-57.308594 128-128 128s-128-57.308594-128-128 57.308594-128 128-128 128 57.308594 128 128zm0 0" fill="#ffd200"/><g fill="#ffe777"><path d="m200.625 299.230469-18.480469 10.671875c-1.679687.976562-3.503906 1.425781-5.328125 1.425781-3.679687 0-7.265625-1.902344-9.25-5.328125-2.941406-5.105469-1.199218-11.632812 3.90625-14.574219l18.480469-10.671875c5.070313-2.945312 11.613281-1.203125 14.574219 3.902344 2.945312 5.105469 1.199218 11.632812-3.902344 14.574219zm0 0"/><path d="m204.527344 226c-1.984375 3.425781-5.566406 5.328125-9.246094 5.328125-1.808594 0-3.648438-.464844-5.328125-1.425781l-18.480469-10.671875c-5.105468-2.941407-6.847656-9.46875-3.90625-14.574219 2.945313-5.105469 9.472656-6.847656 14.578125-3.902344l18.480469 10.671875c5.101562 2.941407 6.847656 9.46875 3.902344 14.574219zm0 0"/><path d="m266 346c0 5.886719-4.769531 10.671875-10.671875 10.671875-5.886719 0-10.671875-4.785156-10.671875-10.671875v-21.328125c0-5.886719 4.769531-10.671875 10.671875-10.671875 5.886719 0 10.671875 4.785156 10.671875 10.671875zm0 0"/><path d="m266 186c0 5.886719-4.769531 10.671875-10.671875 10.671875-5.886719 0-10.671875-4.785156-10.671875-10.671875v-21.328125c0-5.886719 4.769531-10.671875 10.671875-10.671875 5.886719 0 10.671875 4.785156 10.671875 10.671875zm0 0"/><path d="m343.089844 306c-1.984375 3.425781-5.570313 5.328125-9.25 5.328125-1.808594 0-3.648438-.464844-5.328125-1.425781l-18.480469-10.671875c-5.101562-2.941407-6.847656-9.46875-3.902344-14.574219 2.941406-5.105469 9.472656-6.847656 14.574219-3.902344l18.480469 10.671875c5.105468 2.941407 6.847656 9.46875 3.90625 14.574219zm0 0"/><path d="m339.183594 219.230469-18.480469 10.671875c-1.679687.976562-3.503906 1.425781-5.328125 1.425781-3.679688 0-7.261719-1.902344-9.246094-5.328125-2.945312-5.105469-1.199218-11.632812 3.902344-14.574219l18.480469-10.671875c5.089843-2.945312 11.617187-1.203125 14.578125 3.902344 2.941406 5.105469 1.199218 11.632812-3.90625 14.574219zm0 0"/></g></svg>