<?xml version="1.0" encoding="iso-8859-1"?>
<!-- Generator: Adobe Illustrator 19.0.0, SVG Export Plug-In . SVG Version: 6.00 Build 0)  -->
<svg version="1.1" id="Layer_1" xmlns="http://www.w3.org/2000/svg" xmlns:xlink="http://www.w3.org/1999/xlink" x="0px" y="0px"
	 viewBox="0 0 512 512" style="enable-background:new 0 0 512 512;" xml:space="preserve">
<g>
	<g>
		<path d="M504.485,136.266c-13.536,0-24.548-11.011-24.548-24.548c0-4.151-3.364-7.515-7.515-7.515
			c-4.151,0-7.515,3.364-7.515,7.515c0,13.536-11.011,24.548-24.548,24.548c-4.151,0-7.515,3.364-7.515,7.515
			s3.364,7.515,7.515,7.515c13.536,0,24.548,11.012,24.548,24.548c0,4.151,3.364,7.515,7.515,7.515c4.151,0,7.515-3.364,7.515-7.515
			c0-13.536,11.011-24.548,24.548-24.548c4.151,0,7.515-3.364,7.515-7.515S508.636,136.266,504.485,136.266z M472.423,152.665
			c-2.472-3.409-5.476-6.412-8.884-8.884c3.409-2.472,6.413-5.476,8.884-8.884c2.472,3.409,5.476,6.412,8.884,8.884
			C477.898,146.253,474.895,149.257,472.423,152.665z"/>
	</g>
</g>
<g>
	<g>
		<path d="M71.64,136.266c-13.535,0-24.548-11.011-24.548-24.548c0-4.151-3.365-7.515-7.515-7.515c-4.15,0-7.515,3.364-7.515,7.515
			c0,13.536-11.013,24.548-24.548,24.548c-4.15,0-7.515,3.364-7.515,7.515s3.365,7.515,7.515,7.515
			c13.535,0,24.548,11.012,24.548,24.548c0,4.151,3.365,7.515,7.515,7.515c4.15,0,7.515-3.364,7.515-7.515
			c0-13.536,11.013-24.548,24.548-24.548c4.15,0,7.515-3.364,7.515-7.515S75.79,136.266,71.64,136.266z M39.577,152.665
			c-2.472-3.409-5.475-6.412-8.884-8.884c3.41-2.472,6.413-5.476,8.884-8.884c2.472,3.409,5.475,6.412,8.884,8.884
			C45.053,146.253,42.049,149.257,39.577,152.665z"/>
	</g>
</g>
<g>
	<g>
		<path d="M296.078,40.078c-17.956,0-32.564-14.607-32.564-32.564C263.515,3.364,260.151,0,256,0c-4.15,0-7.515,3.364-7.515,7.515
			c0,17.956-14.609,32.564-32.564,32.564c-4.15,0-7.515,3.364-7.515,7.515s3.365,7.515,7.515,7.515
			c17.955,0,32.564,14.608,32.564,32.564c0,4.151,3.365,7.515,7.515,7.515c4.151,0,7.515-3.364,7.515-7.515
			c0-17.956,14.608-32.564,32.564-32.564c4.151,0,7.515-3.364,7.515-7.515S300.229,40.078,296.078,40.078z M256,62.027
			c-3.715-5.784-8.65-10.719-14.435-14.434c5.785-3.715,10.72-8.65,14.435-14.434c3.715,5.784,8.65,10.719,14.434,14.434
			C264.65,51.308,259.715,56.243,256,62.027z"/>
	</g>
</g>
<g>
	<g>
		<path d="M412.456,253.499l-29.232-82.824c-2.187-6.198-8.073-10.362-14.645-10.362H141.417c-6.573,0-12.458,4.164-14.645,10.361
			l-29.232,82.825c-1.698,4.811,1.992,10.016,7.086,10.016h300.744c2.438,0,4.725-1.184,6.133-3.174
			C412.912,258.35,413.268,255.799,412.456,253.499z M115.247,248.485l25.697-72.809c0.068-0.193,0.267-0.334,0.472-0.334h227.163
			c0.205,0,0.404,0.141,0.473,0.335l25.697,72.808H115.247z"/>
	</g>
</g>
<g>
	<g>
		<path d="M399.28,352.689c-26.688,0-47.593,13.864-47.593,31.562s20.905,31.562,47.593,31.562s47.593-13.864,47.593-31.562
			S425.968,352.689,399.28,352.689z M399.28,400.783c-18.638,0-32.564-8.728-32.564-16.532s13.925-16.532,32.564-16.532
			c18.638,0,32.564,8.728,32.564,16.532S417.918,400.783,399.28,400.783z"/>
	</g>
</g>
<g>
	<g>
		<path d="M110.716,352.689c-26.688,0-47.593,13.864-47.593,31.562s20.905,31.562,47.593,31.562s47.593-13.864,47.593-31.562
			S137.404,352.689,110.716,352.689z M110.716,400.783c-18.637,0-32.564-8.728-32.564-16.532s13.926-16.532,32.564-16.532
			s32.564,8.728,32.564,16.532S129.354,400.783,110.716,400.783z"/>
	</g>
</g>
<g>
	<g>
		<path d="M495.468,240.47h-40.078c-3.448,0-6.454,2.347-7.29,5.692l-5.279,21.115L405.9,162.671
			c-5.574-15.793-20.572-26.405-37.321-26.405H141.417c-16.749,0-31.747,10.612-37.321,26.406l-36.92,104.606l-5.279-21.116
			c-0.837-3.346-3.843-5.692-7.29-5.692H14.528c-4.15,0-7.515,3.364-7.515,7.515v32.063c0,4.151,3.365,7.515,7.515,7.515h41.507
			l-25.619,35.866c-4.822,6.751-7.371,14.707-7.371,23.004v93.928c0,13.015,6.317,24.581,16.044,31.798
			c-0.003,0.088-0.013,0.175-0.013,0.264v24.047c0,8.564,6.967,15.53,15.53,15.53h48.094c8.564,0,15.53-6.967,15.53-15.53v-16.532
			h273.534v16.532c0,8.564,6.967,15.53,15.53,15.53h48.094c8.564,0,15.53-6.967,15.53-15.53v-24.047c0-0.089-0.01-0.176-0.013-0.264
			c9.727-7.217,16.044-18.783,16.044-31.798v-93.928c0-8.298-2.55-16.254-7.372-23.004l-25.619-35.866h41.508
			c4.151,0,7.515-3.364,7.515-7.515v-32.063C502.982,243.833,499.619,240.47,495.468,240.47z M22.043,272.532v-17.033h26.696
			l4.258,17.033H22.043z M103.202,496.47c0,0.276-0.224,0.501-0.501,0.501H54.607c-0.276,0-0.501-0.225-0.501-0.501v-16.532h8.517
			h40.579V496.47z M455.89,496.47c0,0.276-0.225,0.501-0.501,0.501h-48.094c-0.276,0-0.501-0.225-0.501-0.501v-16.532h40.579h8.517
			V496.47z M447.374,464.908H62.622c-10.915,0-20.185-7.162-23.367-17.033H470.74C467.558,457.746,458.289,464.908,447.374,464.908z
			 M319.624,383.75v17.033H190.372V383.75H319.624z M191.553,368.72c3.182-9.871,12.451-17.033,23.367-17.033h80.157
			c10.915,0,20.185,7.162,23.367,17.033H191.553z M319.624,415.812v17.033H190.372v-17.033H319.624z M467.35,332.164
			c2.991,4.187,4.572,9.121,4.572,14.268v86.414H334.654v-56.611c0-21.823-17.755-39.577-39.577-39.577H214.92
			c-21.823,0-39.577,17.755-39.577,39.577v56.611H38.074v-86.414c0-5.147,1.581-10.081,4.572-14.268l31.859-44.602h276.68
			c4.151,0,7.515-3.364,7.515-7.515c0-4.151-3.364-7.515-7.515-7.515H81.259l37.009-104.859c3.458-9.795,12.76-16.378,23.149-16.378
			H368.58c10.388,0,19.69,6.582,23.149,16.378l37.008,104.859h-45.489c-4.151,0-7.515,3.364-7.515,7.515
			c0,4.151,3.364,7.515,7.515,7.515h52.243L467.35,332.164z M487.953,272.532h-30.955l4.258-17.033h26.697V272.532z"/>
	</g>
</g>
<g>
	<g>
		<path d="M134.763,328.642H86.669c-4.15,0-7.515,3.364-7.515,7.515s3.365,7.515,7.515,7.515h48.094c4.15,0,7.515-3.364,7.515-7.515
			S138.913,328.642,134.763,328.642z"/>
	</g>
</g>
<g>
	<g>
		<path d="M423.327,328.642h-48.094c-4.151,0-7.515,3.364-7.515,7.515s3.364,7.515,7.515,7.515h48.094
			c4.151,0,7.515-3.364,7.515-7.515S427.478,328.642,423.327,328.642z"/>
	</g>
</g>
<g>
</g>
<g>
</g>
<g>
</g>
<g>
</g>
<g>
</g>
<g>
</g>
<g>
</g>
<g>
</g>
<g>
</g>
<g>
</g>
<g>
</g>
<g>
</g>
<g>
</g>
<g>
</g>
<g>
</g>
</svg>
