<?xml version="1.0" encoding="iso-8859-1"?>
<!-- Generator: Adobe Illustrator 16.0.0, SVG Export Plug-In . SVG Version: 6.00 Build 0)  -->
<!DOCTYPE svg PUBLIC "-//W3C//DTD SVG 1.1//EN" "http://www.w3.org/Graphics/SVG/1.1/DTD/svg11.dtd">
<svg version="1.1" id="Capa_1" xmlns="http://www.w3.org/2000/svg" xmlns:xlink="http://www.w3.org/1999/xlink" x="0px" y="0px"
	 width="482.7px" height="482.7px" viewBox="0 0 482.7 482.7" style="enable-background:new 0 0 482.7 482.7;" xml:space="preserve"
	>
<g>
	<g>
		<path d="M475.147,132.964c4.68-11.539,7.052-23.719,7.052-36.202s-2.372-24.663-7.052-36.202
			c-4.854-11.969-11.967-22.69-21.143-31.866c-9.175-9.175-19.896-16.289-31.865-21.143C410.601,2.873,398.421,0.5,385.937,0.5
			c-12.482,0-24.662,2.373-36.202,7.052c-11.969,4.854-22.689,11.967-31.865,21.143l-76.52,76.52l-76.52-76.52
			c-9.176-9.175-19.897-16.29-31.866-21.143C121.425,2.873,109.245,0.5,96.762,0.5S72.099,2.873,60.56,7.552
			C48.591,12.406,37.87,19.52,28.694,28.696c-9.175,9.175-16.289,19.896-21.142,31.865C2.873,72.099,0.5,84.279,0.5,96.762
			s2.372,24.663,7.052,36.202c4.853,11.969,11.967,22.69,21.143,31.866l76.519,76.521l-76.52,76.52
			c-9.176,9.176-16.289,19.897-21.143,31.866C2.872,361.274,0.5,373.455,0.5,385.937c0,12.483,2.373,24.663,7.051,36.202
			c4.854,11.969,11.967,22.689,21.143,31.865c9.175,9.175,19.896,16.289,31.865,21.143c11.539,4.68,23.719,7.053,36.202,7.053
			c12.483,0,24.663-2.373,36.203-7.053c11.969-4.854,22.69-11.967,31.866-21.143l76.52-76.519l76.52,76.52
			c9.176,9.176,19.896,16.289,31.866,21.143c11.539,4.68,23.719,7.052,36.202,7.052s24.663-2.372,36.202-7.052
			c11.969-4.854,22.69-11.968,31.866-21.144c9.175-9.175,16.288-19.896,21.143-31.865c4.679-11.538,7.052-23.719,7.052-36.201
			c0-12.483-2.373-24.663-7.052-36.202c-4.854-11.969-11.968-22.69-21.144-31.866l-76.52-76.52l76.52-76.52
			C463.181,155.654,470.294,144.933,475.147,132.964z M423.712,134.538l-95.993,95.994c-5.976,5.975-5.976,15.663,0,21.637
			l95.993,95.994c20.863,20.862,20.863,54.688,0,75.55c-10.432,10.432-24.103,15.647-37.775,15.647
			c-13.672,0-27.343-5.216-37.775-15.647l-95.993-95.993c-2.987-2.987-6.903-4.481-10.818-4.481c-3.916,0-7.831,1.494-10.819,4.481
			l-95.993,95.993c-10.432,10.432-24.104,15.647-37.776,15.647c-13.672,0-27.343-5.216-37.775-15.647
			c-20.863-20.862-20.863-54.688,0-75.55l95.994-95.994c5.975-5.975,5.975-15.662,0-21.637l-95.993-95.994
			c-20.863-20.863-20.863-54.688,0-75.55C69.418,48.556,83.09,43.34,96.762,43.34c13.672,0,27.344,5.216,37.775,15.647
			l95.994,95.994c2.988,2.987,6.903,4.481,10.819,4.481c3.915,0,7.831-1.494,10.818-4.481l95.993-95.994
			c10.432-10.432,24.104-15.647,37.775-15.647s27.344,5.216,37.775,15.647C444.575,79.85,444.575,113.675,423.712,134.538z"/>
		<path d="M385.938,482.7c-12.549,0-24.792-2.385-36.39-7.088c-12.031-4.879-22.809-12.029-32.032-21.253l-76.166-76.166
			l-76.166,76.165c-9.224,9.224-20.001,16.374-32.032,21.252c-11.6,4.705-23.844,7.09-36.391,7.09
			c-12.548,0-24.791-2.385-36.39-7.09c-12.03-4.878-22.807-12.028-32.03-21.252c-9.223-9.223-16.374-20-21.253-32.031
			C2.385,410.728,0,398.484,0,385.937c0-12.549,2.385-24.792,7.088-36.389c4.88-12.032,12.03-22.81,21.253-32.032l76.166-76.166
			l-76.166-76.167c-9.224-9.224-16.375-20.001-21.252-32.031C2.385,121.554,0,109.311,0,96.762s2.385-24.792,7.088-36.39
			c4.879-12.032,12.029-22.808,21.252-32.03c9.224-9.224,20-16.375,32.031-21.253C71.971,2.385,84.214,0,96.762,0
			c12.547,0,24.791,2.385,36.39,7.088c12.03,4.878,22.807,12.028,32.031,21.252l76.166,76.167l76.166-76.167
			c9.224-9.223,20-16.373,32.031-21.252C361.146,2.385,373.39,0,385.937,0c12.548,0,24.792,2.385,36.391,7.088
			c12.032,4.879,22.809,12.03,32.031,21.252c9.224,9.223,16.374,20,21.253,32.031c4.703,11.598,7.088,23.841,7.088,36.39
			s-2.385,24.792-7.089,36.39c-4.878,12.031-12.028,22.809-21.252,32.032l-76.166,76.167l76.166,76.166
			c9.223,9.223,16.373,19.999,21.253,32.032c4.704,11.6,7.089,23.843,7.089,36.39s-2.385,24.79-7.089,36.389
			c-4.88,12.033-12.03,22.81-21.252,32.031c-9.224,9.224-20.001,16.375-32.032,21.254C410.729,480.315,398.486,482.7,385.938,482.7z
			 M241.35,376.779l76.873,76.873c9.128,9.128,19.794,16.205,31.7,21.033c11.479,4.654,23.596,7.015,36.015,7.015
			s24.536-2.36,36.015-7.015c11.905-4.828,22.571-11.905,31.7-21.034c9.127-9.127,16.203-19.792,21.033-31.699
			c4.654-11.479,7.015-23.597,7.015-36.014s-2.36-24.534-7.016-36.015c-4.829-11.907-11.906-22.573-21.033-31.7l-76.873-76.873
			l76.873-76.874c9.128-9.128,16.205-19.794,21.033-31.701c4.654-11.478,7.015-23.594,7.015-36.014s-2.36-24.536-7.015-36.014
			c-4.829-11.907-11.905-22.572-21.033-31.7c-9.128-9.127-19.793-16.204-31.699-21.033C410.473,3.361,398.355,1,385.937,1
			c-12.417,0-24.534,2.36-36.015,7.015c-11.905,4.829-22.571,11.905-31.699,21.033l-76.873,76.874l-76.873-76.874
			c-9.13-9.129-19.795-16.206-31.7-21.033C121.297,3.361,109.18,1,96.762,1c-12.418,0-24.536,2.36-36.015,7.015
			c-11.906,4.829-22.571,11.905-31.7,21.034C19.92,38.176,12.844,48.841,8.016,60.749C3.361,72.226,1,84.343,1,96.762
			s2.36,24.536,7.015,36.014c4.827,11.906,11.904,22.571,21.033,31.7l76.873,76.874l-76.873,76.873
			c-9.127,9.128-16.204,19.793-21.033,31.7C3.36,361.401,1,373.518,1,385.937c0,12.418,2.36,24.535,7.015,36.015
			c4.829,11.906,11.905,22.571,21.033,31.699c9.128,9.129,19.793,16.205,31.699,21.033c11.479,4.655,23.596,7.016,36.014,7.016
			c12.417,0,24.535-2.36,36.015-7.016c11.906-4.828,22.572-11.905,31.701-21.033L241.35,376.779z M385.937,439.86
			c-14.402,0-27.943-5.609-38.129-15.794l-95.993-95.993c-2.796-2.796-6.512-4.335-10.465-4.335c-3.953,0-7.669,1.54-10.466,4.335
			l-95.993,95.993c-10.185,10.185-23.726,15.794-38.129,15.794c-14.403,0-27.943-5.609-38.128-15.794s-15.794-23.726-15.794-38.128
			c0-14.403,5.609-27.944,15.794-38.129l95.994-95.994c2.795-2.795,4.334-6.512,4.334-10.465s-1.54-7.67-4.334-10.465
			l-95.993-95.994C48.449,124.706,42.84,111.165,42.84,96.762c0-14.403,5.609-27.944,15.793-38.128
			C68.818,48.449,82.359,42.84,96.762,42.84s27.944,5.609,38.129,15.794l95.994,95.994c2.795,2.795,6.513,4.334,10.466,4.334
			s7.669-1.54,10.465-4.334l95.993-95.994c10.185-10.185,23.726-15.794,38.129-15.794s27.944,5.609,38.129,15.794
			c10.185,10.185,15.793,23.726,15.793,38.128c0,14.403-5.609,27.944-15.794,38.129l-95.993,95.994
			c-2.796,2.795-4.335,6.512-4.335,10.465s1.539,7.67,4.335,10.465l95.993,95.994c10.185,10.185,15.794,23.726,15.794,38.129
			c0,14.402-5.609,27.943-15.794,38.128S400.34,439.86,385.937,439.86z M241.35,322.738c4.22,0,8.188,1.644,11.172,4.628
			l95.993,95.993c9.997,9.996,23.287,15.501,37.422,15.501c14.136,0,27.426-5.505,37.422-15.501
			c9.996-9.995,15.501-23.285,15.501-37.421c0-14.137-5.505-27.427-15.501-37.422l-95.993-95.994
			c-2.984-2.984-4.628-6.951-4.628-11.172c0-4.22,1.644-8.188,4.628-11.172l95.993-95.994c9.996-9.996,15.501-23.286,15.501-37.422
			c0-14.136-5.505-27.426-15.5-37.421c-9.996-9.996-23.286-15.501-37.422-15.501s-27.426,5.505-37.422,15.501l-95.993,95.994
			c-2.984,2.984-6.952,4.627-11.172,4.627c-4.22,0-8.188-1.644-11.173-4.627l-95.994-95.994
			c-9.996-9.996-23.286-15.501-37.422-15.501S69.336,49.345,59.34,59.341c-9.996,9.996-15.5,23.285-15.5,37.421
			c0,14.136,5.505,27.426,15.5,37.422l95.993,95.994c2.984,2.984,4.627,6.952,4.627,11.172c0,4.221-1.644,8.188-4.627,11.172
			L59.34,348.516c-9.996,9.995-15.501,23.285-15.501,37.422c0,14.136,5.505,27.426,15.501,37.421
			c9.996,9.996,23.286,15.501,37.421,15.501c14.136,0,27.426-5.505,37.422-15.501l95.993-95.993
			C233.162,324.381,237.13,322.738,241.35,322.738z"/>
	</g>
</g>

</svg>
