<svg version="1.1" id="Layer_1" xmlns="http://www.w3.org/2000/svg" xmlns:xlink="http://www.w3.org/1999/xlink" x="0px" y="0px"
	 viewBox="0 0 512 512" style="enable-background:new 0 0 512 512;" xml:space="preserve">
<style type="text/css">
	.st0{stroke:#000000;stroke-width:10;stroke-miterlimit:10;}
</style>
<path class="st0" d="M252.4,246.6c33.9,0,63.2-12.2,87.2-36.1c24-24,36.1-53.3,36.1-87.2c0-33.9-12.2-63.2-36.1-87.2
	c-24-24-53.3-36.1-87.2-36.1c-33.9,0-63.2,12.2-87.2,36.1S129,89.4,129,123.3c0,33.9,12.2,63.2,36.1,87.2
	C189.1,234.5,218.5,246.6,252.4,246.6z M186.4,57.3c18.4-18.4,40-27.3,66-27.3c26,0,47.6,8.9,66,27.3c18.4,18.4,27.3,40,27.3,66
	c0,26-8.9,47.6-27.3,66c-18.4,18.4-40,27.3-66,27.3c-26,0-47.6-8.9-66-27.3c-18.4-18.4-27.3-40-27.3-66
	C159,97.3,168,75.7,186.4,57.3z"/>
<path class="st0" d="M468.1,393.7c-0.7-10-2.1-20.9-4.1-32.4c-2.1-11.6-4.8-22.5-8-32.5c-3.3-10.3-7.8-20.6-13.4-30.3
	c-5.8-10.2-12.6-19-20.2-26.3c-8-7.6-17.7-13.7-29-18.2c-11.2-4.4-23.7-6.7-37-6.7c-5.2,0-10.3,2.1-20,8.5c-6,3.9-13,8.4-20.9,13.5
	c-6.7,4.3-15.8,8.3-27,11.9c-10.9,3.5-22.1,5.3-33,5.3c-11,0-22.1-1.8-33-5.3c-11.2-3.6-20.3-7.6-27-11.9c-7.8-5-14.8-9.5-20.9-13.5
	c-9.8-6.4-14.8-8.5-20-8.5c-13.3,0-25.8,2.3-37,6.7c-11.3,4.5-21,10.6-29,18.2c-7.6,7.3-14.4,16.1-20.2,26.3
	c-5.6,9.8-10.1,20-13.4,30.3c-3.2,10-5.9,20.9-8,32.5c-2.1,11.5-3.5,22.4-4.1,32.4c-0.7,9.8-1,20-1,30.2c0,26.7,8.5,48.4,25.3,64.3
	C83.8,504,105.7,512,132.3,512h246.5c26.6,0,48.5-8,65.1-23.7c16.8-15.9,25.3-37.6,25.3-64.3C469.2,413.6,468.8,403.5,468.1,393.7z
	 M423.2,466.5c-10.9,10.4-25.4,15.5-44.4,15.5H132.3c-18.9,0-33.4-5.1-44.4-15.5C77.2,456.3,72,442.4,72,423.9
	c0-9.6,0.3-19.1,0.9-28.2c0.6-8.9,1.9-18.7,3.8-29.1c1.8-10.3,4.2-19.9,7-28.7c2.7-8.4,6.3-16.7,10.9-24.7
	c4.3-7.6,9.3-14.2,14.8-19.4c5.1-4.9,11.6-9,19.3-12c7.1-2.8,15-4.3,23.6-4.6c1.1,0.6,2.9,1.6,6,3.6c6.2,4,13.3,8.6,21.1,13.6
	c8.9,5.6,20.3,10.8,33.9,15.2c13.9,4.5,28.2,6.8,42.3,6.8s28.3-2.3,42.3-6.8c13.6-4.4,25.1-9.5,33.9-15.2c8-5.1,15-9.6,21.1-13.6
	c3-2,4.9-3,6-3.6c8.6,0.2,16.6,1.8,23.6,4.6c7.6,3,14.1,7.1,19.3,12c5.5,5.3,10.5,11.8,14.8,19.4c4.5,8,8.2,16.3,10.9,24.7
	c2.8,8.8,5.2,18.4,7,28.7c1.9,10.4,3.1,20.2,3.8,29.1v0c0.6,9.1,1,18.5,1,28.1C439.2,442.4,433.9,456.3,423.2,466.5z"/>
</svg>
