<svg version="1.1" id="Capa_1" xmlns="http://www.w3.org/2000/svg" xmlns:xlink="http://www.w3.org/1999/xlink" x="0px" y="0px" viewBox="0 0 512.001 512.001" style="enable-background:new 0 0 512.001 512.001;" xml:space="preserve">
                                    <polyline style="fill:#F2171C;" points="481.54,328.233 481.54,259.097 439.278,259.097 439.278,289.535 "></polyline>
                                    <path style="fill:#BF8104;" d="M226.574,266.378c32.193,0,58.29,26.097,58.29,58.29s-26.097,58.29-58.29,58.29l40.755,21.857
                       l136.981-14.572l-43.717-139.896l-126.781,1.457"></path>

                                    <path style="fill:#F8B40E;" d="M125.975,111.91h51.376c21.327,0,38.617,17.289,38.617,38.617l0,0
                           c0,21.327-17.289,38.617-38.617,38.617h-51.376C125.975,189.144,125.975,111.91,125.975,111.91z"></path>
                                    <path style="fill:#F8B40E;" d="M178.885,356.931l-49.607-23.551l-25.163-11.94l53.921-132.296h30.604
                           C188.639,189.146,136.184,274.962,178.885,356.931z"></path>
                                    <polyline style="fill:#F8B40E;" points="353.306,417.935 340.735,417.935 146.377,417.935 146.377,382.959 307.692,382.959 	"></polyline>

                                    <circle style="fill:#2C4046;" cx="410.139" cy="417.937" r="75.778"></circle>
                                    <polygon style="fill:#DD9B0A;" points="170.033,189.146 129.278,333.382 104.115,321.441 158.035,189.146 "></polygon>
                                    <circle style="fill:#9AA7B8;" cx="410.139" cy="417.937" r="41.463"></circle>
                                    <circle style="fill:#2C4046;" cx="104.121" cy="417.937" r="75.778"></circle>
                                    <circle style="fill:#9AA7B8;" cx="104.121" cy="417.937" r="41.463"></circle>
                                    <path style="fill:#F8B40E;" d="M340.736,417.932c-23.923-12.866-40.207-38.196-40.207-67.346c0-42.317,34.276-76.492,76.492-76.492
                       c42.317,0,127.353,23.219,127.353,143.838L340.736,417.932L340.736,417.932z"></path>
                                    <path style="fill:#DD9B0A;" d="M325.303,362.244c0-42.317,34.276-76.492,76.492-76.492c12.138,0,27.793,1.918,43.946,7.489
                       c-23.996-14.775-50.372-19.148-68.718-19.148c-42.217,0-76.492,34.175-76.492,76.492c0,29.149,16.284,54.48,40.207,67.346h8.61
                       C334.552,404.003,325.303,384.21,325.303,362.244z"></path>
                                    <path style="fill:#F8B40E;" d="M200.608,417.932c0-53.29-43.201-96.491-96.491-96.491S7.625,364.641,7.625,417.932H200.608z"></path>
                                    <path style="fill:#DD9B0A;" d="M120.141,322.772c-5.213-0.871-10.565-1.332-16.025-1.332c-53.29,0-96.491,43.201-96.491,96.491
                       h32.049C39.675,370.101,74.479,330.407,120.141,322.772z"></path>
                                    <rect x="125.978" y="111.908" style="fill:#A0D9F2;" width="23.316" height="77.235"></rect>

                                    <path style="fill:#444D56;" d="M390.51,223.433l-148.287,10.465c-17.052,1.204-30.269,15.387-30.269,32.481l0,0h206.516v-16.89
                           C418.468,234.339,405.621,222.366,390.51,223.433z"></path>
                                    <circle style="fill:#444D56;" cx="193.562" cy="150.529" r="22.406"></circle>

                                    <path style="fill:#E6E6E6;" d="M193.559,89.257L193.559,89.257c-7.646,0-13.844-6.198-13.844-13.844V32.136
                       c0-7.646,6.198-13.844,13.844-13.844l0,0c7.646,0,13.844,6.198,13.844,13.844v43.277C207.403,83.059,201.204,89.257,193.559,89.257z
                       "></path>
                                    <path d="M489.165,325.875v-66.779c0-4.211-3.414-7.625-7.625-7.625h-42.262c-4.211,0-7.625,3.414-7.625,7.625v18.381
                       c-3.588-1.498-7.137-2.808-10.606-3.932c2.94-1.058,5.045-3.863,5.045-7.168v-16.89c0-9.328-3.914-18.326-10.738-24.687
                       c-6.824-6.361-16.079-9.627-25.382-8.975L241.686,226.29c-20.91,1.475-37.296,19.022-37.357,39.97
                       c-0.012,4.258,3.377,7.74,7.635,7.74h13.761c27.743,0,50.981,21.949,51.507,49.687c0.539,28.384-22.394,51.646-50.656,51.646
                       h-27.461c-3.622-8.045-8.241-15.549-13.692-22.358c-16.566-32.068-20.062-68.533-10.384-108.398
                       c7.092-29.207,19.072-49.724,20.037-51.349c16.276-6.781,27.864-22.603,28.477-41.16c0.026-0.511,0.04-1.026,0.04-1.543
                       s-0.013-1.032-0.04-1.543c-0.533-16.141-9.366-30.215-22.37-38.068V95.457c8.08-3.084,13.844-10.894,13.844-20.044V32.664
                       c0-11.626-9.023-21.541-20.641-21.98c-12.214-0.462-22.296,9.34-22.296,21.452v43.277c0,9.15,5.764,16.96,13.844,20.044v9.639
                       c-2.783-0.525-5.649-0.811-8.583-0.811h-51.376c-4.211,0-7.625,3.414-7.625,7.625v77.235c0,4.211,3.414,7.625,7.625,7.625h20.718
                       l-11.474,28.155c-1.589,3.9,0.284,8.349,4.183,9.938l0,0c3.9,1.589,8.349-0.284,9.938-4.183l13.821-33.911h12.825
                       c-4.667,9.701-11.04,24.946-15.645,43.716c-7.722,31.481-7.67,61.999-0.029,89.835c-13.28-8.548-28.62-14.157-45.097-15.912
                       l21.526-52.817c1.589-3.9-0.284-8.349-4.183-9.938l0,0c-3.9-1.589-8.349,0.284-9.938,4.183l-23.683,58.108
                       C43.905,316.654-0.03,362.291,0,417.991c0.002,4.186,3.438,7.566,7.625,7.566h13.458c3.864,42.424,39.618,75.774,83.032,75.774
                       c43.418,0,79.176-33.349,83.041-75.771h90.705c4.211,0,7.625-3.414,7.625-7.625l0,0c0-4.211-3.414-7.625-7.625-7.625h-69.908
                       c-0.492-6.775-1.64-13.369-3.372-19.726h98.421c3.909,7.241,8.877,13.892,14.763,19.726h-4.322c-4.211,0-7.625,3.414-7.625,7.625
                       l0,0c0,4.211,3.414,7.625,7.625,7.625h13.658c3.866,42.424,39.623,75.774,83.037,75.774c43.416,0,79.172-33.352,83.038-75.777h11.2
                       c4.22,0,7.626-3.453,7.625-7.673C511.994,380.905,504.327,350.128,489.165,325.875z M187.339,32.136c0-3.429,2.79-6.22,6.22-6.22
                       s6.22,2.791,6.22,6.22v43.277c0,3.429-2.791,6.22-6.22,6.22s-6.22-2.791-6.22-6.22V32.136z M193.559,135.742
                       c8.152,0,14.784,6.632,14.784,14.784c0,8.152-6.632,14.785-14.784,14.785s-14.784-6.632-14.784-14.785
                       C178.774,142.375,185.406,135.742,193.559,135.742z M133.599,119.535h8.068v61.985h-8.068V119.535z M158.034,181.519h-1.119v-61.985
                       h20.436c2.978,0,5.856,0.431,8.583,1.218v0.724c-12.879,3.383-22.409,15.123-22.409,29.051c0,14.397,10.184,26.455,23.725,29.362
                       c-3.111,1.051-6.438,1.631-9.899,1.631h-19.317V181.519z M104.117,329.065c46.432,0,84.662,35.798,88.543,81.243H15.573
                       C19.454,364.863,57.684,329.065,104.117,329.065z M137.079,425.556c-3.469,14.995-16.926,26.21-32.964,26.21
                       s-29.496-11.215-32.964-26.21H137.079z M104.115,486.081c-34.999,0-63.907-26.524-67.709-60.525H55.62
                       c3.674,23.456,24.019,41.459,48.495,41.459c24.475,0,44.82-18.001,48.495-41.456h19.224
                       C168.029,459.559,139.117,486.081,104.115,486.081z M446.903,266.722h27.013v39.532c-3.916-4.086-8.121-7.914-12.634-11.464
                       c-4.72-3.713-9.542-6.931-14.379-9.743L446.903,266.722L446.903,266.722z M220.778,258.754c3.057-9.438,11.625-16.52,21.98-17.251
                       l148.287-10.465c5.173-0.367,10.116,1.382,13.912,4.919c3.796,3.537,5.886,8.343,5.886,13.531v9.265H220.778z M268.684,375.335
                       c14.534-12.101,23.805-30.319,23.805-50.666s-9.27-38.565-23.805-50.666h73.613c-29.099,13.247-49.391,42.581-49.391,76.584
                       c0,8.526,1.288,16.85,3.712,24.748h-27.934V375.335z M410.138,486.084c-35,0-63.909-26.524-67.714-60.525h10.883v-0.003h8.339
                       c3.674,23.459,24.019,41.463,48.493,41.463s44.818-18.005,48.492-41.463h19.223C474.049,459.559,445.139,486.084,410.138,486.084z
                        M377.176,425.556H443.1c-3.469,14.997-16.925,26.214-32.961,26.214S380.644,440.554,377.176,425.556z M342.71,410.307
                       c-21.365-12.245-34.555-34.955-34.555-59.721c0-37.974,30.895-68.868,68.868-68.868c12.922,0,46.082,2.441,74.832,25.055
                       c28.268,22.234,43.312,57.039,44.778,103.533H342.71V410.307z"></path>
                                    <path d="M446.082,319.64h-74.319c-4.211,0-7.625,3.414-7.625,7.625c0,4.211,3.414,7.625,7.625,7.625h74.319
                       c4.211,0,7.625-3.414,7.625-7.625C453.707,323.054,450.293,319.64,446.082,319.64z"></path>
                                    <path d="M426.651,344.238h-54.888c-4.211,0-7.625,3.414-7.625,7.625s3.414,7.625,7.625,7.625h54.888
                       c4.211,0,7.625-3.414,7.625-7.625S430.862,344.238,426.651,344.238z"></path>
                                    <path d="M407.219,368.528h-35.455c-4.211,0-7.625,3.414-7.625,7.625s3.414,7.625,7.625,7.625h35.455
                       c4.211,0,7.625-3.414,7.625-7.625S411.429,368.528,407.219,368.528z"></path>
                                </svg>