<svg height="512pt" viewBox="0 0 512 512" width="512pt" xmlns="http://www.w3.org/2000/svg"><path d="m416 512h-320c-53.023438 0-96-42.976562-96-96v-320c0-53.023438 42.976562-96 96-96h320c53.023438 0 96 42.976562 96 96v320c0 53.023438-42.976562 96-96 96zm0 0" fill="#f5e6fe"/><path d="m357.328125 234.671875h-202.65625c-8.832031 0-16 7.167969-16 16v10.671875c0 8.832031 7.167969 16 16 16h202.671875c8.832031 0 16-7.167969 16-16v-10.671875c-.015625-8.847656-7.167969-16-16.015625-16zm0 0" fill="#be63f9"/></svg>