<svg id="Capa_1" enable-background="new 0 0 512 512" height="512" viewBox="0 0 512 512" width="512" xmlns="http://www.w3.org/2000/svg"><g><g fill="#ffda8f"><path d="m375.436 115.223h51.913v51.91h-51.913z" transform="matrix(-.741 -.672 .672 -.741 603.825 515.436)"/><path d="m85.948 115.223h51.913v51.91h-51.913z" transform="matrix(.741 -.672 .672 .741 -65.834 111.804)"/><ellipse cx="256" cy="307.248" rx="195" ry="194.89"/></g><ellipse cx="256" cy="307.248" fill="#fff" rx="155" ry="154.913"/><path d="m191.092 30.897v31.138l25.963 12.974 12.982 38.923h51.926l12.982-38.923 25.963-12.974v-31.138c0-11.465-9.299-20.759-20.77-20.759h-88.274c-11.473.001-20.772 9.295-20.772 20.759z" fill="#ffda8f"/><path d="m411 307.251c0 55.109-28.79 103.492-72.17 130.956l-82.83-131.236v-154.633c85.6 0 155 69.351 155 154.913z" fill="#ff7a7a"/><g><path d="m256 472.161c90.982 0 165-73.979 165-164.913 0-90.933-74.019-164.912-165-164.912s-165 73.979-165 164.912c0 90.934 74.018 164.913 165 164.913zm145-164.913c0 47.878-23.36 90.401-59.281 116.802l-70.934-112.386 95.046-39.431c5.102-2.116 7.521-7.967 5.404-13.068-2.116-5.103-7.969-7.524-13.068-5.404l-92.167 38.236v-129.31c75 5.152 135 68.016 135 144.561zm-155-144.561v147.177l78.832 124.902c-20.491 11.091-43.938 17.396-68.832 17.396-79.953 0-145-65.008-145-144.913 0-76.546 60-139.41 135-144.562z"/><path d="m456.83 265.95c-2.69-13.15-6.71-26.091-11.94-38.46-5.14-12.141-11.5-23.851-18.9-34.801-3.211-4.746-6.639-9.358-10.245-13.832l29.725-32.729c1.784-1.965 2.714-4.557 2.586-7.207s-1.305-5.141-3.27-6.923l-38.449-34.88c-4.089-3.71-10.411-3.402-14.121.683l-30.675 33.775c-8.269-4.971-16.894-9.369-25.751-13.116-12.37-5.23-25.311-9.25-38.48-11.94-.725-.148-1.454-.284-2.182-.424l7.992-23.975 22.304-11.132c3.389-1.693 5.576-5.166 5.576-8.954v-31.138c0-16.96-13.896-30.897-30.863-30.897h-88.274c-16.967 0-30.863 13.937-30.863 30.897v31.138c0 3.788 2.187 7.252 5.576 8.945l22.28 11.123 8.005 24.01c-.72.138-1.449.259-2.166.406-13.17 2.69-26.113 6.71-38.482 11.94-8.557 3.62-16.895 7.852-24.91 12.616l-30.22-33.274c-3.712-4.089-10.034-4.395-14.122-.684l-38.449 34.88c-1.965 1.782-3.141 4.272-3.27 6.923s.802 5.242 2.585 7.206l29.038 31.974c-3.831 4.708-7.464 9.576-10.855 14.589-7.4 10.95-13.76 22.66-18.9 34.801-5.23 12.369-9.25 25.31-11.94 38.46-2.77 13.5-4.17 27.4-4.17 41.3 0 25.76 4.72 50.88 14.04 74.66.75 1.909 2.04 3.52 3.74 4.659 2.7 1.811 6.18 2.2 9.22 1.011 5.13-2.011 7.67-7.83 5.66-12.96-8.4-21.45-12.66-44.12-12.66-67.37 0-49.37 19.25-95.8 54.18-130.74 29.059-29.017 66.066-47.195 106.099-52.51h49.441c40.033 5.314 77.04 23.492 106.099 52.51 34.931 34.93 54.17 81.36 54.181 130.74 0 49.37-19.25 95.8-54.181 130.729-34.96 34.92-81.42 54.16-130.82 54.16-46.04-.01-90.17-17.02-124.26-47.92-1.85-1.67-4.23-2.59-6.72-2.59-2.81 0-5.52 1.2-7.41 3.28-3.7 4.09-3.39 10.43.69 14.13 9.1 8.25 18.99 15.72 29.41 22.21 10.52 6.55 21.69 12.11 33.21 16.64 23.91 9.41 49.16 14.11 75.06 14.11h.021c13.911 0 27.81-1.33 41.31-4.1 13.17-2.69 26.11-6.666 38.48-11.906 12.149-5.13 23.87-11.472 34.819-18.862 10.86-7.33 21.07-15.741 30.341-25.011 9.279-9.271 17.699-19.476 25.039-30.316 7.4-10.96 13.761-22.667 18.9-34.807 5.23-12.36 9.25-25.299 11.94-38.459 2.77-13.5 4.17-27.39 4.17-41.29.001-13.899-1.399-27.798-4.169-41.298zm-345.78-103.58c-.254.254-.5.516-.753.771l-20.937-23.053 23.636-21.441 21.448 23.616c-8.277 6.106-16.127 12.84-23.394 20.107zm163.707-58.37h-37.514l-7.488-22.486c10.764-2.782 30.328-5.826 52.476.059zm-57.076-39.835-16.681-8.311v-24.957c0-5.932 4.924-10.897 10.863-10.897h88.274c5.938 0 10.863 4.965 10.863 10.897v24.956l-16.751 8.357c-34.869-11.574-65.22-3.873-76.568-.045zm161.167 78.104 21.454-23.622 23.636 21.441-21.454 23.622z"/><path d="m140.99 297.38c-5.52.01-10 4.49-9.99 10.01.01 5.521 4.49 10 10.01 9.99s10-4.49 9.99-10.01c-.01-5.53-4.49-10-10.01-9.99z"/><path d="m256.07 432.18c5.52 0 10-4.479 10-10-.01-5.53-4.49-10-10.01-10-5.52.01-10 4.48-9.99 10.01 0 5.52 4.48 9.999 10 9.99z"/><path d="m361 307.01v.24c0 5.52 4.479 10 10 10 5.52 0 10-4.48 10-10v-.29c0-5.521-4.5-9.99-10.021-9.97-5.529.01-9.979 4.489-9.979 10.02z"/><circle cx="95.434" cy="417.87" r="10"/></g></g></svg>