<svg height="481pt" viewBox="0 0 481.83374 481" width="481pt" xmlns="http://www.w3.org/2000/svg"><path d="m297.832031 296.417969h165.761719c18.347656-49.105469 11.476562-104.085938-18.390625-147.164063-29.871094-43.082031-78.949219-68.796875-131.371094-68.835937h-264c-22.089843 0-40 17.90625-40 40 0 22.089843 17.910157 40 40 40h32c-22.089843 0-40 17.90625-40 40 0 22.089843 17.910157 40 40 40h48c-22.089843 0-40 17.90625-40 40 0 22.089843 17.910157 40 40 40h45.601563c-22.089844.660156-39.460938 19.109375-38.800782 41.199219.664063 22.089843 19.109376 39.460937 41.199219 38.800781h120zm0 0" fill="#57b7eb"/><path d="m313.832031 80.417969c10.75 0 21.46875 1.074219 32 3.199219v-43.199219h-64v40zm0 0" fill="#7ab92d"/><path d="m257.832031 8.417969h112v32h-112zm0 0" fill="#a1d51c"/><path d="m329.832031 240.417969c0 8.835937-7.160156 16-16 16-8.835937 0-16-7.164063-16-16 0-8.835938 7.164063-16 16-16 8.839844 0 16 7.164062 16 16zm0 0" fill="#fcbc04"/><path d="m9.832031 120.417969h112c22.09375 0 40 17.90625 40 40h-112c-22.089843 0-40-17.910157-40-40zm0 0" fill="#4891d3"/><path d="m41.832031 200.417969h112c22.09375 0 40 17.90625 40 40h-112c-22.089843 0-40-17.910157-40-40zm0 0" fill="#4891d3"/><path d="m89.832031 280.417969h112c22.09375 0 40 17.90625 40 40h-112c-22.089843 0-40-17.910157-40-40zm0 0" fill="#4891d3"/><path d="m137.832031 360.417969h88c22.09375 0 40 17.90625 40 40h-88c-22.089843 0-40-17.910157-40-40zm0 0" fill="#4891d3"/><path d="m417.832031 276.417969c-.019531 6.695312-.527343 13.378906-1.519531 20h23.441406c26.207032-65.65625-.671875-140.542969-62.648437-174.546875-61.976563-34-139.582031-16.433594-180.871094 40.945312 42.605469-30.703125 98.820313-34.949218 145.550781-10.992187 46.734375 23.957031 76.105469 72.078125 76.046875 124.59375zm0 0" fill="#4891d3"/><path d="m325.113281 229.136719c-3.714843-3.691407-9-5.332031-14.152343-4.390625-5.152344.941406-9.515626 4.34375-11.6875 9.109375 6.050781-2.6875 13.132812-1.375 17.8125 3.308593 4.683593 4.679688 5.996093 11.761719 3.308593 17.8125 4.765625-2.167968 8.167969-6.535156 9.109375-11.6875.941406-5.152343-.699218-10.4375-4.390625-14.152343zm0 0" fill="#f9e109"/><path d="m305.832031 48.417969h40v16h-40c-4.417969 0-8-3.582031-8-8s3.582031-8 8-8zm0 0" fill="#a1d51c"/><path d="m273.832031 8.417969h96v16h-80c-8.835937 0-16-7.164063-16-16zm0 0" fill="#c4f236"/><path d="m297.832031 296.417969h176v176h-176zm0 0" fill="#e59730"/><path d="m329.832031 296.417969h144v144h-48c-53.019531 0-96-42.980469-96-96zm0 0" fill="#fcbc04"/><path d="m361.832031 296.417969h48v64h-48zm0 0" fill="#f9e109"/><g fill="#39519d"><path d="m359.113281 195.136719c-1.5-1.515625-3.546875-2.367188-5.679687-2.367188-2.132813 0-4.175782.851563-5.679688 2.367188l-24 24c-10.550781-5.019531-23.179687-1.714844-29.917968 7.828125-6.738282 9.546875-5.625 22.554687 2.636718 30.8125 8.257813 8.261718 21.269532 9.375 30.8125 2.636718 9.542969-6.738281 12.847656-19.367187 7.828125-29.917968l24-24c1.515625-1.5 2.367188-3.546875 2.367188-5.679688 0-2.132812-.851563-4.175781-2.367188-5.679687zm-39.597656 50.960937c-3.140625 3.136719-8.226563 3.136719-11.363281 0-3.136719-3.136718-3.136719-8.222656 0-11.359375 1.503906-1.515625 3.546875-2.367187 5.679687-2.367187 2.136719 0 4.179688.851562 5.683594 2.367187 1.511719 1.5 2.363281 3.546875 2.363281 5.679688 0 2.132812-.851562 4.175781-2.363281 5.679687zm0 0"/><path d="m217.832031 184.417969c0-4.417969-3.578125-8-8-8h-64c-4.417969 0-8 3.582031-8 8s3.582031 8 8 8h64c4.421875 0 8-3.582031 8-8zm0 0"/><path d="m257.832031 272.417969h-96c-4.417969 0-8 3.582031-8 8s3.582031 8 8 8h96c4.421875 0 8-3.582031 8-8s-3.578125-8-8-8zm0 0"/><path d="m185.832031 240.417969h64c4.421875 0 8-3.582031 8-8s-3.578125-8-8-8h-64c-4.417969 0-8 3.582031-8 8s3.582031 8 8 8zm0 0"/><path d="m65.832031 200.417969c0 4.417969 3.582031 8 8 8h32c4.421875 0 8-3.582031 8-8s-3.578125-8-8-8h-32c-4.417969 0-8 3.582031-8 8zm0 0"/><path d="m89.832031 104.417969h-40c-4.417969 0-8 3.582031-8 8s3.582031 8 8 8h40c4.421875 0 8-3.582031 8-8s-3.578125-8-8-8zm0 0"/><path d="m233.832031 328.417969c4.421875 0 8-3.582031 8-8s-3.578125-8-8-8h-24c-4.417969 0-8 3.582031-8 8s3.582031 8 8 8zm0 0"/><path d="m185.832031 88.417969h56.722657c-4.242188 2-8 4.078125-12.320313 6.398437h-.402344c-15.371093 8.957032-29.222656 20.296875-41.039062 33.601563h-66.960938c-4.417969 0-8 3.582031-8 8s3.582031 8 8 8h70.5625c2.335938 0 4.558594-1.023438 6.078125-2.800781 9.445313-11.015626 20.410156-20.628907 32.5625-28.558594l11.839844 20.476562c2.207031 3.84375 7.113281 5.171875 10.957031 2.960938 3.84375-2.207032 5.171875-7.117188 2.960938-10.960938l-11.839844-20.476562c18.890625-9.785156 39.640625-15.457032 60.878906-16.640625v24c0 4.417969 3.582031 8 8 8 4.421875 0 8-3.582031 8-8v-23.601563c21.195313.976563 41.945313 6.429688 60.882813 16l-11.839844 20.402344c-2.210938 3.84375-.886719 8.75 2.957031 10.957031 3.84375 2.210938 8.753907.886719 10.960938-2.957031l11.761719-20.480469c17.839843 11.589844 33.046874 26.796875 44.640624 44.636719l-20.480468 11.761719c-3.84375 2.210937-5.171875 7.117187-2.960938 10.960937 2.207032 3.84375 7.117188 5.167969 10.960938 2.960938l20.398437-11.839844c9.863281 18.976562 15.566407 39.839844 16.71875 61.199219h-24c-4.417969 0-8 3.582031-8 8s3.582031 8 8 8h24c0 4.71875-.796875 9.519531-1.597656 14.800781-.730469 4.296875 2.117187 8.386719 6.398437 9.199219h1.199219c3.992188.042969 7.402344-2.855469 8-6.800781 1.296875-8.339844 1.964844-16.761719 2-25.199219-.003906-29.203125-7.671875-57.890625-22.238281-83.199219.035156-.265625.035156-.535156 0-.800781l-.71875-.800781c-14.578125-24.773438-35.226562-45.425782-60-60l-.800781-.71875c-.265625-.035157-.535157-.035157-.800781 0-13.585938-7.832032-28.210938-13.703126-43.441407-17.441407v-29.039062h16c4.421875 0 8-3.582031 8-8v-32c0-4.417969-3.578125-8-8-8h-144c-4.417969 0-8 3.582031-8 8s3.582031 8 8 8h136v16h-104c-4.417969 0-8 3.582031-8 8s3.582031 8 8 8h16v24h-88c-4.417969 0-8 3.582031-8 8s3.582031 8 8 8zm104-40h48v25.917969c-7.941406-1.207032-15.960937-1.847657-24-1.917969h-24zm0 0"/><path d="m265.355469 392.976562c.746093-1.992187.671875-4.203124-.214844-6.140624s-2.507813-3.441407-4.507813-4.179688c-5.464843-2.0625-10.808593-4.4375-16-7.121094l11.761719-20.238281c2.207031-3.84375.882813-8.75-2.960937-10.960937-3.84375-2.207032-8.75-.882813-10.960938 2.960937l-11.277344 20.320313c-6.195312-3.984376-12.101562-8.394532-17.679687-13.199219-1.460937-1.289063-3.335937-2-5.28125-2h-30.402344c-4.417969 0-8 3.582031-8 8s3.582031 8 8 8h27.441407c5.851562 4.878906 11.996093 9.394531 18.398437 13.519531l5.121094 3.039062c.308593.359376.65625.683594 1.039062.960938.679688.367188 1.40625.636719 2.160157.800781 3.523437 2 7.203124 3.917969 10.882812 5.679688h-65.042969c-17.671875.507812-32.410156-13.40625-32.917969-31.082031-.507812-17.671876 13.40625-32.410157 31.078126-32.917969 2.808593-.210938 5.300781-1.882813 6.5625-4.402344 1.429687-2.472656 1.429687-5.523437 0-8-1.5625-2.382813-4.277344-3.753906-7.121094-3.597656h-45.601563c-17.671875 0-32-14.328125-32-32 0-17.675781 14.328125-32 32-32 4.421875 0 8-3.582031 8-8s-3.578125-8-8-8h-48c-17.671875 0-32-14.328125-32-32 0-17.675781 14.328125-32 32-32 4.421875 0 8-3.582031 8-8s-3.578125-8-8-8h-32c-17.671875 0-32-14.328125-32-32 0-17.675781 14.328125-32 32-32h82c4.421875 0 8-3.582031 8-8s-3.578125-8-8-8h-82c-26.507812-.996094-48.804687 19.6875-49.7968748 46.199219-.9960942 26.507812 19.6874998 48.804687 46.1992188 49.800781-12.597656 14.082031-15.761719 34.25-8.078125 51.515625 7.683594 17.261718 24.78125 28.414062 43.675781 28.484375h12.242188c-12.617188 14.105469-15.769531 34.308593-8.042969 51.585937 7.722656 17.277344 24.875 28.40625 43.800781 28.414063h12.320313c-12.605469 14.09375-15.761719 34.277343-8.058594 51.550781 7.703125 17.269531 24.828125 28.410156 43.738281 28.449219h80c4.421875 0 8-3.582031 8-8-.039062-1.890625-.746093-3.703125-2-5.121094.640625-.679687 1.152344-1.464844 1.523438-2.320313zm0 0"/><path d="m473.832031 288.417969h-176c-4.417969 0-8 3.582031-8 8v120c0 4.417969 3.582031 8 8 8 4.421875 0 8-3.582031 8-8v-112h48v56c0 4.417969 3.582031 8 8 8h48c4.421875 0 8-3.582031 8-8v-56h48v160h-160v-14.960938c0-4.417969-3.578125-8-8-8-4.417969 0-8 3.582031-8 8v22.960938c0 4.417969 3.582031 8 8 8h176c4.421875 0 8-3.582031 8-8v-176c0-4.417969-3.578125-8-8-8zm-72 64h-32v-48h32zm0 0"/><path d="m329.832031 416.417969h32c4.421875 0 8-3.582031 8-8s-3.578125-8-8-8h-32c-4.417969 0-8 3.582031-8 8s3.582031 8 8 8zm0 0"/><path d="m329.832031 448.417969h16c4.421875 0 8-3.582031 8-8s-3.578125-8-8-8h-16c-4.417969 0-8 3.582031-8 8s3.582031 8 8 8zm0 0"/></g></svg>