<svg height="512pt" viewBox="0 0 512 512" width="512pt" xmlns="http://www.w3.org/2000/svg"><path d="m416 512h-320c-53.023438 0-96-42.976562-96-96v-320c0-53.023438 42.976562-96 96-96h320c53.023438 0 96 42.976562 96 96v320c0 53.023438-42.976562 96-96 96zm0 0" fill="#ffe6e2"/><g fill="#fc573b"><path d="m342.734375 312.574219-143.308594-143.308594c-6.257812-6.257813-16.386719-6.257813-22.625 0l-7.535156 7.535156c-6.257813 6.253907-6.257813 16.382813 0 22.625l143.308594 143.308594c6.257812 6.257813 16.386719 6.257813 22.625 0l7.535156-7.535156c6.257813-6.253907 6.257813-16.382813 0-22.625zm0 0"/><path d="m312.574219 169.265625-143.308594 143.308594c-6.257813 6.257812-6.257813 16.386719 0 22.625l7.535156 7.535156c6.253907 6.257813 16.382813 6.257813 22.625 0l143.308594-143.308594c6.257813-6.257812 6.257813-16.386719 0-22.625l-7.535156-7.535156c-6.253907-6.257813-16.382813-6.257813-22.625 0zm0 0"/></g></svg>