<svg height="512pt" viewBox="0 0 512 512" width="512pt" xmlns="http://www.w3.org/2000/svg"><path d="m416 512h-320c-53.023438 0-96-42.976562-96-96v-320c0-53.023438 42.976562-96 96-96h320c53.023438 0 96 42.976562 96 96v320c0 53.023438-42.976562 96-96 96zm0 0" fill="#fff9dd" style="color: gr;fill: #b6fbb6;"/><path d="m281.296875 313.296875c-6.050781 6.046875-14.082031 9.375-22.625 9.375s-16.574219-3.328125-22.625-9.375l-45.328125-45.328125c-6.046875-6.046875-9.375-14.082031-9.375-22.625s3.328125-16.574219 9.375-22.625c6.050781-6.046875 14.082031-9.375 22.625-9.375s16.578125 3.328125 22.625 9.375l22.703125 22.707031 62.6875-62.691406c-20.480469-17.453125-46.992187-28.0625-76.03125-28.0625-64.800781 0-117.328125 52.527344-117.328125 117.328125s52.527344 117.328125 117.328125 117.328125 117.34375-52.527344 117.34375-117.328125c0-12.128906-1.839844-23.824219-5.265625-34.832031zm0 0" fill="#ffd200" style="fill: #008000c9;"/><path d="m258.671875 301.328125c-2.734375 0-5.457031-1.039063-7.535156-3.121094l-45.328125-45.328125c-4.160156-4.160156-4.160156-10.910156 0-15.085937s10.910156-4.160157 15.085937 0l37.792969 37.792969 107.121094-107.121094c4.160156-4.160156 10.910156-4.160156 15.085937 0s4.160157 10.910156 0 15.085937l-114.671875 114.671875c-2.09375 2.066406-4.832031 3.105469-7.550781 3.105469zm0 0"  style="fill: #0080007a;"/></svg>