<svg height="512pt" viewBox="0 0 512 512" width="512pt" xmlns="http://www.w3.org/2000/svg"><path d="m416 512h-320c-53.023438 0-96-42.976562-96-96v-320c0-53.023438 42.976562-96 96-96h320c53.023438 0 96 42.976562 96 96v320c0 53.007812-42.992188 96-96 96zm0 0" fill="#fff9dd"/><path d="m383.328125 255.328125c0 70.691406-57.308594 128-128 128s-128-57.308594-128-128 57.308594-128 128-128 128 57.308594 128 128zm0 0" fill="#ffd200"/><path d="m338 266h-82.671875c-5.886719 0-10.671875-4.785156-10.671875-10.671875v-82.671875c0-5.886719 4.769531-10.671875 10.671875-10.671875 5.886719 0 10.671875 4.785156 10.671875 10.671875v72h72c5.886719 0 10.671875 4.785156 10.671875 10.671875s-4.785156 10.671875-10.671875 10.671875zm0 0" fill="#ffe777"/></svg>