<svg height="512pt" viewBox="0 0 512 512" width="512pt" xmlns="http://www.w3.org/2000/svg"><path d="m154.519531 53.378906c0-10.703125-8.675781-19.378906-19.378906-19.378906h-106.566406c-10.257813 0-18.574219 8.316406-18.574219 18.574219v3.296875c0 10.257812 8.316406 18.574218 18.574219 18.574218h9.195312c10.257813 0 18.574219 8.316407 18.574219 18.574219 0 10.257813-8.316406 18.574219-18.574219 18.574219h-9.195312c-10.257813 0-18.574219 8.316406-18.574219 18.574219v3.257812c0 10.257813 8.316406 18.574219 18.574219 18.574219h145.324219c21.167968 0 38.332031-17.160156 38.332031-38.328125v-2.582031c0-21.167969-17.164063-38.328125-38.332031-38.328125-10.703126 0-19.378907-8.675781-19.378907-19.382813zm0 0" fill="#c9f3ff"/><path d="m443.398438 197.398438c0-103.609376-84.085938-187.582032-187.738282-187.398438-103.503906.183594-187.777344 85.238281-187.054687 188.738281.308593 44.347657 16.03125 85.027344 42.0625 116.96875h-.011719l145.34375 186.292969 144.652344-185.316406h-.109375c26.769531-32.40625 42.855469-73.964844 42.855469-119.285156zm0 0" fill="#ff5d5d"/><path d="m372.109375 200.390625c0 64.125-51.984375 116.109375-116.109375 116.109375s-116.109375-51.984375-116.109375-116.109375 51.984375-116.109375 116.109375-116.109375 116.109375 51.984375 116.109375 116.109375zm0 0" fill="#fff"/><path d="m330.488281 425c0 12.703125 10.296875 23 23 23h126.46875c12.175781 0 22.042969-9.867188 22.042969-22.042969v-3.914062c0-12.175781-9.867188-22.042969-22.042969-22.042969h-10.914062c-12.175781 0-22.042969-9.867188-22.042969-22.042969s9.867188-22.042969 22.042969-22.042969h10.914062c12.175781 0 22.042969-9.867187 22.042969-22.042968v-3.867188c0-12.175781-9.867188-22.042968-22.042969-22.042968h-172.46875c-25.121093 0-45.488281 20.367187-45.488281 45.488281v3.0625c0 25.121093 20.367188 45.488281 45.488281 45.488281 12.703125 0 23 10.296875 23 23zm0 0" fill="#c9f3ff"/><path d="m469.042969 365.914062h10.914062c17.667969 0 32.042969-14.375 32.042969-32.042968v-3.867188c0-17.667968-14.375-32.042968-32.042969-32.042968h-54.058593c18.039062-30.355469 27.5-64.777344 27.5-100.5625 0-52.792969-20.578126-102.410157-57.941407-139.707032-37.277343-37.210937-86.789062-57.691406-139.453125-57.691406-.121094 0-.242187 0-.363281 0-37.042969.0664062-72.539063 10.363281-103.332031 29.539062-4.964844-3.59375-10.914063-5.539062-17.167969-5.539062h-106.566406c-15.757813 0-28.574219 12.816406-28.574219 28.574219v3.296875c0 15.757812 12.816406 28.574218 28.574219 28.574218h9.195312c4.730469 0 8.574219 3.847657 8.574219 8.574219 0 4.726563-3.84375 8.574219-8.574219 8.574219h-9.195312c-15.757813 0-28.574219 12.816406-28.574219 28.574219v3.257812c0 15.757813 12.816406 28.574219 28.574219 28.574219h33.214843c-2.183593 12.023438-3.269531 24.332031-3.183593 36.808594.3125 44.621094 15.9375 88.226562 44.011719 122.847656.050781.066406.101562.132812.15625.203125l132.742187 170.140625h-77.847656c-5.523438 0-10 4.476562-10 10s4.476562 10 10 10h214.441406c5.523437 0 10-4.476562 10-10s-4.476563-10-10-10h-95.617187l45.257812-57.984375c3.933594 13.824219 16.667969 23.984375 31.738281 23.984375h126.46875c17.667969 0 32.042969-14.375 32.042969-32.042969v-3.914062c0-17.667969-14.375-32.042969-32.042969-32.042969h-10.914062c-6.640625 0-12.042969-5.402344-12.042969-12.042969s5.402344-12.042969 12.042969-12.042969zm-440.46875-223.914062c-4.726563 0-8.574219-3.847656-8.574219-8.574219v-3.257812c0-4.730469 3.847656-8.574219 8.574219-8.574219h9.195312c15.757813 0 28.574219-12.820312 28.574219-28.574219 0-15.753906-12.816406-28.574219-28.574219-28.574219h-9.195312c-4.726563 0-8.574219-3.84375-8.574219-8.574218v-3.296875c0-4.726563 3.847656-8.574219 8.574219-8.574219h103.480469c-5.578126 4.535156-10.953126 9.386719-16.09375 14.566406-23.550782 23.761719-40.34375 52.339844-49.449219 83.433594zm89.847656 167.386719c-25.765625-31.609375-39.53125-69.894531-39.820313-110.71875-.328124-47.386719 17.984376-92.144531 51.5625-126.019531 33.574219-33.867188 78.148438-52.5625 125.511719-52.648438h.328125c47.324219 0 91.824219 18.40625 125.324219 51.847656 33.578125 33.519532 52.074219 78.105469 52.074219 125.550782 0 36.242187-10.792969 70.917968-31.242188 100.5625h-66.351562c28.246094-23.144532 46.300781-58.285157 46.300781-97.570313 0-69.535156-56.574219-126.109375-126.109375-126.109375s-126.109375 56.574219-126.109375 126.109375c0 69.539063 56.574219 126.109375 126.109375 126.109375 1.011719 0 2.023438-.015625 3.03125-.039062-4.472656 7.996093-7.03125 17.195312-7.03125 26.988281v3.0625c0 30.59375 24.894531 55.488281 55.488281 55.488281 1.855469 0 3.617188.398438 5.214844 1.101562l-56.699219 72.644532-137.179687-175.824219c-.128907-.183594-.261719-.359375-.402344-.535156zm168.800781-7.578125c-9.875 3.046875-20.359375 4.691406-31.222656 4.691406-58.507812 0-106.109375-47.601562-106.109375-106.109375s47.601563-106.109375 106.109375-106.109375 106.109375 47.601562 106.109375 106.109375c0 45.707031-29.046875 84.753906-69.648437 99.65625-1.785157.503906-3.53125 1.089844-5.238282 1.761719zm181.820313 108.191406h10.914062c6.640625 0 12.042969 5.402344 12.042969 12.042969v3.914062c0 6.640625-5.402344 12.042969-12.042969 12.042969h-126.46875c-7.167969 0-13-5.832031-13-13 0-18.195312-14.804687-33-33-33-19.566406 0-35.488281-15.921875-35.488281-35.488281v-3.0625c0-14.714844 9.003906-27.367188 21.792969-32.734375 1.613281-.511719 3.214843-1.054688 4.800781-1.625 2.84375-.734375 5.824219-1.128906 8.894531-1.128906h172.46875c6.640625 0 12.042969 5.402343 12.042969 12.042968v3.867188c0 6.640625-5.402344 12.042968-12.042969 12.042968h-10.914062c-17.667969 0-32.042969 14.375-32.042969 32.042969s14.375 32.042969 32.042969 32.042969zm0 0"/><path d="m113 492c-2.628906 0-5.210938 1.070312-7.070312 2.929688-1.859376 1.859374-2.929688 4.441406-2.929688 7.070312s1.070312 5.210938 2.929688 7.070312c1.859374 1.859376 4.441406 2.929688 7.070312 2.929688s5.210938-1.070312 7.070312-2.929688c1.859376-1.859374 2.929688-4.441406 2.929688-7.070312s-1.070312-5.210938-2.929688-7.070312c-1.859374-1.859376-4.441406-2.929688-7.070312-2.929688zm0 0"/><path d="m338.769531 200.390625c0-45.640625-37.128906-82.769531-82.769531-82.769531-5.523438 0-10 4.476562-10 10 0 5.523437 4.476562 10 10 10 34.613281 0 62.769531 28.15625 62.769531 62.769531 0 5.523437 4.476563 10 10 10 5.523438 0 10-4.476563 10-10zm0 0"/><path d="m206.203125 134.269531-.441406.335938c-4.390625 3.355469-5.230469 9.628906-1.878907 14.019531 1.96875 2.574219 4.945313 3.929688 7.957032 3.929688 2.113281 0 4.25-.667969 6.0625-2.054688l.351562-.265625c4.40625-3.328125 5.285156-9.597656 1.957032-14.007813-3.328126-4.40625-9.597657-5.285156-14.007813-1.957031zm0 0"/></svg>