<svg height="512pt" viewBox="0 0 512 512" width="512pt" xmlns="http://www.w3.org/2000/svg"><path d="m416 512h-320c-53.023438 0-96-42.976562-96-96v-320c0-53.023438 42.976562-96 96-96h320c53.023438 0 96 42.976562 96 96v320c0 53.023438-42.976562 96-96 96zm0 0" fill="#e3f8fa"/><path d="m231.535156 330.960938c-2 2-4.703125 3.117187-7.535156 3.117187s-5.535156-1.117187-7.535156-3.117187l-60.242188-60.242188c-6.253906-6.253906-6.238281-16.382812 0-22.621094l7.539063-7.539062c6.253906-6.253906 16.382812-6.253906 22.621093 0l37.601563 37.601562 101.601563-101.601562c6.253906-6.253906 16.382812-6.253906 22.621093 0l7.535157 7.539062c6.257812 6.253906 6.257812 16.382813 0 22.621094zm0 0" fill="#26c6da"/></svg>