<svg id="Capa_1" enable-background="new 0 0 524.235 524.235" height="44" viewBox="0 0 524.235 524.235" width="44" xmlns="http://www.w3.org/2000/svg"><path d="m484.721 234.798-36.766-122.554c-8.383-27.949-33.613-46.715-62.778-46.715h-24.766v65.529h24.766l29.489 98.294h-305.097l29.489-98.294h24.765v-65.529h-24.765c-29.165 0-54.395 18.766-62.778 46.715l-36.766 122.554c-23.216 10.089-39.514 33.193-39.514 60.084v131.059c0 18.094 14.671 32.765 32.765 32.765h.002l-.002 32.763c0 18.096 14.669 32.767 32.765 32.767h32.767c18.094 0 32.765-14.671 32.765-32.765l-.014-32.765h262.13l-.002 32.763c0 18.096 14.669 32.767 32.765 32.767h32.767c18.096 0 32.765-14.671 32.765-32.765v-32.763l-.012-.002h.012c18.094 0 32.765-14.671 32.765-32.765v-131.059c-.003-26.891-16.301-49.995-39.517-60.084zm-353.662 141.996c-18.096 0-32.765-14.671-32.765-32.765 0-18.096 14.669-32.765 32.765-32.765s32.765 14.669 32.765 32.765c0 18.095-14.669 32.765-32.765 32.765zm262.118 0c-18.096 0-32.765-14.671-32.765-32.765 0-18.096 14.669-32.765 32.765-32.765s32.765 14.669 32.765 32.765c0 18.095-14.669 32.765-32.765 32.765z" fill="#fff"/><path id="path-1_35_" d="m294.883 98.294c18.096 0 32.765-14.671 32.765-32.765-.001-18.096-32.765-65.529-32.765-65.529s-32.765 47.433-32.765 65.529c0 18.095 14.669 32.765 32.765 32.765z" transform="translate(8)" fill="#fff"/><path id="path-1_34_" d="m229.353 163.824c18.096 0 32.765-14.671 32.765-32.765 0-18.096-32.765-65.529-32.765-65.529s-32.765 47.433-32.765 65.529c.001 18.094 14.669 32.765 32.765 32.765z" transform="translate(6 2)" fill="#fff"/></svg>