<svg id="icons" enable-background="new 0 0 64 64" height="34" viewBox="0 0 64 64" width="34" xmlns="http://www.w3.org/2000/svg"><g><g><path d="m44.589 50.249 1.42-1.42 2.82-2.82 1.42-1.42 11.58 11.58c1.56 1.561 1.56 4.1 0 5.66-1.561 1.56-4.1 1.56-5.66 0z" fill="#656d78"/></g><g><path d="m41.969 41.969c.48-.479.931-.97 1.351-1.479l5.51 5.52-2.82 2.82-5.51-5.5-.01-.01c.509-.421.999-.871 1.479-1.351z" fill="#ccd1d9"/></g><g><path d="m14.989 35.999h7v3h-7z" fill="#656d78"/></g><g><path d="m10.149 39.849c8.199 8.2 21.5 8.2 29.699 0 8.2-8.199 8.2-21.5 0-29.699-8.199-8.2-21.5-8.2-29.699 0-8.2 8.199-8.2 21.499 0 29.699zm-2.12-31.82c9.37-9.37 24.569-9.37 33.939 0 8.891 8.89 9.351 23.04 1.351 32.46-.42.51-.87 1-1.351 1.479-.479.48-.97.931-1.479 1.351-9.42 8-23.57 7.54-32.46-1.351-9.37-9.369-9.37-24.569 0-33.939z" fill="#e6e9ed"/></g><g><path d="m27.979 35.999h7v3h-7z" fill="#656d78"/></g><g><path d="m27.989 12.999c0 1.66-1.351 3-3 3-1.66 0-3-1.34-3-3s3-4 3-4 3 2.34 3 4z" fill="#5d9cec"/></g><g><path d="m35.979 28.999h-21.99l2-2.99v-.01h18z" fill="#f6bb42"/></g><g><path d="m35.979 28.999v7h-1-7-5.99-7-1v-7z" fill="#ffce54"/></g><g><path d="m15.989 25.999v.01l-2 2.99v7h1v3h7v-3h5.99v3h7v-3h1v-7l-1.99-3v-3.99c0-1.66-1.351-3-3-3h-12c-1.66 0-3 1.34-3 3zm23.86-15.85c8.2 8.199 8.2 21.5 0 29.699-8.199 8.2-21.5 8.2-29.699 0-8.2-8.199-8.2-21.5 0-29.699 8.199-8.2 21.499-8.2 29.699 0zm-14.86 5.85c1.649 0 3-1.34 3-3s-3-4-3-4-3 2.34-3 4 1.34 3 3 3z" fill="#4a89dc"/></g><g><path d="m33.989 22.009v3.99h-18v-3.99c0-1.66 1.34-3 3-3h12c1.65 0 3 1.34 3 3z" fill="#5d9cec"/></g></g><g><g><g><path d="m25 46.998c-5.877 0-11.401-2.288-15.557-6.443-4.155-4.154-6.443-9.678-6.443-15.556 0-5.877 2.288-11.401 6.443-15.556 4.156-4.155 9.68-6.443 15.557-6.443s11.401 2.288 15.557 6.443c8.577 8.577 8.577 22.534 0 31.111-4.156 4.156-9.68 6.444-15.557 6.444zm0-41.998c-5.343 0-10.365 2.08-14.143 5.857-3.777 3.777-5.857 8.799-5.857 14.142s2.08 10.365 5.857 14.142 8.8 5.857 14.143 5.857 10.365-2.08 14.143-5.857c7.798-7.798 7.798-20.485 0-28.283-3.778-3.778-8.8-5.858-14.143-5.858z"/></g><g><path d="m25 49.998c-6.678 0-12.956-2.6-17.678-7.321s-7.321-11-7.322-17.678c0-6.678 2.601-12.956 7.322-17.677 4.723-4.721 11.001-7.322 17.678-7.322 6.678 0 12.956 2.601 17.678 7.322 9.747 9.747 9.747 25.606 0 35.354-4.723 4.722-11.001 7.322-17.678 7.322zm0-47.998c-6.143 0-11.919 2.393-16.264 6.736-4.343 4.344-6.736 10.119-6.736 16.263.001 6.144 2.393 11.92 6.736 16.264s10.12 6.735 16.264 6.735c6.143 0 11.919-2.392 16.264-6.735 8.967-8.968 8.967-23.56 0-32.526-4.344-4.344-10.12-6.737-16.264-6.737z"/></g><g><path d="m46.006 49.834c-.256 0-.512-.098-.707-.293l-5.508-5.509c-.391-.391-.391-1.023 0-1.414s1.023-.391 1.414 0l5.508 5.509c.391.391.391 1.023 0 1.414-.195.195-.451.293-.707.293z"/></g><g><path d="m48.834 47.006c-.256 0-.512-.098-.707-.293l-5.514-5.515c-.391-.391-.391-1.023 0-1.414s1.023-.391 1.414 0l5.514 5.515c.391.391.391 1.023 0 1.414-.195.195-.451.293-.707.293z"/></g><g><path d="m44.592 51.248c-.256 0-.512-.098-.707-.293-.391-.391-.391-1.023 0-1.414l5.656-5.658c.391-.391 1.023-.391 1.414 0s.391 1.023 0 1.414l-5.656 5.658c-.195.195-.451.293-.707.293z"/></g><g><path d="m56.172 62.828c-.256 0-.512-.098-.707-.293l-11.58-11.58c-.391-.391-.391-1.023 0-1.414s1.023-.391 1.414 0l11.58 11.58c.391.391.391 1.023 0 1.414-.195.195-.451.293-.707.293z"/></g><g><path d="m61.828 57.173c-.256 0-.512-.098-.707-.293l-11.58-11.583c-.391-.391-.391-1.023 0-1.414s1.023-.391 1.414 0l11.58 11.583c.391.391.391 1.023 0 1.414-.195.195-.451.293-.707.293z"/></g><g><path d="m59.001 64c-1.336 0-2.592-.521-3.536-1.465-.391-.391-.391-1.023 0-1.414s1.023-.391 1.414 0c1.132 1.132 3.11 1.136 4.241 0 .567-.566.88-1.32.88-2.122 0-.801-.312-1.553-.878-2.118-.392-.391-.392-1.023-.002-1.414.391-.393 1.025-.391 1.414-.002.945.943 1.466 2.198 1.466 3.534s-.521 2.592-1.465 3.536c-.943.944-2.198 1.465-3.534 1.465z"/></g></g><g><g><path d="m35.98 36.995h-21.989c-.553 0-1-.447-1-1v-6.995c0-.553.447-1 1-1h21.989c.553 0 1 .447 1 1v6.995c0 .553-.447 1-1 1zm-20.989-2h19.989v-4.995h-19.989z"/></g><g><path d="m34.979 39.999h-6.999c-.553 0-1-.447-1-1v-3.004c0-.553.447-1 1-1h6.999c.553 0 1 .447 1 1v3.004c0 .553-.447 1-1 1zm-5.999-2h4.999v-1.004h-4.999z"/></g><g><path d="m21.992 39.999h-6.998c-.553 0-1-.447-1-1v-3.004c0-.553.447-1 1-1h6.998c.553 0 1 .447 1 1v3.004c0 .553-.447 1-1 1zm-5.998-2h4.998v-1.004h-4.998z"/></g><g><path d="m13.99 30c-.19 0-.383-.055-.554-.168-.459-.306-.584-.927-.277-1.387l1.995-2.994c.306-.46.925-.583 1.387-.277.459.306.584.927.277 1.387l-1.995 2.994c-.192.289-.51.445-.833.445z"/></g><g><path d="m35.981 30c-.323 0-.641-.156-.833-.445l-1.995-2.996c-.307-.46-.182-1.081.277-1.387.46-.307 1.08-.183 1.387.277l1.995 2.996c.307.46.182 1.081-.277 1.387-.171.113-.363.168-.554.168z"/></g><g><path d="m33.985 23.008c-.553 0-1-.447-1-1 0-1.103-.897-2-2-2-.553 0-1-.447-1-1s.447-1 1-1c2.206 0 4 1.794 4 4 0 .553-.447 1-1 1z"/></g><g><path d="m15.986 23.006c-.553 0-1-.447-1-1 0-2.206 1.794-4 4-4 .553 0 1 .447 1 1s-.447 1-1 1c-1.103 0-2 .897-2 2 0 .553-.447 1-1 1z"/></g><g><path d="m33.985 27.004c-.553 0-1-.447-1-1v-3.996c0-.553.447-1 1-1s1 .447 1 1v3.996c0 .553-.447 1-1 1z"/></g><g><path d="m30.985 20.008h-11.999c-.553 0-1-.447-1-1s.447-1 1-1h11.999c.553 0 1 .447 1 1s-.447 1-1 1z"/></g><g><path d="m15.986 27.006c-.553 0-1-.447-1-1v-4c0-.553.447-1 1-1s1 .447 1 1v4c0 .553-.447 1-1 1z"/></g><g><path d="m33.985 27.004h-17.999c-.553 0-1-.447-1-1s.447-1 1-1h17.999c.553 0 1 .447 1 1s-.447 1-1 1z"/></g><g><path d="m31.004 33.005c-.553 0-1.005-.447-1.005-1s.442-1 .994-1h.011c.552 0 1 .447 1 1s-.448 1-1 1z"/></g><g><path d="m19.016 33.005c-.553 0-1.005-.447-1.005-1s.442-1 .994-1h.011c.552 0 1 .447 1 1s-.449 1-1 1z"/></g></g><g><path d="m24.986 16.998c-2.206 0-4-1.794-4-4 0-2.042 2.819-4.348 3.385-4.789.361-.283.869-.283 1.23 0 .565.441 3.385 2.747 3.385 4.789 0 2.206-1.794 4-4 4zm-.001-6.694c-1.05.945-1.999 2.111-1.999 2.694 0 1.103.897 2 2 2s2-.897 2-2c0-.627-1.026-1.815-2.001-2.694z"/></g></g></svg>