<?xml version="1.0"?>
<svg xmlns="http://www.w3.org/2000/svg" height="512px" viewBox="0 -47 512 512" width="512px"><g><path d="m512 255.882812c0 56.164063-17.875 109.476563-51.691406 154.183594-6.671875 8.824219-19.21875 10.535156-28.015625 3.882813-8.808594-6.664063-10.546875-19.207031-3.886719-28.015625 28.519531-37.699219 43.59375-82.671875 43.59375-130.050782 0-119.382812-96.683594-215.882812-216-215.882812-119.398438 0-216 96.574219-216 215.882812 0 47.378907 15.074219 92.351563 43.589844 130.050782 6.664062 8.808594 4.925781 21.351562-3.882813 28.015625-8.8125 6.664062-21.351562 4.925781-28.019531-3.882813-33.8125-44.707031-51.6875-98.019531-51.6875-154.183594 0-141.5 114.578125-255.882812 256-255.882812 141.5 0 256 114.460938 256 255.882812zm-129.277344-120.449218c7.808594 7.808594 7.808594 20.472656 0 28.28125l-65.191406 65.191406c5.367188 9.894531 8.421875 21.222656 8.421875 33.246094 0 38.574218-31.382813 69.953125-69.953125 69.953125-38.574219 0-69.953125-31.378907-69.953125-69.953125 0-38.570313 31.378906-69.953125 69.953125-69.953125 12.027344 0 23.351562 3.054687 33.246094 8.421875l65.191406-65.191406c7.8125-7.808594 20.472656-7.808594 28.285156.003906zm-96.769531 126.722656c0-16.515625-13.4375-29.953125-29.953125-29.953125s-29.953125 13.4375-29.953125 29.953125 13.4375 29.953125 29.953125 29.953125 29.953125-13.4375 29.953125-29.953125zm0 0" data-original="#000000" class="active-path" data-old_color="#000000" fill="#7F92B7"/></g> </svg>
