<?xml version="1.0"?>
<svg xmlns="http://www.w3.org/2000/svg" xmlns:xlink="http://www.w3.org/1999/xlink" version="1.1" id="Capa_1" x="0px" y="0px" viewBox="0 0 512 512" style="enable-background:new 0 0 512 512;" xml:space="preserve" width="512px" height="512px"><g><g>
	<g>
		<g>
			<path d="M117.333,64h277.333c5.896,0,10.667-4.771,10.667-10.667c0-5.896-4.771-10.667-10.667-10.667H117.333     c-5.896,0-10.667,4.771-10.667,10.667C106.667,59.229,111.438,64,117.333,64z" data-original="#000000" class="active-path" data-old_color="#000000" fill="#7F92B7"/>
			<path d="M151.229,89.938C144.25,100.042,128,125.021,128,138.667c0,17.646,14.354,32,32,32s32-14.354,32-32     c0-13.646-16.25-38.625-23.229-48.729C164.813,84.188,155.188,84.188,151.229,89.938z" data-original="#000000" class="active-path" data-old_color="#000000" fill="#7F92B7"/>
			<path d="M236.563,111.271c-6.979,10.104-23.229,35.083-23.229,48.729c0,17.646,14.354,32,32,32c17.646,0,32-14.354,32-32     c0-13.646-16.25-38.625-23.229-48.729C250.146,105.521,240.521,105.521,236.563,111.271z" data-original="#000000" class="active-path" data-old_color="#000000" fill="#7F92B7"/>
			<path d="M321.896,89.938c-6.979,10.104-23.229,35.083-23.229,48.729c0,17.646,14.354,32,32,32c17.646,0,32-14.354,32-32     c0-13.646-16.25-38.625-23.229-48.729C335.479,84.188,325.854,84.188,321.896,89.938z" data-original="#000000" class="active-path" data-old_color="#000000" fill="#7F92B7"/>
			<path d="M485.25,295.844l-105.501-17.449l-30.707-46.061c-7.938-11.896-21.208-19-35.5-19h-157.75     c-14.292,0-27.563,7.104-35.5,19l-30.883,46.326L24.25,294.948C9.979,298.51,0,311.281,0,325.99v53.594     c0,12.573,4.896,24.396,13.792,33.292c8.771,8.76,20.896,13.792,33.292,13.792h27.583c0.375,0,0.691-0.176,1.056-0.214     c4.875,24.415,26.441,42.88,52.277,42.88c25.827,0,47.391-18.451,52.275-42.853c0.355,0.036,0.677,0.207,1.038,0.207L320,426.667     c0.375,0,0.691-0.176,1.056-0.214c4.874,24.415,26.441,42.88,52.277,42.88s47.402-18.465,52.277-42.88     c0.365,0.038,0.681,0.214,1.056,0.214h46.75c8.125,0,15.438-4.51,19.083-11.792l17.25-34.521c0.375-0.75,0.667-1.542,0.854-2.354     l1.125-4.771c0.188-0.792,0.271-1.604,0.271-2.417v-43.406C512,311.688,500.75,298.417,485.25,295.844z M128,448     c-17.646,0-32-14.354-32-32c0-17.646,14.354-32,32-32s32,14.354,32,32C160,433.646,145.646,448,128,448z M115.931,277.333     l22.111-33.167c3.958-5.948,10.604-9.5,17.75-9.5h157.75c7.146,0,13.792,3.552,17.75,9.5l22.111,33.167H115.931z M373.333,448     c-17.646,0-32-14.354-32-32c0-17.646,14.354-32,32-32c17.646,0,32,14.354,32,32C405.333,433.646,390.979,448,373.333,448z" data-original="#000000" class="active-path" data-old_color="#000000" fill="#7F92B7"/>
		</g>
	</g>
</g></g> </svg>
