<svg height="40pt" viewBox="-85 0 456 456.04" width="40pt" xmlns="http://www.w3.org/2000/svg">
	<path d="m262.488281 429.039062c0-12.148437-53.703125-22-119.949219-22-66.246093 0-119.949218 9.851563-119.949218 22 0 12.152344 53.703125 22 119.949218 22 66.246094 0 119.949219-9.847656 119.949219-22zm0 0" fill="#ffcc34"/>
	<path d="m142.539062 456.039062c-5.101562 0-124.953124-.304687-124.953124-27 0-26.691406 119.851562-27 124.953124-27 5.101563 0 124.949219.308594 124.949219 27 0 26.695313-119.847656 27-124.949219 27zm-114.882812-27c3.292969 6.222657 43.679688 17 114.882812 17 71.203126 0 111.585938-10.777343 114.878907-17-3.292969-6.21875-43.675781-17-114.878907-17-71.203124 0-111.589843 10.78125-114.882812 17zm0 0" fill="#122436"/><path d="m142.539062 88.859375c-75.949218 0-137.519531 61.570313-137.519531 137.519531 0 111.242188 137.519531 202.664063 137.519531 202.664063s137.519532-91.421875 137.519532-202.664063c0-75.949218-61.570313-137.519531-137.519532-137.519531zm0 221.933594c-46.625 0-84.417968-37.792969-84.417968-84.414063s37.792968-84.414062 84.417968-84.414062c46.621094 0 84.414063 37.792968 84.414063 84.414062 0 46.625-37.792969 84.414063-84.414063 84.414063zm0 0" fill="#cd1d23"/><path d="m142.539062 391.582031-2.769531-1.835937s-1.527343-1.015625-4.234375-2.953125l5.816406-8.132813c.429688.304688.824219.585938 1.1875.84375.363282-.257812.757813-.539062 1.183594-.84375l5.820313 8.132813c-2.707031 1.9375-4.238281 2.953125-4.238281 2.953125zm0 0" fill="#fff"/><path d="m159.367188 379.46875-6.113282-7.914062c2.367188-1.828126 4.980469-3.894532 7.789063-6.183594l6.320312 7.75c-2.882812 2.347656-5.566406 4.472656-7.996093 6.347656zm-33.722657-.046875c-2.429687-1.878906-5.109375-4-7.996093-6.351563l6.320312-7.75c2.8125 2.289063 5.425781 4.359376 7.792969 6.191407zm51.089844-14.175781-6.546875-7.558594c2.40625-2.082031 4.890625-4.289062 7.441406-6.609375l6.734375 7.390625c-2.613281 2.382812-5.164062 4.644531-7.628906 6.777344zm-68.453125-.054688c-2.464844-2.136718-5.015625-4.394531-7.628906-6.777344l6.734375-7.390624c2.550781 2.324218 5.039062 4.527343 7.441406 6.609374zm85.007812-15.097656-6.960937-7.1875c2.398437-2.316406 4.769531-4.675781 7.046875-7.007812l7.152344 6.988281c-2.34375 2.402343-4.78125 4.824219-7.238282 7.207031zm-101.5625-.058594c-2.457031-2.386718-4.894531-4.808594-7.238281-7.207031l7.152344-6.988281c2.28125 2.332031 4.648437 4.691406 7.046875 7.011718zm117.222657-16.050781-7.382813-6.742187c2.234375-2.449219 4.453125-4.949219 6.578125-7.425782l7.585938 6.519532c-2.195313 2.550781-4.476563 5.125-6.78125 7.648437zm-132.882813-.0625c-2.320312-2.542969-4.601562-5.121094-6.78125-7.65625l7.589844-6.515625c2.109375 2.460938 4.324219 4.960938 6.578125 7.429688zm147.484375-17.0625-7.839843-6.210937c2.066406-2.609376 4.085937-5.253907 6-7.859376l8.058593 5.921876c-1.984375 2.699218-4.078125 5.441406-6.21875 8.148437zm-162.082031-.070313c-2.136719-2.703124-4.230469-5.441406-6.21875-8.152343l8.058594-5.921875c1.917968 2.609375 3.9375 5.257812 6 7.863281zm175.367188-18.167968-8.328126-5.535156c1.84375-2.773438 3.617188-5.570313 5.277344-8.3125l8.558594 5.171874c-1.734375 2.863282-3.585938 5.785157-5.507812 8.675782zm-188.648438-.078125c-1.917969-2.878907-3.773438-5.808594-5.515625-8.695313l8.558594-5.167968c1.667969 2.765624 3.449219 5.566406 5.285156 8.332031zm200.25-19.355469-8.839844-4.671875c1.542969-2.921875 3.011719-5.878906 4.355469-8.785156l9.074219 4.203125c-1.417969 3.066406-2.964844 6.179687-4.589844 9.253906zm-211.859375-.109375c-1.625-3.082031-3.167969-6.195313-4.585937-9.257813l9.078124-4.195312c1.339844 2.902344 2.804688 5.859375 4.351563 8.785156zm221.28125-20.597656-9.347656-3.554688c1.164062-3.058593 2.230469-6.15625 3.175781-9.214843l9.554688 2.953124c-1.007813 3.261719-2.144532 6.5625-3.382813 9.816407zm-230.683594-.109375c-1.242187-3.265625-2.378906-6.570313-3.378906-9.820313l9.558594-2.9375c.9375 3.039063 2.003906 6.140625 3.167969 9.203125zm237.25-21.785156-9.773437-2.132813c.695312-3.175781 1.269531-6.378906 1.703125-9.511719l9.90625 1.378906c-.472657 3.386719-1.089844 6.839844-1.835938 10.265626zm-243.800781-.117188c-.746094-3.429688-1.359375-6.890625-1.828125-10.28125l9.90625-1.367188c.433594 3.140626 1.003906 6.34375 1.691406 9.53125zm246.761719-22.652344-9.992188-.40625c.0625-1.527344.09375-3.0625.09375-4.601562 0-1.6875-.035156-3.363282-.109375-5.035156l9.992188-.4375c.078125 1.816406.117187 3.640624.117187 5.472656 0 1.675781-.035156 3.34375-.101562 5.007812zm-249.703125-.144531c-.066406-1.617187-.097656-3.234375-.097656-4.863281 0-1.875.039062-3.75.121093-5.609375l9.992188.441406c-.078125 1.710937-.113281 3.433594-.113281 5.164063 0 1.5.03125 2.992187.089843 4.476562zm238.625-21.417969c-.457032-3.179687-1.054688-6.367187-1.777344-9.472656l9.742188-2.253906c.785156 3.375 1.433593 6.84375 1.933593 10.296875zm-227.519532-.125-9.898437-1.441406c.503906-3.449219 1.15625-6.914062 1.945313-10.296875l9.738281 2.265625c-.722657 3.113281-1.324219 6.296875-1.785157 9.472656zm222.566407-20.464844c-1.039063-3.039062-2.210938-6.058593-3.496094-8.980468l9.152344-4.027344c1.398437 3.183594 2.679687 6.472656 3.808593 9.78125zm-217.59375-.121093-9.460938-3.238281c1.128907-3.289063 2.410157-6.570313 3.808594-9.757813l9.15625 4.027344c-1.292969 2.929687-2.46875 5.945312-3.503906 8.96875zm208.921875-19.207031c-1.578125-2.789063-3.292969-5.542969-5.09375-8.1875l8.261718-5.632813c1.960938 2.875 3.824219 5.867187 5.539063 8.902344zm-200.234375-.097657-8.703125-4.929687c1.710937-3.023438 3.578125-6.015625 5.542968-8.890625l8.257813 5.640625c-1.808594 2.644531-3.523437 5.398437-5.097656 8.179687zm188.15625-17.308593c-2.0625-2.457032-4.253907-4.851563-6.507813-7.121094l7.09375-7.046875c2.449219 2.464843 4.828125 5.066406 7.070313 7.734375zm-176.066407-.085938-7.652343-6.4375c2.238281-2.660156 4.621093-5.261719 7.074219-7.726562l7.089843 7.050781c-2.261719 2.273437-4.453125 4.667969-6.511719 7.113281zm161.007813-14.828125c-2.472656-2.035156-5.0625-3.992187-7.691406-5.808594l5.6875-8.226562c2.859375 1.980469 5.671875 4.105469 8.359375 6.316406zm-145.9375-.066406-6.34375-7.726563c2.691406-2.210937 5.507813-4.335937 8.363281-6.308594l5.683594 8.230469c-2.628906 1.816407-5.222656 3.769531-7.703125 5.804688zm128.414063-11.835938c-2.800782-1.546875-5.703126-2.992187-8.625-4.300781l4.078124-9.125c3.175782 1.417969 6.332032 2.988281 9.378907 4.671875zm-110.875-.054687-4.828126-8.757813c3.050782-1.679687 6.210938-3.253906 9.390626-4.671875l4.070312 9.136719c-2.921875 1.300781-5.828125 2.746094-8.632812 4.292969zm91.472656-8.425782c-3.035156-1-6.15625-1.886718-9.269532-2.628906l2.320313-9.726562c3.386719.808594 6.78125 1.769531 10.085937 2.863281zm-72.054688-.035156-3.125-9.5c3.304688-1.085937 6.699219-2.046875 10.085938-2.851562l2.3125 9.726562c-3.113282.742188-6.230469 1.625-9.273438 2.625zm51.417969-4.710937c-3.167969-.425781-6.394531-.722657-9.597656-.878907l.5-9.988281c3.476562.171875 6.988281.496094 10.425781.957031zm-30.773437-.015625-1.320313-9.910156c3.449219-.457032 6.957031-.777344 10.429687-.949219l.492188 9.988281c-3.199219.15625-6.433594.453125-9.601562.871094zm0 0" fill="#fff"/><path d="m142.539062 435.042969-2.769531-1.839844c-1.421875-.945313-35.257812-23.601563-69.640625-60.363281-45.867187-49.039063-70.1093748-99.6875-70.1093748-146.460938 0-78.585937 63.9335938-142.519531 142.5195308-142.519531 78.585938 0 142.519532 63.933594 142.519532 142.519531 0 46.773438-24.242188 97.421875-70.105469 146.460938-34.382813 36.761718-68.222656 59.417968-69.644531 60.363281zm0-341.183594c-73.074218 0-132.519531 59.449219-132.519531 132.519531 0 98.601563 113.222657 182.929688 132.519531 196.578125 19.296876-13.648437 132.519532-97.976562 132.519532-196.578125 0-73.070312-59.449219-132.519531-132.519532-132.519531zm0 221.933594c-49.304687 0-89.417968-40.109375-89.417968-89.414063 0-49.304687 40.113281-89.417968 89.417968-89.417968 49.304688 0 89.414063 40.113281 89.414063 89.417968 0 49.304688-40.109375 89.414063-89.414063 89.414063zm0-168.828125c-43.792968 0-79.417968 35.625-79.417968 79.414062 0 43.792969 35.625 79.417969 79.417968 79.417969 43.789063 0 79.414063-35.625 79.414063-79.417969 0-43.789062-35.625-79.414062-79.414063-79.414062zm0 0" fill="#122436"/><path d="m50.105469 183.296875h184.867187v27.53125h-184.867187zm0 0" fill="#ffcc34"/><path d="m50.105469 183.296875h184.867187v10.980469h-184.867187zm0 0" fill="#fff"/><path d="m56.164062 122.761719h-13.867187c-5.375 0-9.734375-4.359375-9.734375-9.734375s4.359375-9.734375 9.734375-9.734375h13.867187c5.378907 0 9.734376 4.359375 9.734376 9.734375s-4.355469 9.734375-9.734376 9.734375zm0 0" fill="#000"/><path d="m56.164062 103.292969h-13.867187c-5.375 0-9.734375 4.359375-9.734375 9.734375 0 1.476562.335938 2.867187.921875 4.117187 1.554687-3.3125 4.910156-5.613281 8.8125-5.613281h13.867187c3.902344 0 7.261719 2.296875 8.8125 5.613281.585938-1.25.921876-2.640625.921876-4.117187 0-5.375-4.355469-9.734375-9.734376-9.734375zm0 0" fill="#fff"/><path d="m242.78125 122.761719h-13.871094c-5.375 0-9.730468-4.359375-9.730468-9.734375s4.355468-9.734375 9.730468-9.734375h13.871094c5.375 0 9.734375 4.359375 9.734375 9.734375s-4.359375 9.734375-9.734375 9.734375zm0 0" fill="#000"/><path d="m242.78125 103.292969h-13.871094c-5.375 0-9.730468 4.359375-9.730468 9.734375 0 1.476562.335937 2.867187.921874 4.117187 1.550782-3.3125 4.910157-5.613281 8.808594-5.613281h13.871094c3.902344 0 7.257812 2.296875 8.8125 5.613281.585938-1.25.921875-2.640625.921875-4.117187 0-5.375-4.359375-9.734375-9.734375-9.734375zm0 0" fill="#fff"/><path d="m60.914062 210.824219h31.574219v32.261719h-31.574219zm0 0" fill="#000"/><path d="m60.914062 210.824219h31.574219v10.984375h-31.574219zm0 0" fill="#fff"/><path d="m192.589844 210.824219h31.570312v32.261719h-31.570312zm0 0" fill="#000"/><path d="m192.589844 210.824219h31.570312v10.984375h-31.570312zm0 0" fill="#fff"/><path d="m210.875 121.140625h-136.675781c-13.308594 0-24.09375 10.789063-24.09375 24.09375v38.0625h184.863281v-38.0625c.003906-13.304687-10.785156-24.09375-24.09375-24.09375zm0 0" fill="#186bd1"/><path d="m210.875 121.140625h-136.675781c-13.308594 0-24.09375 10.789063-24.09375 24.09375v9.613281c0-13.308594 10.785156-24.097656 24.09375-24.097656h136.675781c13.308594 0 24.09375 10.789062 24.09375 24.097656v-9.613281c.003906-13.304687-10.785156-24.09375-24.09375-24.09375zm0 0" fill="#fff"/><path d="m98.132812 168.15625h-23.855468c-3.648438 0-6.824219-2.492188-7.6875-6.035156l-1.332032-5.449219c-1.222656-4.984375 2.554688-9.792969 7.6875-9.792969h23.855469c3.648438 0 6.824219 2.492188 7.6875 6.03125l1.332031 5.453125c1.222657 4.984375-2.554687 9.792969-7.6875 9.792969zm0 0" fill="#fff"/><path d="m186.941406 168.15625h23.859375c3.644531 0 6.820313-2.492188 7.6875-6.035156l1.332031-5.449219c1.222657-4.984375-2.554687-9.792969-7.6875-9.792969h-23.855468c-3.648438 0-6.824219 2.492188-7.6875 6.03125l-1.335938 5.453125c-1.21875 4.984375 2.554688 9.792969 7.6875 9.792969zm0 0" fill="#fff"/><path d="m164.414062 168.15625h-43.753906l-5.492187-21.277344h54.738281zm0 0" fill="#ffcc34"/><path d="m167.429688 156.488281 2.476562-9.609375h-54.738281l2.480469 9.609375zm0 0" fill="#fff"/><path d="m198.191406 63.140625h-111.304687c-4.53125 0-8.488281 3.074219-9.605469 7.464844l-12.875 50.535156h156.265625l-12.875-50.535156c-1.117187-4.390625-5.074219-7.464844-9.605469-7.464844zm0 0" fill="#fff"/><path d="m86.886719 63.140625c-4.53125 0-8.488281 3.074219-9.605469 7.464844l-3.605469 14.15625h137.726563l-3.605469-14.15625c-1.117187-4.390625-5.074219-7.464844-9.605469-7.464844zm0 0" fill="#4ea3da"/><path d="m77.28125 80.214844c1.117188-4.390625 5.074219-7.464844 9.605469-7.464844h111.304687c4.53125 0 8.488282 3.074219 9.605469 7.464844l1.160156 4.546875h2.445313l-3.605469-14.152344c-1.117187-4.394531-5.074219-7.46875-9.605469-7.46875h-111.304687c-4.53125 0-8.488281 3.074219-9.605469 7.46875l-3.605469 14.152344h2.445313zm0 0" fill="#fff"/><g fill="#122436"><path d="m242.78125 98.292969h-13.871094c-3.054687 0-5.898437.9375-8.253906 2.535156l-2.820312-11.066406h.003906l-5.199219-20.390625c-1.683594-6.613282-7.625-11.230469-14.453125-11.230469h-111.300781c-1.703125 0-3.355469.289063-4.898438.824219-4.628906 1.609375-8.289062 5.449218-9.550781 10.410156l-8.015625 31.453125c-2.355469-1.597656-5.199219-2.535156-8.253906-2.535156h-13.871094c-8.125 0-14.734375 6.609375-14.734375 14.734375s6.613281 14.734375 14.734375 14.734375h8.699219c-3.679688 4.871093-5.886719 10.914062-5.886719 17.472656v70.59375h10.808594v32.261719h41.574219v-32.261719h90.097656v32.261719h41.574218v-32.261719h10.808594v-70.59375c0-6.558594-2.207031-12.601563-5.886718-17.472656h8.695312c8.125 0 14.734375-6.609375 14.734375-14.734375s-6.609375-14.734375-14.734375-14.734375zm-28.542969 17.847656h-143.398437l6.71875-26.378906h129.957031zm-127.351562-48h111.300781c2.25 0 4.207031 1.519531 4.761719 3.703125l2.019531 7.917969h-124.859375l2.015625-7.917969c.347656-1.363281 1.242188-2.46875 2.414062-3.105469.703126-.382812 1.503907-.597656 2.347657-.597656zm-49.324219 44.886719c0-2.609375 2.125-4.734375 4.734375-4.734375h13.867187c2.613282 0 4.734376 2.125 4.734376 4.734375s-2.121094 4.734375-4.734376 4.734375h-13.867187c-2.609375 0-4.734375-2.125-4.734375-4.734375zm49.925781 125.0625h-21.574219v-22.261719h21.574219zm131.671875 0h-21.574218v-22.261719h21.574218zm10.8125-32.261719h-174.867187v-17.53125h174.867187zm-174.867187-27.53125v-33.0625c0-10.527344 8.566406-19.09375 19.097656-19.09375h136.671875c10.53125 0 19.097656 8.566406 19.097656 19.09375v33.0625zm187.675781-60.535156h-13.871094c-2.613281 0-4.734375-2.125-4.734375-4.734375 0-2.613282 2.125-4.734375 4.734375-4.734375h13.871094c2.609375 0 4.734375 2.121093 4.734375 4.734375 0 2.609375-2.125 4.734375-4.734375 4.734375zm0 0"/><path d="m109.347656 151.722656c-1.417968-5.792968-6.578125-9.84375-12.546875-9.84375h-23.855469c-3.992187 0-7.695312 1.800782-10.160156 4.941406-2.464844 3.140626-3.335937 7.164063-2.386718 11.042969l1.332031 5.445313c1.417969 5.796875 6.578125 9.847656 12.546875 9.847656h23.855468c3.992188 0 7.695313-1.800781 10.160157-4.941406 2.464843-3.140625 3.335937-7.164063 2.386719-11.042969zm-8.921875 10.320313c-.324219.414062-1.058593 1.113281-2.292969 1.113281h-23.855468c-1.347656 0-2.511719-.914062-2.832032-2.21875l-1.332031-5.453125c-.292969-1.195313.210938-2.074219.539063-2.492187.324218-.414063 1.058594-1.113282 2.292968-1.113282h23.855469c1.347657 0 2.511719.914063 2.832031 2.222656l1.332032 5.449219c.292968 1.195313-.210938 2.074219-.539063 2.492188zm0 0"/><path d="m212.132812 141.878906h-23.859374c-5.964844 0-11.125 4.050782-12.542969 9.847656l-1.332031 5.449219c-.949219 3.875-.082032 7.898438 2.382812 11.039063s6.167969 4.941406 10.160156 4.941406h23.859375c5.96875 0 11.128907-4.046875 12.542969-9.84375l1.335938-5.449219c.945312-3.878906.078124-7.902343-2.386719-11.042969-2.464844-3.140624-6.167969-4.941406-10.160157-4.941406zm2.832032 13.605469-1.335938 5.453125c-.316406 1.304688-1.480468 2.21875-2.828125 2.21875h-23.859375c-1.234375 0-1.964844-.699219-2.292968-1.113281-.324219-.417969-.832032-1.292969-.535157-2.492188l1.332031-5.449219c.320313-1.308593 1.484376-2.222656 2.828126-2.222656h23.859374c1.234376 0 1.964844.699219 2.292969 1.117188.328125.414062.832031 1.292968.539063 2.488281zm0 0"/><path d="m108.714844 141.878906 8.070312 31.277344h51.503906l8.070313-31.277344zm51.828125 21.277344h-36.007813l-2.910156-11.277344h41.828125zm0 0"/></g><path d="m167.617188 78.214844c0 13.851562-11.230469 25.078125-25.078126 25.078125-13.851562 0-25.078124-11.226563-25.078124-25.078125 0-13.847656 25.078124-66.574219 25.078124-66.574219s25.078126 52.726563 25.078126 66.574219zm0 0" fill="#4ea3da"/><path d="m142.539062 37.144531s15.382813 32.34375 22.050782 53.019531c1.929687-3.550781 3.027344-7.621093 3.027344-11.949218 0-13.847656-25.078126-66.574219-25.078126-66.574219s-25.078124 52.726563-25.078124 66.574219c0 4.328125 1.09375 8.398437 3.023437 11.949218 6.667969-20.675781 22.054687-53.019531 22.054687-53.019531zm0 0" fill="#fff"/><path d="m142.539062 108.292969c-16.585937 0-30.078124-13.492188-30.078124-30.078125 0-14.558594 22.945312-63.222656 25.5625-68.722656l4.515624-9.492188 4.515626 9.492188c2.617187 5.5 25.5625 54.164062 25.5625 68.726562 0 16.582031-13.492188 30.074219-30.078126 30.074219zm0-84.777344c-9.125 20.09375-20.078124 46.804687-20.078124 54.699219 0 11.070312 9.003906 20.078125 20.078124 20.078125 11.070313 0 20.078126-9.007813 20.078126-20.078125 0-7.898438-10.957032-34.605469-20.078126-54.699219zm0 0" fill="#122436"/></svg>