<?xml version="1.0"?>
<svg xmlns="http://www.w3.org/2000/svg" xmlns:xlink="http://www.w3.org/1999/xlink" version="1.1" id="Capa_1" x="0px" y="0px" viewBox="0 0 512 512" style="enable-background:new 0 0 512 512;" xml:space="preserve" width="512px" height="512px" class=""><g><path style="fill:#F9F5F2;" d="M221.867,435.2h68.267c18.825-0.06,34.074-15.309,34.133-34.133V358.4H187.734v42.667  C187.794,419.891,203.043,435.14,221.867,435.2z" data-original="#F9F5F2" class=""/><path style="fill:#E6608D" d="M472.406,437.931c-6.835-31.445-34.637-53.888-66.816-53.931h-81.323v17.067  c-0.06,18.825-15.309,34.074-34.133,34.133h-68.267c-18.825-0.06-34.074-15.309-34.133-34.133V384h-81.323  c-32.179,0.043-59.981,22.485-66.816,53.931l-13.995,65.536h460.8L472.406,437.931z" data-original="#43ADDC" class="" data-old_color="#43ADDC"/><path style="fill:#B5683A" d="M153.601,213.333v-58.965c16.725,24.576,56.32,41.899,102.4,41.899s85.675-17.323,102.4-41.899  v58.965c18.85,0,34.133,15.283,34.133,34.133v-102.4c0-75.409-61.124-136.533-136.533-136.533S119.467,69.658,119.467,145.067v102.4  C119.467,228.617,134.751,213.333,153.601,213.333z" data-original="#A05D35" class="active-path" data-old_color="#A05D35"/><g>
	<path style="fill:#F9F5F2;" d="M119.467,247.467c0,18.85,15.283,34.133,34.133,34.133v-68.267   C134.751,213.333,119.467,228.617,119.467,247.467z" data-original="#F9F5F2" class=""/>
	<path style="fill:#F9F5F2;" d="M358.401,213.333V281.6c18.85,0,34.133-15.283,34.133-34.133S377.251,213.333,358.401,213.333z" data-original="#F9F5F2" class=""/>
	<path style="fill:#F9F5F2;" d="M256.001,196.267c-46.08,0-85.675-17.323-102.4-41.899v169.899c0,18.85,15.283,34.133,34.133,34.133   h136.533c18.85,0,34.133-15.283,34.133-34.133V154.368C341.675,178.944,302.081,196.267,256.001,196.267z" data-original="#F9F5F2" class=""/>
</g><g>
	<path style="fill:#000000" d="M480.752,436.113c-7.825-35.277-39.023-60.45-75.162-60.646h-72.789v-9.387   c19.849-4.079,34.108-21.547,34.133-41.813V289.28c19.849-4.079,34.108-21.547,34.133-41.813v-102.4   C401.067,64.947,336.12,0,256.001,0S110.934,64.947,110.934,145.067v102.4c0.026,20.267,14.285,37.734,34.133,41.813v34.987   c0.026,20.267,14.285,37.734,34.133,41.813v9.387h-72.789c-36.147,0.196-67.354,25.387-75.162,60.681l-13.995,65.536   c-0.981,4.608,1.954,9.139,6.562,10.129c0.589,0.128,1.186,0.188,1.783,0.188h460.8c4.71,0,8.533-3.823,8.533-8.533   c0-0.597-0.06-1.195-0.188-1.783L480.752,436.113z M196.267,366.933h119.467v34.133c0,14.14-11.46,25.6-25.6,25.6h-68.267   c-14.14,0-25.6-11.46-25.6-25.6V366.933z M366.934,271.607v-48.171c0.273,0.102,0.555,0.154,0.853,0.256   c0.469,0.188,0.93,0.41,1.391,0.623c0.947,0.444,1.86,0.939,2.748,1.493c0.418,0.256,0.853,0.512,1.237,0.794   c1.007,0.717,1.963,1.502,2.859,2.355c0.188,0.179,0.401,0.333,0.58,0.512c1.041,1.058,1.997,2.193,2.842,3.413   c0.23,0.341,0.427,0.717,0.649,1.067c0.58,0.93,1.109,1.894,1.57,2.884c0.213,0.469,0.41,0.947,0.589,1.434   c0.393,0.998,0.708,2.031,0.956,3.072c0.119,0.469,0.256,0.922,0.341,1.399c0.299,1.562,0.452,3.14,0.452,4.727   C383.992,258.313,377.157,267.981,366.934,271.607z M128.001,145.067c0-70.69,57.31-128,128-128s128,57.31,128,128v68.267   c-0.41-0.299-0.853-0.555-1.271-0.853c-0.418-0.299-0.725-0.495-1.101-0.742c-2.005-1.314-4.113-2.458-6.315-3.413   c-0.316-0.137-0.649-0.247-0.981-0.375c-2.347-0.973-4.77-1.732-7.253-2.261l-0.145-0.034l0,0v-51.285   c0-4.71-3.814-8.533-8.525-8.542c-2.825,0-5.47,1.399-7.066,3.738c-15.531,22.81-53.854,38.17-95.343,38.17   s-79.812-15.36-95.343-38.17c-2.645-3.9-7.953-4.907-11.853-2.261c-2.338,1.596-3.738,4.241-3.738,7.066v51.285l0,0h-0.119   c-2.483,0.529-4.907,1.289-7.253,2.261c-0.333,0.128-0.666,0.239-0.981,0.375c-2.202,0.956-4.309,2.099-6.315,3.413   c-0.375,0.247-0.742,0.486-1.101,0.742s-0.853,0.546-1.271,0.853L128.001,145.067z M128.001,247.467   c0.009-1.579,0.171-3.157,0.478-4.702c0.085-0.478,0.222-0.93,0.341-1.399c0.256-1.05,0.572-2.074,0.956-3.081   c0.188-0.478,0.375-0.956,0.589-1.417c0.461-0.998,0.981-1.963,1.57-2.893c0.222-0.35,0.418-0.725,0.649-1.067   c0.845-1.22,1.801-2.355,2.842-3.413c0.179-0.179,0.393-0.333,0.58-0.512c0.896-0.853,1.852-1.638,2.859-2.355   c0.401-0.282,0.853-0.538,1.237-0.794c0.887-0.555,1.801-1.05,2.748-1.493c0.461-0.213,0.922-0.435,1.391-0.623   c0.265-0.102,0.555-0.154,0.853-0.256v48.171C134.853,268.006,128.009,258.33,128.001,247.467z M162.134,324.267V175.829   c15.812,12.126,34.159,20.523,53.675,24.559c26.47,5.879,53.914,5.879,80.384,0c19.516-4.036,37.862-12.433,53.675-24.559v148.437   c0,14.14-11.46,25.6-25.6,25.6H187.734C173.594,349.867,162.134,338.406,162.134,324.267z M408.295,494.933l-7.347-44.075   l-16.828,2.816l6.878,41.259H121.003l6.878-41.259l-16.828-2.816l-7.347,44.075H36.148l11.785-55.194   c6.084-27.46,30.353-47.053,58.479-47.206h72.789v8.533c0.026,23.552,19.115,42.641,42.667,42.667h68.267   c23.552-0.026,42.641-19.115,42.667-42.667v-8.533h72.789c28.117,0.154,52.386,19.738,58.479,47.181l11.785,55.219H408.295z" data-original="#231F20" class="" data-old_color="#231F20"/>
	<circle style="fill:#000000" cx="307.201" cy="221.867" r="17.067" data-original="#231F20" class="" data-old_color="#231F20"/>
	<circle style="fill:#000000" cx="204.801" cy="221.867" r="17.067" data-original="#231F20" class="" data-old_color="#231F20"/>
</g></g> </svg>
