<svg id="Capa_1" enable-background="new 0 0 512 512" height="512" viewBox="0 0 512 512" width="512" xmlns="http://www.w3.org/2000/svg">



                                    <path d="m180.008 192.217h82.504v27.861h-82.504z" fill="#4c5699" transform="matrix(.707 -.707 .707 .707 -80.963 216.834)"></path>


                                    <path d="m253.459 199.708-25.76-25.76c-5.44-5.44-5.44-14.261 0-19.701s14.261-5.44 19.701 0l25.76 25.76c5.44 5.44 5.44 14.261 0 19.701s-14.26 5.44-19.701 0z" fill="#676fb2"></path>


                                    <path d="m504.04 316.448c-6.233-46.794-2.434-33.943-19.459-96.229-5.013-18.341-11.832-43.196-21.245-78.009-11.158-41.27-48.601-69.933-91.352-69.933h-116.703l-28.391 5.691v40.112c2.902-.528 5.882-.804 8.914-.804h66.76c8.284 0 15 6.716 15 15v72.941c0 8.284-6.716 15-15 15h-75.673v109.558l59.924 45h166.206c31.128.001 55.133-27.443 51.019-58.327zm-85.822-96.23h-40.654c-8.284 0-15-6.716-15-15v-78.521c0-5.203 4.217-9.421 9.42-9.421h.001c22.371 0 42.072 15.082 47.911 36.678l12.802 47.349c2.578 9.535-4.603 18.915-14.48 18.915z" fill="#70dcba"></path>
                                    <path d="m226.891 220.219h-.927-55.988l17.917-66.264c5.061-18.718 20.434-32.482 38.999-35.865v-4.524c0-18.313 11.29-34.732 28.39-41.288h-19.478c-42.751 0-80.193 28.663-91.352 69.933l-21.092 78.009h-37.518c-25.797 0-47.61 19.115-51.019 44.71l-6.863 51.52c-4.114 30.885 19.89 58.328 51.019 58.328h207.835c-34.885-37.175-59.923-97.909-59.923-154.559z" fill="#06ccab"></path>
                                    <path d="m32.5 354.777h66.154v50h-66.154c-13.807 0-25-11.193-25-25 0-13.807 11.193-25 25-25z" fill="#9ea2e3"></path>
                                    <path d="m479.5 354.777h-66.154v50h66.154c13.807 0 25-11.193 25-25 0-13.807-11.193-25-25-25z" fill="#9ea2e3"></path>


                                    <path d="m150.427 314.462h-24.375l-65 60.257 65 60.257h24.375c23.817-9.645 40.625-32.981 40.625-60.257 0-27.275-16.808-50.612-40.625-60.257z" fill="#676fb2"></path>
                                    <path d="m109.802 374.72c0 27.276 16.808 50.613 40.625 60.257-7.529 3.049-15.752 4.743-24.375 4.743-35.898 0-65-29.101-65-65s29.101-65 65-65c8.623 0 16.846 1.694 24.375 4.743-23.817 9.644-40.625 32.981-40.625 60.257z" fill="#4c5699"></path>
                                    <path d="m141.742 370.519c-2.318-8.652-11.242-13.804-19.894-11.486s-13.804 11.242-11.486 19.894c2.318 8.653 11.242 13.804 19.894 11.486s13.804-11.242 11.486-19.894z" fill="#9ea2e3"></path>


                                    <path d="m410.314 314.462h-24.375l-65 60.257 65 60.257h24.375c23.817-9.645 40.625-32.981 40.625-60.257 0-27.275-16.808-50.612-40.625-60.257z" fill="#676fb2"></path>
                                    <path d="m369.689 374.72c0 27.276 16.808 50.613 40.625 60.257-7.529 3.049-15.752 4.743-24.375 4.743-35.898 0-65-29.101-65-65s29.102-65 65-65c8.623 0 16.846 1.694 24.375 4.743-23.817 9.644-40.625 32.981-40.625 60.257z" fill="#4c5699"></path>
                                    <path d="m401.629 370.519c-2.318-8.652-11.242-13.804-19.894-11.486s-13.804 11.242-11.486 19.894c2.318 8.653 11.242 13.804 19.894 11.486s13.804-11.242 11.486-19.894z" fill="#9ea2e3"></path>



                                    <path d="m132.198 397.657c10.362-2.777 17.6-12.21 17.6-22.938 0-15.581-14.839-26.968-29.892-22.931-12.589 3.373-20.198 16.379-16.789 29.079 3.361 12.543 16.321 20.208 29.081 16.79zm-14.593-20.673c-3.425-12.772 17.192-15.33 17.192-2.265 0 3.951-2.666 7.426-6.483 8.449-.001 0-.001 0-.001 0-4.66 1.251-9.46-1.528-10.708-6.184z"></path>
                                    <path d="m397.814 354.157c-11.501-6.644-26-2.47-32.442 8.691-6.643 11.505-2.468 25.996 8.692 32.441 11.484 6.631 25.987 2.488 32.44-8.692 6.643-11.504 2.469-25.996-8.69-32.44zm-4.299 24.94c-2.389 4.139-7.751 5.628-11.949 3.202-4.112-2.373-5.644-7.724-3.203-11.951 2.375-4.114 7.728-5.641 11.949-3.202 4.112 2.373 5.643 7.724 3.203 11.951z"></path>
                                    <path d="m501.899 356.261c6.557-9.699 10.101-21.13 10.101-32.917 0-5.595-.391-5.958-3.208-29.061-2.893-23.729-3.066-25.149-16.978-76.043-4.826-17.652-7.945-29.037-12.321-45.114-1.089-3.998-5.216-6.358-9.206-5.267-3.997 1.088-6.354 5.21-5.267 9.206 4.075 14.975 7.361 26.979 12.325 45.13 13.623 49.839 13.733 50.743 16.557 73.903 2.849 23.355 3.098 22.84 3.098 27.245 0 9.103-2.854 17.922-8.101 25.324-2.977-.901-6.132-1.392-9.399-1.392h-26.466c-10.842-26.407-36.823-45.058-67.09-45.058-37.464 0-68.381 28.563-72.12 65.057h-115.643c-3.81-37.545-35.5-65.057-72.124-65.057-29.734 0-56.05 17.892-67.115 45.058h-16.808c-6.016-9.187-8.089-19.717-6.739-29.839l6.862-51.52c2.901-21.777 21.639-38.2 43.585-38.2h37.518c3.389 0 6.355-2.271 7.24-5.542l21.092-78.01c10.25-37.911 44.838-64.39 84.111-64.39h136.182c39.273 0 73.861 26.479 84.114 64.399l1.062 3.925c1.08 3.998 5.192 6.363 9.196 5.284 3.999-1.08 6.364-5.197 5.284-9.196l-1.065-3.938c-12.016-44.438-52.558-75.475-98.592-75.475h-136.181c-46.034 0-86.576 31.036-98.592 75.475l-19.593 72.467h-31.776c-29.434 0-54.563 22.02-58.454 51.22l-6.862 51.519c-1.525 11.446.336 22.62 4.946 32.586-14.553 3.223-25.472 16.229-25.472 31.737 0 17.921 14.579 32.5 32.5 32.5h31.553c5.303 8.729 12.447 16.322 20.867 22.14 3.411 2.356 8.081 1.501 10.434-1.906 2.355-3.408 1.501-8.079-1.906-10.434-15.334-10.596-24.891-28.12-24.891-47.357 0-31.14 25.034-57.5 57.5-57.5 31.222 0 57.5 25.131 57.5 57.428-.001.046-.001.092-.001.138-.027 23.513-14.133 44.41-35.939 53.24-9.714 3.935-19.952 5.001-29.697 3.625-4.101-.582-7.897 2.272-8.477 6.375-.581 4.102 2.273 7.896 6.375 8.477 12.511 1.77 25.396.3 37.43-4.573 25.174-10.193 42.207-33.144 44.926-59.652h115.664c3.792 36.436 34.695 64.944 72.108 64.944 26.236-.003 49.262-14.013 61.991-34.943h31.563c17.921 0 32.5-14.579 32.5-32.5 0-9.246-3.885-17.594-10.101-23.518zm-469.399 41.016c-9.649 0-17.5-7.851-17.5-17.5s7.851-17.5 17.5-17.5h22.129c-1.95 11.209-1.316 23.233 2.532 35zm353.443 34.943c-31.678 0-57.472-25.772-57.498-57.45 0-.039-.001-.091-.002-.143.051-31.663 25.825-57.408 57.5-57.408 31.706 0 57.5 25.794 57.5 57.5 0 31.703-25.795 57.497-57.5 57.501zm93.557-34.943h-24.669c2.333-7.104 3.612-14.683 3.612-22.558 0-4.244-.388-8.396-1.09-12.442h22.147c9.649 0 17.5 7.851 17.5 17.5s-7.851 17.5-17.5 17.5z"></path>
                                    <path d="m371.983 109.777c-9.33 0-16.92 7.591-16.92 16.921v78.521c0 12.406 10.094 22.5 22.5 22.5h40.654c14.815 0 25.59-14.056 21.72-28.372l-12.802-47.349c-6.721-24.86-29.4-42.221-55.152-42.221zm46.235 102.941h-40.654c-4.136 0-7.5-3.364-7.5-7.5v-78.521c0-1.06.861-1.921 1.921-1.921 18.99 0 35.715 12.804 40.671 31.135l12.802 47.35c1.288 4.768-2.297 9.457-7.24 9.457z"></path>
                                    <path d="m235.804 109.777c-25.751 0-48.431 17.362-55.152 42.221l-17.917 66.263c-1.288 4.764 2.306 9.458 7.24 9.458h132.589c12.406 0 22.5-10.094 22.5-22.5v-72.941c0-12.406-10.094-22.5-22.5-22.5h-66.76zm-2.803 58.866c-2.506-2.502-2.517-6.575.002-9.092 2.511-2.513 6.582-2.514 9.094 0l25.762 25.762c2.493 2.489 2.53 6.561-.003 9.092-2.51 2.512-6.58 2.513-9.094-.001zm-2.272 18.942 9.094 9.094-16.039 16.039h-18.188zm79.334-55.308v72.941c0 4.136-3.364 7.5-7.5 7.5h-57.565l5.619-5.619c8.369 6.186 20.213 5.548 27.847-2.088 8.373-8.375 8.377-21.934 0-30.308l-25.761-25.761c-8.377-8.373-21.93-8.374-30.308.001-7.625 7.627-8.286 19.465-2.088 27.848l-35.927 35.927h-4.609l15.36-56.805c4.957-18.333 21.682-31.137 40.672-31.137h66.76c4.136.001 7.5 3.365 7.5 7.501z"></path>


                                </svg>