<svg id="Capa_1" enable-background="new 41.64 164.945 512 512" height="512" viewBox="41.64 164.945 512 512" width="512" xmlns="http://www.w3.org/2000/svg"><g id="financail-money-payment-pay-hand"><g fill="#009698"><path d="m153.213 302.198h390.802v220.888h-390.802z"/><path d="m153.213 302.198h390.802v220.888h-390.802z"/><path d="m153.213 302.198h390.802v220.888h-390.802z"/><path d="m153.213 302.198h390.802v220.888h-390.802z"/></g><path d="m527.025 259.72v42.478h-322.837l306.1-40.269z" fill="#007579"/><path d="m510.032 259.72.256 2.209-306.1 40.269h-25.402l331.246-84.956z" fill="#006468"/><path d="m348.614 336.181c42.228-.01 76.47 34.215 76.48 76.443s-34.215 76.47-76.443 76.479c-29.121.007-55.719-16.529-68.597-42.648 3.98-5.712 6.142-12.493 6.202-19.455-.085-2.039-.255-3.992-.51-5.947-1.255-6.843-4.541-13.148-9.43-18.096-.986-.975-2.037-1.883-3.144-2.719 6.074-36.941 38.003-64.053 75.442-64.057z" fill="#ffcd00"/><path d="m425.076 412.643c0 42.229-34.234 76.461-76.462 76.461-5.686-.011-11.355-.637-16.905-1.869 41.178-9.36 66.97-50.329 57.611-91.507-6.515-28.658-28.877-51.046-57.527-57.592 5.513-1.302 11.157-1.958 16.821-1.955 42.227 0 76.462 34.233 76.462 76.462z" fill="#ddb200"/><path d="m285.746 421.054c.255 1.955.425 3.908.51 5.947-.06 6.962-2.222 13.743-6.202 19.455-1.101 1.616-2.353 3.124-3.738 4.503l-72.128 72.128 27.526 27.526c9.589 9.567 14.97 22.562 14.953 36.106v29.819h-163.883l-30.244-105.855c-.846-3.043-1.274-6.188-1.274-9.346v-105.091c-.02-5.972 1.564-11.84 4.587-16.991l105.857-183.421c9.383-16.258 30.171-21.831 46.429-12.447 16.257 9.385 21.83 30.171 12.446 46.43l-41.799 72.382h-25.572v178.411l75.017-77.651c12.145-12.124 31.423-13.291 44.942-2.719 1.107.835 2.157 1.744 3.144 2.719 4.888 4.947 8.174 11.252 9.429 18.095z" fill="#ffc477"/><path d="m286.256 427.001c-.06 6.962-2.222 13.743-6.202 19.455-1.101 1.616-2.353 3.124-3.738 4.503l-72.128 72.128 27.526 27.526c9.589 9.567 14.97 22.562 14.953 36.106v29.819h-33.983v-29.819c.018-13.545-5.363-26.539-14.952-36.106l-27.526-27.526 72.128-72.128c1.386-1.379 2.637-2.887 3.738-4.503 3.98-5.712 6.142-12.493 6.202-19.455-.085-2.039-.255-3.992-.51-5.947-1.255-6.843-4.541-13.148-9.431-18.096-.986-.975-2.036-1.883-3.143-2.719-1.229-.984-2.535-1.865-3.908-2.634 11.988-6.921 26.976-5.879 37.891 2.634 1.107.835 2.157 1.744 3.144 2.719 4.889 4.948 8.175 11.253 9.43 18.096.254 1.955.424 3.908.509 5.947z" fill="#ffa733"/><path d="m255.162 616.539v50.974h-186.905v-50.974h14.527 163.882z" fill="#2488ff"/><path d="m225.087 212.909c-.005 5.931-1.557 11.758-4.502 16.907l-43.664 72.382-16.137 5.832-7.57 36.647v169.914h-33.982v-169.914l67.371-114.861c9.317-16.264 3.734-37-12.489-46.387 16.254-9.385 37.038-3.815 46.421 12.438 2.99 5.182 4.561 11.06 4.552 17.042z" fill="#ffa733"/><path d="m510.032 302.198h33.983v220.888h-33.983z" fill="#007579"/><path d="m544.015 293.703h-8.495v-33.983c-.008-4.691-3.818-8.49-8.51-8.482-.364 0-.729.024-1.092.072l-7.391.934v-35.002c.014-2.634-1.214-5.12-3.313-6.711-2.076-1.592-4.765-2.154-7.305-1.529l-311.623 79.944 31.688-54.882c3.661-6.451 5.592-13.738 5.607-21.154.046-23.46-18.935-42.516-42.395-42.562-15.205-.029-29.266 8.07-36.87 21.237l-105.77 183.337c-3.783 6.47-5.777 13.83-5.777 21.324v105.092c-.012 3.937.531 7.854 1.614 11.64l27.102 95.066h-3.228c-4.692 0-8.496 3.804-8.496 8.495v50.975c0 4.692 3.804 8.496 8.496 8.496h186.905c4.692 0 8.496-3.804 8.496-8.496v-50.975c0-4.691-3.803-8.495-8.496-8.495v-21.324c.023-15.802-6.243-30.964-17.416-42.139l-13.083-12.998h319.353c4.691 0 8.495-3.804 8.495-8.496v-220.889c-.001-4.691-3.804-8.495-8.496-8.495zm-25.487-24.297v24.297h-184.61zm-16.991-41.205v26.337l-210.778 27.696zm-254.871 430.817h-169.914v-33.983h169.914zm-50.294-132.703c.421 1.03 1.059 1.957 1.869 2.719l-.085.085 27.526 27.526c8.037 7.938 12.539 18.778 12.489 30.074v21.324h-149.015l-28.46-99.654c-.608-2.302-.922-4.671-.935-7.052v-105.091c-.014-4.485 1.19-8.889 3.483-12.743l105.856-183.422c6.922-12.121 22.36-16.337 34.482-9.414.089.051.178.102.266.153 7.957 4.49 12.839 12.954 12.744 22.089-.01 4.444-1.182 8.807-3.398 12.658l-39.335 68.136h-20.645c-4.692 0-8.496 3.803-8.496 8.495v178.411c.02 3.449 2.09 6.556 5.267 7.9 3.238 1.306 6.945.496 9.346-2.038l74.932-77.482c10.006-9.947 26.181-9.899 36.128.107 3.552 3.573 5.968 8.118 6.945 13.061.17 1.699.34 3.398.425 4.758-.065 6.745-2.745 13.202-7.477 18.011l-72.128 72.129c-2.411 2.444-3.115 6.096-1.784 9.26zm339.148-11.723h-310.858l53.948-53.863c15.736 23.185 41.984 37.01 70.004 36.872 46.922.041 84.991-37.962 85.032-84.883.041-46.92-37.963-84.99-84.883-85.031-37.228-.033-70.141 24.176-81.198 59.725-15.736-6.006-33.531-2.214-45.452 9.685l-60.404 62.528v-148.93h373.811zm-241.448-95.153c-1.537-8.409-5.562-16.163-11.554-22.258 8.434-36.688 45.013-59.591 81.7-51.157 36.685 8.434 59.59 45.011 51.156 81.7-8.435 36.688-45.013 59.591-81.7 51.157-18.507-4.255-34.4-16.038-43.85-32.51 3.101-6.117 4.785-12.854 4.927-19.71-.084-2.293-.339-4.503-.679-7.222z"/><path d="m348.614 438.13c-4.692 0-8.495-3.803-8.495-8.495h-16.991c.045 10.762 6.844 20.337 16.991 23.924v10.06h16.992v-10.06c13.245-4.666 20.201-19.186 15.534-32.432-3.589-10.191-13.227-17-24.031-16.979-4.692 0-8.495-3.804-8.495-8.495 0-4.693 3.803-8.497 8.495-8.497 4.693 0 8.497 3.804 8.497 8.497h16.99c-.045-10.763-6.845-20.337-16.99-23.924v-10.059h-16.992v10.059c-13.246 4.665-20.202 19.185-15.535 32.431 3.589 10.19 13.227 17 24.03 16.979 4.693 0 8.497 3.804 8.497 8.496s-3.804 8.495-8.497 8.495z"/><path d="m195.692 360.59c11.957-3.113 21.294-12.451 24.408-24.408h18.07v-16.992h-25.487c-4.692 0-8.496 3.803-8.496 8.496 0 9.384-7.607 16.991-16.992 16.991-4.692 0-8.496 3.804-8.496 8.496v25.487h16.992v-18.07z"/><path d="m501.537 369.085v18.07h16.991v-25.486c0-4.693-3.804-8.496-8.496-8.496-9.383 0-16.99-7.607-16.99-16.992 0-4.692-3.805-8.495-8.497-8.495h-25.485v16.991h18.069c3.113 11.958 12.45 21.295 24.408 24.408z"/><path d="m493.042 489.104c0-9.384 7.607-16.991 16.99-16.991 4.692 0 8.496-3.804 8.496-8.495v-25.488h-16.991v18.071c-11.958 3.112-21.295 12.451-24.408 24.408h-18.069v16.991h25.485c4.692 0 8.497-3.804 8.497-8.496z"/></g></svg>