<svg id="Layer_3" enable-background="new 0 0 64 64" height="512" viewBox="0 0 64 64" width="512" xmlns="http://www.w3.org/2000/svg"><path d="m2 36h60v-13l-14-4-8.636-13.346c-1.474-2.278-4.003-3.654-6.716-3.654h-16.29c-3.242 0-6.163 1.956-7.397 4.954l-4.961 12.046h-2" fill="#d6759e"/><path d="m45 30c-17.121 0-31-9.402-31-21 0-2.438.62-4.777 1.748-6.954.203-.016.403-.046.61-.046h16.29c2.714 0 5.242 1.376 6.717 3.654l8.635 13.346 14 4v3.558c-4.882 2.174-10.721 3.442-17 3.442z" fill="#f097d0"/><path d="m13.014 8.564-4.014 10.436h33l-6.829-11.096c-.728-1.183-2.017-1.904-3.406-1.904h-15.018c-1.655 0-3.139 1.019-3.733 2.564z" fill="#c7e2fc"/><path d="m35.5 16c-10.75 0-19.551-4.24-20.414-9.632.511-.234 1.074-.368 1.661-.368h15.018c1.389 0 2.679.721 3.407 1.904l4.822 7.835c-1.449.166-2.948.261-4.494.261z" fill="#ebf7fe"/><path d="m58 28v-6.143l4 1.143v5z" fill="#f9d18b"/><circle cx="48" cy="36" fill="#4d5d7a" r="8"/><circle cx="48" cy="36" fill="#8892a0" r="4"/><path d="m62 49c-2.761 0-5 2.239-5 5 0-2.761-2.239-5-5-5 2.761 0 5-2.239 5-5 0 2.761 2.239 5 5 5z" fill="#8bd2f5"/><path d="m62 7c-2.761 0-5 2.239-5 5 0-2.761-2.239-5-5-5 2.761 0 5-2.239 5-5 0 2.761 2.239 5 5 5z" fill="#8bd2f5"/><path d="m62 60c0 1.105-.895 2-2 2h-14c-1.105 0-2-.895-2-2 0-1.105-.895-2-2-2h-6c-1.105 0-2-.895-2-2 0-1.105.895-2 2-2h14c1.105 0 2 .895 2 2 0 1.105.895 2 2 2h6c1.105 0 2 .895 2 2z" fill="#c7e2fc"/><path d="m8 42 2 20h18l2-20" fill="#f5b953"/><path d="m9.586 57.864c.628.08 1.264.136 1.914.136 8.008 0 14.5-6.268 14.5-14 0-.681-.068-1.345-.165-2h-17.835z" fill="#f9d18b"/><path d="m14 52h10v4h-10z" fill="#8892a0"/><path d="m6 38h26v4h-26z" fill="#8892a0"/><circle cx="5" cy="35" fill="#c7e2fc" r="3"/><circle cx="12" cy="33" fill="#a1cdfb" r="5"/><circle cx="33" cy="35" fill="#c7e2fc" r="3"/><circle cx="26" cy="33" fill="#a1cdfb" r="5"/><circle cx="19" cy="30" fill="#c7e2fc" r="5"/><path d="m32 43h-26c-.552 0-1-.448-1-1v-4c0-.552.448-1 1-1h26c.552 0 1 .448 1 1v4c0 .552-.448 1-1 1zm-25-2h24v-2h-24z"/><path d="m28 63h-18c-.514 0-.944-.389-.995-.9l-2-20 1.99-.199 1.91 19.1h16.19l1.91-19.1 1.99.199-2 20c-.051.511-.481.9-.995.9z"/><path d="m24 57h-10c-.552 0-1-.448-1-1v-4c0-.552.448-1 1-1h10c.552 0 1 .448 1 1v4c0 .552-.448 1-1 1zm-9-2h8v-2h-8z"/><path d="m48 45c-4.962 0-9-4.038-9-9s4.038-9 9-9 9 4.038 9 9-4.038 9-9 9zm0-16c-3.86 0-7 3.14-7 7s3.14 7 7 7 7-3.14 7-7-3.14-7-7-7z"/><path d="m62 37h-6v-2h5v-11.246l-13.275-3.793c-.232-.066-.433-.215-.564-.418l-8.636-13.346c-1.296-2.002-3.492-3.197-5.877-3.197h-16.291c-2.848 0-5.388 1.702-6.473 4.335l-4.96 12.046c-.153.374-.519.619-.924.619h-3v-2h2.33l4.705-11.427c1.395-3.385 4.661-5.573 8.322-5.573h16.291c3.066 0 5.891 1.537 7.556 4.11l8.432 13.031 13.639 3.897c.429.123.725.516.725.962v13c0 .552-.448 1-1 1z"/><path d="m48 41c-2.757 0-5-2.243-5-5s2.243-5 5-5 5 2.243 5 5-2.243 5-5 5zm0-8c-1.654 0-3 1.346-3 3s1.346 3 3 3 3-1.346 3-3-1.346-3-3-3z"/><path d="m62 29h-4c-.552 0-1-.448-1-1v-6h2v5h3z"/><path d="m42 20h-33c-.33 0-.638-.162-.824-.434-.187-.271-.228-.617-.109-.925l4.013-10.436c.738-1.917 2.613-3.205 4.667-3.205h15.018c1.724 0 3.355.912 4.258 2.38l6.829 11.096c.19.309.198.695.021 1.012s-.511.512-.873.512zm-31.544-2h29.754l-5.89-9.572c-.542-.881-1.521-1.428-2.555-1.428h-15.018c-1.232 0-2.357.773-2.8 1.923z"/><path d="m24 6h2v13h-2z"/><path d="m24 22h4v2h-4z"/><path d="m8 22h4v2h-4z"/><path d="m57 55c-.552 0-1-.448-1-1 0-2.206-1.794-4-4-4-.552 0-1-.448-1-1s.448-1 1-1c2.206 0 4-1.794 4-4 0-.552.448-1 1-1s1 .448 1 1c0 2.206 1.794 4 4 4 .552 0 1 .448 1 1s-.448 1-1 1c-2.206 0-4 1.794-4 4 0 .552-.448 1-1 1zm-1.687-6c.668.444 1.242 1.019 1.687 1.687.444-.668 1.019-1.242 1.687-1.687-.668-.444-1.242-1.019-1.687-1.687-.444.668-1.019 1.243-1.687 1.687z"/><path d="m57 13c-.552 0-1-.448-1-1 0-2.206-1.794-4-4-4-.552 0-1-.448-1-1s.448-1 1-1c2.206 0 4-1.794 4-4 0-.552.448-1 1-1s1 .448 1 1c0 2.206 1.794 4 4 4 .552 0 1 .448 1 1s-.448 1-1 1c-2.206 0-4 1.794-4 4 0 .552-.448 1-1 1zm-1.687-6c.668.444 1.243 1.019 1.687 1.687.444-.668 1.019-1.243 1.687-1.687-.668-.444-1.243-1.019-1.687-1.687-.444.668-1.019 1.243-1.687 1.687z"/><path d="m14 55c-7.168 0-13-5.832-13-13v-2c0-.552.448-1 1-1h4v2h-3v1c0 6.065 4.935 11 11 11z"/><path d="m24 55v-2c6.065 0 11-4.935 11-11v-1h-3v-2h4c.552 0 1 .448 1 1v2c0 7.168-5.832 13-13 13z"/><path d="m60 63h-14c-1.654 0-3-1.346-3-3 0-.551-.449-1-1-1h-6c-1.654 0-3-1.346-3-3s1.346-3 3-3h14c1.654 0 3 1.346 3 3 0 .551.449 1 1 1h6c1.654 0 3 1.346 3 3s-1.346 3-3 3zm-24-8c-.551 0-1 .449-1 1s.449 1 1 1h6c1.654 0 3 1.346 3 3 0 .551.449 1 1 1h14c.551 0 1-.449 1-1s-.449-1-1-1h-6c-1.654 0-3-1.346-3-3 0-.551-.449-1-1-1z"/><path d="m7 39h-2c-2.206 0-4-1.794-4-4s1.794-4 4-4 4 1.794 4 4h-2c0-1.103-.897-2-2-2s-2 .897-2 2 .897 2 2 2h2z"/><path d="m8 33h-2c0-3.309 2.691-6 6-6 .937 0 1.834.21 2.668.625l-.891 1.791c-.554-.276-1.152-.416-1.777-.416-2.206 0-4 1.794-4 4z"/><path d="m31.5 35.401-1.833-.801c.221-.505.333-1.043.333-1.6 0-2.206-1.794-4-4-4s-4 1.794-4 4h-2c0-3.309 2.691-6 6-6s6 2.691 6 6c0 .834-.168 1.642-.5 2.401z"/><path d="m14.2 33.601c-.785-1.046-1.2-2.291-1.2-3.601 0-3.309 2.691-6 6-6 2.649 0 4.953 1.699 5.734 4.228l-1.911.59c-.521-1.686-2.057-2.818-3.823-2.818-2.206 0-4 1.794-4 4 0 .874.276 1.704.799 2.399z"/><path d="m33 39h-2v-2h2c1.103 0 2-.897 2-2s-.897-2-2-2c-.495 0-.969.182-1.336.512l-1.338-1.486c.735-.662 1.685-1.026 2.674-1.026 2.206 0 4 1.794 4 4s-1.794 4-4 4z"/></svg>