<?xml version="1.0"?>
<svg xmlns="http://www.w3.org/2000/svg" xmlns:xlink="http://www.w3.org/1999/xlink" version="1.1" id="Capa_1" x="0px" y="0px" viewBox="0 0 512 512" style="enable-background:new 0 0 512 512;" xml:space="preserve" width="512px" height="512px" class=""><g><g>
	<path style="fill:#FFEB99;" d="M315.728,353.399c-8.132,3.311-16.818,5.009-25.599,5.009h-68.263   c-8.78,0-17.467-1.698-25.599-5.009v39.14h119.461V353.399z" data-original="#FFEB99"/>
	<polygon style="fill:#FFEB99;" points="255.998,409.605 315.728,435.204 315.728,392.539 196.268,392.539 196.268,435.204  " data-original="#FFEB99"/>
</g><path style="fill:#F097D0" d="M392.525,392.539h-76.797v42.665l-59.73-25.599l-59.73,25.599v-42.665h-76.796  c-56.573,0-110.928,45.822-110.928,102.395v8.533H230.4l8.533-51.197h34.132l8.533,51.197h221.856v-8.533  C503.452,438.361,449.098,392.539,392.525,392.539z" data-original="#78B9EB" class="active-path" data-old_color="#78B9EB"/><polygon style="fill:#FF5023;" points="238.932,452.27 230.399,503.467 281.597,503.467 273.064,452.27 " data-original="#FF5023"/><path style="fill:#FF9811;" d="M153.603,213.348v-8.533h110.928c56.462,0.085,102.31-45.625,102.395-102.088  c0-0.102,0-0.205,0-0.307V65.388C322.973,4.121,237.669-9.907,176.412,34.046c-35.77,25.667-56.974,67.009-56.94,111.039V247.48  C119.472,228.631,134.754,213.348,153.603,213.348z" data-original="#FF9811"/><path style="fill:#FFEB99;" d="M368.846,68.289c-0.648-0.956-1.246-1.963-1.92-2.901v2.901H368.846z" data-original="#FFEB99"/><path style="fill:#FF9811;" d="M366.926,102.421c0.051,17.97-4.659,35.633-13.653,51.197h5.12v59.73  c18.849,0,34.132,15.282,34.132,34.132V145.085c0.034-27.399-8.217-54.175-23.679-76.796h-1.92V102.421z" data-original="#FF9811"/><g>
	<path style="fill:#FFEB99;" d="M119.472,247.48c0,18.849,15.282,34.132,34.132,34.132v-68.263   C134.754,213.348,119.472,228.631,119.472,247.48z" data-original="#FFEB99"/>
	<path style="fill:#FFEB99;" d="M358.393,213.348v68.263c18.849,0,34.132-15.282,34.132-34.132S377.242,213.348,358.393,213.348z" data-original="#FFEB99"/>
	<path style="fill:#FFEB99;" d="M353.273,153.618c-18.303,31.7-52.136,51.223-88.742,51.197H153.603v85.329   c0.051,37.681,30.582,68.212,68.263,68.263h68.263c37.681-0.051,68.212-30.582,68.263-68.263V153.618H353.273L353.273,153.618z" data-original="#FFEB99"/>
</g><polygon style="fill:#FF5023;" points="238.932,452.27 273.064,452.27 273.064,418.138 255.998,409.605 238.932,418.138 " data-original="#FF5023"/><polygon style="fill:#F097D0" points="196.268,392.539 315.728,392.539 315.728,435.204 255.998,409.605 196.268,435.204 " data-original="#78B9EB" class="active-path" data-old_color="#78B9EB"/><path style="fill:#3F3F3F" d="M392.525,384.006h-68.263v-25.172c26.102-12.953,42.622-39.55,42.665-68.69v-0.853  c19.848-4.079,34.106-21.546,34.132-41.811V145.085c0.026-23.815-5.836-47.264-17.066-68.263h34.132V59.756H375.46V17.091h-17.066  v25.3c-56.667-56.582-148.473-56.513-205.063,0.154c-27.169,27.211-42.417,64.091-42.391,102.54V247.48  c0.026,20.266,14.284,37.732,34.132,41.811v0.853c0.043,29.14,16.562,55.737,42.665,68.69v25.172h-68.263  c-63.638,0-119.461,51.837-119.461,110.928v8.533c0,4.71,3.823,8.533,8.533,8.533h494.909c4.71,0,8.533-3.823,8.533-8.533v-8.533  C511.985,435.844,456.163,384.006,392.525,384.006z M264.531,443.737h-17.066v-21.196l8.533-3.652l8.533,3.652V443.737z   M204.801,401.072h51.197c-1.152,0-2.295,0.239-3.353,0.691l-47.844,20.496L204.801,401.072L204.801,401.072z M259.36,401.763  c-1.058-0.452-2.21-0.691-3.362-0.691h51.197v21.187L259.36,401.763z M366.926,271.62v-48.28  c13.328,4.702,20.325,19.327,15.624,32.655C379.964,263.3,374.221,269.043,366.926,271.62z M383.992,213.596  c-5.026-3.882-10.854-6.579-17.066-7.893v-52.085c-0.017-1.032-0.222-2.056-0.606-3.021c-0.119-0.273-0.256-0.538-0.401-0.794  c-0.154-0.367-0.324-0.725-0.521-1.067c0.333-0.725,0.563-1.493,0.853-2.227c0.623-1.434,1.16-2.893,1.707-4.36  c1.058-2.756,2.005-5.538,2.833-8.371c0.461-1.553,0.853-3.097,1.28-4.667c0.742-2.987,1.306-5.973,1.8-9.053  c0.222-1.399,0.503-2.782,0.674-4.19c0.572-4.463,0.879-8.951,0.913-13.448v-3.498c5.666,14.728,8.559,30.377,8.533,46.163  L383.992,213.596L383.992,213.596z M160.003,60.37C206.857,7.347,287.826,2.355,340.849,49.209  c6.476,5.717,12.347,12.083,17.544,18.986v34.225c-0.043,5.128-0.512,10.248-1.391,15.308c-1.101,7.082-3.021,14.011-5.708,20.658  c-1.297,3.038-2.765,6.007-4.386,8.891c-0.367,0.674-0.64,1.399-1.024,2.074c-16.835,29.003-47.818,46.88-81.353,46.931H153.603  c-4.71,0-8.533,3.823-8.533,8.533v0.853c-6.212,1.314-12.04,4.01-17.066,7.893v-68.477  C127.979,113.889,139.353,83.759,160.003,60.37z M128.004,247.48c0.017-10.845,6.843-20.513,17.066-24.14v48.279  C134.848,267.993,128.013,258.325,128.004,247.48z M162.136,290.144v-76.796h27.971c-1.536,2.585-2.355,5.529-2.372,8.533  c0,9.429,7.637,17.066,17.066,17.066s17.066-7.637,17.066-17.066c-0.017-3.004-0.836-5.947-2.372-8.533h45.037  c3.703-0.017,7.407-0.23,11.093-0.623c0.657-0.068,1.314-0.119,1.971-0.196c3.524-0.427,7.006-1.015,10.453-1.775  c0.666-0.137,1.314-0.307,1.971-0.461c2.261-0.538,4.488-1.143,6.698-1.818c-7.355,5.811-8.601,16.486-2.782,23.841  c5.811,7.355,16.486,8.601,23.841,2.782c7.355-5.811,8.601-16.486,2.782-23.841c-3.234-4.087-8.157-6.459-13.363-6.442h-0.111  c1.237-0.512,2.44-1.101,3.661-1.707c0.546-0.247,1.101-0.486,1.647-0.742c3.166-1.519,6.255-3.183,9.267-5  c0.572-0.341,1.126-0.7,1.707-1.05c3.055-1.911,6.041-3.925,8.9-6.118l0.529-0.367c2.765-2.15,5.418-4.454,7.978-6.826  c0.401-0.384,0.853-0.751,1.229-1.143c2.56-2.457,4.941-5.06,7.244-7.765c0.205-0.247,0.452-0.461,0.657-0.708v116.756  c-0.034,32.971-26.759,59.696-59.73,59.73h-68.306C188.887,349.841,162.17,323.116,162.136,290.144z M221.866,366.941h68.263  c5.743-0.017,11.468-0.683,17.066-1.98v19.045H204.801v-19.045C210.39,366.258,216.115,366.924,221.866,366.941z M119.472,401.072  h68.263v34.132c0,4.71,3.823,8.533,8.533,8.533c1.152,0,2.295-0.239,3.362-0.691l30.77-13.183v21.699l-7.227,43.373H102.406v-34.132  H85.34v34.132H17.077C17.077,444.931,64.921,401.072,119.472,401.072z M240.477,494.934l5.683-34.132h19.677l5.683,34.132H240.477z   M426.656,494.934v-34.132H409.59v34.132H288.824l-7.227-43.373v-21.699l30.77,13.183c4.335,1.86,9.352-0.145,11.204-4.48  c0.452-1.058,0.691-2.201,0.691-3.362v-34.132h68.263c54.551,0,102.395,43.859,102.395,93.862L426.656,494.934L426.656,494.934z" data-original="#3F3F3F" class="" data-old_color="#3F3F3F"/></g> </svg>
