<svg id="Layer_1" enable-background="new 0 0 480 480" height="512" viewBox="0 0 480 480" width="512" xmlns="http://www.w3.org/2000/svg"><path d="m394 424.74v39.26c0 4.42-3.58 8-8 8h-292c-4.42 0-8-3.58-8-8v-39.26c0-41.03 33.15-74.95 74.18-74.57 23.118.192 41.82-18.396 41.82-41.34v-6.83l.15-.37c-35.9-14.86-61.15-50.23-61.15-91.5v-3.13c-14.255 0-25-11.265-25-24.54v-97.46c0-14.91 12.09-27 27-27 12.074-30.184 41.323-50 73.85-50h68.61c43.93 0 79.54 35.61 79.54 79.54v93.46c0 14.36-11.64 26-26 26v3.13c0 41.27-25.25 76.64-61.15 91.5l.15.37v6.83c0 22.932 18.691 41.532 41.82 41.34 41.03-.38 74.18 33.54 74.18 74.57z" fill="#ffdfba"/><path d="m394 424.74v39.26c0 4.418-3.582 8-8 8h-292c-4.418 0-8-3.582-8-8v-39.26c0-41.031 33.148-74.952 74.178-74.572 6.013.056 11.75-1.169 16.922-3.418v.01c12.069 27.44 40.785 44.126 70.9 40.59 23.97-2.81 45.03-18.15 54.9-40.59v-.01c5.173 2.249 10.91 3.474 16.922 3.418 41.03-.38 74.178 33.541 74.178 74.572z" fill="#befa91"/><path d="m365 87.54v93.46c0 14.36-11.64 26-26 26 0-10.8 0-37.35 0-61.77 0-26.51-21.49-48-48-48h-102c-26.51 0-48 21.49-48 48v61.77c-14.255 0-25-11.265-25-24.54v-97.46c0-14.91 12.09-27 27-27 12.073-30.184 41.323-50 73.85-50h68.61c43.93 0 79.54 35.61 79.54 79.54z" fill="#42434d"/><path d="m339 210.13c0 41.27-25.25 76.64-61.15 91.5-64.765 26.884-136.85-20.785-136.85-91.5 0-6.721 0-57.228 0-64.9 0-26.51 21.49-48 48-48h102c26.51 0 48 21.49 48 48z" fill="#ffebd2"/><path d="m181.728 355.51c5.707 9.127.745 21.147-9.677 23.842-25.126 6.499-58.051 23.411-58.051 71.128v21.52h-20c-4.418 0-8-3.582-8-8v-39.26c0-29.807 17.538-56.006 43.88-67.98h.01c23.819-10.682 30.59-3.077 47.21-10 1.343 3.053 2.892 5.974 4.628 8.75z" fill="#d0ffad"/><path d="m297.939 355.51c-5.707 9.127-.745 21.147 9.677 23.842 25.126 6.499 58.051 23.411 58.051 71.128v21.52h20c4.418 0 8-3.582 8-8v-39.26c0-29.807-17.538-56.006-43.88-67.98h-.01c-23.819-10.682-30.59-3.077-47.21-10-1.343 3.053-2.892 5.974-4.628 8.75z" fill="#9de667"/><path d="m217.584 274.057c16.277 10.183 3.442 35.156-14.376 28.004-36.634-14.704-62.208-50.403-62.208-91.931v-64.9c0-10.084 3.11-19.442 8.422-27.168 6.657-9.68 21.65-4.88 21.578 6.868-.001.245-.001 64.955-.001 65.2.001 36.51 19.193 66.79 46.585 83.927z" fill="#fff3e4"/><path d="m279.13 318.42c-24.637 10.313-51.712 11.113-78.26 0 1.356-5.626 1.13-9.27 1.13-16.42l.15-.37c24.082 9.996 51.571 10.016 75.7 0l.15.37c0 7.153-.226 10.796 1.13 16.42z" fill="#ffd6a6"/><path d="m321.15 16.436c10.811 5.437 6.839 21.629-5.262 21.566-.35-.003-68.688-.002-69.038-.002-30.551 0-58.232 17.485-71.482 44.657-1.511 3.099-4.431 5.201-7.808 5.892-12.304 2.518-21.56 13.405-21.56 26.451v8.88c-3.2 6.43-5 13.68-5 21.35v44.496c0 11.098-14.37 15.714-20.678 6.583-2.746-3.975-4.322-8.764-4.322-13.849v-97.46c0-14.91 12.09-27 27-27 12.074-30.184 41.323-50 73.85-50h68.61c12.833 0 24.957 3.038 35.69 8.436z" fill="#4d4e59"/><path d="m402 424.743v47.257c0 4.418-3.582 8-8 8s-8-3.582-8-8v-47.257c0-36.795-29.775-66.572-66.573-66.571-17.41 0-33.208-8.87-42.258-23.728-2.299-3.773-1.103-8.696 2.67-10.994 3.772-2.299 8.695-1.103 10.994 2.671 6.122 10.051 16.812 16.051 28.594 16.051 45.638-.002 82.573 36.93 82.573 82.571zm-111.612-58.26c2.846 3.38 2.412 8.427-.968 11.272-11.781 9.917-26.254 16.025-41.42 17.627v36.618c0 4.418-3.582 8-8 8s-8-3.582-8-8v-36.603c-24.747-2.591-46.758-17.082-58.921-38.818-4.034 1.045-8.227 1.592-12.505 1.592-36.879 0-66.574 29.849-66.574 66.571v47.258c0 4.418-3.582 8-8 8s-8-3.582-8-8v-47.257c0-45.636 36.929-82.571 82.571-82.571 18.459 0 33.429-14.871 33.429-33.342v-2.107c-34.919-16.697-59.429-51.784-60.923-92.643-14.37-3.455-25.077-16.317-25.077-31.62v-97.46c0-17.451 12.839-31.96 29.566-34.579 14.369-30.791 44.965-50.421 79.286-50.421h68.607c48.27 0 87.541 39.271 87.541 87.541v94.919c0 4.418-3.582 8-8 8s-8-3.582-8-8v-94.919c0-39.448-32.093-71.541-71.541-71.541h-68.607c-29.423 0-55.497 17.652-66.424 44.971-1.215 3.037-4.157 5.029-7.428 5.029-10.477 0-19 8.523-19 19v97.46c0 6.348 3.656 11.865 9 14.636v-51.863c0-30.878 25.122-56 56-56h102c30.879 0 56 25.12 56 55.997v65.503c0 69.574-67.988 122.42-137.17 102.053-1.244 15.763-9.789 29.158-22.057 37.259 19.065 32.204 62.56 39.698 91.342 15.469 3.378-2.843 8.426-2.411 11.273.969zm-50.388-65.358c50.178 0 91-40.822 91-91v-64.895c0-22.054-17.944-39.997-40-39.997h-102c-22.056 0-40 17.944-40 40v64.892c0 50.178 40.822 91 91 91z"/></svg>