<svg id="Layer_1" enable-background="new 0 0 480.001 480.001" height="512" viewBox="0 0 480.001 480.001" width="512" xmlns="http://www.w3.org/2000/svg"><path d="m94 472c-4.42 0-8-3.58-8-8v-39.26c0-31.7 19.78-58.78 47.68-69.57 21.389-8.284 28.389-1.885 43.42-8.42 14.65-6.36 24.9-20.93 24.9-37.92v-6.83l.15-.37c-35.9-14.86-61.15-50.23-61.15-91.5v-45.3c.054-44.884 30.565-83.983 74.35-94.86l10.25-50.21c1.4-6.85 7.42-11.76 14.4-11.76s13 4.91 14.4 11.76l10.25 50.21c43.743 10.866 74.296 49.929 74.35 94.86v45.3c0 41.27-25.25 76.64-61.15 91.5l.15.37v6.83c0 16.99 10.25 31.56 24.9 37.92 14.796 6.433 21.273.296 42.17 7.95 28.55 10.45 48.93 37.87 48.93 70.04v39.26c0 4.42-3.58 8-8 8z" fill="#ffdfba"/><path d="m94 472c-4.418 0-8-3.582-8-8v-39.26c0-31.7 19.78-58.78 47.68-69.57 21.389-8.284 28.389-1.885 43.42-8.42v.01c10.95 24.91 35.7 41.06 62.9 41.06s51.95-16.15 62.9-41.06v-.01c14.796 6.433 21.273.296 42.17 7.95 28.55 10.45 48.93 37.87 48.93 70.04v39.26c0 4.418-3.582 8-8 8z" fill="#ffebd2"/><path d="m275.64 377.82c4.31 1.52 8.96 2.35 13.79 2.35 41.125 0 74.57 33.336 74.57 74.57v17.26h22c4.42 0 8-3.58 8-8v-39.26c0-41.228-33.438-74.57-74.57-74.57-5.87 0-11.47-1.22-16.53-3.42v.01c-5.79 13.17-15.43 23.89-27.26 31.06z" fill="#ffdfba"/><path d="m339 164.83v45.3c0 54.696-44.348 99-99 99-54.65 0-99-44.302-99-99v-45.3c.054-44.884 30.565-83.984 74.35-94.86l-2.45 12.03c-2.53 12.4 6.94 24 19.59 24h15.02c12.65 0 22.12-11.6 19.59-24l-2.45-12.03c43.743 10.866 74.296 49.929 74.35 94.86z" fill="#ffebd2"/><path d="m267.1 82c2.53 12.4-6.94 24-19.59 24h-15.02c-12.65 0-22.12-11.6-19.59-24 3.17-15.566.661-3.265 12.7-62.24 1.4-6.85 7.42-11.76 14.4-11.76s13 4.91 14.4 11.76c12.039 58.973 9.531 46.676 12.7 62.24z" fill="#fe4f60"/><path d="m204.36 377.82c-4.31 1.52-8.96 2.35-13.79 2.35-41.125 0-74.57 33.336-74.57 74.57v17.26h-22c-4.42 0-8-3.58-8-8v-39.26c0-41.228 33.438-74.57 74.57-74.57 5.87 0 11.47-1.22 16.53-3.42v.01c5.79 13.17 15.43 23.89 27.26 31.06z" fill="#fff3e4"/><path d="m279.13 318.42c-24.637 10.313-51.712 11.113-78.26 0 1.356-5.626 1.13-9.27 1.13-16.42l.15-.37c24.082 9.996 51.571 10.016 75.7 0l.15.37c0 7.153-.225 10.796 1.13 16.42z" fill="#ffd6a6"/><path d="m216.029 97.35c3.896 5.641 2.74 13.329-2.906 17.219-26.961 18.573-42.084 48.87-42.122 80.261v45.3c0 14.828-18.874 17.517-23.567 5.175-4.157-10.93-6.433-22.787-6.433-35.175v-45.3c.054-44.884 30.565-83.983 74.35-94.86l-2.451 12.03c-1.147 5.615.17 11.067 3.129 15.35z" fill="#fff3e4"/><path d="m250.993 26.286c-4.209 1.888-7.417 5.711-8.393 10.474-8.164 39.989-11.419 55.293-12.584 61.992-.705 4.052-5.376 6.109-8.773 3.791-6.377-4.349-10.031-12.267-8.343-20.543 3.17-15.566.661-3.265 12.7-62.24 1.4-6.85 7.42-11.76 14.4-11.76 11.992 0 19.11 14.645 10.993 18.286z" fill="#ff6d7a"/><path d="m345.07 354.7c-.104 1.962-.07-7.591-.07 117.3h-211v-115.98l-.32-.85c21.389-8.284 28.389-1.885 43.42-8.42v.01c10.95 24.91 35.7 41.06 62.9 41.06s51.95-16.15 62.9-41.06v-.01c14.797 6.433 21.273.296 42.17 7.95z" fill="#42434d"/><path d="m275.263 457.98-10.263 14.02h-50l-10.263-14.02c-3.081-4.209.305-10.073 5.49-9.509l12.906 1.404c2.6.283 5.084-1.151 6.139-3.544l5.238-11.879c2.104-4.772 8.876-4.772 10.98 0l5.238 11.879c1.055 2.393 3.539 3.827 6.139 3.544l12.906-1.404c5.185-.564 8.571 5.301 5.49 9.509z" fill="#e8f8fc"/><path d="m194.35 370.438c3.698 3.282 1.806 9.732-3.779 9.732-22.251 0-42.646 9.797-56.57 25.98v-50.13l-.32-.85c21.389-8.284 28.389-1.885 43.42-8.42v.01c4.052 9.219 9.992 17.237 17.249 23.678z" fill="#4d4e59"/><path d="m345 405.02c-13.66-15.26-33.51-24.85-55.57-24.85-4.83 0-9.48-.83-13.79-2.35 12.962-7.828 22.049-19.192 27.26-31.06v-.01c14.639 6.406 21.559.339 42.17 7.95-.08 1.51-.08-3.78-.07 50.32z" fill="#2c2c33"/><path d="m402 424.743v47.257c0 4.418-3.582 8-8 8s-8-3.582-8-8v-47.257c0-24.523-13.176-45.885-33-57.504v104.761c0 4.418-3.582 8-8 8s-8-3.582-8-8v-111.477c-5.658-1.538-11.552-2.351-17.573-2.351-17.411 0-33.208-8.87-42.258-23.728-2.299-3.773-1.103-8.695 2.67-10.994 3.772-2.3 8.695-1.103 10.994 2.67 6.123 10.051 16.812 16.051 28.594 16.051 45.637 0 82.573 36.93 82.573 82.572zm-119.563 14.304-24.979 2.716-10.137-22.991c-2.796-6.343-11.837-6.358-14.64 0l-10.137 22.991-24.979-2.716c-6.889-.75-11.425 7.071-7.32 12.679l18.301 25c2.609 3.565 7.616 4.34 11.181 1.729 3.565-2.61 4.339-7.616 1.729-11.181l-7.584-10.36 12.764 1.388c3.471.379 6.778-1.535 8.185-4.726l5.18-11.748 5.18 11.748c1.407 3.191 4.726 5.104 8.185 4.726l12.764-1.388-7.584 10.36c-2.61 3.565-1.835 8.571 1.729 11.181 3.565 2.61 8.571 1.836 11.181-1.729l18.301-25c4.108-5.612-.44-13.437-7.32-12.679zm7.951-72.564c2.845 3.38 2.412 8.427-.968 11.272-36.839 31.013-92.817 20.862-116.341-21.176-11.296 2.926-16.813.098-31.079 4.219v111.202c0 4.418-3.582 8-8 8s-8-3.582-8-8v-104.166c-19.313 11.781-32 32.841-32 56.909v47.257c0 4.418-3.582 8-8 8s-8-3.582-8-8v-47.257c0-45.635 36.929-82.571 82.571-82.571 18.452 0 33.429-14.864 33.429-33.341v-2.107c-38.131-18.232-61-56.792-61-95.371v-46.527c0-47.946 31.887-88.261 75.487-101.221l9.275-45.446c2.148-10.522 11.5-18.159 22.238-18.159s20.091 7.637 22.238 18.158l12.703 62.243c3.546 17.374-9.738 33.599-27.434 33.599h-15.013c-17.164 0-30.234-15.28-27.687-32.158-33.276 13.585-55.807 46.449-55.807 82.984v45.299c0 50.178 40.822 91 91 91s91-40.822 91-91v-45.296c0-27.478-12.352-53.057-33.889-70.178-3.458-2.75-4.033-7.782-1.284-11.241 2.749-3.458 7.782-4.034 11.241-1.284 25.378 20.175 39.932 50.319 39.932 82.703v45.905c0 69.574-67.987 122.419-137.17 102.053-1.244 15.762-9.788 29.158-22.057 37.259 19.109 32.28 62.62 39.651 91.342 15.47 3.382-2.845 8.428-2.412 11.273.967zm-57.894-268.483h15.013c7.6 0 13.274-6.968 11.757-14.399l-12.703-62.243c-1.45-7.101-11.67-7.112-13.122 0l-12.703 62.243c-1.519 7.446 4.174 14.399 11.758 14.399z"/></svg>