<svg id="Layer_1" enable-background="new 0 0 480.002 480.002" height="512" viewBox="0 0 480.002 480.002" width="512" xmlns="http://www.w3.org/2000/svg"><path d="m407.521 363.48c-.232.232-23.421 23.459-23.7 23.63 6.47 11.05 10.18 23.91 10.18 37.63v39.26c0 4.42-3.58 8-8 8h-292c-4.42 0-8-3.58-8-8v-39.26c0-13.72 3.71-26.58 10.18-37.63-.269-.164 1.628 1.698-23.7-23.63-9.4-9.4-10.27-24.34-2.04-34.77 10.038-12.843 7.122-27.663-1.91-36.18-9.91-9.35-11.01-24.73-2.53-35.39l11.52-14.48c5.31-6.68 7.04-15.54 4.62-23.73l-7.44-25.23c-3.81-12.89 2.76-26.58 15.2-31.67l9.83-4.03c9.84-4.03 16.27-13.61 16.27-24.25v-25.75c0-55.23 44.77-100 100-100h48c55.227 0 100 44.758 100 100v25.75c0 10.64 6.43 20.22 16.27 24.25l9.83 4.03c12.44 5.09 19.01 18.78 15.2 31.67l-7.44 25.23c-2.42 8.19-.69 17.05 4.62 23.73l11.52 14.48c8.487 10.686 7.376 26.03-2.53 35.39-9.89 9.32-11.01 24.65-2.59 35.31 9.566 12.239 7.533 26.747-1.36 35.64z" fill="#ffdfba"/><path d="m72.481 363.48c.232.232 23.421 23.459 23.7 23.63-6.47 11.05-10.18 23.91-10.18 37.63v39.26c0 4.42 3.58 8 8 8h292c4.42 0 8-3.58 8-8v-39.26c0-13.72-3.71-26.58-10.18-37.63.269-.164-1.628 1.698 23.7-23.63 9.4-9.4 10.27-24.34 2.04-34.77-10.038-12.843-7.122-27.663 1.91-36.18 9.91-9.35 11.01-24.73 2.53-35.39l-11.52-14.48c-5.31-6.68-7.04-15.54-4.62-23.73l7.44-25.23c3.81-12.89-2.76-26.58-15.2-31.67l-9.83-4.03c-9.84-4.03-16.27-13.61-16.27-24.25v-25.75c0-55.23-44.77-100-100-100h-48c-55.227 0-100 44.758-100 100v25.75c0 10.64-6.43 20.22-16.27 24.25l-9.83 4.03c-12.44 5.09-19.01 18.78-15.2 31.67l7.44 25.23c2.42 8.19.69 17.05-4.62 23.73l-11.52 14.48c-8.487 10.686-7.376 26.03 2.53 35.39 9.89 9.32 11.01 24.65 2.59 35.31-9.566 12.239-7.533 26.747 1.36 35.64z" fill="#ffdfba"/><path d="m148.094 186.836c-4.044.462-7.093 3.876-7.093 7.946v15.349c0 41.26 25.25 76.64 61.15 91.5l-.15.37v6.83c0 22.742-18.332 41.074-40.95 41.34-28.072 0-51.915 14.815-64.87 36.94-.279-.171-23.468-23.398-23.7-23.63-9.4-9.4-10.27-24.34-2.04-34.77 10.038-12.843 7.122-27.663-1.91-36.18-9.91-9.35-11.01-24.73-2.53-35.39l11.52-14.48c5.31-6.68 7.04-15.54 4.62-23.73l-7.44-25.23c-3.81-12.89 2.76-26.58 15.2-31.67l9.83-4.03c9.84-4.03 16.27-13.61 16.27-24.25v-25.751c0-55.228 44.772-100 100-100h48c55.227 0 100 44.759 100 100v25.75c0 10.64 6.43 20.22 16.27 24.25l9.83 4.03c12.44 5.09 19.01 18.78 15.2 31.67l-7.44 25.23c-2.42 8.19-.69 17.05 4.62 23.73l11.52 14.48c8.486 10.685 7.378 26.029-2.53 35.39-9.236 8.703-11.782 23.55-1.91 36.18 8.23 10.43 7.36 25.37-2.04 34.77-.232.232-23.421 23.459-23.7 23.63-12.848-21.942-36.593-36.94-64.87-36.94-22.609-.266-40.95-18.587-40.95-41.34v-6.83l-.15-.38c35.9-14.86 61.15-50.22 61.15-91.49v-49.313c0-3.362-2.094-6.369-5.256-7.513-17.4-6.292-32.091-18.416-41.536-34.614-2.759-4.731-9.384-5.284-12.962-1.137-33.479 38.805-79.948 63.436-131.153 69.283z" fill="#fe4f60"/><path d="m333.745 153.305c3.162 1.143 5.256 4.15 5.256 7.513v49.313c0 41.27-25.25 76.63-61.15 91.49-64.937 26.955-136.85-20.93-136.85-91.49v-15.349c0-4.07 3.049-7.484 7.093-7.946 51.118-5.837 97.617-30.411 131.153-69.281 3.578-4.147 10.203-3.595 12.962 1.137 9.436 16.183 24.117 28.314 41.536 34.613z" fill="#ffebd2"/><path d="m394.001 424.74v39.26c0 4.42-3.58 8-8 8h-292c-4.42 0-8-3.58-8-8v-39.26c0-41.151 33.358-74.57 74.57-74.57 5.779 0 11.624-1.183 17.18-3.71l.25.54 57.1 44.21c2.89 2.23 6.91 2.23 9.8 0l57.1-44.21.25-.54c5.1 2.32 10.75 3.64 16.7 3.71 42.818 0 75.05 34.345 75.05 74.57z" fill="#42434d"/><path d="m299.131 14.352c12.78 4.792 9.117 23.73-4.532 23.65-.497-.003-48.1-.002-48.598-.002-55.228 0-100 44.772-100 100v25.75c0 10.64-6.43 20.22-16.27 24.25l-9.83 4.03c-12.44 5.09-19.01 18.78-15.2 31.67l7.44 25.23c2.42 8.19.69 17.05-4.62 23.73l-11.52 14.48c-8.48 10.66-7.38 26.04 2.53 35.39 9.873 9.311 11.019 24.628 2.59 35.31-7.06 9.033-7.829 18.884-4.241 27.329.407.959-.817 1.842-1.585 1.087-4.284-4.214-22.608-22.57-22.814-22.775-8.717-8.717-11.085-23.198-1.36-35.64 8.438-10.692 7.274-26.009-2.59-35.31-9.91-9.35-11.01-24.73-2.53-35.39l11.52-14.48c5.31-6.68 7.04-15.54 4.62-23.73l-7.44-25.23c-3.81-12.89 2.76-26.58 15.2-31.67l9.83-4.03c9.84-4.03 16.27-13.61 16.27-24.25v-25.751c0-55.228 44.772-100 100-100h48c12.259 0 24.118 2.223 35.13 6.352z" fill="#ff6d7a"/><path d="m217.471 274.121c16.194 10.253 3.539 35.069-14.254 27.943-36.544-14.637-62.216-50.34-62.216-91.934v-15.35c0-4.07 3.05-7.48 7.09-7.94 3.715-.428 7.72-.989 11.967-1.73 5.63-.982 10.919 3.066 11.383 8.762 3.015 37.04 21.238 64.552 46.03 80.249z" fill="#fff3e4"/><path d="m190.796 356.91c5.105 3.953 2.403 12.234-4.054 12.26-42.537.171-74.742 34.319-74.742 74.57v28.26h-18c-4.418 0-8-3.582-8-8v-39.26c0-40.46 32.461-74.57 75.05-74.57 5.95-.07 11.6-1.39 16.7-3.71l.25.54z" fill="#4d4e59"/><path d="m289.206 356.91c-5.105 3.953-2.403 12.234 4.054 12.26 42.537.171 74.742 34.319 74.742 74.57v28.26h18c4.418 0 8-3.582 8-8v-39.26c0-40.46-32.461-74.57-75.05-74.57-5.95-.07-11.6-1.39-16.7-3.71l-.25.54z" fill="#2c2c33"/><path d="m235.104 391.208c2.883 2.232 6.911 2.232 9.795 0l57.102-44.208.25-.54c5.1 2.32 10.75 3.64 16.7 3.71l-34.95 121.83h-88l-34.95-121.83c5.95-.07 11.6-1.39 16.7-3.71l.25.54z" fill="#d6f4fc"/><path d="m177.617 369.71c-2.985.333-6.361.913-10.385 1.99l-6.18-21.53c5.95-.07 11.6-1.39 16.7-3.71l.25.54 4.909 3.802c7.52 5.825 4.159 17.853-5.294 18.908z" fill="#e8f8fc"/><path d="m302.386 369.71c2.985.333 6.361.913 10.385 1.99l6.18-21.53c-5.95-.07-11.6-1.39-16.7-3.71l-.25.54-4.909 3.802c-7.521 5.825-4.16 17.853 5.294 18.908z" fill="#bdeffc"/><path d="m279.131 318.42c-24.637 10.313-51.712 11.113-78.26 0 1.356-5.626 1.13-9.27 1.13-16.42l.15-.37c24.082 9.996 51.571 10.016 75.7 0l.15.37c0 7.153-.226 10.796 1.13 16.42z" fill="#ffd6a6"/><path d="m413.176 369.138-19.473 19.473c5.419 11.117 8.297 23.401 8.297 36.132v47.257c0 4.418-3.582 8-8 8s-8-3.582-8-8v-47.257c0-35.015-26.92-63.564-61.09-66.332l-33.22 115.795c-1.007 3.51-4.208 5.796-7.686 5.796-5.319 0-9.159-5.1-7.694-10.208l32.362-112.803c-13.017-2.853-24.364-10.825-31.503-22.546-2.299-3.773-1.103-8.695 2.67-10.994 3.772-2.3 8.695-1.103 10.994 2.67 5.819 9.553 15.767 15.436 26.854 15.995.993-.166 2.029-.145 3.064.088 24.978.391 48.511 11.843 64.299 32.433l16.812-16.812c6.528-6.528 7.137-16.916 1.416-24.162-12.686-16.058-9.461-35.485 2.702-46.953 6.831-6.44 7.604-17.24 1.759-24.587l-11.516-14.477c-6.933-8.716-9.191-20.297-6.039-30.98l7.445-25.23c2.653-8.991-1.888-18.452-10.562-22.006l-9.826-4.026c-12.903-5.288-21.241-17.711-21.241-31.651v-25.749c0-50.733-41.271-92.004-92-92.004h-48c-50.729 0-92 41.273-92 92.004v25.749c0 13.94-8.337 26.363-21.24 31.651l-9.827 4.026c-8.674 3.554-13.214 13.015-10.562 22.006l7.445 25.23c3.152 10.683.895 22.264-6.039 30.98l-11.516 14.477c-5.844 7.347-5.071 18.146 1.759 24.587 12.184 11.487 15.373 30.91 2.7 46.955-5.72 7.245-5.111 17.632 1.417 24.16l16.812 16.812c15.478-20.185 39.207-32.465 65.621-32.465 18.463 0 33.429-14.877 33.429-33.341v-2.102c-33.067-15.745-55.181-46.937-59.994-81.877-.603-4.377 2.457-8.414 6.833-9.017 4.375-.604 8.414 2.457 9.017 6.833 6.161 44.728 44.914 78.457 90.144 78.457 50.178 0 91-40.822 91-91v-49.317c-18.703-6.779-35.017-19.818-45.674-38.044-38.579 44.82-93.665 70.894-152.006 73.229-4.405.178-8.136-3.252-8.313-7.674-.177-4.415 3.259-8.137 7.674-8.313 57.611-2.304 111.893-29.584 147.959-76.859 3.768-4.941 11.505-3.872 13.796 1.901 8.398 21.157 26.034 36.369 46.751 42.256 3.048.854 5.52 3.603 5.783 7.088.05.656.038 56.23.027 56.571-.546 70.5-68.621 121.934-137.165 101.802-1.04 13.255-7.35 25.734-18.34 34.562l48.508 37.555 28.53-22.087c3.496-2.705 8.519-2.064 11.223 1.428 2.705 3.494 2.065 8.519-1.428 11.223l-30.325 23.477v57.077c0 4.418-3.582 8-8 8s-8-3.582-8-8v-57.076l-55.864-43.249c-8.677 2.862-16.325 2.498-15.563 2.498-36.794-.001-66.573 29.773-66.573 66.571v47.256c0 4.418-3.582 8-8 8s-8-3.582-8-8v-47.257c0-12.731 2.878-25.015 8.297-36.132l-19.473-19.473c-11.395-11.395-14.404-30.522-1.979-46.254 5.891-7.462 5.117-18.01-1.802-24.533-12.832-12.099-14.283-32.387-3.304-46.189l11.516-14.478c3.691-4.639 4.892-10.804 3.214-16.491l-7.445-25.23c-4.984-16.891 3.546-34.663 19.841-41.34l9.827-4.026c6.868-2.814 11.306-9.427 11.306-16.845v-25.749c.004-59.552 48.453-108.003 108.004-108.003h48c59.551 0 108 48.449 108 108v25.753c0 7.418 4.438 14.031 11.307 16.846l9.826 4.025c16.296 6.677 24.826 24.449 19.842 41.34l-7.445 25.23c-1.678 5.687-.477 11.852 3.214 16.491l11.516 14.477c10.979 13.802 9.527 34.091-3.304 46.189-6.919 6.523-7.693 17.071-1.801 24.535 12.219 15.467 9.63 34.643-1.98 46.252zm-233.476 15.688c-1.201-4.252-5.621-6.728-9.873-5.525-4.252 1.201-6.726 5.621-5.525 9.873l24 85c1.201 4.253 5.622 6.725 9.873 5.525 4.252-1.201 6.726-5.621 5.525-9.873z"/></svg>