<svg id="Layer_1" enable-background="new 0 0 480.001 480.001" height="512" viewBox="0 0 480.001 480.001" width="512" xmlns="http://www.w3.org/2000/svg"><path d="m402.5 196v93c0 4.42-3.58 8-8 8h-9c-30.001.041-51.437-20.615-62.98-47.89-10.16 23.71-29.31 42.65-53.17 52.52l.15.37c0 7.802-.911 18.727 7.61 30.71-.06-.07-.11-.14-.16-.21l-.45.5.65-.22c7.537 10.583 19.771 17.246 33.37 17.39 41.24.4 74.98 33.11 74.98 74.35v39.48c0 4.42-3.58 8-8 8h-292c-4.42 0-8-3.58-8-8v-39.48c0-41.24 33.74-73.95 74.98-74.35 13.521-.143 25.788-6.744 33.37-17.39l.65.22-.45-.5c-.05.07-.1.14-.16.21 8.48-11.925 7.61-22.78 7.61-30.71l.15-.37c-35.9-14.86-61.15-50.23-61.15-91.5v1.2c-13.81 0-25-11.19-25-25v-78.33c0-55.23 44.77-100 100-100h48c55.23 0 100 44.77 100 100v41c25.96 0 47 21.04 47 47z" fill="#ffdfba"/><path d="m402.5 196v93c0 4.42-3.58 8-8 8h-9c-30.001.041-51.437-20.615-62.98-47.89 4.99-11.61 7.81-24.38 7.97-37.78.016-.654.01 1.989.01-49.09 0-4.25-3.32-7.74-7.57-7.98-15.822-.904-29.597-10.674-34.67-29.33-1.42-5.25-7.64-7.5-12.15-4.46-40.075 26.994-87.381 38.797-134.92 34.5-4.67-.42-8.69 3.28-8.69 7.97v48.39c-13.81 0-25-11.19-25-25v-78.33c0-55.23 44.77-100 100-100h48c55.23 0 100 44.77 100 100v41c25.96 0 47 21.04 47 47z" fill="#42434d"/><path d="m322.929 154.258c4.247.242 7.572 3.732 7.572 7.986 0 51.074.006 48.432-.01 49.086-.483 40.438-25.311 75.479-61.14 90.3-64.917 26.947-136.85-20.924-136.85-91.5 0-1.288 0-48.637 0-47.19 0-4.689 4.016-8.394 8.686-7.971 47.987 4.351 95.242-7.767 134.923-34.499 4.513-3.04 10.727-.788 12.152 4.464 4.955 18.266 18.463 28.401 34.667 29.324z" fill="#ffebd2"/><path d="m385.5 424.52v39.48c0 4.42-3.58 8-8 8h-292c-4.42 0-8-3.58-8-8v-39.48c0-41.24 33.74-73.95 74.98-74.35 13.637-.145 25.994-6.858 33.57-17.67 34.762 38.63 26.765 29.742 39.5 43.9 3.18 3.53 8.72 3.53 11.9 0 11.419-12.696 2.097-2.336 39.5-43.9 7.555 10.783 19.895 17.525 33.57 17.67 41.24.4 74.98 33.11 74.98 74.35z" fill="#d6f4fc"/><path d="m292.992 15.266c12.217 4.944 8.17 23.086-5.006 22.765-2.03-.05-51.495-.031-50.486-.031-55.228 0-100 44.772-100 100v11.78c0 7.238-5 7.502-5 13.16v29.118c0 12.438-16.85 16.536-22.393 5.402-1.668-3.351-2.607-7.131-2.607-11.13v-78.33c0-55.228 44.772-100 100-100h48c13.259 0 25.914 2.58 37.492 7.266z" fill="#4d4e59"/><path d="m212.522 276.449c14.939 10 3.553 33.13-13.41 27.177-37.286-13.084-66.611-47.883-66.611-93.497v-47.19c0-4.69 4.02-8.39 8.69-7.97 3.832.348 8.04.622 12.581.761 8.219.25 14.729 7.037 14.729 15.26v23.14c-.001 34.826 17.756 64.738 44.021 82.319z" fill="#fff3e4"/><path d="m186.5 333-.65-.22c.02-.02.03-.04.04-.07.06-.07.11-.14.16-.21z" fill="#ffdfba"/><path d="m277.15 332.78-.65.22.45-.5c.05.07.1.14.16.21.011.03.02.05.04.07z" fill="#ffdfba"/><path d="m270.63 318.42c-24.637 10.313-51.712 11.113-78.26 0 1.356-5.626 1.13-9.27 1.13-16.42l.15-.37c24.082 9.996 51.571 10.016 75.7 0l.15.37c0 7.153-.225 10.796 1.13 16.42z" fill="#ffd6a6"/><path d="m186.5 333-.65-.22c.02-.02.03-.04.04-.07.06-.07.11-.14.16-.21z" fill="#ffdfba"/><path d="m277.15 332.78-.65.22.45-.5c.05.07.1.14.16.21.011.03.02.05.04.07z" fill="#ffdfba"/><g fill="#e8f8fc"><path d="m294.58 346.83c-.124.264-9.994 45.164-9.931 44.878-1.302 5.907-8.778 7.809-12.745 3.242-26.257-30.236-22.675-26.293-25.334-28.691l30.38-33.76c4.4 6.281 10.501 11.271 17.63 14.331z"/><path d="m186.05 332.5 29.66 32.96-24.603 29.155c-3.932 4.66-11.5 2.792-12.812-3.163-.063-.285-9.75-44.359-9.875-44.623 7.13-3.059 13.23-8.049 17.63-14.329z"/><path d="m173.621 370.25c-39.58 1.8-71.12 34.47-71.12 74.49v27.26h-17c-4.418 0-8-3.582-8-8v-39.418c0-41.254 33.753-73.989 75.006-74.414 5.641-.058 11.02-1.242 15.914-3.338.124.264 5.137 23.135 5.2 23.42z"/></g><path d="m289.38 370.25c39.58 1.8 71.12 34.47 71.12 74.49v27.26h17c4.418 0 8-3.582 8-8v-39.418c0-41.254-33.753-73.989-75.006-74.414-5.641-.058-11.02-1.242-15.914-3.338-.124.264-5.137 23.135-5.2 23.42z" fill="#bdeffc"/><path d="m186.68 374.5c1.49 6.77 3.08 13.98 4.43 20.11-3.932 4.661-11.5 2.799-12.811-3.157-3.845-17.462-9.794-44.445-9.878-44.623 7.13-3.06 13.23-8.05 17.63-14.33l8.54 9.5c-7.341 9.14-10.45 20.99-7.911 32.5z" fill="#f1fafc"/><path d="m246.57 366.26 14.93 105.74h-60l14.21-106.54 9.844 10.935c3.178 3.53 8.713 3.53 11.891 0z" fill="#ffa4b8"/><path d="m333.811 269.14c-4.15-5.621-8.096-12.484-11.29-20.03 4.99-11.61 7.81-24.38 7.97-37.78 13.922 0 25.01-11.307 25.01-25v-37.33c6.472 0 12.718 1.323 18.42 3.74 10.976 42.424-3.52 88.419-40.11 116.4z" fill="#2c2c33"/><path d="m226.16 377.07-12.66 94.93h-12l14.21-106.54z" fill="#ff99af"/><path d="m363.5 141.588v-33.588c0-59.551-48.448-108-108-108h-47.996c-59.553 0-108.004 48.451-108.004 108.004v78.329c0 15.554 10.82 28.621 25.327 32.09 3.007 38.992 26.998 72.198 60.673 88.3v2.107c0 18.443-14.944 33.341-33.427 33.341-45.646 0-82.573 36.929-82.573 82.571v47.258c0 4.418 3.582 8 8 8s8-3.582 8-8v-47.257c0-36.795 29.775-66.572 66.573-66.571 3.501 0 6.997-.372 10.452-1.111l11.162 50.66c1.413 6.416 9.552 8.476 13.853 3.524l15.761-18.148-9.739 77.911c-.595 4.76 3.112 8.993 7.948 8.993 3.977 0 7.423-2.961 7.929-7.009l11.255-90.041c5.407 6.007 5.302 5.97 6.302 6.653.922.631 1.961 1.046 2.967 1.243.744.146 1.553.153 1.538.153 4.472 0 6.068-2.786 10.786-8.212l11.275 90.204c.506 4.048 3.952 7.009 7.929 7.009 4.837 0 8.543-4.233 7.948-8.993l-9.739-77.911 15.761 18.148c4.308 4.96 12.442 2.881 13.853-3.524l11.163-50.662c3.389.72 6.883 1.112 10.452 1.112 36.794-.001 66.573 29.773 66.573 66.571v47.258c0 4.418 3.582 8 8 8s8-3.582 8-8v-47.257c0-45.636-36.931-82.572-82.573-82.571-11.782 0-22.471-6-28.594-16.051-2.299-3.773-7.222-4.971-10.994-2.67-3.773 2.298-4.969 7.22-2.67 10.994 4.258 6.99 10.022 12.634 16.732 16.673l-8.291 37.627-19.989-23.017c3.705-4.26 2.663-9.124-.373-11.764-3.331-2.899-8.386-2.548-11.286.787l-14.066 16.176-35.432-39.369c3.016-5.791 4.843-12.147 5.366-18.771 68.316 20.111 136.619-31.165 137.167-101.823.009-.346.019-56.799-.022-57.455-.266-4.337-3.879-7.509-7.975-7.509-1.375 0-11.227 1.95-20.876-3.855-15.05-9.054-15.125-28.895-15.124-29.093.042-6.501-7.312-10.341-12.622-6.581-32.883 23.277-71.454 39.133-113.433 45.01-4.375.613-7.426 4.657-6.813 9.032.561 4 3.986 6.892 7.913 6.892 1 0 55.338-5.101 110.951-40.717 5.902 22.154 22.473 34.435 42.004 35.544v47.894c0 50.178-40.822 91-91 91-46.964 0-91-36.503-91-94.125v-53c0-4.418-3.582-8-8-8s-8 3.582-8 8v47.325c-5.35-2.867-9-8.509-9-14.992v-78.329c-.002-50.732 41.271-92.005 92.002-92.005h47.996c50.729 0 92 41.271 92 92v78.333c0 4.418 3.582 8 8 8s8-3.582 8-8v-28.505c17.68 3.701 31 19.408 31 38.172v93h-9c-16.104 0-31.251-7.112-41.556-19.514-2.826-3.4-7.869-3.863-11.267-1.04-3.397 2.824-3.863 7.868-1.04 11.266 13.356 16.071 32.988 25.288 53.863 25.288h17c4.418 0 8-3.582 8-8v-101c0-27.61-20.451-50.525-47-54.412zm-177.61 247.156-8.293-37.638c3.05-1.842 5.911-4.035 8.548-6.543l19.396 21.552z"/></svg>