<svg id="Layer_1" enable-background="new 0 0 480.457 480.457" height="512" viewBox="0 0 480.457 480.457" width="512" xmlns="http://www.w3.org/2000/svg"><path d="m394.229 425.197v39.26c0 4.42-3.58 8-8 8h-292c-4.42 0-8-3.58-8-8v-39.26c0-34.05 22.82-62.77 54.01-71.7-.201-.804-22.34-18.108-40.01-51.04-45.57-84.95-29.13-215.57 50-269 50.39-34.02 129.75-33.93 180 0 79.13 53.43 95.57 184.05 50 269-13.28 24.75-29.64 41.57-40 51l-.01.04c31.19 8.93 54.01 37.65 54.01 71.7z" fill="#ffdfba"/><path d="m141.229 210.587c0 41.27 25.25 76.64 61.15 91.5l-.15.37v6.83c0 22.901-18.596 41.34-41.43 41.34-7.13 0-14.03 1-20.56 2.87-.201-.804-22.34-18.108-40.01-51.04-45.57-84.95-29.13-215.57 50-269 50.39-34.02 129.75-33.93 180 0 79.13 53.43 95.57 184.05 50 269-13.28 24.75-29.64 41.57-40 51l-.01.04c-18.223-5.219-23.816-.243-37.74-6.58-14.31-6.51-24.25-20.89-24.25-37.63v-6.83l-.15-.37c35.9-14.86 61.15-50.23 61.15-91.5v-47.886c0-4.254-3.325-7.744-7.571-7.986-16.168-.921-29.699-11.013-34.667-29.323-1.425-5.252-7.639-7.504-12.152-4.464-39.655 26.714-86.907 38.852-134.923 34.499-4.67-.423-8.686 3.282-8.686 7.971v47.189z" fill="#c79a83"/><path d="m331.658 154.715c4.247.242 7.571 3.732 7.571 7.986v47.886c0 41.27-25.25 76.64-61.15 91.5-64.917 26.947-136.85-20.924-136.85-91.5v-47.19c0-4.689 4.016-8.394 8.686-7.971 47.987 4.351 95.242-7.767 134.923-34.499 4.513-3.04 10.727-.788 12.152 4.464 4.956 18.266 18.464 28.401 34.668 29.324z" fill="#ffebd2"/><path d="m394.229 425.197v39.26c0 4.42-3.58 8-8 8h-292c-4.42 0-8-3.58-8-8v-39.26c0-41.184 33.387-74.57 74.57-74.57 6.13 0 11.95-1.33 17.18-3.71l.25.54c6.302 4.88 51.695 40.026 57.1 44.21 2.89 2.23 6.91 2.23 9.8 0 5.393-4.175 50.811-39.341 57.1-44.21l.25-.54c13.973 6.359 19.447 1.341 37.74 6.58 31.19 8.93 54.01 37.65 54.01 71.7z" fill="#ffaa64"/><path d="m221.25 276.906c14.939 10 3.553 33.13-13.41 27.177-37.286-13.084-66.611-47.883-66.611-93.497v-47.19c0-4.69 4.02-8.39 8.69-7.97 3.832.348 8.039.622 12.581.761 8.219.25 14.729 7.037 14.729 15.26v23.14c0 34.826 17.757 64.738 44.021 82.319z" fill="#fff3e4"/><path d="m279.359 318.877c-24.637 10.313-51.712 11.113-78.26 0 1.356-5.626 1.13-9.27 1.13-16.42l.15-.37c24.082 9.996 51.571 10.016 75.7 0l.15.37c0 7.153-.225 10.796 1.13 16.42z" fill="#ffd6a6"/><path d="m248.229 389.267v83.19h-16v-83.19l3.1 2.4c2.89 2.23 6.91 2.23 9.8 0z" fill="#faa157"/><path d="m194.723 360.226c4.746 3.674 2.238 11.378-3.764 11.401-42.333.158-74.729 34.149-74.729 74.57v26.26h-22c-4.418 0-8-3.582-8-8v-39.26c0-41.163 33.37-74.57 74.57-74.57 6.13 0 11.95-1.33 17.18-3.71l.25.54z" fill="#ffbd7b"/><path d="m285.736 360.226c-4.746 3.674-2.238 11.378 3.764 11.401 42.333.158 74.729 34.149 74.729 74.57v26.26h22c4.418 0 8-3.582 8-8v-39.26c0-41.163-33.37-74.57-74.57-74.57-6.13 0-11.95-1.33-17.18-3.71l-.25.54z" fill="#faa157"/><path d="m253.451 8.313c18.685 1.356 19.075 28.714.417 30.389-27.007 2.423-52.968 10.799-73.638 24.755-69.769 47.107-91.466 154.945-62.744 239.211 1.065 3.124-.164 6.565-2.97 8.302l-.761.471c-3.373 2.087-7.804 1.003-9.823-2.411-65.314-110.451-21.259-313.115 149.519-300.717z" fill="#e0b7a3"/><circle cx="275.229" cy="200.458" fill="#d6f4fc" r="32"/><circle cx="205.229" cy="200.458" fill="#d6f4fc" r="32"/><path d="m213.299 180.658c-14.772 5.917-23.142 22.678-19.072 38.043 1.494 5.641-5.076 10.027-9.546 6.275-6.998-5.874-11.452-14.685-11.452-24.518 0-22.008 20.603-35.409 39.174-31.248 5.788 1.297 6.402 9.243.896 11.448z" fill="#e8f8fc"/><path d="m283.299 180.658c-14.772 5.917-23.142 22.678-19.072 38.043 1.494 5.641-5.076 10.027-9.546 6.275-6.998-5.874-11.452-14.685-11.452-24.518 0-22.008 20.603-35.409 39.174-31.248 5.788 1.297 6.402 9.243.896 11.448z" fill="#e8f8fc"/><path d="m402.229 425.2v47.257c0 4.418-3.582 8-8 8s-8-3.582-8-8v-47.257c0-36.794-29.775-66.572-66.573-66.571-17.41 0-33.208-8.87-42.258-23.728-2.299-3.773-1.104-8.695 2.67-10.994 3.772-2.3 8.695-1.103 10.994 2.67 6.123 10.051 16.812 16.051 28.594 16.051 6.226 0 12.34.708 18.269 2.041 51.837-49.309 67.068-121.708 56.175-187.221-8.601-51.73-32.874-93.41-68.348-117.361-47.957-32.38-123.09-32.38-171.047 0-75.52 50.988-91.26 176.88-47.427 258.588 9.067 16.903 20.918 32.358 35.254 45.995 10.189-2.291 18.596-2.041 18.269-2.041 18.444 0 33.427-14.859 33.427-33.341v-2.107c-38.145-18.239-61-56.811-61-95.371v-57.353c0-4.418 3.582-8 8-8s8 3.582 8 8v56.125c0 50.178 40.822 91 91 91s91-40.822 91-91v-47.894c-19.497-1.107-36.09-13.345-42.004-35.544-33.313 21.334-70.648 35.152-109.832 40.639-4.363.612-8.417-2.427-9.032-6.813-.612-4.375 2.438-8.419 6.813-9.032 39.902-5.586 78.836-20.519 113.433-45.01 5.306-3.758 12.664.074 12.622 6.581-.001.198.074 20.039 15.124 29.093 5.992 3.605 12.872 4.719 19.962 3.911 4.233-.484 8.146 2.457 8.808 6.705.156 1 .105-2.931.105 57.973 0 57.206-47.064 106.391-107 106.391-10.473 0-20.597-1.52-30.169-4.338-1.04 13.185-7.306 25.679-18.339 34.541l48.508 37.555 28.529-22.087c3.493-2.707 8.519-2.064 11.224 1.428 2.704 3.494 2.064 8.519-1.429 11.223l-30.324 23.477v73.076c0 4.418-3.582 8-8 8s-8-3.582-8-8v-73.076l-55.864-43.249c-8.676 2.862-16.325 2.498-15.563 2.498-36.794-.001-66.573 29.773-66.573 66.571v47.257c0 4.418-3.582 8-8 8s-8-3.582-8-8v-47.258c0-33.231 19.547-61.623 47.4-74.751-12.959-13.347-23.846-28.173-32.45-44.211-47.304-88.18-30.49-223.33 52.573-279.412 52.979-35.769 135.977-35.769 188.953 0 83.109 56.113 99.846 191.29 52.573 279.412-8.604 16.038-19.491 30.864-32.45 44.21 27.349 12.89 47.403 40.979 47.403 74.752zm-229-224.743c0-17.645 14.355-32 32-32 14.883 0 27.426 10.214 30.987 24h8.025c3.561-13.786 16.104-24 30.987-24 17.645 0 32 14.355 32 32s-14.355 32-32 32c-14.883 0-27.426-10.214-30.987-24h-8.025c-3.561 13.786-16.104 24-30.987 24-17.644 0-32-14.355-32-32zm86 0c0 8.822 7.178 16 16 16s16-7.178 16-16-7.178-16-16-16-16 7.178-16 16zm-70 0c0 8.822 7.178 16 16 16s16-7.178 16-16-7.178-16-16-16-16 7.178-16 16z"/></svg>