<svg id="Layer_1" enable-background="new 0 0 480 480" height="512" viewBox="0 0 480 480" width="512" xmlns="http://www.w3.org/2000/svg"><path d="m364.029 186.5v178.45c18.21 13.6 30 35.32 30 59.79v39.26c0 4.42-3.58 8-8 8h-292c-4.42 0-8-3.58-8-8v-39.26c0-24.47 11.79-46.19 30-59.79v-178.45c-73.037-27.496-71.687-72.942 2.19-99.81 9.56-44.96 49.5-78.69 97.31-78.69h49c47.81 0 87.75 33.73 97.31 78.69 73.947 26.894 75.157 72.34 2.19 99.81z" fill="#ffdfba"/><path d="m160.599 350.17c5.87 0 11.47-1.22 16.53-3.42v.01c10.95 24.91 35.7 41.06 62.9 41.06s51.95-16.15 62.9-41.06v-.01c5.06 2.2 10.66 3.42 16.53 3.42 41.233 0 74.57 33.44 74.57 74.57v39.26c0 4.418-3.582 8-8 8h-292c-4.418 0-8-3.582-8-8v-39.26c0-41.143 33.35-74.57 74.57-74.57z" fill="#ffa4b8"/><path d="m364.029 186.5c0-86.908.642-86.616-2.19-99.81 73.946 26.893 75.158 72.34 2.19 99.81z" fill="#faa157"/><path d="m118.219 86.69c-2.726 12.704-2.19 11.738-2.19 99.81-72.91-27.448-71.818-72.894 2.19-99.81z" fill="#faa157"/><path d="m264.529 8c47.81 0 87.75 33.73 97.31 78.69-68.395-24.918-175.169-24.938-243.62 0 9.56-44.96 49.5-78.69 97.31-78.69z" fill="#ffaa64"/><path d="m339.029 210.13v-47.886c0-4.254-3.325-7.744-7.572-7.986-16.168-.921-29.699-11.013-34.667-29.323-1.425-5.252-7.639-7.504-12.152-4.464-39.655 26.714-86.907 38.852-134.923 34.499-4.67-.423-8.686 3.282-8.686 7.971v47.19c0 41.27 25.25 76.64 61.15 91.5l-.15.37v6.83c0 22.861-18.557 41.34-41.43 41.34-16.71 0-32.13 5.5-44.57 14.78 0-286.559-.676-264.906 2.19-278.26 68.395-24.918 175.169-24.938 243.62 0 2.82 13.141 2.19-8.182 2.19 278.26-12.44-9.28-27.86-14.78-44.57-14.78-22.872 0-41.43-18.479-41.43-41.34v-6.831l-.15-.37c35.9-14.86 61.15-50.23 61.15-91.5z" fill="#42434d"/><path d="m331.457 154.258c4.247.242 7.572 3.732 7.572 7.986v47.886c0 41.27-25.25 76.64-61.15 91.5-64.765 26.884-136.85-20.785-136.85-91.5v-47.19c0-4.689 4.016-8.394 8.686-7.971 47.987 4.351 95.242-7.767 134.923-34.499 4.513-3.04 10.727-.788 12.152 4.464 4.956 18.266 18.464 28.401 34.667 29.324z" fill="#ffebd2"/><path d="m181.276 354.728c5.506 9.073.512 20.907-9.749 23.615-24.507 6.468-56.498 23.706-56.498 71.397v22.26h-21c-4.418 0-8-3.582-8-8v-39.26c0-41.01 33.11-75.01 74.11-74.57 6.04.06 11.8-1.16 16.99-3.42v.01c1.217 2.767 2.605 5.427 4.147 7.968z" fill="#ffb1bf"/><path d="m298.782 354.728c-5.506 9.073-.512 20.907 9.749 23.615 24.507 6.468 56.498 23.706 56.498 71.397v22.26h21c4.418 0 8-3.582 8-8v-39.26c0-41.01-33.11-75.01-74.11-74.57-6.04.06-11.8-1.16-16.99-3.42v.01c-1.218 2.767-2.605 5.427-4.147 7.968z" fill="#ff99af"/><path d="m347.439 116.264c-69.202-20.551-143.305-21.961-215.007-2.48-8.503 2.31-16.726-4.486-16.155-13.28.279-4.294.838-8.674 1.941-13.814 68.396-24.918 175.17-24.938 243.62 0 1.335 6.22 1.879 11.339 2.091 16.794.341 8.77-8.075 15.278-16.49 12.78z" fill="#2c2c33"/><path d="m279.159 318.42c-24.637 10.313-51.712 11.113-78.26 0 1.356-5.626 1.13-9.27 1.13-16.42l.15-.37c24.082 9.996 51.571 10.016 75.7 0l.15.37c0 7.153-.226 10.796 1.13 16.42z" fill="#ffd6a6"/><path d="m221.05 276.449c14.939 10 3.553 33.13-13.41 27.177-37.286-13.084-66.611-47.883-66.611-93.497v-47.19c0-4.69 4.02-8.39 8.69-7.97 3.832.348 8.04.622 12.581.761 8.219.25 14.729 7.037 14.729 15.26v23.14c0 34.826 17.756 64.738 44.021 82.319z" fill="#fff3e4"/><path d="m299.684 14.39c12.714 4.803 9.028 23.69-4.563 23.612-.483-.003-49.109-.002-49.592-.002-30.66 0-58.08 13.87-76.34 35.68-18.92 3.18-36.14 7.61-50.97 13.01 9.56-44.96 49.5-78.69 97.31-78.69h49c12.376 0 24.225 2.26 35.155 6.39z" fill="#ffbd7b"/><path d="m402.029 424.743v47.257c0 4.418-3.582 8-8 8s-8-3.582-8-8v-47.257c0-36.794-29.775-66.572-66.573-66.571-17.411 0-33.208-8.87-42.258-23.728-2.299-3.773-1.103-8.695 2.67-10.994 3.772-2.3 8.695-1.103 10.994 2.67 6.123 10.051 16.812 16.051 28.594 16.051 45.637 0 82.573 36.93 82.573 82.572zm4.527-252.467c-3.398 2.825-8.441 2.359-11.266-1.038-2.824-3.397-2.36-8.441 1.038-11.266 28.047-23.317 9.226-45.161-23.579-60.192.404 5.663.28-9.699.28 224.22 0 4.418-3.582 8-8 8s-8-3.582-8-8c0-235.746.462-220.852-1.142-230.935-64.767-22.46-164.428-22.958-230.655-.364-1.695 10.377-1.203-7.199-1.203 257.99 19.386-9.596 37.577-8.519 36.573-8.519 18.444 0 33.427-14.859 33.427-33.341v-2.107c-38.131-18.232-61-56.792-61-95.371v-57.353c0-4.418 3.582-8 8-8s8 3.582 8 8v56.125c0 50.178 40.822 91 91 91s91-40.822 91-91v-47.893c-19.356-1.098-36.048-13.206-42.001-35.546-17.067 10.93-35.27 19.934-54.268 26.833-26.989 9.803-53.717 13.885-56.687 13.885-3.926 0-7.353-2.892-7.913-6.892-.612-4.376 2.438-8.419 6.813-9.032 39.987-5.598 78.904-20.567 113.433-45.01 5.307-3.755 12.661.073 12.622 6.579-.001.199.076 20.043 15.124 29.096 9.641 5.801 19.466 3.855 20.876 3.855 4.16 0 7.706 3.231 7.974 7.493.042.654.032 57.153.022 57.471-.546 70.613-68.807 121.947-137.166 101.823-1.211 15.344-9.43 28.92-22.057 37.259 19.112 32.284 62.62 39.651 91.342 15.47 3.381-2.844 8.427-2.412 11.272.968s2.412 8.427-.968 11.272c-36.836 31.01-92.815 20.867-116.341-21.177-6.962 1.804-12.896 1.593-12.506 1.593-14.318 0-27.943 4.496-39.273 12.81-.313.277-.646.531-.999.757-16.311 12.445-26.301 31.611-26.301 53.005v47.256c0 4.418-3.582 8-8 8s-8-3.582-8-8v-47.257c0-24.762 10.845-47.802 30-63.673v-169.119c-72.736-29.645-72.598-81.913 3.382-111.253 11.941-46.351 54.094-80.698 104.12-80.698h50c50.182 0 92.439 34.565 104.225 81.136 63.018 24.798 69.836 63.678 36.802 91.14zm-298.527 2.28c0-73.739-.105-69.761.31-75.244-50.657 22.781-51.125 52.294-.31 75.244zm242.902-99.894c-13.226-34.278-46.518-58.662-85.402-58.662h-50c-38.759 0-71.963 24.226-85.275 58.329 64.311-18.96 154.865-19.38 220.677.333z"/></svg>