<svg id="Layer_1" enable-background="new 0 0 480 480" height="512" viewBox="0 0 480 480" width="512" xmlns="http://www.w3.org/2000/svg"><path d="m394 424.74v39.26c0 4.42-3.58 8-8 8h-292c-4.42 0-8-3.58-8-8v-39.26c0-41.03 33.15-74.95 74.18-74.57 23.115.193 41.82-18.394 41.82-41.34v-6.83l.15-.37c-35.9-14.86-61.15-50.23-61.15-91.5v-3.13c-14.252 0-25-11.262-25-24.54v-49.96c0-68.76 55.74-124.5 124.5-124.5 68.758 0 124.5 55.738 124.5 124.5v48.5c0 14.36-11.64 26-26 26 0 45.074-26.222 79.847-61.2 94.54l.2.46v6.83c0 22.931 18.69 41.532 41.82 41.34 41.03-.38 74.18 33.54 74.18 74.57z" fill="#c79a83"/><path d="m365 132.5v48.5c0 14.36-11.64 26-26 26v-61.77c0-40.27-47.087-63.385-79.61-36.27-11.213 9.344-27.364 9.376-38.6.15-33.309-27.338-79.79-3.843-79.79 36.12v61.77c-14.255 0-25-11.265-25-24.54v-49.96c0-68.76 55.74-124.5 124.5-124.5 68.758 0 124.5 55.738 124.5 124.5z" fill="#42434d"/><path d="m339 208.89c0 54.557-43.624 99.824-98.26 100.24-54.966.402-99.74-44.037-99.74-99 0-6.721 0-57.228 0-64.9 0-39.655 46.231-63.663 79.79-36.12 11.235 9.225 27.385 9.196 38.6-.15 32.422-27.03 79.61-4.162 79.61 36.27z" fill="#e0b7a3"/><path d="m273.548 38.038c-45.735-1.053-91.04 23.014-113.92 67.782-.68 1.33-1.562 2.551-2.667 3.555-9.859 8.961-15.961 21.76-15.961 35.855v37.523c0 16.05-24.158 16.975-24.969.946-.049-.971-.031-50.95-.031-49.987 0-83.716 80.489-145.259 161.449-120.132 13.871 4.305 10.619 24.793-3.901 24.458z" fill="#4d4e59"/><path d="m248 387.35v44.65c0 4.42-3.58 8-8 8s-8-3.58-8-8v-44.65c5.336.627 10.663.627 16 0z" fill="#bdeffc"/><path d="m394 424.74v39.26c0 4.418-3.582 8-8 8h-292c-4.418 0-8-3.582-8-8v-39.26c0-41.031 33.148-74.952 74.178-74.572 6.013.056 11.75-1.169 16.922-3.418v.01c12.069 27.44 40.785 44.126 70.9 40.59 23.97-2.81 45.03-18.15 54.9-40.59v-.01c5.173 2.249 10.91 3.474 16.922 3.418 41.03-.38 74.178 33.541 74.178 74.572z" fill="#d6f4fc"/><path d="m279.13 318.42c-24.637 10.313-51.712 11.113-78.26 0 1.356-5.626 1.13-9.27 1.13-16.42l.15-.37c24.082 9.996 51.571 10.016 75.7 0l.15.37c0 7.153-.226 10.796 1.13 16.42z" fill="#a07765"/><path d="m199.268 259.389c15.667 15.919-6.519 40.363-23.592 25.963-20.748-17.498-34.676-43.644-34.676-75.222v-64.9c0-9.771 3.018-19.335 8.473-27.305 6.601-9.645 21.599-4.68 21.528 7.007-.001.243-.001 64.954-.001 65.198 0 27.516 10.973 51.685 28.268 69.259z" fill="#f2d1c2"/><path d="m181.728 355.51c5.707 9.127.745 21.147-9.677 23.842-25.126 6.499-58.051 23.411-58.051 71.128v21.52h-20c-4.418 0-8-3.582-8-8v-39.26c0-29.807 17.538-56.006 43.88-67.98h.01c23.819-10.682 30.59-3.077 47.21-10 1.343 3.053 2.892 5.974 4.628 8.75z" fill="#e8f8fc"/><path d="m297.939 355.51c-5.707 9.127-.745 21.147 9.677 23.842 25.126 6.499 58.051 23.411 58.051 71.128v21.52h20c4.418 0 8-3.582 8-8v-39.26c0-29.807-17.538-56.006-43.88-67.98h-.01c-23.819-10.682-30.59-3.077-47.21-10-1.343 3.053-2.892 5.974-4.628 8.75z" fill="#bdeffc"/><path d="m402 424.743v47.257c0 4.418-3.582 8-8 8s-8-3.582-8-8v-47.257c0-36.792-29.775-66.572-66.573-66.571-17.41 0-33.208-8.87-42.258-23.728-2.299-3.773-1.104-8.695 2.67-10.994 3.772-2.3 8.695-1.103 10.994 2.67 6.123 10.051 16.812 16.051 28.594 16.051 45.634 0 82.573 36.93 82.573 82.572zm-111.612-58.26c2.846 3.38 2.412 8.427-.968 11.272-11.781 9.917-26.254 16.024-41.42 17.627v36.618c0 4.418-3.582 8-8 8s-8-3.582-8-8v-36.603c-24.747-2.591-46.758-17.082-58.921-38.818-4.034 1.045-8.227 1.593-12.505 1.593-36.873 0-66.574 29.847-66.574 66.571v47.257c0 4.418-3.582 8-8 8s-8-3.582-8-8v-47.257c0-45.633 36.929-82.571 82.571-82.571 18.462 0 33.429-14.874 33.429-33.341v-2.035c-33.83-16.131-59.401-50.53-60.921-92.715-14.371-3.455-25.079-16.317-25.079-31.621v-49.96c0-73.061 59.439-132.5 132.5-132.5s132.5 59.439 132.5 132.5v49.96c0 4.418-3.582 8-8 8s-8-3.582-8-8v-49.96c0-64.238-52.262-116.5-116.5-116.5s-116.5 52.262-116.5 116.5v49.96c0 6.348 3.656 11.865 9 14.636v-51.866c0-12.741 4.17-24.746 12.059-34.719 9.759-12.337 21.881-18.95 38.147-20.813 15.021-1.718 30.169 2.979 42.659 13.229 8.248 6.769 20.126 6.788 28.399-.108 10.515-8.763 23.545-13.589 36.692-13.589 31.028 0 56.043 25.209 56.043 56v63.657c0 70.994-67.622 124.275-137.173 103.948-1.229 15.386-9.491 28.915-22.053 37.211 19.067 32.209 62.561 39.698 91.342 15.47 3.378-2.844 8.428-2.413 11.273.967zm-50.391-65.353c50.156 0 91.003-41.544 91.003-92.244v-63.656c0-22.056-17.944-40-40-40-9.702 0-19.037 3.668-26.491 9.88-14.173 11.812-34.622 11.816-48.794.185-8.59-7.05-19.418-10.991-30.688-9.701-12.083 1.383-20.283 5.822-27.418 14.843-5.631 7.118-8.608 15.691-8.608 24.792v64.9c-.001 50.271 40.666 90.998 90.996 91.001z"/></svg>