<svg id="Layer_1" enable-background="new 0 0 480 480" height="512" viewBox="0 0 480 480" width="512" xmlns="http://www.w3.org/2000/svg"><path d="m345.03 355.53c-.027 1.078-.03 4.629-.03 19.873 0-21.192-.017-19.111.03-19.873z" fill="#e0b7a3"/><path d="m345.07 354.7c-20.9-7.65-27.37-1.52-42.17-7.95-14.65-6.36-24.9-20.93-24.9-37.92v-6.83l-.15-.37c35.9-14.86 61.15-50.23 61.15-91.5v-3.13c14.36 0 26-11.64 26-26v-48.5c0-68.758-55.738-124.5-124.5-124.5-68.76 0-124.5 55.74-124.5 124.5v49.96c0 13.255 10.725 24.54 25 24.54v3.13c0 41.27 25.25 76.64 61.15 91.5l-.15.37v6.83c0 16.99-10.25 31.56-24.9 37.92-15.03 6.54-22.03.14-43.42 8.42-27.9 10.79-47.68 37.87-47.68 69.57v39.26c0 4.42 3.58 8 8 8h292c4.42 0 8-3.58 8-8v-39.26c0-32.17-20.38-59.59-48.93-70.04zm-.07 5.46c0-2.26-.019-4.236.05-5.2-.035 1.001-.037 1.503-.05 5.2z" fill="#c79a83"/><path d="m365 132.5v48.5c0 14.36-11.64 26-26 26 0-10.8 0-37.35 0-61.77 0-26.51-21.49-48-48-48h-102c-26.51 0-48 21.49-48 48v61.77c-14.255 0-25-11.265-25-24.54v-49.96c0-68.76 55.74-124.5 124.5-124.5 68.758 0 124.5 55.738 124.5 124.5z" fill="#ffe773"/><g fill="#e0b7a3"><path d="m339 210.13c0 54.696-44.348 99-99 99-54.65 0-99-44.302-99-99 0-6.721 0-57.228 0-64.9 0-26.51 21.49-48 48-48h102c26.51 0 48 21.49 48 48z"/><path d="m345 375.403c0-22.496-.023-18.454.06-20.603-.054 1.305-.06-.155-.06 20.603z"/><path d="m394 424.74v39.26c0 4.42-3.58 8-8 8h-292c-4.42 0-8-3.58-8-8v-39.26c0-31.7 19.78-58.78 47.68-69.57 21.39-8.28 28.39-1.88 43.42-8.42v.01c10.95 24.91 35.7 41.06 62.9 41.06s51.95-16.15 62.9-41.06v-.01c14.8 6.43 21.27.3 42.17 7.95 28.55 10.45 48.93 37.87 48.93 70.04z"/></g><path d="m275.64 377.82c4.31 1.52 8.96 2.35 13.79 2.35 41.125 0 74.57 33.336 74.57 74.57v17.26h22c4.418 0 8-3.582 8-8v-39.26c0-41.228-33.438-74.57-74.57-74.57-5.87 0-11.47-1.22-16.53-3.42v.01c-5.79 13.17-15.43 23.89-27.26 31.06z" fill="#c79a83"/><path d="m204.36 377.82c-4.31 1.52-8.96 2.35-13.79 2.35-41.125 0-74.57 33.336-74.57 74.57v17.26h-22c-4.418 0-8-3.582-8-8v-39.26c0-41.228 33.438-74.57 74.57-74.57 5.87 0 11.47-1.22 16.53-3.42v.01c5.79 13.17 15.43 23.89 27.26 31.06z" fill="#f2d1c2"/><path d="m345.03 355.53c-.027 1.078-.03 4.629-.03 19.873 0-21.192-.017-19.111.03-19.873z" fill="#e0b7a3"/><path d="m345.07 354.7c-.104 1.962-.07-7.591-.07 117.3h-211v-115.98l-.32-.85c21.389-8.284 28.389-1.885 43.42-8.42v.01c10.95 24.91 35.7 41.06 62.9 41.06s51.95-16.15 62.9-41.06v-.01c14.796 6.433 21.273.296 42.17 7.95z" fill="#42434d"/><path d="m194.349 370.438c3.698 3.282 1.806 9.732-3.779 9.732-22.251 0-42.646 9.797-56.57 25.98v-50.13l-.32-.85c21.389-8.284 28.389-1.885 43.42-8.42v.01c4.053 9.219 9.993 17.237 17.249 23.678z" fill="#4d4e59"/><path d="m345 405.02c-13.66-15.26-33.51-24.85-55.57-24.85-4.83 0-9.48-.83-13.79-2.35 12.962-7.828 22.049-19.192 27.26-31.06v-.01c14.639 6.406 21.559.339 42.17 7.95-.08 1.51-.08-3.78-.07 50.32z" fill="#2c2c33"/><path d="m279.13 318.42c-24.637 10.313-51.712 11.113-78.26 0 1.356-5.626 1.13-9.27 1.13-16.42l.15-.37c24.082 9.996 51.571 10.016 75.7 0l.15.37c0 7.153-.226 10.796 1.13 16.42z" fill="#a07765"/><path d="m199.268 259.389c15.667 15.919-6.519 40.363-23.592 25.963-20.748-17.498-34.676-43.644-34.676-75.222v-64.9c0-9.771 3.018-19.335 8.473-27.305 6.601-9.645 21.599-4.68 21.528 7.007-.001.243-.001 64.954-.001 65.198 0 27.516 10.973 51.685 28.268 69.259z" fill="#f2d1c2"/><path d="m273.54 38.025c-45.942-1.03-91.297 23.366-114.009 67.989-.689 1.355-1.591 2.594-2.718 3.614-9.714 8.78-15.812 21.48-15.812 35.602v37.523c0 16.05-24.158 16.975-24.969.946-.049-.971-.031-50.949-.031-49.986 0-83.661 80.418-145.25 161.407-120.146 13.843 4.291 10.623 24.783-3.868 24.458z" fill="#ffec8f"/><path d="m402 424.743v47.257c0 4.418-3.582 8-8 8s-8-3.582-8-8v-47.257c0-24.449-13.11-45.846-33-57.503v104.76c0 4.418-3.582 8-8 8s-8-3.582-8-8v-111.477c-5.658-1.539-11.552-2.351-17.573-2.351-17.41 0-33.208-8.87-42.258-23.728-2.299-3.773-1.104-8.695 2.67-10.994 3.772-2.3 8.695-1.103 10.994 2.67 6.123 10.051 16.812 16.051 28.594 16.051 45.634 0 82.573 36.93 82.573 82.572zm-111.612-58.26c2.846 3.38 2.412 8.427-.968 11.272-36.841 31.013-92.818 20.862-116.34-21.177-11.286 2.924-16.826.102-31.08 4.219v111.203c0 4.418-3.582 8-8 8s-8-3.582-8-8v-104.166c-19.326 11.788-32 32.855-32 56.909v47.257c0 4.418-3.582 8-8 8s-8-3.582-8-8v-47.257c0-45.634 36.929-82.571 82.571-82.571 18.462 0 33.429-14.877 33.429-33.341v-2.107c-34.919-16.697-59.429-51.783-60.923-92.643-14.37-3.456-25.077-16.318-25.077-31.621v-49.96c0-73.061 59.439-132.5 132.5-132.5s132.5 59.439 132.5 132.5v49.96c0 4.418-3.582 8-8 8s-8-3.582-8-8v-49.96c0-64.238-52.262-116.5-116.5-116.5s-116.5 52.262-116.5 116.5v49.96c0 6.348 3.656 11.865 9 14.636v-51.863c0-30.878 25.121-56 56-56h102c30.879 0 56 25.12 56 55.997 0 .178.002 65.555-.003 65.733-.547 70.614-68.809 121.947-137.167 101.823-1.21 15.34-9.426 28.918-22.057 37.259 19.064 32.203 62.557 39.702 91.342 15.47 3.378-2.843 8.428-2.412 11.273.968zm-50.388-65.358c50.178 0 91-40.822 91-91v-64.895c0-22.055-17.944-39.997-40-39.997h-102c-22.056 0-40 17.944-40 40v64.891c0 50.179 40.822 91.001 91 91.001z"/></svg>