<svg id="Layer_1" enable-background="new 0 0 480 480" height="512" viewBox="0 0 480 480" width="512" xmlns="http://www.w3.org/2000/svg"><path d="m394 424.52v39.48c0 4.42-3.58 8-8 8h-292c-4.42 0-8-3.58-8-8v-39.48c0-41.24 33.74-73.95 74.98-74.35 13.555-.144 25.808-6.772 33.37-17.39l.65.22-.45-.5c-.05.07-.1.14-.16.21 8.48-11.925 7.61-22.78 7.61-30.71l.15-.37c-35.9-14.86-61.15-50.23-61.15-91.5v-3.13c-14.252 0-25-11.262-25-24.54v-49.96c0-68.76 55.74-124.5 124.5-124.5 68.758 0 124.5 55.738 124.5 124.5v48.5c0 14.36-11.64 26-26 26v3.13c0 41.27-25.25 76.64-61.15 91.5l.15.37c0 7.802-.911 18.727 7.61 30.71-.06-.07-.11-.14-.16-.21l-.45.5.65-.22c7.563 10.62 19.813 17.246 33.37 17.39 41.24.4 74.98 33.11 74.98 74.35z" fill="#c79a83"/><path d="m365 132.5v48.5c0 14.36-11.64 26-26 26 0-10.8 0-37.35 0-61.77 0-26.51-21.49-48-48-48h-102c-26.51 0-48 21.49-48 48v61.77c-14.255 0-25-11.265-25-24.54v-49.96c0-68.76 55.74-124.5 124.5-124.5 68.758 0 124.5 55.738 124.5 124.5z" fill="#42434d"/><path d="m339 210.13c0 54.696-44.348 99-99 99-54.65 0-99-44.302-99-99 0-6.721 0-57.228 0-64.9 0-26.51 21.49-48 48-48h102c26.51 0 48 21.49 48 48z" fill="#e0b7a3"/><path d="m319.02 350.17c-13.629-.145-25.989-6.85-33.57-17.67-35.681 39.651-27.699 30.779-39.5 43.9-3.18 3.53-8.72 3.53-11.9 0-12.733-14.156-4.348-4.837-39.5-43.9-7.558 10.787-19.9 17.525-33.57 17.67-41.24.4-74.98 33.11-74.98 74.35v39.48c0 4.42 3.58 8 8 8h292c4.42 0 8-3.58 8-8v-39.48c0-41.24-33.74-73.95-74.98-74.35z" fill="#d6f4fc"/><g fill="#c79a83"><path d="m195 333-.65-.22c.02-.02.03-.04.04-.07.06-.07.11-.14.16-.21z"/><path d="m285.65 332.78-.65.22.45-.5c.05.07.1.14.16.21.01.03.02.05.04.07z"/><path d="m194.55 332.5c-.05.07-.1.14-.16.21-.01.03-.02.05-.04.07l.65.22zm91.06.21c-.06-.07-.11-.14-.16-.21l-.45.5.65-.22c-.02-.02-.03-.04-.04-.07z"/></g><path d="m303.08 346.83c-.124.264-9.994 45.164-9.931 44.878-1.302 5.907-8.778 7.809-12.745 3.242-26.257-30.236-22.675-26.293-25.334-28.691l30.38-33.76c4.4 6.281 10.5 11.271 17.63 14.331z" fill="#e8f8fc"/><path d="m194.55 332.5 29.66 32.96-24.603 29.155c-3.932 4.66-11.5 2.792-12.812-3.163-.063-.285-9.75-44.359-9.875-44.623 7.13-3.059 13.23-8.049 17.63-14.329z" fill="#e8f8fc"/><path d="m348.61 356.359v115.641h-217.22v-115.62c23.303-9.935 30.159-2.952 45.57-9.57l9.618 43.655c1.415 6.421 9.542 8.489 13.853 3.524l24.29-27.969 9.333 10.372c3.178 3.532 8.715 3.532 11.893 0l9.333-10.372 24.29 27.969c4.311 4.965 12.438 2.897 13.853-3.524l9.617-43.655c15.5 6.656 22.292-.376 45.57 9.549z" fill="#ffaa64"/><path d="m182.12 370.25c-39.58 1.8-71.12 34.47-71.12 74.49v27.26h-17c-4.418 0-8-3.582-8-8v-39.418c0-41.254 33.753-73.989 75.006-74.414 5.641-.058 11.02-1.242 15.914-3.338.124.264 5.137 23.135 5.2 23.42z" fill="#e8f8fc"/><path d="m195.18 374.5c1.49 6.77 3.08 13.98 4.43 20.11-3.932 4.661-11.5 2.799-12.811-3.157-3.845-17.462-9.794-44.445-9.878-44.623 7.13-3.06 13.23-8.05 17.63-14.33l8.54 9.5c-7.341 9.14-10.451 20.99-7.911 32.5z" fill="#f1fafc"/><path d="m182.12 370.25c-19.96.91-37.88 9.67-50.73 23.26v-37.13c22.256-9.538 30.749-3.146 45.53-9.55.101.228 5.2 23.342 5.2 23.42z" fill="#ffbd7b"/><path d="m297.88 370.25c39.58 1.8 71.12 34.47 71.12 74.49v27.26h17c4.418 0 8-3.582 8-8v-39.418c0-41.254-33.753-73.989-75.006-74.414-5.641-.058-11.02-1.242-15.914-3.338-.124.264-5.137 23.135-5.2 23.42z" fill="#bdeffc"/><path d="m297.88 370.25c19.96.91 37.88 9.67 50.73 23.26v-37.13c-22.256-9.538-30.749-3.146-45.53-9.55-.101.228-5.2 23.342-5.2 23.42z" fill="#faa157"/><path d="m274.7 236.189c5.766 1.982 7.332 9.457 2.585 13.284-10.096 8.14-22.772 8.455-33.38 2.363-2.426-1.393-5.384-1.393-7.81 0-10.598 6.086-23.273 5.786-33.38-2.363-4.746-3.827-3.181-11.301 2.585-13.284 9.609-3.304 11.299-10.199 18.75-12.169 2.788-.74 6.934-.937 12.728 1.692 2.056.933 4.389.933 6.445 0 5.793-2.629 9.94-2.431 12.728-1.692 7.451 1.97 9.141 8.865 18.749 12.169z" fill="#42434d"/><path d="m279.13 318.42c-24.637 10.313-51.712 11.113-78.26 0 1.356-5.626 1.13-9.27 1.13-16.42l.15-.37c24.082 9.996 51.571 10.016 75.7 0l.15.37c0 7.153-.226 10.796 1.13 16.42z" fill="#a07765"/><path d="m199.268 259.389c15.667 15.919-6.519 40.363-23.592 25.963-20.748-17.498-34.676-43.644-34.676-75.222v-64.9c0-9.771 3.018-19.335 8.473-27.305 6.601-9.645 21.599-4.68 21.528 7.007-.001.243-.001 64.954-.001 65.198 0 27.516 10.973 51.685 28.268 69.259z" fill="#f2d1c2"/><path d="m273.54 38.025c-45.942-1.03-91.297 23.366-114.009 67.989-.689 1.355-1.591 2.594-2.718 3.614-9.714 8.78-15.812 21.48-15.812 35.602v37.523c0 16.05-24.158 16.975-24.969.946-.049-.971-.031-50.949-.031-49.986 0-83.661 80.418-145.25 161.407-120.146 13.843 4.291 10.623 24.783-3.868 24.458z" fill="#4d4e59"/><path d="m319.426 342.172c-11.782 0-22.471-6-28.594-16.051-2.299-3.773-7.222-4.971-10.994-2.67-3.773 2.298-4.969 7.22-2.67 10.994 4.258 6.99 10.022 12.634 16.733 16.673l-8.291 37.626-19.989-23.017c3.71-4.267 2.659-9.128-.372-11.764-3.335-2.9-8.388-2.546-11.286.787l-14.066 16.177-35.432-39.369c3.016-5.791 4.843-12.147 5.366-18.771 68.317 20.111 136.619-31.164 137.166-101.823.005-.166.003-65.567.003-65.733 0-30.877-25.122-55.997-56-55.997h-102c-30.878 0-56 25.122-56 56v51.862c-5.344-2.772-9-8.288-9-14.636v-49.96c0-64.238 52.262-116.5 116.5-116.5s116.5 52.262 116.5 116.5v49.96c0 4.418 3.582 8 8 8s8-3.582 8-8v-49.96c0-73.061-59.439-132.5-132.5-132.5s-132.5 59.439-132.5 132.5v49.96c0 15.303 10.707 28.165 25.077 31.62 1.494 40.859 26.003 75.946 60.923 92.643v2.107c0 8.913-3.476 17.287-9.788 23.581-11.192 11.161-25.298 9.761-23.641 9.761-45.635 0-82.571 36.929-82.571 82.571v47.257c0 4.418 3.582 8 8 8s8-3.582 8-8v-47.257c0-22.6 11.224-42.95 29.385-55.232v102.489c0 4.418 3.582 8 8 8s8-3.582 8-8v-110.382c15.507-5.188 20.485-2.172 31.64-4.557l11.162 50.66c1.412 6.41 9.549 8.48 13.853 3.524l28.786-33.147c9.746 10.829 9.428 10.598 10.429 11.337 1.56 1.156 3.612 1.766 5.744 1.494 3.883-.487 4.566-2.138 14.02-13.01l28.941 33.326c4.304 4.956 12.441 2.886 13.853-3.524l11.163-50.662c3.389.72 6.883 1.112 10.452 1.112 36.792 0 66.572 29.774 66.572 66.572v47.257c0 4.418 3.582 8 8 8s8-3.582 8-8v-47.257c0-45.638-36.932-82.572-82.574-82.571zm-170.426-132.047v-64.891c0-22.056 17.944-40 40-40h102c22.056 0 40 17.942 40 39.997v64.895c0 50.178-40.822 91-91 91s-91-40.823-91-91.001zm45.39 178.619-8.293-37.638c3.05-1.841 5.911-4.035 8.548-6.543l19.397 21.552zm162.225-1.219v84.475c0 4.418-3.582 8-8 8s-8-3.582-8-8v-84.475c0-4.418 3.582-8 8-8s8 3.581 8 8zm-94.041-123.648c21.679-2.049 31.282-22.2 31.681-23.057 2.621-5.641-1.938-11.988-8.1-11.327-15.358 1.621-15.396-9.834-28.166-13.208-5.581-1.476-11.617-.767-17.99 2.104-6.374-2.87-12.409-3.58-17.99-2.104-12.8 3.382-12.786 14.831-28.165 13.208-6.161-.66-10.722 5.683-8.1 11.327.398.857 10.002 21.008 31.681 23.057 9.597.909 17.45-2.145 22.574-5.068 6.797 3.877 14.548 5.827 22.575 5.068zm-54.32-20.247c15.942-5.681 13.539-17.542 27.74-9.329 2.479 1.434 5.533 1.434 8.012 0 14.18-8.201 11.756 3.613 27.74 9.329-8.585 6.552-19.141 5.356-26.773-.699-2.912-2.31-7.032-2.311-9.944 0-7.662 6.077-18.205 7.24-26.775.699z"/></svg>