<svg id="Layer_1" enable-background="new 0 0 480 480" height="512" viewBox="0 0 480 480" width="512" xmlns="http://www.w3.org/2000/svg"><path d="m394 424.74v39.26c0 4.42-3.58 8-8 8h-292c-4.42 0-8-3.58-8-8v-39.26c0-31.73 19.86-58.9 47.85-69.64 3.75-9.67 2.05-5.3 7.65-19.74 3.79-9.78 15.82-13.33 24.31-7.17 10.89 7.9 14.44 10.48 19.27 13.98 10.26-7.52 16.92-19.64 16.92-33.34v-6.83l.15-.37c-33.63-13.92-57.91-45.84-60.85-83.73l-.3.03c-18.281 0-34.377-12.143-39.1-29.66-24.534-91.208 44.686-179.615 137.07-180.27 95.42 0 163.484 89.731 139.13 180.27-4.709 17.466-20.767 29.66-39.1 29.66l-.3-.03c-2.94 37.89-27.22 69.81-60.85 83.73l.15.37v6.83c0 13.7 6.66 25.82 16.92 33.34 4.82-3.5 8.36-6.07 19.27-13.98 8.49-6.16 20.52-2.61 24.31 7.18 5.64 14.54 4 10.3 7.65 19.73 27.98 10.74 47.85 37.89 47.85 69.64z" fill="#c79a83"/><path d="m339 145.23v64.9c0 70.617-71.955 118.438-136.85 91.5-36.107-14.945-61.15-50.449-61.15-91.5v-64.9c0-26.51 21.49-48 48-48h102c26.51 0 48 21.49 48 48z" fill="#e0b7a3"/><path d="m141.3 217.9-.3.03c-18.269 0-34.374-12.133-39.1-29.66-24.535-91.213 44.691-179.615 137.07-180.27 95.42 0 163.484 89.73 139.13 180.27-4.71 17.468-20.769 29.66-39.1 29.66l-.3-.03c.4-5.14.3-1.205.3-72.67 0-26.51-21.49-48-48-48h-102c-26.51 0-48 21.49-48 48 0 71.056-.109 67.41.3 72.67z" fill="#42434d"/><path d="m393.749 424.991v39.26c0 4.418-3.582 8-8 8h-292c-4.418 0-8-3.582-8-8v-39.26c0-31.734 19.856-58.895 47.85-69.64 3.746-9.669 2.053-5.3 7.65-19.74 3.79-9.78 15.82-13.33 24.31-7.17 24.488 17.766 11.878 8.619 60.1 43.59 8.4 6.1 19.78 6.1 28.18 0 48.279-35.012 35.604-25.819 60.1-43.59 8.49-6.16 20.52-2.61 24.31 7.18 5.639 14.538 3.997 10.301 7.65 19.73 27.978 10.738 47.85 37.887 47.85 69.64z" fill="#42434d"/><path d="m277.383 13.072c14.533 3.945 11.275 25.461-3.777 24.999-80.985-2.488-148.908 65.307-146.633 146.739.415 14.853-21.013 18.501-25.073 3.46-28.474-105.861 68.82-204.153 175.483-175.198z" fill="#4d4e59"/><path d="m199.268 259.389c15.667 15.919-6.519 40.363-23.592 25.963-20.748-17.498-34.676-43.644-34.676-75.222v-64.9c0-9.771 3.018-19.335 8.473-27.305 6.601-9.645 21.599-4.68 21.528 7.007-.001.243-.001 64.954-.001 65.198 0 27.516 10.973 51.685 28.268 69.259z" fill="#f2d1c2"/><path d="m178.129 337.227c-6.26 3.619-6.644 7.435-14.53 27.79-27.977 10.738-47.85 37.887-47.85 69.64v37.26h-22c-4.418 0-8-3.582-8-8v-39.26c0-31.734 19.856-58.895 47.85-69.64 4.355-11.242 7.664-19.777 7.651-19.744 3.792-9.783 15.816-13.328 24.309-7.166z" fill="#4d4e59"/><path d="m301.369 337.561c6.26 3.619 6.644 7.435 14.53 27.79 27.977 10.738 47.85 37.887 47.85 69.64v37.26h22c4.418 0 8-3.582 8-8v-39.26c0-31.734-19.856-58.895-47.85-69.64-4.355-11.242-7.664-19.777-7.651-19.744-3.792-9.783-15.816-13.328-24.309-7.166z" fill="#2c2c33"/><circle cx="275" cy="180" fill="#d6f4fc" r="32"/><circle cx="205" cy="180" fill="#d6f4fc" r="32"/><path d="m213.069 160.2c-14.772 5.917-23.142 22.678-19.072 38.043 1.494 5.641-5.076 10.027-9.546 6.275-6.997-5.874-11.451-14.685-11.451-24.518 0-22.008 20.603-35.409 39.174-31.248 5.788 1.297 6.401 9.242.895 11.448z" fill="#e8f8fc"/><path d="m283.069 160.2c-14.772 5.917-23.142 22.678-19.072 38.043 1.494 5.641-5.076 10.027-9.546 6.275-6.997-5.874-11.451-14.685-11.451-24.518 0-22.008 20.603-35.409 39.174-31.248 5.788 1.297 6.401 9.242.895 11.448z" fill="#e8f8fc"/><path d="m279.13 318.42c-24.637 10.313-51.712 11.113-78.26 0 1.356-5.626 1.13-9.27 1.13-16.42l.15-.37c24.082 9.996 51.571 10.016 75.7 0l.15.37c0 7.153-.226 10.796 1.13 16.42z" fill="#a07765"/><path d="m402 424.743v47.257c0 4.418-3.582 8-8 8s-8-3.582-8-8v-47.257c0-16.351-5.984-32.071-16.852-44.265-2.939-3.298-2.648-8.355.65-11.295 3.299-2.939 8.356-2.647 11.295.65 13.482 15.128 20.907 34.629 20.907 54.91zm-48.391-72.525c1.596 4.12-.45 8.753-4.57 10.35 0 0 1.509-.47-30.975 7.804-4.273 1.09-8.635-1.489-9.727-5.778-1.091-4.282 1.496-8.637 5.778-9.727l21.264-5.416-4.337-11.195c-1.894-4.89-7.906-6.671-12.156-3.586l-60.098 43.587c-11.237 8.15-26.338 8.15-37.575 0l-60.099-43.588c-4.248-3.08-10.259-1.312-12.157 3.586l-4.338 11.195 21.267 5.417c4.282 1.09 6.869 5.445 5.778 9.727-.922 3.619-4.176 6.027-7.747 6.027-1.406 0 .357.346-29.282-7.204-24.395 10.342-40.635 34.7-40.635 61.326v47.257c0 4.418-3.582 8-8 8s-8-3.582-8-8v-47.257c0-33.48 20.026-62.869 49.632-75.739l6.406-16.532c5.688-14.68 23.72-20.005 36.469-10.757l14.144 10.258c5.995-6.164 9.349-14.339 9.349-23.143v-2.107c-31.64-15.129-54.736-45.356-59.906-81.295-18.968-2.7-34.875-16.364-39.914-35.081-25.958-96.411 47.427-190.347 145.829-190.347 99.158 0 171.313 93.908 145.985 189.696-1.129 4.271-5.506 6.818-9.779 5.689-4.271-1.129-6.819-5.508-5.689-9.779 22.654-85.676-42.043-170.195-131.5-169.603-86.914.612-152.576 84.095-129.396 170.185 3.061 11.369 12.166 19.948 23.37 22.754v-63.708c0-30.878 25.122-56 56-56h102c30.878 0 56 25.12 56 55.997 0 41.179.063 72.164-.16 71.129.288 1.337.208 2.882-.373 4.405-6.551 66.03-71.969 111.066-136.647 92.019-.865 10.622-5.178 20.678-12.159 28.626l32.946 23.895c5.619 4.076 13.169 4.075 18.788 0l32.921-23.876c-1.459-1.656-2.812-3.409-4.046-5.259-2.453-3.675-1.462-8.642 2.212-11.095s8.642-1.463 11.095 2.212c1.121 1.68 2.388 3.241 3.782 4.682l14.134-10.251c12.741-9.241 30.778-3.935 36.47 10.759zm-113.609-51.093c50.178 0 91-40.822 91-91v-64.895c0-22.055-17.944-39.997-40-39.997h-102c-22.056 0-40 17.944-40 40v64.891c0 50.179 40.822 91.001 91 91.001zm-27.424 106.07c-4.209-1.343-8.71.983-10.052 5.192-5.189 16.281-14.577 31.444-27.938 43.722-5.382 4.946-1.816 13.89 5.416 13.89 1.935 0 3.875-.697 5.412-2.11 14.614-13.43 25.991-30.679 32.354-50.643 1.342-4.209-.983-8.709-5.192-10.051zm64.9 5.193c-1.341-4.209-5.841-6.536-10.052-5.192-4.209 1.342-6.534 5.842-5.192 10.052 5.958 18.693 16.759 36.31 32.354 50.643 3.254 2.99 8.315 2.776 11.304-.477 2.99-3.253 2.776-8.314-.477-11.304-13.35-12.269-22.744-27.429-27.937-43.722zm-41.489-224.388c-3.561 13.786-16.104 24-30.987 24-17.645 0-32-14.355-32-32s14.355-32 32-32c14.884 0 27.426 10.214 30.987 24h8.025c3.561-13.786 16.104-24 30.987-24 17.645 0 32 14.355 32 32s-14.355 32-32 32c-14.884 0-27.426-10.214-30.987-24zm23.013-8c0 8.822 7.178 16 16 16s16-7.178 16-16-7.178-16-16-16-16 7.178-16 16zm-38 0c0-8.822-7.178-16-16-16s-16 7.178-16 16 7.178 16 16 16 16-7.178 16-16z"/></svg>