<svg id="Layer_1" enable-background="new 0 0 479.998 479.998" height="512" viewBox="0 0 479.998 479.998" width="512" xmlns="http://www.w3.org/2000/svg"><path d="m393.999 424.738v39.26c0 4.42-3.58 8-8 8h-292c-4.42 0-8-3.58-8-8v-39.26c0-41.03 33.15-74.95 74.18-74.57 23.116.193 41.82-18.394 41.82-41.34v-6.83l.15-.37c-35.9-14.86-61.15-50.23-61.15-91.5v-3.13c-14.252 0-25-11.262-25-24.54v-121.81c0-16.46 13.34-29.8 29.8-29.8 10.996-26.541 47.076-31.147 64.2-7.51 14.782-20.435 45.176-20.463 60 0-.01 0-.01.01-.01.01h.02s0-.01-.01-.01c17.021-23.496 53.132-19.185 64.2 7.51 16.485 0 29.8 13.373 29.8 29.8v121.35c0 13.81-11.19 25-25 25v3.13c0 41.27-25.25 76.64-61.15 91.5l.15.37v6.83c0 22.93 18.689 41.532 41.82 41.34 41.03-.38 74.18 33.54 74.18 74.57z" fill="#c79a83"/><path d="m338.999 210.128c0 54.696-44.348 99-99 99-54.65 0-99-44.302-99-99 0-6.721 0-57.228 0-64.9 0-26.51 21.49-48 48-48h102c26.51 0 48 21.49 48 48z" fill="#e0b7a3"/><path d="m209.999 23.338c14.782-20.435 45.176-20.463 60 0-.01 0-.01.01-.01.01h.02s0-.01-.01-.01c17.022-23.497 53.132-19.184 64.2 7.51 16.505 0 29.8 13.39 29.8 29.8v121.35c0 13.81-11.19 25-25 25 0-10.8 0-37.35 0-61.77 0-26.51-21.49-48-48-48h-102c-26.51 0-48 21.49-48 48v61.77c-14.261 0-25-11.27-25-24.54v-121.81c0-16.46 13.34-29.8 29.8-29.8 10.998-26.546 47.082-31.14 64.2-7.51z" fill="#42434d"/><path d="m393.999 424.738v39.26c0 4.418-3.582 8-8 8h-292c-4.418 0-8-3.582-8-8v-39.26c0-41.031 33.148-74.952 74.178-74.572 6.013.056 11.75-1.169 16.922-3.418v.01c12.069 27.44 40.785 44.126 70.9 40.59 23.97-2.81 45.03-18.15 54.9-40.59v-.01c5.173 2.249 10.91 3.474 16.922 3.418 41.03-.38 74.178 33.541 74.178 74.572z" fill="#ffaa64"/><path d="m279.129 318.418c-24.637 10.313-51.712 11.113-78.26 0 1.356-5.626 1.13-9.27 1.13-16.42l.15-.37c24.082 9.996 51.571 10.016 75.7 0l.15.37c0 7.153-.226 10.796 1.13 16.42z" fill="#a07765"/><path d="m344.918 41.12c-9.653-4.194-20.911-4.195-30.631.338-9.231 4.305-19.858 3.898-29.161-.251-9.619-4.29-20.727-4.266-30.323.035-9.53 4.272-20.448 3.921-30.037-.218-14.942-6.449-33.161-2.338-43.65 10.786-4.055 5.074-9.629 8.637-15.716 10.903-11.331 4.219-19.401 15.133-19.401 27.936 0 33.028.354 32.266-1.019 35.415-2.56 5.87-3.981 12.352-3.981 19.165v37.523c0 16.188-25 17.315-25-.293v-121.811c0-16.46 13.34-29.8 29.8-29.8 10.992-26.532 47.105-31.107 64.2-7.51 14.782-20.435 45.176-20.463 60 0-.01 0-.01.01-.01.01h.02s0-.01-.01-.01c17.021-23.496 53.132-19.185 64.2 7.51 5.119 0 9.934 1.29 14.14 3.561 4.218 2.279.977 8.621-3.421 6.711z" fill="#4d4e59"/><path d="m181.727 355.508c5.707 9.127.745 21.147-9.677 23.842-25.126 6.499-58.051 23.411-58.051 71.128v21.52h-20c-4.418 0-8-3.582-8-8v-39.26c0-29.807 17.538-56.006 43.88-67.98h.01c23.819-10.682 30.59-3.077 47.21-10 1.343 3.053 2.892 5.974 4.628 8.75z" fill="#ffbd7b"/><path d="m297.938 355.508c-5.707 9.127-.745 21.147 9.677 23.842 25.126 6.499 58.051 23.411 58.051 71.128v21.52h20c4.418 0 8-3.582 8-8v-39.26c0-29.807-17.538-56.006-43.88-67.98h-.01c-23.819-10.682-30.59-3.077-47.21-10-1.343 3.053-2.892 5.974-4.628 8.75z" fill="#faa157"/><path d="m217.585 274.054c16.281 10.185 3.453 35.162-14.369 28.009-36.579-14.68-62.217-50.341-62.217-91.936v-64.9c0-10.084 3.11-19.442 8.422-27.168 6.514-9.473 21.578-5.288 21.578 7.168v64.9c0 36.531 19.201 66.796 46.586 83.927z" fill="#f2d1c2"/><path d="m401.999 424.741v47.257c0 4.418-3.582 8-8 8s-8-3.582-8-8v-47.257c0-36.794-29.775-66.572-66.573-66.571-17.41 0-33.208-8.87-42.258-23.728-2.299-3.773-1.104-8.695 2.67-10.994 3.772-2.301 8.695-1.103 10.994 2.67 6.123 10.051 16.812 16.051 28.594 16.051 45.637 0 82.573 36.93 82.573 82.572zm-111.612-58.26c2.846 3.38 2.412 8.427-.968 11.272-36.841 31.013-92.818 20.862-116.34-21.177-4.034 1.045-8.227 1.593-12.505 1.593-36.878 0-66.574 29.849-66.574 66.571v47.257c0 4.418-3.582 8-8 8s-8-3.582-8-8v-47.257c0-45.634 36.929-82.571 82.571-82.571 18.452 0 33.429-14.863 33.429-33.341v-2.107c-34.919-16.697-59.429-51.783-60.923-92.643-14.37-3.455-25.077-16.317-25.077-31.62v-121.807c0-19.084 14.217-34.911 32.615-37.447 13.974-25.319 47.844-30.959 69.385-11.736 17.116-15.273 42.861-15.295 60 0 21.579-19.257 55.435-13.54 69.384 11.736 18.398 2.536 32.616 18.363 32.616 37.447v121.807c0 4.418-3.582 8-8 8s-8-3.582-8-8v-121.807c0-12.021-9.78-21.801-21.802-21.801-3.236 0-6.153-1.949-7.392-4.939-8.659-20.913-36.768-24.206-50.138-6.141-3.142 4.732-10.089 4.762-13.28.078-5.456-7.425-14.183-11.851-23.389-11.851-15.947 0-23.328 11.986-24.322 12.987-3.502 3.522-9.336 3.031-12.204-1.02-13.275-18.255-41.576-15.075-50.28 5.946-1.238 2.99-4.155 4.939-7.392 4.939-12.021 0-21.802 9.78-21.802 21.801v121.807c0 6.348 3.656 11.865 9 14.636v-51.863c0-30.878 25.121-56 56-56h102c30.879 0 56 25.12 56 55.997v65.503c0 69.57-67.985 122.42-137.169 102.053-1.21 15.34-9.426 28.918-22.057 37.259 19.064 32.203 62.557 39.702 91.342 15.47 3.378-2.843 8.426-2.411 11.272.969zm-50.388-65.358c50.178 0 91-40.822 91-91v-64.895c0-22.055-17.944-39.997-40-39.997h-102c-22.056 0-40 17.944-40 40v64.891c0 50.179 40.822 91.001 91 91.001z"/></svg>