<svg id="Layer_1" enable-background="new 0 0 480.013 480.013" height="512" viewBox="0 0 480.013 480.013" width="512" xmlns="http://www.w3.org/2000/svg"><path d="m394.007 424.533v39.48c0 4.42-3.58 8-8 8h-292c-4.42 0-8-3.58-8-8v-39.48c0-41.24 33.74-73.95 74.98-74.35 13.527-.144 25.791-6.749 33.37-17.39l.65.22-.45-.5c-.05.07-.1.14-.16.21 8.48-11.925 7.61-22.78 7.61-30.71l.15-.37c-35.9-14.86-61.15-50.23-61.15-91.5v-3.48c-14.315 0-25-11.302-25-24.49v-122.16c0-16.57 13.43-30 30-30 10.743-25.892 47.103-29.964 64-6.69 14.79-20.402 45.18-20.414 60 0-.01 0-.01.01-.01.01h.02s0-.01-.01-.01c16.874-23.242 53.234-19.238 64 6.69 16.56 0 30 13.439 30 30v121.65c0 13.81-11.19 25-25 25 0 45.771-26.442 80.29-61.2 94.89l.2.46c0 7.739-.925 18.753 7.65 30.78-.131.044-.054.064-.26-.21l-.39.43.56-.19c7.292 10.248 19.622 17.213 33.46 17.36 41.24.4 74.98 33.11 74.98 74.35z" fill="#c79a83"/><path d="m210.007 23.323c14.79-20.402 45.179-20.414 60 0-.01 0-.01.01-.01.01h.02s0-.01-.01-.01c16.872-23.24 53.232-19.241 64 6.69 16.56 0 30 13.44 30 30v121.65c0 13.81-11.19 25-25 25v-61.42c0-40.535-47.242-63.256-79.61-36.27-11.213 9.344-27.364 9.376-38.6.15-33.112-27.176-79.79-3.948-79.79 36.12v61.42c-14.315 0-25-11.302-25-24.49v-122.16c0-16.57 13.43-30 30-30 10.743-25.891 47.103-29.964 64-6.69z" fill="#42434d"/><path d="m394.007 424.533v39.48c0 4.42-3.58 8-8 8h-292c-4.42 0-8-3.58-8-8v-39.48c0-41.24 33.74-73.95 74.98-74.35 13.637-.145 25.995-6.858 33.57-17.67 27.048 30.057 32.094 35.663 39.5 43.9 3.18 3.53 8.72 3.53 11.9 0 7.578-8.428 12.77-14.196 39.439-43.832 7.248 10.345 19.645 17.454 33.631 17.602 41.24.4 74.98 33.11 74.98 74.35z" fill="#fe4f60"/><g fill="#c79a83"><path d="m195.007 333.013-.65-.22c.02-.02.03-.04.04-.07.06-.07.11-.14.16-.21z"/><path d="m285.567 332.823-.56.19.39-.43c.06.08.11.16.17.24z"/><path d="m195.007 333.013-.65-.22c.02-.02.03-.04.04-.07.06-.07.11-.14.16-.21z"/><path d="m285.567 332.823-.56.19.39-.43c.06.08.11.16.17.24z"/></g><path d="m297.887 370.263c39.58 1.8 71.12 34.47 71.12 74.49v27.26h17c4.418 0 8-3.582 8-8v-39.419c0-41.254-33.753-73.989-75.006-74.414-5.641-.058-11.02-1.242-15.914-3.338-.125.266-5.138 23.136-5.2 23.421z" fill="#e84857"/><path d="m303.087 346.843c-.124.264-9.994 45.164-9.931 44.878-1.302 5.907-8.778 7.809-12.745 3.242-26.257-30.236-22.675-26.293-25.334-28.691l30.319-33.692c4.4 6.281 10.561 11.203 17.691 14.263z" fill="#e8f8fc"/><path d="m194.557 332.513 29.66 32.96-24.603 29.155c-3.932 4.66-11.5 2.792-12.812-3.163-.063-.285-9.75-44.359-9.875-44.623 7.13-3.059 13.23-8.049 17.63-14.329z" fill="#e8f8fc"/><path d="m195.187 374.513c1.49 6.77 3.08 13.98 4.43 20.11-3.932 4.661-11.5 2.799-12.812-3.157-3.845-17.462-9.794-44.445-9.878-44.623 7.13-3.06 13.23-8.05 17.63-14.33l8.54 9.5c-7.34 9.14-10.45 20.99-7.91 32.5z" fill="#f1fafc"/><path d="m182.127 370.263c-39.58 1.8-71.12 34.47-71.12 74.49v27.26h-17c-4.418 0-8-3.582-8-8v-39.419c0-41.254 33.753-73.989 75.006-74.414 5.641-.058 11.02-1.242 15.914-3.338.124.266 5.137 23.136 5.2 23.421z" fill="#ff6d7a"/><path d="m279.137 318.433c-24.637 10.313-51.712 11.113-78.26 0 1.356-5.626 1.13-9.27 1.13-16.42l.15-.37c24.082 9.996 51.571 10.016 75.7 0l.15.37c0 7.153-.226 10.796 1.13 16.42z" fill="#a07765"/><path d="m344.926 41.135c-9.653-4.194-20.911-4.195-30.631.338-9.231 4.305-19.858 3.898-29.161-.251-9.619-4.29-20.727-4.266-30.323.035-9.53 4.272-20.448 3.921-30.037-.218-14.942-6.449-33.161-2.338-43.65 10.786-4.055 5.074-9.629 8.637-15.716 10.903-11.331 4.219-19.401 15.133-19.401 27.936 0 33.028.354 32.266-1.019 35.415-2.56 5.87-3.981 12.352-3.981 19.165v37.523c0 16.188-25 17.315-25-.293v-121.811c0-16.46 13.34-29.8 29.8-29.8 10.992-26.532 47.105-31.107 64.2-7.51 14.782-20.435 45.176-20.463 60 0-.01 0-.01.01-.01.01h.02s0-.01-.01-.01c17.021-23.496 53.132-19.185 64.2 7.51 5.119 0 9.934 1.29 14.14 3.561 4.218 2.279.977 8.622-3.421 6.711z" fill="#4d4e59"/><path d="m202.865 262.878c16.03 14.737-4.004 39.704-21.595 26.871-23.796-17.359-40.263-45.273-40.263-79.606v-64.9c0-9.771 3.018-19.336 8.473-27.306 6.601-9.645 21.599-4.68 21.528 7.007-.001.244-.001 64.955-.001 65.199 0 29.38 12.504 54.942 31.858 72.735z" fill="#f2d1c2"/><path d="m141.007 145.243c0-40.59 46.988-63.042 79.79-36.12 11.235 9.225 27.385 9.196 38.6-.15 32.422-27.03 79.61-4.162 79.61 36.27v63.66c0 54.557-43.624 99.824-98.26 100.24-54.966.402-99.74-44.037-99.74-99 0-8.266 0-58.152 0-64.9z" fill="#e0b7a3"/><path d="m199.275 259.402c15.667 15.919-6.519 40.363-23.592 25.963-20.748-17.498-34.676-43.644-34.676-75.223v-64.9c0-9.771 3.018-19.335 8.473-27.305 6.601-9.645 21.599-4.68 21.528 7.007-.001.243-.001 64.954-.001 65.198 0 27.518 10.972 51.687 28.268 69.26z" fill="#f2d1c2"/><path d="m319.433 342.185c-11.782 0-22.471-6-28.594-16.051-2.299-3.773-7.222-4.971-10.994-2.67-3.773 2.298-4.969 7.22-2.67 10.994 4.258 6.99 10.022 12.634 16.732 16.673l-8.291 37.627-19.989-23.017c3.705-4.26 2.663-9.124-.373-11.764-3.332-2.899-8.386-2.547-11.286.787l-14.066 16.176-35.432-39.369c3.008-5.777 4.834-12.116 5.362-18.723 69.491 20.308 137.173-32.898 137.173-103.948v-63.657c0-47.248-55.148-73.736-92.735-42.411-8.258 6.883-20.14 6.886-28.399.108-38.639-31.707-92.865-4.237-92.865 42.303v51.525c-5.344-2.765-9-8.267-9-14.599v-122.156c0-12.131 9.869-22 22-22 3.234 0 6.15-1.947 7.39-4.935 8.416-20.285 36.998-23.088 50.088-5.12 3.246 4.579 10.095 4.478 13.201-.213 11.641-15.675 35.159-15.604 46.717.102 3.238 4.736 10.181 4.565 13.271-.085 13.184-17.776 41.569-14.869 49.943 5.317 1.239 2.987 4.155 4.935 7.39 4.935 12.131 0 22 9.869 22 22v122.043c0 4.418 3.582 8 8 8s8-3.582 8-8v-122.044c0-19.199-14.311-35.118-32.825-37.649-13.828-24.875-48.054-29.717-69.175-10.897-17.118-15.253-42.861-15.272-60 0-21.163-18.855-55.373-13.931-69.175 10.897-18.515 2.531-32.825 18.45-32.825 37.649v122.157c0 15.28 10.701 28.123 25.066 31.577 1.36 41.423 26.153 76.479 60.934 93.063v2.035c0 8.913-3.476 17.287-9.787 23.581-11.193 11.161-25.298 9.761-23.642 9.761-45.635 0-82.571 36.929-82.571 82.571v47.257c0 4.418 3.582 8 8 8s8-3.582 8-8v-47.257c0-36.795 29.775-66.572 66.573-66.571 3.501 0 6.997-.372 10.452-1.111l11.162 50.66c1.413 6.417 9.553 8.476 13.853 3.524l28.786-33.147c9.923 11.025 9.7 10.974 11.175 11.829 1.67.966 3.756 1.336 5.821.856 3.28-.765 3.645-1.878 13.198-12.863l28.941 33.326c4.308 4.961 12.442 2.88 13.853-3.524l11.163-50.662c3.389.72 6.883 1.112 10.452 1.112 36.794-.001 66.573 29.773 66.573 66.571v47.257c0 4.418 3.582 8 8 8s8-3.582 8-8v-47.257c-.001-45.638-36.932-82.574-82.575-82.573zm-170.426-132.042v-64.9c0-9.101 2.977-17.674 8.608-24.792 7.136-9.021 15.336-13.46 27.418-14.843 11.252-1.289 22.081 2.636 30.688 9.701 14.206 11.659 34.652 11.601 48.794-.185 27.388-22.826 66.491-3.305 66.491 30.12v63.656c0 59.63-56.023 105.058-115 89.036v-23.923c0-13.233 10.767-24 24-24s24 10.767 24 24c0 4.418 3.582 8 8 8s8-3.582 8-8c0-22.056-17.944-40-40-40s-40 17.944-40 40v17.894c-29.789-14.607-50.999-45.308-50.999-81.764zm45.389 178.615-8.293-37.638c3.05-1.841 5.911-4.035 8.548-6.542l19.396 21.552z"/></svg>