<svg id="Layer_1" enable-background="new 0 0 480 480" height="512" viewBox="0 0 480 480" width="512" xmlns="http://www.w3.org/2000/svg"><path d="m394 424.35v39.65c0 4.42-3.58 8-8 8h-292c-4.42 0-8-3.58-8-8v-39.65c0-41.23 33.74-73.79 74.97-74.18 22.628-.213 41.03-18.551 41.03-41.34v-6.83l.15-.37c3.06 1.27 6.2 2.39 9.41 3.34-39.59-12.04-70.56-48.49-70.56-94.84v-3.13c-14.261 0-25-11.27-25-24.54v-142.46c0-17.67 14.33-32 32-32h184c17.67 0 32 14.33 32 32v142c0 13.81-11.19 25-25 25v3.13c0 41.27-25.25 76.64-61.15 91.5l.15.37v6.83c0 22.839 18.452 41.128 41.03 41.34 41.23.39 74.97 32.95 74.97 74.18z" fill="#c79a83"/><path d="m394.125 424.225v39.65c0 4.42-3.58 8-8 8h-292c-4.42 0-8-3.58-8-8v-39.65c0-41.23 33.74-73.79 74.97-74.18 9.56-.09 18.36-3.42 25.33-8.93 8.033 8.033 20.737 18.755 24.37 40.52 18.029 8.228 42.106 7.762 58.58.51 3.469-21.956 16.201-32.781 24.45-41.03 6.97 5.51 15.77 8.84 25.33 8.93 41.23.39 74.97 32.95 74.97 74.18z" fill="#fe4f60"/><path d="m339 210.13c0 41.27-25.25 76.64-61.15 91.5-64.765 26.884-136.85-20.785-136.85-91.5 0-6.721 0-57.228 0-64.9 0-26.51 21.49-48 48-48h102c26.51 0 48 21.49 48 48z" fill="#e0b7a3"/><path d="m364 40v142c0 13.81-11.19 25-25 25 0-9.47 0-38.6 0-61.77 0-26.51-21.49-48-48-48h-102c-26.51 0-48 21.49-48 48v61.77c-14.255 0-25-11.265-25-24.54v-142.46c0-17.67 14.33-32 32-32h184c17.67 0 32 14.33 32 32z" fill="#42434d"/><path d="m279.13 318.42c-24.637 10.313-51.712 11.113-78.26 0 1.356-5.626 1.13-9.27 1.13-16.42l.15-.37c24.082 9.996 51.571 10.016 75.7 0l.15.37c0 7.153-.226 10.796 1.13 16.42z" fill="#a07765"/><path d="m269.375 382.145c-1.037 6.428-.76 2.023-.76 89.73h-56.98c0-87.595.304-83.46-.84-90.24 18.124 8.268 42.199 7.714 58.58.51z" fill="#d6f4fc"/><path d="m224.635 471.875h-13c0-87.595.304-83.46-.84-90.24 4.25 1.94 8.84 3.4 13.57 4.39.382 4.009.27-1.191.27 85.85z" fill="#bdeffc"/><path d="m186.979 376.044c-41.172.276-74.854 32.751-74.854 73.924v21.907h-18c-4.418 0-8-3.582-8-8v-39.645c0-41.236 33.736-73.797 74.971-74.187 9.565-.09 18.356-3.415 25.329-8.928 4.146 4.146 8.147 7.884 11.771 12.347 7.035 8.661 1.899 22.494-11.217 22.582z" fill="#ff6d7a"/><path d="m293.146 376.169c41.172.276 74.854 32.751 74.854 73.924v21.907h18c4.418 0 8-3.582 8-8v-39.645c0-41.236-33.737-73.797-74.971-74.187-9.565-.09-18.356-3.415-25.329-8.928-4.146 4.146-8.147 7.884-11.771 12.347-7.035 8.661-1.899 22.494 11.217 22.582z" fill="#e84857"/><path d="m217.586 274.056c16.281 10.185 3.453 35.162-14.369 28.009-36.579-14.68-62.217-50.34-62.217-91.935v-64.9c0-10.084 3.11-19.442 8.422-27.168 6.514-9.473 21.578-5.288 21.578 7.168v64.9c0 36.53 19.201 66.795 46.586 83.926z" fill="#f2d1c2"/><path d="m332.442 37.995c-22.531-.001-61.44.004-128.769.004-31.848.001-57.673 25.819-57.673 57.667v25.473c0 1.695-.342 3.372-1.019 4.925-2.56 5.87-3.981 12.352-3.981 19.165v37.523c0 16.05-24.158 16.975-24.969.945-.048-.963-.031-144.662-.031-143.697 0-17.673 14.327-32 32-32 1.181 0 184.314-.017 185.411.031 19.34.839 18.389 29.965-.969 29.964z" fill="#4d4e59"/><path d="m347 210.125v-64.895c0-30.877-25.122-55.997-56-55.997h-102c-30.878 0-56 25.121-56 56v51.863c-5.344-2.771-9-8.288-9-14.636v-142.46c0-13.233 10.766-24 24-24h184c13.234 0 24 10.767 24 24v142.46c0 4.418 3.582 8 8 8s8-3.582 8-8v-142.46c0-22.056-17.944-40-40-40h-184c-22.056 0-40 17.944-40 40v142.46c0 15.304 10.709 28.167 25.081 31.621 1.493 40.859 26 75.943 60.919 92.639v2.11c0 18.442-14.944 33.342-33.427 33.342-45.648 0-82.573 36.93-82.573 82.571v47.257c0 4.418 3.582 8 8 8s8-3.582 8-8v-47.257c0-36.795 29.775-66.571 66.573-66.571 26.188 0 47.266-20.147 49.258-45.384 68.572 20.184 137.169-31.57 137.169-102.663zm-198 0v-64.892c0-22.056 17.944-40 40-40h102c22.056 0 40 17.942 40 39.997v64.895c0 50.178-40.822 91-91 91s-91-40.822-91-91zm253 214.618v47.257c0 4.418-3.582 8-8 8s-8-3.582-8-8v-47.257c0-36.794-29.774-66.571-66.573-66.571-8.905 0-17.381-2.333-24.754-6.588l-2.558 2.558c-10.079 10.079-15.629 23.479-15.629 37.731v80.127c0 4.418-3.582 8-8 8s-8-3.582-8-8v-78.983c-13.465 3.752-27.643 3.729-40.971.014v78.969c0 4.418-3.582 8-8 8s-8-3.582-8-8v-80.127c0-8.025-1.852-16.083-5.356-23.303-1.93-3.975-.271-8.761 3.703-10.69 3.977-1.928 8.761-.271 10.69 3.704 2.15 4.428 3.803 9.104 4.968 13.899 14.023 5.621 30.032 5.955 44.912.008 3.432-14.237 10.29-24.585 19.833-34.127-1.866-2.136-3.583-4.437-5.097-6.921-2.298-3.773-1.103-8.695 2.671-10.993 3.773-2.301 8.695-1.104 10.994 2.671 5.9 9.687 16.458 16.051 28.594 16.051 45.638-.002 82.573 36.93 82.573 82.571z"/></svg>