<svg id="Layer_1" enable-background="new 0 0 479.945 479.945" height="512" viewBox="0 0 479.945 479.945" width="512" xmlns="http://www.w3.org/2000/svg"><path d="m400.963 311.043c0-9.45 4.69-15.11 7.18-18.63 12.42-17.64 11.33-40.76-2.7-57.29-5.05-5.95-7.7-13.26-7.7-20.68 0-6.07 1.06-8.19 6.95-26.89 4.34-13.78-1.27-28.62-13.91-36.76-9.93-6.4-15.36-16.78-15.36-27.38 0-14.66 8.16-16.59 8.16-28.76 0-10.77-7.46-20.99-19.53-24.17-14.38-3.8-25.3-14.47-28.9-27.78l-1.74-6.44c-4.24-15.64-23.24-23.17-38.17-15.13-10.02 5.41-22.94 3.98-31.35-3.91-13.25-12.41-34.67-12.34-47.84 0-8.4 7.88-21.33 9.32-31.35 3.91-15-8.06-33.94-.47-38.17 15.13l-1.74 6.44c-3.64 13.44-14.66 24.03-28.9 27.78-16.73 4.41-24.62 22.36-16.01 36.53 9.12 15.01 4.41 34.03-10.72 43.78-9.79 6.3-15.36 16.63-15.36 27.36 0 6.04 1.06 8.16 6.96 26.9 3.26 10.38.93 21.6-6.26 30.07-14.03 16.53-15.12 39.66-2.7 57.29l2.21 3.12c7.14 10.14 6.54 23.42-1.49 32.95-9.44 11.2-8.43 27.25 2.33 37.34 21.504 21.504 21.178 21.209 21.28 21.26-6.46 11.04-10.16 23.89-10.16 37.6v39.26c0 4.42 3.58 8 8 8h292c4.42 0 8-3.58 8-8v-39.26c0-13.71-3.7-26.56-10.16-37.6.1-.05-1.017 1.037 21.28-21.26 10.76-10.09 11.77-26.14 2.33-37.34-4.29-5.09-6.46-11.26-6.46-17.44z" fill="#c79a83"/><path d="m331.401 154.201c4.247.242 7.572 3.732 7.572 7.986v47.886c0 41.27-25.25 76.64-61.15 91.5-64.917 26.947-136.85-20.924-136.85-91.5v-47.19c0-4.689 4.016-8.394 8.686-7.971 47.987 4.351 95.242-7.767 134.923-34.499 4.513-3.04 10.727-.788 12.152 4.464 4.936 18.194 18.399 28.397 34.667 29.324z" fill="#e0b7a3"/><path d="m405.443 235.123c14.03 16.53 15.12 39.65 2.7 57.29-2.494 3.521-7.18 9.176-7.18 18.63 0 6.18 2.17 12.35 6.46 17.44 9.44 11.2 8.43 27.25-2.33 37.34-21.504 21.504-21.178 21.209-21.28 21.26-12.94-22.11-36.94-36.97-64.41-36.97-22.8 0-41.43-18.42-41.43-41.34v-6.83l-.15-.37c35.9-14.86 61.15-50.23 61.15-91.5v-47.886c0-4.254-3.325-7.744-7.572-7.986-16.168-.921-29.699-11.013-34.667-29.323-1.425-5.252-7.639-7.504-12.152-4.464-39.655 26.714-86.907 38.852-134.923 34.499-4.67-.423-8.686 3.282-8.686 7.971v47.19c0 41.27 25.25 76.64 61.15 91.5l-.15.37v6.83c0 22.936-18.648 41.34-41.43 41.34-27.47 0-51.47 14.86-64.41 36.97-.1-.05 1.017 1.037-21.28-21.26-10.759-10.094-11.766-26.139-2.33-37.34 8.03-9.53 8.63-22.81 1.49-32.95l-2.21-3.12c-12.419-17.628-11.332-40.757 2.7-57.29 7.19-8.47 9.52-19.69 6.26-30.07-5.899-18.735-6.96-20.857-6.96-26.9 0-10.73 5.57-21.06 15.36-27.36 15.133-9.754 19.838-28.767 10.72-43.78-8.61-14.171-.721-32.122 16.01-36.53 14.24-3.75 25.26-14.34 28.9-27.78l1.74-6.44c4.232-15.603 23.173-23.191 38.17-15.13 10.021 5.407 22.946 3.974 31.35-3.91 13.174-12.336 34.586-12.411 47.84 0 8.406 7.886 21.332 9.316 31.35 3.91 14.93-8.04 33.93-.51 38.17 15.13l1.74 6.44c3.605 13.311 14.518 23.983 28.9 27.78 12.07 3.18 19.53 13.4 19.53 24.17 0 12.168-8.16 14.099-8.16 28.76 0 10.6 5.43 20.98 15.36 27.38 12.64 8.14 18.25 22.98 13.91 36.76-5.887 18.696-6.95 20.823-6.95 26.89 0 7.419 2.65 14.729 7.7 20.679z" fill="#42434d"/><path d="m393.973 424.683v39.26c0 4.42-3.58 8-8 8h-292c-4.42 0-8-3.58-8-8v-39.26c0-41.137 33.344-74.57 74.57-74.57 9.15 0 17.61-2.96 24.47-7.98l1.8 11.65 48.26 37.37c2.89 2.23 6.91 2.23 9.8 0l48.26-37.37 1.8-11.65c6.86 5.02 15.32 7.98 24.47 7.98 41.083 0 74.57 33.307 74.57 74.57z" fill="#ffaa64"/><path d="m293.133 353.783-18.2 118.16h-69.92l-18.2-118.16 48.262 37.368c2.883 2.233 6.912 2.233 9.795 0z" fill="#42434d"/><path d="m190.713 379.093c-46.89 1.204-75.74 36.509-75.74 74.59v18.26h-21c-4.418 0-8-3.582-8-8v-39.26c0-41.137 33.344-74.57 74.57-74.57 9.15 0 17.61-2.96 24.47-7.98 2.274 14.72 1.078 6.966 5.7 36.96z" fill="#ffbd7b"/><path d="m289.233 379.093c46.89 1.204 75.74 36.509 75.74 74.59v18.26h21c4.418 0 8-3.582 8-8v-39.26c0-41.137-33.344-74.57-74.57-74.57-9.15 0-17.61-2.96-24.47-7.98-2.275 14.72-1.079 6.966-5.7 36.96z" fill="#faa157"/><path d="m225.013 471.943h-20l-18.2-118.16 22.71 17.58z" fill="#2c2c33"/><path d="m279.103 318.363c-24.637 10.313-51.712 11.113-78.26 0 1.356-5.626 1.13-9.27 1.13-16.42l.15-.37c24.082 9.996 51.571 10.016 75.7 0l.15.37c0 7.153-.226 10.796 1.13 16.42z" fill="#a07765"/><path d="m333.413 36.263c1.482 5.49-1.534 11.218-6.925 13.028-1.44.484-2.86 1.096-4.245 1.842-10.02 5.41-22.94 3.98-31.35-3.91-13.25-12.41-34.67-12.34-47.84 0-8.4 7.88-21.33 9.32-31.35 3.91-15-8.06-33.94-.47-38.17 15.13l-1.74 6.44c-3.64 13.44-14.66 24.03-28.9 27.78-16.73 4.41-24.62 22.36-16.01 36.53 9.12 15.01 4.41 34.03-10.72 43.78-9.79 6.3-15.36 16.63-15.36 27.36 0 6.04 1.06 8.16 6.96 26.9 3.26 10.38.93 21.6-6.26 30.07-14.03 16.53-15.12 39.66-2.7 57.29l2.21 3.12c7.14 10.14 6.54 23.42-1.49 32.95-1.128 1.338-2.107 2.745-2.938 4.203-4.48 7.862-15.14 9.729-21.732 3.137-10.76-10.09-11.77-26.14-2.33-37.34 8.03-9.53 8.63-22.81 1.49-32.95l-2.21-3.12c-12.42-17.63-11.33-40.76 2.7-57.29 7.19-8.47 9.52-19.69 6.26-30.07-5.9-18.74-6.96-20.86-6.96-26.9 0-10.73 5.57-21.06 15.36-27.36 15.13-9.75 19.84-28.77 10.72-43.78-8.61-14.17-.72-32.12 16.01-36.53 14.24-3.75 25.26-14.34 28.9-27.78l1.74-6.44c4.23-15.6 23.17-23.19 38.17-15.13 10.02 5.41 22.95 3.97 31.35-3.91 13.17-12.34 34.59-12.41 47.84 0 8.41 7.89 21.33 9.32 31.35 3.91 14.93-8.04 33.93-.51 38.17 15.13z" fill="#4d4e59"/><path d="m220.994 276.392c14.939 10 3.553 33.13-13.41 27.177-37.286-13.084-66.611-47.883-66.611-93.497v-47.19c0-4.69 4.02-8.39 8.69-7.97 3.832.348 8.04.622 12.581.761 8.219.25 14.729 7.037 14.729 15.26v23.14c0 34.826 17.756 64.738 44.021 82.319z" fill="#f2d1c2"/><path d="m401.973 424.686v47.257c0 4.418-3.582 8-8 8s-8-3.582-8-8v-47.257c0-36.794-29.774-66.571-66.573-66.571-6.405 0-12.588-1.21-18.301-3.467l-18.26 118.513c-.676 4.383-4.785 7.366-9.125 6.688-4.367-.673-7.361-4.758-6.688-9.124l19.3-125.266c-3.518-3.176-6.628-6.876-9.184-11.073-2.298-3.773-1.103-8.695 2.671-10.993 3.774-2.301 8.696-1.104 10.994 2.671 6.063 9.954 16.767 16.051 28.594 16.051 45.637-.002 82.572 36.93 82.572 82.571zm11.57-101.354c-5.669-6.729-6.098-16.047-1.068-23.186l2.206-3.129c14.594-20.712 13.331-47.666-3.142-67.073-5.391-6.352-7.156-14.759-4.722-22.489l5.51-17.501c5.448-17.305-1.466-35.745-17.207-45.887-11.554-7.444-15.086-21.591-8.217-32.906 11.28-18.579 1.295-42.586-20.808-48.41-11.438-3.013-20.335-11.496-23.219-22.139l-1.744-6.437c-5.536-20.434-30.011-30.684-49.684-20.091-7.184 3.869-16.268 2.76-22.087-2.693-16.206-15.188-42.573-15.188-58.777 0-5.82 5.454-14.904 6.561-22.087 2.693-9.549-5.141-20.764-5.62-30.769-1.32-16.451 7.076-18.815 21.04-20.659 27.848-2.883 10.643-11.78 19.126-23.219 22.139-22.114 5.828-32.081 29.841-20.807 48.41 6.869 11.315 3.336 25.462-8.217 32.906-15.741 10.142-22.655 28.582-17.207 45.887l5.51 17.501c2.434 7.73.669 16.138-4.722 22.489-16.473 19.407-17.736 46.361-3.142 67.073l2.205 3.129c5.03 7.139 4.602 16.456-1.067 23.186-12.221 14.507-10.938 35.285 2.983 48.331 3.22 3.02 8.283 2.86 11.308-.366 3.021-3.224 2.857-8.287-.367-11.308-7.609-7.131-8.334-18.458-1.688-26.349 10.424-12.374 11.192-29.538 1.91-42.711l-2.205-3.129c-10.326-14.654-9.417-33.744 2.261-47.503 8.97-10.568 11.88-24.643 7.786-37.647l-5.51-17.501c-3.256-10.341 1.008-21.445 10.611-27.633 18.708-12.054 24.518-36.063 13.228-54.658-5.921-9.753-.161-21.64 11.206-24.635 16.958-4.467 30.211-17.275 34.587-33.428l1.744-6.437c2.83-10.443 16.031-15.907 26.656-10.187 13.149 7.08 29.851 4.979 40.614-5.107 10.172-9.533 26.723-9.533 36.895 0 10.762 10.086 27.463 12.187 40.614 5.107 10.635-5.727 23.829-.243 26.656 10.187l1.744 6.437c4.376 16.152 17.629 28.961 34.586 33.428 11.371 2.995 17.126 14.885 11.207 24.635-11.29 18.596-5.479 42.604 13.228 54.658 9.603 6.188 13.867 17.292 10.611 27.633l-5.51 17.501c-4.095 13.005-1.185 27.079 7.786 37.647 11.678 13.759 12.587 32.849 2.262 47.503l-2.206 3.129c-9.282 13.173-8.514 30.337 1.91 42.71 2.051 2.435 3.436 5.183 4.116 8.166.983 4.308 5.271 7.003 9.579 6.021s7.003-5.271 6.021-9.579c-1.239-5.416-3.825-10.573-7.483-14.915zm-143.711 48.494c-2.703-3.492-7.728-4.132-11.223-1.429l-18.637 14.429-45.744-35.415-.611-3.963c9.319-8.387 15.173-19.904 16.185-32.717 68.573 20.185 137.17-31.57 137.17-102.663 0-58.74.031-56.278-.056-57.039-.477-4.192-4.17-7.185-7.998-7.083-1.701.016-11.303 1.868-20.822-3.858-15.048-9.053-15.125-28.896-15.124-29.096.039-6.501-7.313-10.336-12.623-6.578-32.81 23.227-71.369 39.12-113.432 45.01-4.375.612-7.426 4.656-6.813 9.032.614 4.384 4.667 7.426 9.032 6.813 39.176-5.485 76.512-19.301 109.834-40.64 5.89 22.102 22.406 34.431 42.001 35.544v47.894c0 50.178-40.822 91-91 91s-91-40.822-91-91v-56.125c0-4.418-3.582-8-8-8s-8 3.582-8 8v56.125c0 42.542 24.958 79.362 61 96.595v2.11c0 8.913-3.476 17.287-9.788 23.581-11.114 11.086-25.372 9.761-23.641 9.761-45.637 0-82.571 36.93-82.571 82.571v47.257c0 4.418 3.582 8 8 8s8-3.582 8-8v-47.257c0-36.795 29.775-66.571 66.573-66.571 6.383 0 12.563-1.209 18.299-3.487l18.263 118.533c.682 4.423 4.825 7.36 9.125 6.688 4.367-.673 7.361-4.758 6.688-9.124l-15.151-98.338 37.306 28.882c2.883 2.232 6.91 2.232 9.795 0l23.534-18.22c3.495-2.704 4.135-7.728 1.429-11.222z"/></svg>