<svg id="Layer_1" enable-background="new 0 0 480.024 480.024" height="512" viewBox="0 0 480.024 480.024" width="512" xmlns="http://www.w3.org/2000/svg"><path d="m413.532 236.894c-8.195 6.219-11.404 16.764-8.53 26.25 9.8 32.49-15.29 67.03-49.22 67.75-10.12.21-19 6.66-22.33 16.22-.49 1.41-1.04 2.76-1.64 4.1-1.01-.17-2.02-.32-3.04-.44 1.02.13 2.04.28 3.04.45v-.01c35.699 6.038 62.2 36.9 62.2 73.55v39.26c0 4.42-3.58 8-8 8h-292c-4.42 0-8-3.58-8-8v-39.26c0-36.65 26.501-67.512 62.2-73.55v.01c1-.17 2.02-.32 3.04-.45-1.02.12-2.03.27-3.04.44-.6-1.34-1.15-2.69-1.64-4.1-3.33-9.56-12.21-16.01-22.33-16.22-33.93-.72-59.02-35.26-49.22-67.75 2.92-9.69-.47-20.13-8.53-26.25-27.02-20.52-27.02-63.22 0-83.74 8.06-6.12 11.45-16.56 8.53-26.25-9.8-32.49 15.29-67.03 49.22-67.75 10.12-.21 19-6.66 22.33-16.22 11.17-32.04 51.77-45.23 79.64-25.88 8.32 5.78 19.28 5.78 27.6 0 27.87-19.36 68.47-6.16 79.64 25.88 3.33 9.56 12.21 16.01 22.33 16.22 33.93.72 59.02 35.26 49.22 67.75-2.92 9.69.47 20.13 8.53 26.25 27.02 20.52 27.02 63.22 0 83.74z" fill="#c79a83"/><path d="m141.012 210.154c0 41.27 25.25 76.64 61.15 91.5l-.15.37v6.83c0 22.901-18.596 41.34-41.43 41.34-4.21 0-8.35.35-12.37 1.03-.6-1.34-1.15-2.7-1.64-4.11-3.33-9.56-12.21-16.01-22.33-16.22-33.93-.72-59.02-35.26-49.22-67.75 2.92-9.69-.47-20.13-8.53-26.25-27.02-20.52-27.02-63.22 0-83.74 8.06-6.12 11.45-16.56 8.53-26.25-9.8-32.49 15.29-67.03 49.22-67.75 10.12-.21 19-6.66 22.33-16.22 11.17-32.04 51.77-45.23 79.64-25.88 8.32 5.78 19.28 5.78 27.6 0 27.87-19.36 68.47-6.16 79.64 25.88 3.33 9.56 12.21 16.01 22.33 16.22 33.93.72 59.02 35.26 49.22 67.75-2.92 9.69.47 20.13 8.53 26.25 27.02 20.52 27.02 63.22 0 83.74-8.18 6.208-11.41 16.745-8.53 26.25 9.8 32.49-15.29 67.03-49.22 67.75-10.12.21-19 6.66-22.33 16.22-.49 1.41-1.04 2.77-1.64 4.11-4.02-.68-8.16-1.03-12.37-1.03-22.829 0-41.43-18.435-41.43-41.34v-6.83l-.15-.37c35.9-14.86 61.15-50.23 61.15-91.5v-40.89c0-39.77-32.24-72.01-72.01-72.01h-27.819c-3.331 0-6.301 2.063-7.481 5.177-14.779 38.991-45.728 65.564-84.984 77.516-3.382 1.03-5.705 4.126-5.705 7.662v22.545z" fill="#42434d"/><path d="m339.012 169.254v40.9c0 54.696-44.348 99-99 99-54.65 0-99-44.302-99-99v-22.545c0-3.535 2.323-6.632 5.705-7.662 42.437-12.92 71.325-41.481 84.984-77.516 1.181-3.115 4.15-5.177 7.481-5.177h27.829c39.766 0 72.001 32.236 72.001 72z" fill="#e0b7a3"/><path d="m394.012 424.764v39.26c0 4.42-3.58 8-8 8h-292c-4.42 0-8-3.58-8-8v-39.26c0-34.05 22.82-62.77 54.01-71.7 18.223-5.219 23.816-.243 37.74-6.58l.25.54c6.293 4.872 51.698 40.028 57.1 44.21 2.89 2.23 6.91 2.23 9.8 0 5.393-4.175 50.811-39.341 57.1-44.21l.25-.54c13.973 6.359 19.447 1.341 37.74 6.58 31.19 8.93 54.01 37.65 54.01 71.7z" fill="#ffa4b8"/><path d="m148.212 351.214c1.01-.17 2.02-.32 3.04-.44-1.02.13-2.04.28-3.04.45z" fill="#c79a83"/><path d="m331.812 351.214v.01c-1-.17-2.02-.32-3.04-.45 1.02.12 2.03.27 3.04.44z" fill="#c79a83"/><path d="m279.142 318.444c-24.637 10.313-51.712 11.113-78.26 0 1.356-5.626 1.13-9.27 1.13-16.42l.15-.37c24.082 9.996 51.571 10.016 75.7 0l.15.37c0 7.153-.226 10.796 1.13 16.42z" fill="#a07765"/><path d="m148.212 351.214c1.01-.17 2.02-.32 3.04-.44-1.02.13-2.04.28-3.04.45z" fill="#c79a83"/><path d="m331.812 351.214v.01c-1-.17-2.02-.32-3.04-.45 1.02.12 2.03.27 3.04.44z" fill="#c79a83"/><path d="m194.505 359.793c4.746 3.674 2.238 11.378-3.764 11.401-42.333.158-74.729 34.149-74.729 74.57v26.26h-22c-4.418 0-8-3.582-8-8v-39.26c0-41.163 33.37-74.57 74.57-74.57 6.13 0 11.95-1.33 17.18-3.71l.25.54z" fill="#ffb1bf"/><path d="m285.519 359.793c-4.746 3.674-2.238 11.378 3.764 11.401 42.333.158 74.729 34.149 74.729 74.57v26.26h22c4.418 0 8-3.582 8-8v-39.26c0-41.163-33.37-74.57-74.57-74.57-6.13 0-11.95-1.33-17.18-3.71l-.25.54z" fill="#ff99af"/><path d="m285.588 8.086c20.079.978 26.67 27.09 9.751 37.949-.513.329-1.022.669-1.527 1.02-8.32 5.78-19.28 5.78-27.6 0-27.87-19.35-68.47-6.16-79.64 25.88-3.33 9.56-12.21 16.01-22.33 16.22-33.93.72-59.02 35.26-49.22 67.75 2.92 9.69-.47 20.13-8.53 26.25-27.02 20.52-27.02 63.22 0 83.74 8.06 6.12 11.45 16.56 8.53 26.25-6.044 20.039-32.596 20.219-39.101 1.935-3.551-9.98-4.175-21.072-.899-31.935 2.92-9.69-.47-20.13-8.53-26.25-27.02-20.52-27.02-63.22 0-83.74 8.06-6.12 11.45-16.56 8.53-26.25-9.8-32.49 15.29-67.03 49.22-67.75 10.12-.21 19-6.66 22.33-16.22 11.17-32.04 51.77-45.23 79.64-25.88 8.32 5.78 19.28 5.78 27.6 0 9.649-6.703 20.824-9.503 31.776-8.969z" fill="#4d4e59"/><path d="m217.286 274.512c16.138 9.915 3.556 34.641-14.023 27.591-37.05-14.858-62.251-50.809-62.251-91.949v-22.586c0-3.518 2.32-6.594 5.686-7.616 1.957-.595 3.973-1.25 6.035-1.974 8.399-2.946 17.28 3.164 17.28 12.176-.001 36.776 19.491 67.29 47.273 84.358z" fill="#f2d1c2"/><path d="m418.372 243.263c-5.442 4.133-7.684 11.029-5.71 17.571 7.696 25.514-3.014 53.72-26.044 68.593-3.713 2.396-8.664 1.331-11.061-2.381-2.396-3.711-1.331-8.663 2.381-11.061 17.074-11.026 25.054-31.806 19.405-50.53-3.863-12.806.698-26.845 11.352-34.935 22.801-17.318 22.877-53.621-.001-70.995-10.652-8.089-15.214-22.127-11.351-34.934 8.266-27.4-13.012-56.827-41.73-57.436-13.372-.283-25.313-8.96-29.716-21.591-9.422-27.036-43.929-38.329-67.52-21.938-10.986 7.631-25.747 7.631-36.732 0-23.513-16.333-58.066-5.188-67.521 21.939-4.401 12.63-16.343 21.307-29.716 21.59-28.626.606-50.026 29.934-41.73 57.436 3.862 12.806-.699 26.845-11.35 34.935-22.845 17.347-22.831 53.656 0 70.995 10.652 8.089 15.213 22.127 11.351 34.934-8.284 27.464 13.069 56.828 41.73 57.436 12.668.268 24.04 8.075 28.947 19.633 4.233-.365 7.229-.328 7.229-.328 18.445 0 33.427-14.859 33.427-33.342v-2.11c-36.042-17.233-61-54.053-61-96.595 0-4.418 3.582-8 8-8s8 3.582 8 8c0 50.178 40.822 91 91 91s91-40.822 91-91v-40.889c0-35.291-28.71-64.003-64-64.003h-27.819c-19.229 50.923-65.921 83.041-120.06 88.394-4.415.435-8.315-2.793-8.748-7.174-.435-4.396 2.777-8.313 7.174-8.748 54.96-5.434 100.8-41.215 112.281-97.634.881-4.329 5.105-7.129 9.435-6.243 4.329.881 7.125 5.104 6.244 9.434-.409 2.012-.871 3.998-1.359 5.972h22.853c44.112 0 80 35.889 80 80.003 0 .179.002 41.548-.003 41.727-.547 70.613-68.806 121.947-137.167 101.825-1.048 13.275-7.378 25.738-18.338 34.541l48.508 37.555 28.529-22.088c3.494-2.706 8.518-2.064 11.224 1.429 2.704 3.494 2.064 8.519-1.429 11.224l-30.324 23.477v73.076c0 4.418-3.582 8-8 8s-8-3.582-8-8v-73.076l-55.864-43.25c-4.955 1.634-10.19 2.497-15.561 2.497-36.868 0-66.575 29.84-66.575 66.571v47.257c0 4.418-3.582 8-8 8s-8-3.582-8-8v-47.257c0-37.778 25.21-69.099 58.878-79.131-2.907-4.093-7.576-6.637-12.82-6.749-39.265-.831-68.049-40.461-56.709-78.053 1.973-6.541-.268-13.438-5.709-17.57-31.279-23.754-31.27-72.731 0-96.479 5.441-4.133 7.682-11.03 5.709-17.571-11.343-37.606 17.453-77.225 56.709-78.055 6.831-.146 12.698-4.407 14.947-10.859 12.924-37.087 59.507-52.217 91.757-29.814 5.611 3.898 12.863 3.898 18.476 0 32.258-22.407 78.834-7.264 91.757 29.813 2.248 6.452 8.115 10.715 14.946 10.86 39.267.831 68.049 40.461 56.709 78.053-1.974 6.542.268 13.438 5.709 17.57 31.278 23.754 31.27 72.731 0 96.479zm-98.933 98.933c-11.782 0-22.472-6-28.594-16.051-2.299-3.774-7.223-4.972-10.993-2.671-3.773 2.298-4.97 7.22-2.671 10.993 9.049 14.858 24.847 23.729 42.258 23.729 36.795 0 66.573 29.773 66.573 66.571v47.257c0 4.418 3.582 8 8 8s8-3.582 8-8v-47.257c0-45.637-36.932-82.573-82.573-82.571z"/></svg>