<svg id="Layer_1" enable-background="new 0 0 479.971 479.971" height="512" viewBox="0 0 479.971 479.971" width="512" xmlns="http://www.w3.org/2000/svg"><path d="m418.862 273.321c6.06-8.98 5.53-20.76-1.31-29.19l-15.31-18.84c-5.15-6.34-6.83-14.74-4.48-22.52l9.04-30.02c3.12-10.32-.91-21.43-9.96-27.53l-17.99-12.11c-8.88-5.98-12.94-16.8-10.13-26.99 4.265-15.378-7.145-30.652-23.4-31.34l-7.96-.34c-17.22-.73-31.69-12.91-35.02-29.46l-.56-2.79c-3.32-16.5-22.21-24.93-37.11-16.55-9.861 5.538-22.25 3.885-30.23-3.93l-6.68-6.55c-9.8-9.59-25.68-9.59-35.48 0l-14.6 14.3c-3.68 3.61-8.42 6-13.56 6.85l-30.18 4.99c-20.84 3.44-34.1 23.75-28.53 43.72l5.92 21.29c2.81 10.07-1.2 20.78-9.99 26.7l-18.32 12.34c-8.95 6.02-12.92 16.99-9.85 27.19l9.16 30.38c2.31 7.68.66 15.98-4.43 22.25l-15.55 19.14c-6.76 8.32-7.28 19.95-1.3 28.82l14.98 22.21c5.96 8.84 5.46 20.43-1.25 28.75l-2.21 2.75c-9.44 11.7-8.43 28.47 2.33 39.01 21.504 21.504 21.178 21.209 21.28 21.26-6.46 11.04-10.16 23.89-10.16 37.6v39.26c0 4.42 3.58 8 8 8h292c4.42 0 8-3.58 8-8v-39.26c0-23.749-11.735-40.12-10.16-37.6.1-.05-1.017 1.037 21.28-21.26 10.76-10.54 11.77-27.31 2.33-39.01l-2.07-2.58c-6.79-8.42-7.3-20.15-1.26-29.11zm-40.13 106.17h.01c.3.39.6.79.89 1.19-.29-.4-.59-.8-.9-1.19z" fill="#c79a83"/><path d="m339.022 169.201v40.9c0 54.696-44.348 99-99 99-51.644 0-93.782-39.459-98.55-89.504-.265-2.785 1.011-5.489 3.264-7.148 24.876-18.321 32.879-35.504 35.286-48.478 2.23-12.04-.34-20.5 5-33 8.1-18.95 29.17-33.77 54.55-33.77h27.45c39.764 0 72 32.236 72 72z" fill="#e0b7a3"/><path d="m339.022 210.101v-40.9c0-39.764-32.235-72-72-72h-27.45c-25.38 0-46.45 14.82-54.55 33.77-5.34 12.5-2.77 20.96-5 33-2.408 12.975-10.411 30.157-35.286 48.478-2.253 1.659-3.529 4.363-3.264 7.148 3.538 37.136 27.591 68.294 60.7 82.014l-.15.36v6.83c0 22.777-18.461 41.34-41.43 41.34-27.47 0-51.47 14.86-64.41 36.97-.1-.05 1.017 1.037-21.28-21.26-10.76-10.54-11.77-27.31-2.33-39.01l2.21-2.75c6.71-8.32 7.21-19.91 1.25-28.75l-14.98-22.21c-5.98-8.87-5.46-20.5 1.3-28.82l15.55-19.14c5.09-6.27 6.74-14.57 4.43-22.25l-9.16-30.38c-3.07-10.2.9-21.17 9.85-27.19l18.32-12.34c8.79-5.92 12.8-16.63 9.99-26.7l-5.92-21.29c-5.57-19.97 7.69-40.28 28.53-43.72l30.18-4.99c5.14-.85 9.88-3.24 13.56-6.85l14.6-14.3c9.8-9.59 25.68-9.59 35.48 0l6.68 6.55c7.984 7.818 20.373 9.465 30.23 3.93 14.9-8.38 33.79.05 37.11 16.55l.56 2.79c3.33 16.55 17.8 28.73 35.02 29.46l7.96.34c16.253.688 27.665 15.96 23.4 31.34-2.81 10.19 1.25 21.01 10.13 26.99l17.99 12.11c9.05 6.1 13.08 17.21 9.96 27.53l-9.04 30.02c-2.35 7.78-.67 16.18 4.48 22.52l15.31 18.84c6.84 8.43 7.37 20.21 1.31 29.19l-14.72 21.83c-6.04 8.96-5.53 20.69 1.26 29.11l2.07 2.58c9.44 11.7 8.43 28.47-2.33 39.01-21.504 21.504-21.178 21.209-21.28 21.26-13.071-22.292-37.187-37.047-64.623-36.97-22.848.064-41.217-18.886-41.217-41.734v-6.436l-.15-.37c35.9-14.86 61.15-50.23 61.15-91.5z" fill="#42434d"/><path d="m394.022 424.711v39.26c0 4.418-3.582 8-8 8h-292c-4.418 0-8-3.582-8-8v-39.26c0-41.18 33.39-74.57 74.57-74.57 2.5 0 4.96-.22 7.34-.64l.09.47c58.565 52.55 140.26 63.197 210.72 29.52 9.59 12.55 15.28 28.22 15.28 45.22z" fill="#d6f4fc"/><path d="m366.872 367.161c-1.08-.88-2.18-1.74-3.3-2.57 1.13.83 2.22 1.69 3.3 2.57z" fill="#c79a83"/><path d="m279.152 318.391c-24.637 10.313-51.712 11.113-78.26 0 1.356-5.626 1.13-9.27 1.13-16.42l.15-.37c24.082 9.996 51.571 10.016 75.7 0l.15.37c0 7.153-.226 10.796 1.13 16.42z" fill="#a07765"/><path d="m363.572 364.591c1.13.83 2.22 1.69 3.3 2.57-1.08-.88-2.181-1.74-3.3-2.57z" fill="#c79a83"/><path d="m379.631 380.681c-.29-.4-.59-.8-.9-1.19h.01c.301.39.601.79.89 1.19z" fill="#c79a83"/><path d="m227.896 38.303c-10.97 10.628-14.404 16.293-24.774 18.008-12.535 2.073-71.189 3.97-58.71 48.71l5.92 21.29c2.81 10.07-1.2 20.78-9.99 26.7l-18.32 12.34c-8.95 6.02-12.92 16.99-9.85 27.19l9.16 30.38c2.31 7.68.66 15.98-4.43 22.25l-15.55 19.14c-6.76 8.32-7.28 19.95-1.3 28.82l14.98 22.21c5.96 8.84 5.46 20.43-1.25 28.75l-2.21 2.75c-5.252 6.51-7.266 14.59-6.167 22.291.415 2.904-.455 5.848-2.324 8.108-4.339 5.249-11.602 5.187-15.872.919-5.801-5.799-12.281-12.283-12.308-12.31-10.76-10.54-11.77-27.31-2.33-39.01l2.21-2.75c6.71-8.32 7.21-19.91 1.25-28.75l-14.98-22.21c-5.98-8.87-5.46-20.5 1.3-28.82l15.55-19.14c5.09-6.27 6.74-14.57 4.43-22.25l-9.16-30.38c-3.07-10.2.9-21.17 9.85-27.19l18.32-12.34c8.79-5.92 12.8-16.63 9.99-26.7l-5.92-21.29c-5.57-19.97 7.69-40.28 28.53-43.72l30.18-4.99c5.14-.85 9.88-3.24 13.56-6.85l14.6-14.3c9.8-9.59 25.68-9.59 35.48 0 6.923 6.79 6.361 17.113.135 23.144z" fill="#4d4e59"/><path d="m216.025 275.167c16.48 8.87 4.752 33.869-12.633 26.94-33.667-13.419-58.331-44.855-61.92-82.506-.27-2.79 1.01-5.49 3.26-7.15 8.65-6.37 15.26-12.6 20.3-18.57-.48 1.16-.68 2.43-.56 3.72 3.361 35.255 24.081 62.78 51.553 77.566z" fill="#f2d1c2"/><path d="m379.631 380.681c-.29-.4-.59-.8-.9-1.19h.01c.301.39.601.79.89 1.19z" fill="#c79a83"/><path d="m178.76 358.936c5.318 4.123 3.445 12.516-3.093 14.107-41.443 10.083-59.645 39.169-59.645 71.668v27.26h-22c-4.418 0-8-3.582-8-8v-39.26c0-41.18 33.39-74.57 74.57-74.57 2.5 0 4.96-.22 7.34-.64l.09.47c2.912 2.617 6.494 5.676 10.738 8.965z" fill="#e8f8fc"/><path d="m394.022 424.711v39.26c0 4.42-3.58 8-8 8h-22v-27.26c0-19.82-6.77-38.38-21.46-52.12 16.98-4.36 29.59-9.95 36.18-13.1 9.59 12.55 15.28 28.22 15.28 45.22z" fill="#bdeffc"/><path d="m378.742 379.491c-6.59 3.15-19.2 8.74-36.18 13.1-6.783-6.357-15.258-11.681-25.536-15.629-11.234-4.314-11.371-12.242-9.348-18.481 1.631-5.03 6.364-8.357 11.652-8.341 22.977.072 44.991 10.437 59.413 29.347-.001.003-.001.003-.001.004z" fill="#a07765"/><path d="m402.022 424.714v47.257c0 4.418-3.582 8-8 8s-8-3.582-8-8v-47.257c0-36.795-29.775-66.571-66.573-66.571-17.411 0-33.209-8.87-42.258-23.729-2.299-3.773-1.103-8.695 2.671-10.993 3.771-2.301 8.694-1.104 10.993 2.671 6.122 10.051 16.812 16.051 28.594 16.051 45.637-.002 82.573 36.93 82.573 82.571zm23.476-146.922c8.058-11.947 7.358-27.499-1.74-38.699l-15.308-18.844c-3.473-4.274-4.605-9.943-3.032-15.165l9.049-30.024c4.138-13.73-1.152-28.389-13.162-36.474l-17.986-12.107c-6.012-4.047-8.777-11.369-6.883-18.222 5.616-20.298-9.332-40.554-30.778-41.469l-7.954-.338c-13.586-.578-24.9-10.057-27.515-23.049l-.561-2.789c-4.446-22.096-29.49-32.849-48.874-21.947-6.727 3.783-15.245 2.684-20.716-2.673l-6.682-6.542c-12.867-12.6-33.803-12.6-46.67 0l-14.598 14.293c-2.526 2.474-5.732 4.09-9.271 4.676l-30.18 4.989c-25.597 4.233-41.747 29.307-34.937 53.762l5.928 21.283c1.877 6.738-.835 13.94-6.751 17.921l-18.323 12.336c-11.899 8.012-17.14 22.535-13.04 36.139l9.156 30.384c1.545 5.128.433 10.695-2.977 14.893l-15.547 19.138c-9.016 11.098-9.709 26.508-1.725 38.345l14.973 22.201c4.003 5.936 3.666 13.677-.838 19.263l-2.217 2.748c-12.031 14.924-10.756 36.313 2.967 49.75 1.558 1.524 3.578 2.284 5.597 2.284 7.111 0 10.73-8.691 5.599-13.716-7.807-7.644-8.539-19.8-1.707-28.275l2.216-2.747c8.939-11.087 9.603-26.459 1.649-38.252l-14.974-22.202c-4.018-5.957-3.665-13.718.878-19.311l15.548-19.138c6.757-8.319 8.955-19.383 5.878-29.597l-9.157-30.385c-2.063-6.846.612-14.18 6.656-18.249l18.322-12.335c11.644-7.836 16.96-22.098 13.23-35.487l-5.928-21.283c-4.366-15.671 6.282-31.064 22.134-33.685l30.181-4.989c6.795-1.123 12.969-4.245 17.854-9.028l14.598-14.294c6.694-6.554 17.588-6.556 24.282 0l6.682 6.543c10.521 10.299 26.869 12.433 39.754 5.186 10.287-5.79 23.119.101 25.345 11.157l.561 2.789c4.07 20.232 21.555 34.986 42.52 35.88l7.954.338c11.168.475 18.907 10.85 16.038 21.217-3.732 13.494 1.641 27.865 13.368 35.761l17.986 12.107c6.155 4.143 8.879 11.611 6.777 18.583l-9.049 30.025c-3.105 10.307-.888 21.473 5.934 29.869l15.308 18.844c4.627 5.695 4.985 13.598.894 19.665l-14.727 21.837c-8.026 11.9-7.357 27.415 1.665 38.605 2.41 2.987 5.092 5.852 6.283 11.315.943 4.317 5.206 7.05 9.522 6.11 4.316-.942 7.052-5.205 6.11-9.522-2.038-9.334-6.722-14.55-9.462-17.947-4.587-5.688-4.93-13.572-.854-19.616zm-81.838 105.993c-57.916 16.11-115.435 3.468-160.12-31.258 14.493-7.597 24.94-22.255 26.314-39.797 68.278 20.158 136.617-31.119 137.165-101.795.005-.178.003-41.551.003-41.729 0-44.112-35.888-80-80-80h-27.448c-27.16 0-52.039 15.521-61.908 38.623-6.027 14.106-3.441 23.54-5.509 34.684-3.399 18.317-18.31 35.691-44.317 51.641-3.766 2.31-4.947 7.235-2.637 11.002 2.31 3.766 7.234 4.948 11.002 2.637 30.033-18.417 47.422-39.398 51.683-62.359 2.382-12.821-.146-20.463 4.491-31.317 7.388-17.291 26.354-28.909 47.195-28.909h27.448c35.29 0 64 28.71 64 64v40.892c0 50.178-40.822 91-91 91-35.572 0-68.094-20.923-82.852-53.303-1.832-4.021-6.577-5.795-10.597-3.962-4.021 1.832-5.795 6.576-3.962 10.597 10.626 23.314 29.091 41.562 51.41 52.216v2.157c0 18.444-14.945 33.342-33.427 33.342-45.733 0-82.573 37.021-82.573 82.571v47.257c0 4.418 3.582 8 8 8s8-3.582 8-8v-47.257c0-36.793 29.775-66.571 66.573-66.571 1.473 0 2.928-.074 4.367-.199 49.027 42.755 115.674 59.981 182.988 41.254 4.257-1.184 6.747-5.595 5.563-9.852-1.184-4.259-5.592-6.751-9.852-5.565z"/></svg>