<svg id="Layer_1" enable-background="new 0 0 480 480" height="512" viewBox="0 0 480 480" width="512" xmlns="http://www.w3.org/2000/svg"><path d="m394 424.74v39.26c0 4.42-3.58 8-8 8h-292c-4.42 0-8-3.58-8-8v-39.26c0-41.03 33.15-74.95 74.18-74.57 23.122.192 41.82-18.4 41.82-41.34v-6.83l.15-.37c2.46 1.02 4.98 1.94 7.54 2.75-38.68-12.59-68.69-48.6-68.69-94.25v-22.65c-5.62.45-11.28.68-16.97.68-4.42-.01-8.03-3.59-8.03-8.01v-72.65c0-54.95 44.55-99.5 99.5-99.5h49c54.95 0 99.5 44.55 99.5 99.5v74.96c0 13.25-10.73 24.54-25 24.54v3.13c0 41.27-25.25 76.63-61.15 91.49l.15.38v6.83c0 22.931 18.689 41.532 41.82 41.34 41.03-.38 74.18 33.54 74.18 74.57z" fill="#c79a83"/><path d="m394 424.74v39.26c0 4.418-3.582 8-8 8h-292c-4.418 0-8-3.582-8-8v-39.26c0-41.031 33.148-74.952 74.178-74.572 6.013.056 11.75-1.169 16.922-3.418v.01c12.069 27.44 40.785 44.126 70.9 40.59 23.97-2.81 45.03-18.15 54.9-40.59v-.01c5.173 2.249 10.91 3.474 16.922 3.418 41.03-.38 74.178 33.541 74.178 74.572z" fill="#ffaa64"/><path d="m364 107.5v74.96c0 13.255-10.726 24.54-25 24.54v-46.187c0-3.366-2.109-6.369-5.274-7.513-17.287-6.248-32.093-18.392-41.552-34.654-2.74-4.711-9.349-5.251-12.909-1.124-39.278 45.541-95.485 70.65-155.237 70.635-4.415-.001-8.028-3.586-8.028-8.001v-72.656c0-54.952 44.548-99.5 99.5-99.5h49c54.952 0 99.5 44.548 99.5 99.5z" fill="#ffe773"/><path d="m339 210.13c0 41.27-25.25 76.63-61.15 91.49-64.737 26.872-136.85-20.735-136.85-91.49v-22.67c54.666-4.425 103.455-29.573 138.265-69.938 3.559-4.127 10.169-3.587 12.909 1.124 9.46 16.266 24.269 28.408 41.552 34.654 3.166 1.144 5.274 4.147 5.274 7.513z" fill="#e0b7a3"/><path d="m181.728 355.51c5.707 9.127.745 21.147-9.677 23.842-25.126 6.499-58.051 23.411-58.051 71.128v21.52h-20c-4.418 0-8-3.582-8-8v-39.26c0-29.807 17.538-56.006 43.88-67.98h.01c23.819-10.682 30.59-3.077 47.21-10 1.343 3.053 2.892 5.974 4.628 8.75z" fill="#ffbd7b"/><path d="m297.939 355.51c-5.707 9.127-.745 21.147 9.677 23.842 25.126 6.499 58.051 23.411 58.051 71.128v21.52h20c4.418 0 8-3.582 8-8v-39.26c0-29.807-17.538-56.006-43.88-67.98h-.01c-23.819-10.682-30.59-3.077-47.21-10-1.343 3.053-2.892 5.974-4.628 8.75z" fill="#faa157"/><path d="m279.13 318.42c-24.637 10.313-51.712 11.113-78.26 0 1.356-5.626 1.13-9.27 1.13-16.42l.15-.37c24.082 9.996 51.571 10.016 75.7 0l.15.37c0 7.153-.226 10.796 1.13 16.42z" fill="#a07765"/><path d="m301.973 15.297c12.188 4.959 8.15 23.053-5.005 22.733-2.018-.049-52.472-.03-51.468-.03-54.952 0-99.5 44.548-99.5 99.5v38.573c0 6.335-4.992 11.504-11.318 11.821-3.537.177-7.089.266-10.652.266-4.42-.01-8.03-3.59-8.03-8.01v-72.65c0-54.952 44.548-99.5 99.5-99.5h49c13.258 0 25.908 2.592 37.473 7.297z" fill="#ffec8f"/><path d="m208.648 267.794c16.186 12.757-1.08 37.887-18.877 27.494-28.284-16.517-48.771-46.717-48.771-85.158v-22.67c10.22-.83 20.24-2.38 30-4.62v7.29c0 32.142 14.996 59.809 37.648 77.664z" fill="#f2d1c2"/><path d="m108 148.5v-41c0-59.275 48.225-107.5 107.5-107.5h50c59.275 0 107.5 48.225 107.5 107.5v74.96c0 4.418-3.582 8-8 8s-8-3.582-8-8v-74.96c0-50.453-41.047-91.5-91.5-91.5h-50c-50.453 0-91.5 41.047-91.5 91.5v41c0 4.418-3.582 8-8 8s-8-3.582-8-8zm211.427 193.672c-11.782 0-22.472-6-28.594-16.051-2.299-3.774-7.223-4.972-10.993-2.671-3.773 2.298-4.97 7.22-2.671 10.993 9.049 14.858 24.847 23.729 42.258 23.729 36.795 0 66.573 29.773 66.573 66.571v47.257c0 4.418 3.582 8 8 8s8-3.582 8-8v-47.257c0-45.638-36.932-82.573-82.573-82.571zm-40.312 23.344c-28.755 24.207-72.255 16.771-91.341-15.47 12.304-8.124 20.823-21.542 22.058-37.28 9.72 2.855 19.867 4.359 30.168 4.359 59.931 0 107-49.181 107-106.392 0-.542.002-55.262-.004-55.804-.027-3.329-2.094-6.164-4.976-7.334-1.969-.801-33.873-8.005-47.585-42.546-2.281-5.747-10.005-6.869-13.796-1.901-35.999 47.186-90.236 74.55-147.959 76.859-4.415.176-7.851 3.898-7.674 8.313.179 4.477 3.984 7.869 8.313 7.674 58.192-2.327 113.334-28.298 152.007-73.229 10.652 18.22 26.965 31.264 45.674 38.044v49.316c0 50.178-40.822 91-91 91-45.229 0-83.982-33.729-90.144-78.457-.604-4.377-4.64-7.447-9.017-6.833-4.377.603-7.437 4.64-6.833 9.017 4.813 34.947 26.934 66.137 59.993 81.877v2.101c0 18.444-14.945 33.342-33.427 33.342-45.648 0-82.573 36.93-82.573 82.571v47.257c0 4.418 3.582 8 8 8s8-3.582 8-8v-47.257c0-36.795 29.775-66.571 66.573-66.571 4.221 0 8.414-.532 12.506-1.592 23.507 42.011 79.477 52.208 116.34 21.176 3.38-2.846 3.813-7.893.968-11.272-2.843-3.381-7.893-3.812-11.271-.968z"/></svg>