<svg id="Layer_1" enable-background="new 0 0 480.024 480.024" height="512" viewBox="0 0 480.024 480.024" width="512" xmlns="http://www.w3.org/2000/svg"><path d="m413.532 236.894c-8.194 6.219-11.404 16.764-8.53 26.25 9.8 32.49-15.29 67.03-49.22 67.75-10.12.21-19 6.66-22.33 16.22-.49 1.41-1.04 2.76-1.64 4.1-1.01-.17-2.02-.32-3.04-.44 1.02.13 2.04.28 3.04.45v-.01c35.699 6.038 62.2 36.9 62.2 73.55v39.26c0 4.42-3.58 8-8 8h-292c-4.42 0-8-3.58-8-8v-39.26c0-36.651 26.501-67.512 62.2-73.55v.01c1-.17 2.02-.32 3.04-.45-1.02.12-2.03.27-3.04.44-.6-1.34-1.15-2.69-1.64-4.1-3.33-9.56-12.21-16.01-22.33-16.22-33.93-.72-59.02-35.26-49.22-67.75 2.92-9.69-.47-20.13-8.53-26.25-27.02-20.52-27.02-63.22 0-83.74 8.06-6.12 11.45-16.56 8.53-26.25-9.8-32.49 15.29-67.03 49.22-67.75 10.12-.21 19-6.66 22.33-16.22 11.17-32.04 51.77-45.23 79.64-25.88 8.32 5.78 19.28 5.78 27.6 0 27.87-19.36 68.47-6.16 79.64 25.88 3.33 9.56 12.21 16.01 22.33 16.22 33.93.72 59.02 35.26 49.22 67.75-2.92 9.69.47 20.13 8.53 26.25 27.02 20.52 27.02 63.22 0 83.74z" fill="#c79a83"/><path d="m141.012 210.154c0 41.27 25.25 76.64 61.15 91.5l-.15.37v6.83c0 22.901-18.596 41.34-41.43 41.34-4.21 0-8.35.35-12.37 1.03-.6-1.34-1.15-2.7-1.64-4.11-3.33-9.56-12.21-16.01-22.33-16.22-33.93-.72-59.02-35.26-49.22-67.75 2.92-9.69-.47-20.13-8.53-26.25-27.02-20.52-27.02-63.22 0-83.74 8.06-6.12 11.45-16.56 8.53-26.25-9.8-32.49 15.29-67.03 49.22-67.75 10.12-.21 19-6.66 22.33-16.22 11.17-32.04 51.77-45.23 79.64-25.88 8.32 5.78 19.28 5.78 27.6 0 27.87-19.36 68.47-6.16 79.64 25.88 3.33 9.56 12.21 16.01 22.33 16.22 33.93.72 59.02 35.26 49.22 67.75-2.92 9.69.47 20.13 8.53 26.25 27.02 20.52 27.02 63.22 0 83.74-8.18 6.208-11.41 16.745-8.53 26.25 9.8 32.49-15.29 67.03-49.22 67.75-10.12.21-19 6.66-22.33 16.22-.49 1.41-1.04 2.77-1.64 4.11-4.02-.68-8.16-1.03-12.37-1.03-22.829 0-41.43-18.435-41.43-41.34v-6.83l-.15-.37c35.9-14.86 61.15-50.23 61.15-91.5v-40.89c0-39.77-32.24-72.01-72.01-72.01h-27.819c-3.331 0-6.301 2.063-7.481 5.177-13.659 36.034-42.547 64.596-84.984 77.516-3.382 1.03-5.705 4.126-5.705 7.662v22.545z" fill="#42434d"/><path d="m339.012 169.254v40.9c0 54.696-44.348 99-99 99-54.65 0-99-44.302-99-99v-22.545c0-3.535 2.323-6.632 5.705-7.662 42.437-12.92 71.325-41.481 84.984-77.516 1.181-3.115 4.15-5.177 7.481-5.177h27.829c39.765 0 72.001 32.235 72.001 72z" fill="#e0b7a3"/><path d="m394.012 424.764v39.26c0 4.42-3.58 8-8 8h-292c-4.42 0-8-3.58-8-8v-39.26c0-41.184 33.387-74.57 74.57-74.57 6.13 0 11.95-1.33 17.18-3.71l.25.54c6.302 4.88 51.695 40.026 57.1 44.21 2.89 2.23 6.91 2.23 9.8 0 5.393-4.175 50.811-39.341 57.1-44.21l.25-.54c5.23 2.38 11.05 3.71 17.18 3.71 41.379 0 74.57 33.58 74.57 74.57z" fill="#ffa4b8"/><path d="m279.142 318.444c-24.637 10.313-51.712 11.113-78.26 0 1.356-5.626 1.13-9.27 1.13-16.42l.15-.37c24.082 9.996 51.571 10.016 75.7 0l.15.37c0 7.153-.226 10.796 1.13 16.42z" fill="#a07765"/><path d="m194.505 359.793c4.746 3.674 2.238 11.378-3.764 11.401-42.333.158-74.729 34.149-74.729 74.57v26.26h-22c-4.418 0-8-3.582-8-8v-39.26c0-41.163 33.37-74.57 74.57-74.57 6.13 0 11.95-1.33 17.18-3.71l.25.54z" fill="#ffb1bf"/><path d="m285.519 359.793c-4.746 3.674-2.238 11.378 3.764 11.401 42.333.158 74.729 34.149 74.729 74.57v26.26h22c4.418 0 8-3.582 8-8v-39.26c0-41.163-33.37-74.57-74.57-74.57-6.13 0-11.95-1.33-17.18-3.71l-.25.54z" fill="#ff99af"/><path d="m285.588 8.085c20.079.978 26.67 27.09 9.751 37.949-.513.329-1.022.669-1.527 1.02-8.32 5.78-19.28 5.78-27.6 0-27.87-19.35-68.47-6.16-79.64 25.88-3.33 9.56-12.21 16.01-22.33 16.22-33.93.72-59.02 35.26-49.22 67.75 2.92 9.69-.47 20.13-8.53 26.25-27.02 20.52-27.02 63.22 0 83.74 8.06 6.12 11.45 16.56 8.53 26.25-6.044 20.039-32.596 20.219-39.101 1.935-3.551-9.98-4.175-21.072-.899-31.935 2.92-9.69-.47-20.13-8.53-26.25-27.02-20.52-27.02-63.22 0-83.74 8.06-6.12 11.45-16.56 8.53-26.25-9.8-32.49 15.29-67.03 49.22-67.75 10.12-.21 19-6.66 22.33-16.22 11.17-32.04 51.77-45.23 79.64-25.88 8.32 5.78 19.28 5.78 27.6 0 9.649-6.702 20.824-9.502 31.776-8.969z" fill="#4d4e59"/><path d="m217.286 274.512c16.138 9.915 3.556 34.641-14.023 27.591-37.05-14.858-62.251-50.809-62.251-91.949v-22.586c0-3.518 2.32-6.594 5.686-7.616 1.957-.595 3.973-1.25 6.035-1.974 8.399-2.946 17.28 3.164 17.28 12.176-.001 36.776 19.491 67.289 47.273 84.358z" fill="#f2d1c2"/><circle cx="275.012" cy="200.025" fill="#d6f4fc" r="32"/><circle cx="205.012" cy="200.025" fill="#d6f4fc" r="32"/><path d="m213.081 180.225c-14.772 5.917-23.142 22.678-19.072 38.043 1.494 5.641-5.076 10.027-9.546 6.275-6.998-5.874-11.452-14.685-11.452-24.518 0-22.008 20.603-35.409 39.174-31.248 5.789 1.297 6.402 9.243.896 11.448z" fill="#e8f8fc"/><path d="m283.081 180.225c-14.772 5.917-23.142 22.678-19.072 38.043 1.494 5.641-5.076 10.027-9.546 6.275-6.998-5.874-11.452-14.685-11.452-24.518 0-22.008 20.603-35.409 39.174-31.248 5.789 1.297 6.402 9.243.896 11.448z" fill="#e8f8fc"/><path d="m205.012 232.024c14.884 0 27.426-10.214 30.987-24h8.025c3.561 13.786 16.104 24 30.987 24 17.645 0 32-14.355 32-32s-14.355-32-32-32c-14.884 0-27.426 10.214-30.987 24h-8.025c-3.561-13.786-16.104-24-30.987-24-17.645 0-32 14.355-32 32s14.355 32 32 32zm70-48c8.822 0 16 7.178 16 16s-7.178 16-16 16-16-7.178-16-16 7.178-16 16-16zm-70 0c8.822 0 16 7.178 16 16s-7.178 16-16 16-16-7.178-16-16 7.178-16 16-16zm213.359 59.239c-5.441 4.133-7.682 11.03-5.709 17.571 7.696 25.513-3.013 53.719-26.044 68.593-3.711 2.396-8.664 1.331-11.06-2.381-2.397-3.711-1.332-8.663 2.38-11.061 17.075-11.026 25.055-31.806 19.406-50.53-3.862-12.806.699-26.845 11.35-34.935 22.846-17.35 22.831-53.656 0-70.995-10.652-8.089-15.213-22.127-11.351-34.934 8.265-27.401-13.012-56.827-41.73-57.436-13.373-.283-25.315-8.961-29.716-21.591-9.423-27.037-43.928-38.328-67.521-21.938-10.984 7.631-25.746 7.631-36.731 0-23.513-16.333-58.066-5.188-67.521 21.939-4.401 12.63-16.343 21.307-29.716 21.59-28.626.606-50.026 29.934-41.73 57.436 3.862 12.806-.699 26.845-11.35 34.935-22.845 17.347-22.831 53.656 0 70.995 10.652 8.089 15.213 22.127 11.351 34.934-8.284 27.464 13.069 56.828 41.73 57.436 12.668.268 24.04 8.075 28.947 19.633 4.233-.365 7.229-.328 7.229-.328 18.445 0 33.427-14.859 33.427-33.342v-2.11c-36.042-17.233-61-54.053-61-96.595 0-4.418 3.582-8 8-8s8 3.582 8 8c0 50.178 40.822 91 91 91s91-40.822 91-91v-40.889c0-35.291-28.71-64.003-64-64.003h-27.819c-4.834 12.802-11.477 24.644-19.885 35.368-33.072 42.189-81.073 51.137-100.175 53.025-4.415.435-8.315-2.793-8.748-7.174-.435-4.396 2.777-8.313 7.174-8.748 17.058-1.687 59.891-9.641 89.158-46.975 11.732-14.966 19.395-32.341 23.123-50.659.881-4.329 5.108-7.132 9.435-6.243 4.33.881 7.125 5.104 6.244 9.434-.409 2.012-.871 3.998-1.359 5.972h22.853c44.112 0 80 35.889 80 80.003v41.497c0 57.205-47.064 106.392-107 106.392-10.473 0-20.597-1.52-30.17-4.337-1.047 13.273-7.376 25.737-18.338 34.541l48.508 37.555 28.53-22.088c3.496-2.703 8.519-2.064 11.223 1.429 2.705 3.494 2.065 8.519-1.428 11.224l-33.427 25.879c-2.883 2.231-6.911 2.232-9.795 0l-58.966-45.651c-8.677 2.862-16.329 2.497-15.564 2.497-36.794 0-66.573 29.773-66.573 66.571v47.257c0 4.418-3.582 8-8 8s-8-3.582-8-8v-47.257c0-37.789 25.221-69.103 58.878-79.131-2.907-4.093-7.576-6.637-12.82-6.749-39.266-.831-68.049-40.461-56.709-78.053 1.973-6.541-.268-13.438-5.709-17.57-31.279-23.754-31.27-72.731 0-96.479 5.441-4.133 7.682-11.03 5.709-17.571-11.344-37.606 17.453-77.225 56.709-78.055 6.831-.146 12.698-4.407 14.947-10.859 12.924-37.087 59.507-52.217 91.757-29.814 5.611 3.898 12.864 3.898 18.475 0 32.256-22.406 78.835-7.263 91.757 29.813 2.249 6.452 8.115 10.715 14.947 10.86 39.266.831 68.049 40.461 56.709 78.053-1.973 6.541.268 13.438 5.709 17.57 31.279 23.754 31.269 72.731-.001 96.479zm-16.359 181.504v47.257c0 4.418-3.582 8-8 8s-8-3.582-8-8v-47.257c0-36.794-29.774-66.571-66.573-66.571-17.412 0-33.209-8.87-42.259-23.729-2.298-3.773-1.103-8.695 2.671-10.993 3.774-2.301 8.696-1.104 10.994 2.671 6.122 10.051 16.811 16.051 28.594 16.051 45.638-.002 82.573 36.93 82.573 82.571z"/></svg>