<svg id="Layer_1" enable-background="new 0 0 480 480" height="512" viewBox="0 0 480 480" width="512" xmlns="http://www.w3.org/2000/svg"><path d="m396.501 381.24v-250.24c0-33.14-26.86-60-60-60-5.139 0-5.982.258-7.12-.88-.54-.54-.88-1.29-.88-2.12 0-33.14-26.86-60-60-60h-39c-61.98 0-112 50.27-112 112v259.88c-9.42 12.48-15 28.02-15 44.86v39.26c0 4.42 3.58 8 8 8h292c4.42 0 8-3.58 8-8v-39.26c0-16.24-5.19-31.26-14-43.5z" fill="#c79a83"/><path d="m229.501 8h39c33.137 0 60 26.863 60 60 0 1.657 1.343 3 3 3h5c33.137 0 60 26.863 60 60v250.24c-13.703-19.07-35.957-31.07-60.57-31.07-22.872 0-41.43-18.479-41.43-41.34v-6.83l-.15-.37c35.9-14.86 61.15-50.23 61.15-91.5v-40.89c0-39.77-32.24-72.01-72.01-72.01h-44.56c-45.575 38.197-70.166 90.865-74.47 149.43 9.87 24.85 29.52 44.75 54.19 54.97l-.15.37v6.83c0 16.99-10.25 31.56-24.9 37.92-14.917 6.486-21.862.191-43.1 8.3-13.21 5.04-24.63 13.73-33 24.83 0-6.927 0-252.872 0-259.88 0-61.725 50.015-112 112-112z" fill="#42434d"/><path d="m355.501 169.24v40.89c0 54.696-44.348 99-99 99-41.459 0-77.397-25.603-92.04-62.47 4.305-58.583 28.908-111.243 74.47-149.43h44.57c39.76 0 72 32.24 72 72.01z" fill="#e0b7a3"/><path d="m410.501 424.74v39.26c0 4.42-3.58 8-8 8h-292c-4.42 0-8-3.58-8-8v-39.26c0-31.7 19.78-58.78 47.68-69.57 21.39-8.28 28.39-1.88 43.42-8.42v.01c10.95 24.91 35.7 41.06 62.9 41.06s51.95-16.15 62.9-41.06v-.01c14.8 6.43 21.27.3 42.17 7.95 28.55 10.45 48.93 37.87 48.93 70.04z" fill="#e0b7a3"/><g fill="#c79a83"><path d="m172.941 198.78c.47-1.66.98-3.33 1.51-5-.52 1.66-1.03 3.32-1.51 5z"/><path d="m186.221 164.31c.76-1.57 1.56-3.14 2.38-4.71-.81 1.56-1.61 3.13-2.38 4.71z"/><path d="m362.501 355.05c-.52-.2-1.03-.39-1.55-.57.731.255.932.332 1.55.57z"/></g><path d="m270.52 8.033c19.411.642 18.774 29.822-.647 29.935-3.208.019-6.655.032-10.372.032-61.989 0-112 50.277-112 112v206.27c-11.94 5.17-22.27 13.36-30 23.61v-259.88c0-61.724 50.013-112 112-112 42.616 0 39.593-.014 41.019.033z" fill="#4d4e59"/><path d="m295.631 318.42c-24.637 10.313-51.712 11.113-78.26 0 1.356-5.626 1.13-9.27 1.13-16.42l.15-.37c24.082 9.996 51.571 10.016 75.7 0l.15.37c0 7.153-.226 10.796 1.13 16.42z" fill="#a07765"/><path d="m172.941 198.78c.47-1.66.98-3.33 1.51-5-.52 1.66-1.03 3.32-1.51 5z" fill="#c79a83"/><path d="m186.221 164.31c.76-1.57 1.56-3.14 2.38-4.71-.81 1.56-1.61 3.13-2.38 4.71z" fill="#c79a83"/><path d="m243.294 308.255c-35.891-4.792-65.826-28.845-78.834-61.595 1.55-21.07 6.06-45.79 16.62-71.04-3.71 14.54-5.69 28.44-6.62 41.04 12.411 31.247 40.257 54.615 74.022 60.832 9.259 1.705 14.792 11.315 11.815 20.246-2.383 7.151-9.531 11.515-17.003 10.517z" fill="#f2d1c2"/><path d="m362.501 355.05c-.52-.2-1.03-.39-1.55-.57.731.255.932.332 1.55.57z" fill="#c79a83"/><path d="m292.141 377.82c4.31 1.52 8.96 2.35 13.79 2.35 41.125 0 74.57 33.336 74.57 74.57v17.26h22c4.418 0 8-3.582 8-8v-39.26c0-41.228-33.438-74.57-74.57-74.57-5.87 0-11.47-1.22-16.53-3.42v.01c-5.79 13.17-15.43 23.89-27.26 31.06z" fill="#c79a83"/><path d="m220.861 377.82c-4.31 1.52-8.96 2.35-13.79 2.35-41.125 0-74.57 33.336-74.57 74.57v17.26h-22c-4.418 0-8-3.582-8-8v-39.26c0-41.228 33.438-74.57 74.57-74.57 5.87 0 11.47-1.22 16.53-3.42v.01c5.79 13.17 15.43 23.89 27.26 31.06z" fill="#f2d1c2"/><path d="m361.571 354.7c-.104 1.962-.07-7.591-.07 117.3h-211v-115.98l-.32-.85c21.389-8.284 28.389-1.885 43.42-8.42v.01c10.95 24.91 35.7 41.06 62.9 41.06s51.95-16.15 62.9-41.06v-.01c14.796 6.433 21.273.296 42.17 7.95z" fill="#42434d"/><path d="m210.85 370.438c3.698 3.282 1.806 9.732-3.779 9.732-22.251 0-42.646 9.797-56.57 25.98v-50.13l-.32-.85c21.389-8.284 28.389-1.885 43.42-8.42v.01c4.053 9.219 9.992 17.237 17.249 23.678z" fill="#4d4e59"/><path d="m361.501 405.02c-13.66-15.26-33.51-24.85-55.57-24.85-4.83 0-9.48-.83-13.79-2.35 12.962-7.828 22.049-19.192 27.26-31.06v-.01c14.639 6.406 21.559.339 42.17 7.95-.08 1.51-.08-3.78-.07 50.32z" fill="#2c2c33"/><path d="m418.501 424.743v47.257c0 4.418-3.582 8-8 8s-8-3.582-8-8v-47.257c0-24.523-13.175-45.886-33-57.503v104.76c0 4.418-3.582 8-8 8s-8-3.582-8-8v-111.477c-5.658-1.539-11.552-2.351-17.573-2.351-17.411 0-33.209-8.87-42.258-23.729-2.299-3.773-1.103-8.695 2.671-10.993 3.771-2.301 8.694-1.104 10.993 2.671 6.122 10.051 16.812 16.051 28.594 16.051 45.637-.002 82.573 36.93 82.573 82.571zm-309-213.057v123.314c0 4.418 3.582 8 8 8s8-3.582 8-8v-149.345c11.341-15.819 24.822-30.164 40.023-42.428 3.438-2.774 3.977-7.812 1.203-11.25-2.773-3.438-7.81-3.976-11.25-1.203-10.852 8.755-20.883 18.504-29.977 29.042 0-44.074-.037-41.065.105-44.359 21.119-9.73 40.953-23.21 58.55-40.798 3.125-3.123 3.126-8.188.003-11.313-3.124-3.126-8.189-3.128-11.313-.003-13.109 13.102-28.016 24.176-44.623 32.978 10.748-45.976 52.077-80.321 101.279-80.321h39c28.673 0 52 23.327 52 52v3c0 4.418 3.582 8 8 8h8c28.673 0 52 23.327 52 52v197c0 4.418 3.582 8 8 8s8-3.582 8-8v-197c0-37.221-30.161-68-68.182-68-2.569-35.169-32.005-63-67.818-63h-39c-60.936 0-111.406 45.655-119.008 104.554-13.448 5.41-27.559 9.281-42.21 11.54-4.367.673-7.361 4.758-6.688 9.125.609 3.954 4.017 6.782 7.897 6.782 1.65 0 20.014-2.733 40.01-9.936v58.535c-24.903 36.431-38.675 78.797-39.997 123.162-.131 4.416 3.342 8.104 7.758 8.234 4.314.156 8.101-3.27 8.235-7.758.966-32.462 9.057-63.805 24.003-92.552zm186.115 153.83c-28.753 24.205-72.254 16.773-91.341-15.47 12.235-8.079 20.806-21.457 22.056-37.249 69.469 20.37 137.17-32.693 137.17-102.064v-41.497c0-44.114-35.888-80.003-80-80.003h-20.449c2.792-1.843 5.637-3.631 8.54-5.358 3.797-2.259 5.044-7.169 2.784-10.966-2.258-3.796-7.167-5.044-10.966-2.784-82.837 49.287-118.79 140.279-104.82 233.066.597 3.965 4.009 6.81 7.901 6.81 4.887 0 8.652-4.339 7.92-9.192-10.809-71.79 10.148-146.201 67.448-195.575h41.642c35.29 0 64 28.712 64 64.003v40.889c0 72.931-81.864 116.002-141.874 75.464-3.66-2.475-8.634-1.511-11.107 2.15s-1.51 8.635 2.151 11.107c4.434 2.996 9.056 5.637 13.83 7.914v2.069c0 8.913-3.476 17.287-9.788 23.581-11.192 11.161-25.298 9.761-23.641 9.761-45.637 0-82.571 36.93-82.571 82.571v47.257c0 4.418 3.582 8 8 8s8-3.582 8-8v-47.257c0-24.09 12.712-45.144 32-56.909v104.166c0 4.418 3.582 8 8 8s8-3.582 8-8v-111.201c13.632-3.937 20.331-1.435 31.079-4.219 23.508 42.011 79.478 52.207 116.341 21.176 3.38-2.846 3.813-7.893.968-11.272-2.845-3.381-7.895-3.813-11.273-.968z"/></svg>