<svg id="Layer_1" enable-background="new 0 0 480.001 480.001" height="512" viewBox="0 0 480.001 480.001" width="512" xmlns="http://www.w3.org/2000/svg"><path d="m394 424.52v39.48c0 4.42-3.58 8-8 8h-292c-4.42 0-8-3.58-8-8v-39.48c0-41.24 33.74-73.95 74.98-74.35 22.893-.243 41.02-18.798 41.02-41.34v-6.83l.15-.37c-35.9-14.86-61.15-50.23-61.15-91.5v-3.13c-14.255 0-25-11.265-25-24.54v-97.46c0-14.91 12.09-27 27-27 12.073-30.183 41.322-50 73.85-50h68.15c44.18 0 80 35.82 80 80v93.01c0 14.318-11.605 25.99-26 25.99v3.13c0 41.27-25.25 76.64-61.15 91.5l.15.37v6.83c0 22.622 18.205 41.097 41.02 41.34 41.24.4 74.98 33.11 74.98 74.35z" fill="#ffd6a6"/><path d="m394 424.52v39.48c0 4.42-3.58 8-8 8h-292c-4.42 0-8-3.58-8-8v-39.48c0-41.24 33.74-73.95 74.98-74.35 13.63-.145 25.99-6.851 33.57-17.67 34.762 38.63 26.765 29.742 39.5 43.9 3.18 3.53 8.72 3.53 11.9 0 11.419-12.696 2.097-2.336 39.5-43.9 7.555 10.783 19.895 17.525 33.57 17.67 41.24.4 74.98 33.11 74.98 74.35z" fill="#d6f4fc"/><path d="m328.659 144.58c5.136-1.603 10.346 2.253 10.35 7.633.007 8.591-.009 22.239-.009 57.917 0 54.696-44.348 99-99 99-54.65 0-99-44.302-99-99 0-18.251-.184-31.218-.25-42.39-.2-31.06 28.55-55.34 60.25-47.74 28.4 6.81 38.25 20.51 73 28 19.708 4.252 38.54 1.611 54.659-3.42z" fill="#ffdfba"/><path d="m365 88v93.01c0 14.329-11.607 25.99-26 25.99 0-30.519.016-46.34.009-54.787-.005-5.38-5.215-9.236-10.35-7.633-16.12 5.031-34.951 7.672-54.659 3.42-34.75-7.49-44.6-21.19-73-28-31.7-7.6-60.45 16.68-60.25 47.74.06 10.21.23 22.97.25 39.26-14.255 0-25-11.265-25-24.54v-97.46c0-14.91 12.09-27 27-27 12.073-30.184 41.323-50 73.85-50h68.15c44.183 0 80 35.817 80 80z" fill="#42434d"/><g fill="#e8f8fc"><path d="m303.08 346.83c-.124.264-9.994 45.164-9.931 44.878-1.302 5.907-8.778 7.809-12.745 3.242-26.257-30.236-22.675-26.293-25.334-28.691l30.38-33.76c4.4 6.281 10.501 11.271 17.63 14.331z"/><path d="m194.55 332.5 29.66 32.96-24.603 29.155c-3.932 4.66-11.5 2.792-12.812-3.163-.063-.285-9.75-44.359-9.875-44.623 7.13-3.059 13.23-8.049 17.63-14.329z"/><path d="m182.121 370.25c-39.58 1.8-71.12 34.47-71.12 74.49v27.26h-17.001c-4.418 0-8-3.582-8-8v-39.418c0-41.254 33.753-73.989 75.006-74.414 5.641-.058 11.02-1.242 15.914-3.338.125.264 5.138 23.135 5.201 23.42z"/></g><path d="m297.88 370.25c39.58 1.8 71.12 34.47 71.12 74.49v27.26h17c4.418 0 8-3.582 8-8v-39.418c0-41.254-33.753-73.989-75.006-74.414-5.641-.058-11.02-1.242-15.914-3.338-.124.264-5.137 23.135-5.2 23.42z" fill="#bdeffc"/><path d="m195.18 374.5c1.49 6.77 3.08 13.98 4.43 20.11-3.932 4.661-11.5 2.799-12.812-3.157-3.845-17.462-9.794-44.445-9.878-44.623 7.13-3.06 13.23-8.05 17.63-14.33l8.54 9.5c-7.34 9.14-10.449 20.99-7.91 32.5z" fill="#f1fafc"/><path d="m255.07 366.26 14.93 105.74h-60l14.21-106.54 9.844 10.935c3.178 3.53 8.713 3.53 11.891 0z" fill="#fe4f60"/><path d="m234.66 377.07-12.66 94.93h-12l14.21-106.54z" fill="#e84857"/><path d="m279.13 318.42c-24.637 10.313-51.712 11.113-78.26 0 1.356-5.626 1.13-9.27 1.13-16.42l.15-.37c24.082 9.996 51.571 10.016 75.7 0l.15.37c0 7.153-.225 10.796 1.13 16.42z" fill="#f7c388"/><path d="m217.597 274.069c16.271 10.175 3.43 35.144-14.38 27.997-36.578-14.68-62.217-50.341-62.217-91.936 0-18.273-.184-31.174-.25-42.39-.063-10.041 2.896-19.372 8.002-27.146 6.418-9.771 21.913-5.513 21.998 7.146.066 11.254.25 24.098.25 42.39 0 36.498 19.188 66.798 46.597 83.939z" fill="#ffebd2"/><path d="m320.699 16.388c10.852 5.421 6.863 21.677-5.267 21.613-.353-.002-68.229-.001-68.581-.001-30.549 0-58.231 17.484-71.483 44.657-1.511 3.099-4.431 5.201-7.808 5.892-12.303 2.518-21.56 13.405-21.56 26.451 0 30.166.331 29.478-.993 32.431-5.33 11.885-4.245 19.336-4.083 42.029.08 11.163-14.448 15.917-20.717 6.68-2.675-3.941-4.207-8.667-4.207-13.68v-97.46c0-14.91 12.09-27 27-27 12.073-30.183 41.322-50 73.85-50h68.15c12.828 0 24.952 3.02 35.699 8.388z" fill="#4d4e59"/><path d="m319.427 342.172c-11.783 0-22.472-6-28.594-16.051-2.299-3.774-7.221-4.971-10.994-2.671-3.773 2.298-4.969 7.22-2.671 10.993 4.258 6.991 10.022 12.635 16.733 16.674l-8.291 37.626-19.989-23.017c3.637-4.184 2.746-9.053-.372-11.764-3.335-2.899-8.388-2.546-11.286.788l-14.066 16.176-35.433-39.37c3.015-5.789 4.842-12.143 5.365-18.765 68.577 20.187 137.171-31.571 137.171-102.661 0-67.834.082-66.77-.192-69.552-.501-5.166-4.652-7.936-8.736-7.554-4.018.373-7.702 3.799-7.187 9.124.179 1.811.115 3.379.115 67.981 0 50.178-40.822 91-91 91s-91-40.822-91-91c0-17.885-.187-31.426-.254-42.443-.162-26.266 24.13-46.203 50.389-39.907 37.071 8.89 51.989 32.003 99.482 29.785 4.413-.207 7.823-3.953 7.616-8.366-.208-4.414-3.964-7.835-8.366-7.616-42.979 2.01-54.517-19.652-95-29.361-36.454-8.741-70.346 18.992-70.121 55.563.049 7.996.165 17.662.222 29.297-5.326-2.777-8.968-8.286-8.968-14.621v-97.46c0-10.477 8.523-19 19-19 3.271 0 6.213-1.991 7.428-5.029 10.927-27.319 37.001-44.971 66.424-44.971h68.148c39.701 0 72 32.299 72 72v94.46c0 4.418 3.582 8 8 8s8-3.582 8-8v-94.46c0-48.523-39.477-88-88-88h-68.148c-34.321 0-64.917 19.63-79.285 50.421-16.727 2.619-29.567 17.128-29.567 34.579v97.46c0 15.304 10.709 28.167 25.081 31.621 1.491 40.861 25.999 75.947 60.919 92.644v2.105c0 8.913-3.476 17.287-9.788 23.581-11.192 11.161-25.298 9.761-23.641 9.761-45.637 0-82.571 36.93-82.571 82.571v47.257c0 4.418 3.582 8 8 8s8-3.582 8-8v-47.257c0-36.795 29.775-66.571 66.573-66.571 3.502 0 6.997-.372 10.452-1.111l11.162 50.661c1.415 6.424 9.561 8.468 13.853 3.523l15.761-18.147-9.739 77.91c-.548 4.384 2.562 8.383 6.946 8.931 4.393.548 8.383-2.57 8.93-6.946l11.255-90.041c.497.552 4.967 5.565 5.523 6.053 3.183 2.843 8.287 2.671 11.276-.709.669-.761-1.963 2.263 4.794-5.507l11.276 90.205c.548 4.384 4.544 7.494 8.93 6.946 4.384-.548 7.494-4.547 6.946-8.931l-9.739-77.91 15.761 18.147c4.308 4.959 12.442 2.88 13.853-3.523l11.163-50.662c3.389.72 6.883 1.112 10.451 1.112 36.794 0 66.573 29.772 66.573 66.571v47.256c0 4.418 3.582 8 8 8s8-3.582 8-8v-47.257c0-45.638-36.932-82.573-82.573-82.571zm-125.037 46.572-8.293-37.638c3.05-1.841 5.911-4.035 8.548-6.543l19.397 21.552z"/></svg>