<svg id="Layer_1" enable-background="new 0 0 480 480" height="512" viewBox="0 0 480 480" width="512" xmlns="http://www.w3.org/2000/svg"><path d="m394 424.74v39.26c0 4.42-3.58 8-8 8h-292c-4.42 0-8-3.58-8-8v-39.26c0-41.19 33.39-74.56 74.58-74.57 14.57 0 27.39-7.5 34.77-18.86 7.414-11.394 6.65-21.302 6.65-29.31l.15-.37c-35.9-14.86-61.15-50.23-61.15-91.5v-3.13c-14.255 0-25-11.265-25-24.54 0-85.68-.77-86.618 2.61-100.77 10.06-42.26 48.05-73.69 93.39-73.69h56c45.44 0 83.5 31.57 93.46 73.97 3.3 14.056 2.54 14.955 2.54 100.03 0 13.81-11.19 25-25 25v3.13c0 41.27-25.25 76.64-61.15 91.5l.15.37v6.83c0 22.808 18.501 41.34 41.42 41.34 41.19.01 74.58 33.38 74.58 74.57z" fill="#ffd6a6"/><path d="m364 128v54c0 13.81-11.19 25-25 25 0-12.72 0-54.94 0-79z" fill="#42434d"/><path d="m141 128v79c-14.255 0-25-11.265-25-24.54v-54.46z" fill="#4d4e59"/><path d="m364 128h-248c0-25.259-.596-32.886 2.61-46.31 10.06-42.26 48.05-73.69 93.39-73.69h56c45.44 0 83.5 31.57 93.46 73.97 3.123 13.303 2.54 20.677 2.54 46.03z" fill="#fe4f60"/><path d="m339 210.13c0 41.27-25.25 76.64-61.15 91.5-62.308 25.864-136.85-16.863-136.85-94.63v-79h198z" fill="#ffdfba"/><path d="m394 424.74v39.26c0 4.418-3.582 8-8 8h-292c-4.418 0-8-3.582-8-8v-39.26c0-41.19 33.394-74.556 74.584-74.57 14.564-.005 27.388-7.504 34.766-18.86 25.83 22.05 63.562 21.971 89.3 0 7.378 11.356 20.202 18.855 34.766 18.86 41.19.014 74.584 33.38 74.584 74.57z" fill="#fe4f60"/><path d="m279.13 318.42c-24.637 10.313-51.712 11.113-78.26 0 1.356-5.626 1.13-9.27 1.13-16.42l.15-.37c24.082 9.996 51.571 10.016 75.7 0l.15.37c0 7.153-.226 10.796 1.13 16.42z" fill="#f7c388"/><path d="m200.882 374.327c-3.698 1.163-7.664 1.804-11.916 1.841-41.296.364-74.966 33.017-74.966 74.315v7.517c0 7.732-6.268 14-14 14h-6c-4.418 0-8-3.582-8-8v-39.26c0-41.191 33.395-74.555 74.585-74.57 14.564-.005 27.387-7.504 34.765-18.86 2.974 2.54 6.158 4.823 9.512 6.822 14.752 8.791 12.402 31.044-3.98 36.195z" fill="#ff6d7a"/><path d="m279.118 374.327c3.698 1.163 7.664 1.804 11.916 1.841 41.296.364 74.966 33.017 74.966 74.315v7.517c0 7.732 6.268 14 14 14h6c4.418 0 8-3.582 8-8v-39.26c0-41.191-33.395-74.555-74.585-74.57-14.564-.005-27.387-7.504-34.765-18.86-2.974 2.54-6.158 4.823-9.512 6.822-14.752 8.791-12.402 31.044 3.98 36.195z" fill="#e84857"/><path d="m273.007 8.128c12.794.657 12.203 19.816-.608 19.846-5.976.014-12.73.026-20.399.026-53.081 0-96 43.052-96 96v4h-40c0-25.259-.596-32.886 2.61-46.31 10.06-42.26 48.05-73.69 93.39-73.69 60.905 0 57.558-.049 61.007.128z" fill="#ff6d7a"/><path d="m364 128c-12.747 0-236.864 0-248 0 0-25.259-.596-32.886 2.61-46.31 1.695.416-13.788.28 242.85.28 3.128 13.321 2.54 20.73 2.54 46.03z" fill="#42434d"/><path d="m165.67 81.97c-6.411 13.14-8.734 24.758-9.422 36.627-.305 5.271-4.635 9.403-9.914 9.403h-30.334c0-25.259-.596-32.886 2.61-46.31 1.629.4-3.146.28 47.06.28z" fill="#4d4e59"/><path d="m217.566 274.038c16.3 10.184 3.478 35.183-14.358 28.024-36.569-14.678-62.208-50.337-62.208-91.932v-82.13h30v62.13c0 36.591 19.198 66.808 46.566 83.908z" fill="#ffebd2"/><path d="m402 424.743v47.257c0 4.418-3.582 8-8 8s-8-3.582-8-8v-47.257c0-36.794-29.774-66.571-66.573-66.571-17.412 0-33.209-8.87-42.259-23.729-2.298-3.773-1.103-8.695 2.671-10.993 3.774-2.3 8.696-1.104 10.994 2.671 6.122 10.051 16.811 16.051 28.594 16.051 45.638-.002 82.573 36.93 82.573 82.571zm-154-22.743v34h17c4.418 0 8 3.582 8 8s-3.582 8-8 8h-17v20c0 4.418-3.582 8-8 8s-8-3.582-8-8v-20h-17c-4.418 0-8-3.582-8-8s3.582-8 8-8h17v-34h-17c-4.418 0-8-3.582-8-8s3.582-8 8-8h17v-30.616c-12.618-1.331-24.732-5.788-35.235-12.957-9.646 10.335-22.639 15.744-36.19 15.744-36.868 0-66.575 29.84-66.575 66.571v47.258c0 4.418-3.582 8-8 8s-8-3.582-8-8v-47.257c0-45.635 36.93-82.571 82.571-82.571 18.463 0 33.429-14.874 33.429-33.342v-2.107c-34.92-16.697-59.429-51.784-60.923-92.643-14.37-3.455-25.077-16.317-25.077-31.62 0-3.69 0-76.091 0-78.46 0-57.346 46.654-104 104-104h56c57.346 0 104 46.654 104 104v78.46c0 4.418-3.582 8-8 8s-8-3.582-8-8v-46.46h-9c0 .166.002 74.797-.003 74.963-.547 70.631-68.824 121.944-137.166 101.824-.45 5.708-1.871 11.216-4.186 16.336 13.518 9.282 30.524 12.956 47.229 9.313 4.314-.938 8.579 1.796 9.52 6.112.941 4.317-1.796 8.58-6.113 9.521-2.73.595-5.498 1.035-8.281 1.328v30.603h17c4.418 0 8 3.582 8 8s-3.582 8-8 8zm-118.721-328.029h195.721c4.418 0 8 3.582 8 8s-3.582 8-8 8h-199.877c-1.394 8.665-1.123 13.198-1.123 30.029h232v-16c0-48.523-39.477-88-88-88h-56c-37.982 0-70.42 24.189-82.721 57.971zm3.721 123.125v-61.096h-9v46.46c0 6.348 3.656 11.865 9 14.636zm107 104.029c50.178 0 91-40.822 91-91v-74.125h-182v74.125c0 50.178 40.822 91 91 91z"/></svg>