<svg id="Layer_1" enable-background="new 0 0 480.051 480.051" height="512" viewBox="0 0 480.051 480.051" width="512" xmlns="http://www.w3.org/2000/svg"><path d="m394.025 424.791v39.26c0 4.42-3.58 8-8 8h-292c-4.42 0-8-3.58-8-8v-39.26c0-41.03 33.15-74.95 74.18-74.57 6.01.05 11.75-1.17 16.92-3.42 0 .38 2.359 4.881 2.82 5.7-1.01-1.83-1.95-3.72-2.81-5.67 14.64-6.37 24.89-20.93 24.89-37.92v-6.83l.15-.38c-35.9-14.86-61.15-50.23-61.15-91.5v-3.12c-14.255 0-25-11.264-25-24.54v-41.56c-.32-14.47.34-65.5 37.2-101.03 42.86-41.31 110.78-37.93 159.98-15.83 1.6.72 1.55 3.01-.07 3.68l-12.83 5.28c-1.92.79-1.51 3.62.55 3.84l6.23.67c33.09 3.54 60.69 23.07 74.77 46.38.43.72.29 1.8-.29 2.41-10.61 11.22-16.54 26.11-16.54 41.59v53.11c0 14.36-11.64 26-26 26v3.12c0 41.27-25.25 76.64-61.15 91.5l.15.38v6.83c0 16.99 10.25 31.55 24.89 37.92 0-.002.01-.012.01-.03 5.17 2.25 10.91 3.47 16.92 3.42 41.03-.38 74.18 33.54 74.18 74.57z" fill="#ffd6a6"/><path d="m339.025 210.198c0 54.696-44.348 99-99 99-54.65 0-99-44.302-99-99 0-6.725 0-57.21 0-64.89 0-20.409 23.613-30.437 38.5-17.6 16.646 14.342 36.609 23.764 57.994 27.6 5.891 1.057 10.833-4.521 9.035-10.23-1.223-3.882-1.755-7.916-1.592-11.937.249-6.167 7.232-9.684 12.372-6.268 21.793 14.481 47.192 21.932 73.583 21.566 4.463-.062 8.107 3.534 8.107 7.997.001 12.644.001 42.478.001 53.762z" fill="#ffdfba"/><path d="m381.853 83.967c.435.72.29 1.802-.288 2.413-10.612 11.221-16.54 26.106-16.54 41.589v53.11c0 14.36-11.64 26-26 26v-50.643c0-4.463-3.645-8.059-8.107-7.997-26.377.366-51.78-7.077-73.583-21.566-5.14-3.416-12.123.102-12.372 6.268-.162 4.017.368 8.051 1.592 11.937 1.799 5.709-3.143 11.287-9.035 10.23-21.363-3.832-41.331-13.243-57.994-27.6-14.885-12.836-38.5-2.811-38.5 17.6v61.77c-14.255 0-25-11.265-25-24.54v-41.56c-.32-14.47.34-65.5 37.2-101.03 42.857-41.311 110.783-37.929 159.975-15.827 1.601.719 1.558 3.01-.065 3.678l-12.831 5.282c-1.918.79-1.514 3.617.548 3.838l6.232.669c33.089 3.538 60.687 23.071 74.768 46.379z" fill="#ffec8f"/><path d="m394.025 424.791v39.26c0 4.418-3.582 8-8 8h-292c-4.418 0-8-3.582-8-8v-39.26c0-41.031 33.148-74.952 74.178-74.572 6.013.056 11.75-1.169 16.922-3.418v.01c12.069 27.44 40.785 44.126 70.9 40.59 23.97-2.81 45.03-18.15 54.9-40.59v-.01c5.173 2.249 10.91 3.474 16.922 3.418 41.03-.38 74.178 33.54 74.178 74.572z" fill="#42434d"/><path d="m179.945 352.501c-1.03-1.83-1.97-3.72-2.82-5.66 0-.214.659 1.744 2.82 5.66z" fill="#ffd6a6"/><path d="m279.155 318.471c-24.637 10.313-51.712 11.113-78.26 0 1.356-5.626 1.13-9.27 1.13-16.42l.15-.37c24.082 9.996 51.571 10.016 75.7 0l.15.37c0 7.152-.225 10.796 1.13 16.42z" fill="#f7c388"/><path d="m313.135 27.801c-5.832 2.403-8.264 3.897-12.735 3.08-73.953-13.503-136.091 20.149-151.112 93.644-.429 2.1-1.447 4.023-2.844 5.648-3.288 3.826-5.36 8.831-5.418 14.667v37.993c0 16.05-24.158 16.975-24.969.945-.051-1-.031 1.636-.031-42.798-.32-14.47.34-65.5 37.2-101.03 42.86-41.31 110.78-37.93 159.98-15.83 1.599.721 1.549 3.011-.071 3.681z" fill="#fff2b3"/><path d="m217.623 274.14c16.271 10.175 3.429 35.144-14.381 27.996-36.623-14.699-62.217-50.385-62.217-91.936 0-69.645-.02-65.525.041-66.571 1.125-19.154 29.951-17.951 29.954 1.237.001 9.814.005 24.196.005 45.334 0 36.499 19.188 66.799 46.598 83.94z" fill="#ffebd2"/><path d="m179.945 352.501c-1.03-1.83-1.97-3.72-2.82-5.66 0-.214.659 1.744 2.82 5.66z" fill="#ffd6a6"/><path d="m181.753 355.561c5.707 9.127.745 21.147-9.677 23.842-25.126 6.499-58.051 23.411-58.051 71.128v21.52h-20c-4.418 0-8-3.582-8-8v-39.26c0-29.807 17.538-56.006 43.88-67.98h.01c23.819-10.682 30.59-3.077 47.21-10 1.343 3.053 2.892 5.974 4.628 8.75z" fill="#4d4e59"/><path d="m297.964 355.561c-5.707 9.127-.745 21.147 9.677 23.842 25.126 6.499 58.051 23.411 58.051 71.128v21.52h20c4.418 0 8-3.582 8-8v-39.26c0-29.807-17.538-56.006-43.88-67.98h-.01c-23.819-10.682-30.59-3.077-47.21-10-1.343 3.053-2.892 5.974-4.628 8.75z" fill="#2c2c33"/><path d="m402.025 424.794v47.257c0 4.418-3.582 8-8 8s-8-3.582-8-8v-47.257c0-36.795-29.775-66.571-66.573-66.571-17.411 0-33.209-8.87-42.258-23.729-2.299-3.773-1.103-8.695 2.671-10.993 3.771-2.3 8.694-1.104 10.993 2.671 6.122 10.051 16.812 16.051 28.594 16.051 45.638-.003 82.573 36.93 82.573 82.571zm-122.884-59.228c-28.755 24.207-72.253 16.775-91.341-15.47 12.269-8.101 20.813-21.498 22.056-37.259 68.295 20.107 136.619-31.146 137.167-101.823.005-.179.003-30.535.003-30.714 0-4.418-3.582-8-8-8s-8 3.582-8 8v29.875c0 50.178-40.822 91-91 91s-91-40.822-91-91v-64.891c.068-13.789 15.667-19.829 25.271-11.548 22.623 19.503 50.512 29.928 78.333 31.304 6.89.337 10.971-7.672 6.6-13.041-4.077-5.008-6.534-11.563-6.276-18.456 26.136 17.36 56.652 24.743 86.673 22.484 4.405-.331 7.708-4.172 7.377-8.578-.332-4.404-4.165-7.705-8.578-7.377-30.192 2.274-60.608-6.431-85.401-26.27-4.104-3.281-10.19-1.775-12.309 2.999-4.175 9.399-5.057 20.25-1.8 30.593-20.168-3.638-38.755-12.486-54.17-25.777-20.169-17.388-51.461-3.37-51.716 23.12l-.002 52.409c-5.344-2.771-9.001-8.288-9.001-14.637 0-.122.001-41.614-.002-41.736-.401-18.133 2.184-63.698 34.754-95.094 36.389-35.078 93.326-35.091 137.597-19.66l-6.394 2.632c-7.635 3.141-6.039 14.47 2.193 15.352l14.062 1.506c27.064 2.898 50.998 17.011 66.332 38.941-10.064 12.229-15.542 27.451-15.542 43.488v54.57c0 4.418 3.582 8 8 8s8-3.582 8-8v-54.57c0-13.903 5.369-27.007 15.118-36.896 2.714-2.75 3.047-7.188 1.154-10.243-15.95-25.579-39.684-42.049-66.771-48.655 4.332-3.641 3.595-10.641-1.556-13.25-23.232-11.797-56.657-19.988-88.004-18.775-79.872 3.096-126.623 62.745-124.942 140.919v41.473c0 15.303 10.707 28.166 25.077 31.621 1.494 40.859 26.003 75.946 60.923 92.643v2.107c0 18.442-14.944 33.342-33.427 33.342-45.648 0-82.573 36.93-82.573 82.571v47.257c0 4.418 3.582 8 8 8s8-3.582 8-8v-47.257c0-36.795 29.775-66.571 66.573-66.571 4.221 0 8.414-.532 12.506-1.592 23.508 42.011 79.478 52.207 116.341 21.176 3.38-2.846 3.813-7.893.968-11.272-2.846-3.383-7.896-3.814-11.273-.97z"/></svg>