<svg id="Layer_1" enable-background="new 0 0 480 480" height="512" viewBox="0 0 480 480" width="512" xmlns="http://www.w3.org/2000/svg"><path d="m394 424.52v39.48c0 4.42-3.58 8-8 8h-292c-4.42 0-8-3.58-8-8v-39.48c0-41.24 33.74-73.95 74.98-74.35 13.64-.14 25.99-6.86 33.57-17.67 8.282-11.832 7.45-22.489 7.45-30.5l.15-.37c-35.9-14.86-61.15-50.23-61.15-91.5v-3.13c-14.255 0-25-11.265-25-24.54v-74.96c0-54.95 44.55-99.5 99.5-99.5h50c54.95 0 99.5 44.55 99.5 99.5v73.5c0 14.36-11.64 26-26 26v3.13c0 41.27-25.25 76.64-61.15 91.5l.15.37c0 7.783-.899 18.573 7.45 30.5l-.06.07c7.25 10.34 19.64 17.45 33.63 17.6 41.24.4 74.98 33.11 74.98 74.35z" fill="#ffd6a6"/><path d="m365 107.5v73.5c0 14.36-11.64 26-26 26 0-30.541.016-46.362.009-54.805-.005-5.387-5.217-9.219-10.364-7.628-15.336 4.742-34.298 7.62-54.645 3.432-35.41-7.28-45.01-21.29-73-28-31.7-7.6-60.45 16.68-60.25 47.74.06 10.21.23 22.97.25 39.26-14.255 0-25-11.265-25-24.54v-74.959c0-54.952 44.548-99.5 99.5-99.5h50c54.952 0 99.5 44.548 99.5 99.5z" fill="#42434d"/><path d="m328.645 144.567c5.147-1.591 10.359 2.235 10.364 7.623.008 8.733-.009 25.351-.009 57.94 0 41.27-25.25 76.64-61.15 91.5-64.917 26.947-136.85-20.924-136.85-91.5 0-18.251-.184-31.218-.25-42.39-.2-31.06 28.55-55.34 60.25-47.74 27.99 6.71 37.59 20.72 73 28 20.347 4.188 39.31 1.309 54.645-3.433z" fill="#ffdfba"/><path d="m394 424.52v39.48c0 4.42-3.58 8-8 8h-292c-4.42 0-8-3.58-8-8v-39.48c0-41.24 33.74-73.95 74.98-74.35 13.637-.145 25.995-6.858 33.57-17.67 27.048 30.057 32.094 35.663 39.5 43.9 3.18 3.53 8.72 3.53 11.9 0 7.578-8.428 12.77-14.196 39.439-43.832 7.248 10.345 19.645 17.454 33.631 17.602 41.24.4 74.98 33.11 74.98 74.35z" fill="#befa91"/><path d="m217.597 274.069c16.271 10.175 3.43 35.144-14.38 27.997-36.578-14.68-62.217-50.341-62.217-91.936 0-18.273-.184-31.174-.25-42.39-.063-10.041 2.896-19.372 8.002-27.146 6.418-9.771 21.913-5.513 21.998 7.146.066 11.254.25 24.098.25 42.39 0 36.498 19.188 66.798 46.597 83.939z" fill="#ffebd2"/><path d="m279.13 318.42c-24.637 10.313-51.712 11.113-78.26 0 1.356-5.626 1.13-9.27 1.13-16.42l.15-.37c24.082 9.996 51.571 10.016 75.7 0l.15.37c0 7.153-.226 10.796 1.13 16.42z" fill="#f7c388"/><path d="m297.88 370.25c39.58 1.8 71.12 34.47 71.12 74.49v27.26h17c4.418 0 8-3.582 8-8v-39.418c0-41.254-33.753-73.989-75.006-74.414-5.641-.058-11.02-1.242-15.914-3.338-.124.264-5.137 23.135-5.2 23.42z" fill="#99d856"/><path d="m303.08 346.83c-.124.264-9.994 45.164-9.931 44.878-1.302 5.907-8.778 7.809-12.745 3.242-26.257-30.236-22.675-26.293-25.334-28.691l30.319-33.692c4.4 6.281 10.561 11.203 17.691 14.263z" fill="#e8f8fc"/><path d="m194.55 332.5 29.66 32.96-24.603 29.155c-3.932 4.66-11.5 2.792-12.812-3.163-.063-.285-9.75-44.359-9.875-44.623 7.13-3.059 13.23-8.049 17.63-14.329z" fill="#e8f8fc"/><path d="m195.18 374.5c1.49 6.77 3.08 13.98 4.43 20.11-3.932 4.661-11.5 2.799-12.811-3.157-3.845-17.462-9.794-44.445-9.878-44.623 7.13-3.06 13.23-8.05 17.63-14.33l8.54 9.5c-7.341 9.14-10.451 20.99-7.911 32.5z" fill="#f1fafc"/><path d="m182.12 370.25c-39.58 1.8-71.12 34.47-71.12 74.49v27.26h-17c-4.418 0-8-3.582-8-8v-39.418c0-41.254 33.753-73.989 75.006-74.414 5.641-.058 11.02-1.242 15.914-3.338.124.264 5.137 23.135 5.2 23.42z" fill="#d0ffad"/><path d="m274.7 236.189c5.766 1.982 7.332 9.457 2.585 13.284-10.096 8.14-22.772 8.455-33.38 2.363-2.426-1.393-5.384-1.393-7.81 0-10.598 6.086-23.273 5.786-33.38-2.363-4.746-3.827-3.181-11.301 2.585-13.284 9.609-3.304 11.299-10.199 18.75-12.169 2.788-.74 6.934-.937 12.728 1.692 2.056.933 4.389.933 6.445 0 5.793-2.629 9.94-2.431 12.728-1.692 7.451 1.97 9.141 8.865 18.749 12.169z" fill="#42434d"/><path d="m302.973 15.297c12.188 4.959 8.15 23.053-5.005 22.733-2.018-.049-53.472-.03-52.468-.03-54.952 0-99.5 44.548-99.5 99.5 0 5.438.235 7.179-1.03 10.013-5.167 11.579-4.23 19.779-4.1 35.138.135 16.035-24.029 17.062-24.839 1.047-.049-.966-.031-77.161-.031-76.198 0-54.952 44.548-99.5 99.5-99.5h50c13.258 0 25.908 2.592 37.473 7.297z" fill="#4d4e59"/><path d="m319.427 342.172c-11.782 0-22.472-6-28.594-16.051-2.299-3.774-7.223-4.971-10.993-2.671-3.773 2.298-4.97 7.22-2.671 10.993 4.257 6.991 10.021 12.635 16.732 16.674l-8.291 37.627-19.989-23.017c3.626-4.169 2.758-9.041-.372-11.764-3.331-2.897-8.386-2.548-11.286.788l-14.066 16.176-35.432-39.369c3.015-5.789 4.842-12.143 5.365-18.765 68.573 20.184 137.17-31.57 137.17-102.663 0-67.85.083-66.77-.192-69.552-1.053-11.02-16.986-9.53-15.923 1.569.179 1.814.115 3.401.115 67.982 0 50.178-40.822 91-91 91s-91-40.822-91-91c0-18.022-.192-31.978-.255-42.443-.162-26.256 24.117-46.203 50.39-39.907 37.553 9.005 51.719 32.01 99.482 29.785 4.413-.207 7.823-3.952 7.616-8.366-.207-4.413-3.934-7.829-8.366-7.616-42.955 2.025-54.365-19.616-95.001-29.361-36.46-8.744-70.344 18.997-70.121 55.564.054 8.506.166 17.822.222 29.296-5.326-2.777-8.968-8.285-8.968-14.621v-74.96c0-50.453 41.047-91.5 91.5-91.5h50c50.453 0 91.5 41.047 91.5 91.5v74.96c0 4.418 3.582 8 8 8s8-3.582 8-8v-74.96c.001-59.275-48.224-107.5-107.499-107.5h-50c-59.275 0-107.5 48.225-107.5 107.5v74.96c0 15.305 10.708 28.167 25.081 31.621 1.491 40.861 25.999 75.947 60.919 92.644v2.105c0 8.913-3.476 17.287-9.787 23.581-11.192 11.161-25.298 9.761-23.642 9.761-45.637 0-82.571 36.93-82.571 82.571v47.257c0 4.418 3.582 8 8 8s8-3.582 8-8v-47.257c0-36.795 29.775-66.571 66.573-66.571 3.501 0 6.996-.372 10.452-1.111l11.163 50.661c1.414 6.418 9.556 8.472 13.853 3.523l28.786-33.147c9.011 10.012 9.255 10.34 9.925 10.939 2.776 2.413 6.844 2.606 9.818.521 1.013-.704.461-.151 10.45-11.639l28.941 33.326c4.305 4.96 12.442 2.881 13.853-3.523l11.163-50.662c3.389.72 6.883 1.112 10.451 1.112 36.795 0 66.573 29.773 66.573 66.571v47.257c0 4.418 3.582 8 8 8s8-3.582 8-8v-47.257c-.001-45.638-36.933-82.573-82.574-82.571zm-125.037 46.572-8.293-37.638c3.05-1.841 5.911-4.035 8.548-6.543l19.397 21.552zm91.764-159.251c-15.38 1.622-15.376-9.829-28.163-13.208-5.584-1.476-11.617-.766-17.991 2.104-6.375-2.872-12.408-3.579-17.99-2.104-12.81 3.385-12.78 14.837-28.164 13.208-6.158-.664-10.722 5.682-8.102 11.325.398.856 9.997 21.009 31.682 23.059 9.593.905 17.451-2.144 22.574-5.068 6.966 3.975 14.717 5.808 22.574 5.068 21.685-2.05 31.283-22.202 31.682-23.059 2.613-5.628-1.917-11.979-8.102-11.325zm-41.181 13.439c-2.913-2.312-7.033-2.311-9.945 0-7.566 6.004-18.113 7.306-26.773.699 16.033-5.741 13.534-17.547 27.741-9.329 2.477 1.434 5.533 1.434 8.01 0 14.175-8.194 11.766 3.609 27.741 9.329-8.589 6.551-19.145 5.358-26.774-.699z"/></svg>