<svg id="Layer_1" enable-background="new 0 0 480 480" height="512" viewBox="0 0 480 480" width="512" xmlns="http://www.w3.org/2000/svg"><path d="m394.12 424.22v39.66c0 4.41-3.58 8-8 8h-292c-4.41 0-8-3.59-8-8v-39.66c0-41.229 33.74-73.79 74.97-74.18 9.57-.08 18.37-3.41 25.34-8.93l.01.01c9.49-7.56 15.56-19.2 15.56-32.29v-6.83l.15-.37c-35.9-14.86-61.15-50.23-61.15-91.5v-3.13c-14.261 0-25-11.27-25-24.54v-78.46c0-53.02 42.98-96 96-96h57c53.02 0 96 42.98 96 96v77c0 14.36-11.64 26-26 26v3.13c0 41.27-25.25 76.64-61.15 91.5l.15.37c0 7.015-1.666 25.479 15.69 39.24h.01l.12-.13c6.97 5.52 15.77 8.85 25.34 8.93 41.23.39 74.96 32.95 74.96 74.18z" fill="#ffd6a6"/><path d="m394.125 424.225v39.65c0 4.42-3.58 8-8 8h-292c-4.42 0-8-3.58-8-8v-39.65c0-41.23 33.74-73.79 74.97-74.18 9.56-.09 18.36-3.42 25.33-8.93 8.033 8.033 20.737 18.755 24.37 40.52 18.029 8.228 42.106 7.762 58.58.51 3.469-21.956 16.201-32.781 24.45-41.03 6.97 5.51 15.77 8.84 25.33 8.93 41.23.39 74.97 32.95 74.97 74.18z" fill="#42434d"/><path d="m339 210.13c0 54.696-44.348 99-99 99-54.65 0-99-44.302-99-99 0-.591 0-29.545 0-29.085 0-3.528 2.322-6.615 5.693-7.657 9.52-2.942 15.462-7.4 19.307-11.388 19.24-19.93 6.41-49.24 28-66 13.359-10.349 28.613-10.404 41.431-1.631 2.764 1.892 6.375 1.892 9.139 0 12.79-8.755 28.044-8.739 41.43 1.631 21.59 16.76 8.76 46.07 28 66 3.853 3.988 9.79 8.446 19.308 11.388 3.37 1.042 5.692 4.129 5.692 7.656z" fill="#ffdfba"/><path d="m365 104v77c0 14.36-11.64 26-26 26v-25.955c0-3.528-2.322-6.615-5.692-7.656-9.518-2.942-15.454-7.4-19.308-11.388-19.24-19.93-6.41-49.24-28-66-13.352-10.344-28.607-10.409-41.431-1.631-2.764 1.892-6.375 1.892-9.139 0-12.79-8.756-28.044-8.74-41.43 1.63-21.59 16.76-8.76 46.07-28 66-3.845 3.988-9.787 8.446-19.307 11.388-3.37 1.042-5.693 4.129-5.693 7.657v25.955c-14.255 0-25-11.265-25-24.54v-78.46c0-53.019 42.981-96 96-96 1.574 0 58.448 0 57 0 53.019 0 96 42.981 96 96z" fill="#ffec8f"/><path d="m269.375 382.145c-1.037 6.428-.76 2.023-.76 89.73h-56.98c0-87.595.304-83.46-.84-90.24 18.124 8.268 42.199 7.714 58.58.51z" fill="#d6f4fc"/><path d="m224.635 471.875h-13c0-87.595.304-83.46-.84-90.24 4.25 1.94 8.84 3.4 13.57 4.39.382 4.009.27-1.191.27 85.85z" fill="#bdeffc"/><path d="m186.979 376.044c-41.172.276-74.854 32.751-74.854 73.924v21.907h-18c-4.418 0-8-3.582-8-8v-39.645c0-41.236 33.736-73.797 74.971-74.187 9.565-.09 18.356-3.415 25.329-8.928 4.146 4.146 8.147 7.884 11.771 12.347 7.035 8.661 1.899 22.494-11.217 22.582z" fill="#4d4e59"/><path d="m293.146 376.169c41.172.276 74.854 32.751 74.854 73.924v21.907h18c4.418 0 8-3.582 8-8v-39.645c0-41.236-33.737-73.797-74.971-74.187-9.565-.09-18.356-3.415-25.329-8.928-4.146 4.146-8.147 7.884-11.771 12.347-7.035 8.661-1.899 22.494 11.217 22.582z" fill="#2c2c33"/><path d="m279.13 318.42c-24.637 10.313-51.712 11.113-78.26 0 1.356-5.626 1.13-9.27 1.13-16.42l.15-.37c24.082 9.996 51.571 10.016 75.7 0l.15.37c0 7.153-.226 10.796 1.13 16.42z" fill="#f7c388"/><path d="m304.141 14.635c12.513 4.925 8.871 23.444-4.576 23.366-.46-.002-58.023-.001-57.565-.001-53.019 0-96 42.981-96 96v33.805c0 7.339-5 7.613-5 13.235v1.713c0 16.05-24.158 16.975-24.969.945-.049-.966-.031-80.661-.031-79.698 0-53.019 42.981-96 96-96h57c12.404 0 24.258 2.352 35.141 6.635z" fill="#fff2b3"/><path d="m216.54 275.246c15.912 9.447 3.897 33.722-13.28 26.837-37.017-14.837-62.26-50.773-62.26-91.953v-29.09c0-3.482 2.246-6.594 5.575-7.615 4.252-1.304 8.275-3.064 11.919-5.349 4.132-2.591 9.499.428 9.501 5.305.002 4.134.005 9.574.005 16.749 0 37.46 20.127 68.248 48.54 85.116z" fill="#ffebd2"/><path d="m209.83 312.787c-2.007 25.441-23.265 45.385-49.255 45.385-36.868 0-66.575 29.84-66.575 66.571v47.257c0 4.418-3.582 8-8 8s-8-3.582-8-8v-47.257c0-45.635 36.93-82.571 82.571-82.571 18.463 0 33.429-14.874 33.429-33.342v-2.107c-34.92-16.697-59.429-51.784-60.923-92.643-14.37-3.455-25.077-16.317-25.077-31.62v-78.46c0-57.346 46.654-104 104-104h57c57.346 0 104 46.654 104 104v78.46c0 4.418-3.582 8-8 8s-8-3.582-8-8v-78.46c0-48.523-39.477-88-88-88h-57c-48.523 0-88 39.477-88 88v78.46c0 6.348 3.656 11.865 9 14.636 0-23.874-.431-23.975 1.313-26.625.535-.816 1.28-1.601 2.15-2.201 3.104-2.144 14.457-2.166 23.781-11.825 16.721-17.326 4.211-47.638 28.851-66.764 15.694-12.187 34.809-12.929 50.905-1.867 15.648-10.754 34.75-10.671 50.905 1.866 30.95 24.027 3.391 67.534 49.753 77.353 4.323.915 7.085 5.16 6.17 9.483-.797 3.764-4.12 6.344-7.819 6.345-2.554 0-19.231-3.355-30.765-15.305-21.327-22.096-9.052-51.188-27.149-65.236-5.004-3.884-10.646-6.32-17.056-6.32-11.701.057-18.081 8.048-20.656 9.249-2.837 1.327-6.309.887-8.744-1.315-10.44-9.545-23.708-10.95-35.732-1.615-8.735 6.78-10.228 16.233-12.118 28.201-2.218 14.039-5.45 40.538-37.788 50.522v29.083c0 50.178 40.822 91 91 91s91-40.822 91-91c0-4.418 3.582-8 8-8s8 3.582 8 8c0 59-48 107-107 107-10.474 0-20.598-1.52-30.171-4.338zm109.597 29.385c-12.15 0-22.701-6.375-28.594-16.051-2.299-3.775-7.221-4.971-10.994-2.671-3.773 2.298-4.969 7.22-2.671 10.993 1.513 2.484 3.23 4.785 5.097 6.921-9.585 9.585-16.413 19.942-19.833 34.127-14.153 5.656-30.168 5.901-44.912-.008-1.166-4.795-2.819-9.471-4.968-13.899-1.929-3.974-6.714-5.631-10.69-3.704-3.975 1.93-5.633 6.716-3.703 10.69 3.504 7.22 5.356 15.277 5.356 23.303v80.127c0 4.418 3.582 8 8 8s8-3.582 8-8v-78.969c13.299 3.706 27.478 3.746 40.971-.014v78.983c0 4.418 3.582 8 8 8s8-3.582 8-8v-80.127c0-14.253 5.55-27.652 15.629-37.731l2.558-2.558c7.374 4.255 15.849 6.588 24.754 6.588 36.794 0 66.573 29.772 66.573 66.571v47.257c0 4.418 3.582 8 8 8s8-3.582 8-8v-47.257c0-45.638-36.932-82.573-82.573-82.571z"/></svg>