<svg id="Layer_1" enable-background="new 0 0 480.002 480.002" height="512" viewBox="0 0 480.002 480.002" width="512" xmlns="http://www.w3.org/2000/svg"><path d="m394.001 424.74v39.26c0 4.42-3.58 8-8 8h-292c-4.42 0-8-3.58-8-8v-39.26c0-24.512 11.922-46.391 30-59.79v-257.45c0-54.95 44.55-99.5 99.5-99.5h50c54.95 0 99.5 44.55 99.5 99.5v258.22c16.81 12.535 29 34.47 29 59.02z" fill="#ffd6a6"/><path d="m394.001 424.74v39.26c0 4.42-3.58 8-8 8h-292c-4.42 0-8-3.58-8-8v-39.26c0-41.324 33.515-74.57 74.57-74.57 6.02 0 11.74-1.28 16.9-3.59 0 .1-.749-.57 62.53 48.42 62.736-48.57 62.53-48.318 62.53-48.42 5.16 2.31 10.88 3.59 16.9 3.59 41.326 0 74.57 33.533 74.57 74.57z" fill="#42434d"/><path d="m339.001 210.13v-50.75c0-2.574-1.661-4.828-4.095-5.665-18.098-6.22-33.581-18.864-43.224-35.93-2.219-3.928-7.76-4.081-10.231-.306-10.214 15.606-24.04 28.038-40.262 36.704-4.05 2.163-8.871-.772-8.831-5.363.029-3.339-.343-6.672-1.11-9.928-1.14-4.837-7.253-6.26-10.446-2.452-17.669 21.073-44.892 31.751-72.885 27.251-3.632-.584-6.916 2.245-6.916 5.924v40.515c0 41.27 25.25 76.64 61.15 91.5l-.15.37v6.83c0 22.96-18.66 41.34-41.43 41.34-16.71 0-32.13 5.5-44.57 14.78v-257.45c0-54.952 44.548-99.5 99.5-99.5h50c54.952 0 99.5 44.548 99.5 99.5v258.22c-12.6-9.75-28.41-15.55-45.57-15.55-22.783 0-41.43-18.393-41.43-41.34v-6.83l-.15-.37c35.9-14.86 61.15-50.23 61.15-91.5z" fill="#42434d"/><path d="m334.906 153.715c2.435.837 4.095 3.091 4.095 5.665v50.75c0 41.27-25.25 76.64-61.15 91.5-64.917 26.947-136.85-20.924-136.85-91.5v-40.516c0-3.679 3.285-6.507 6.918-5.924 27.89 4.48 55.149-6.093 72.881-27.246 3.193-3.81 9.31-2.385 10.45 2.454.766 3.253 1.138 6.584 1.109 9.922-.041 4.591 4.782 7.526 8.831 5.363 16.224-8.667 30.05-21.1 40.262-36.704 2.471-3.775 8.012-3.621 10.231.306 9.644 17.071 25.13 29.712 43.223 35.93z" fill="#ffdfba"/><path d="m240.001 395c1.52.72 5.34 2.49 10.85 4.42l19.15 72.58h-60l19.15-72.58c5.51-1.93 9.33-3.7 10.85-4.42z" fill="#fe4f60"/><path d="m279.131 318.42c-24.637 10.313-51.712 11.113-78.26 0 1.356-5.626 1.13-9.27 1.13-16.42l.15-.37c24.082 9.996 51.571 10.016 75.7 0l.15.37c0 7.153-.226 10.796 1.13 16.42z" fill="#f7c388"/><path d="m302.974 15.297c12.188 4.959 8.15 23.053-5.005 22.733-2.017-.049-53.472-.03-52.468-.03-54.952 0-99.5 44.548-99.5 99.5v26.2c-2.8.46-5 2.9-5 5.91 0 42.66-1.24 52.816 5 71.67v110.31c-11.08 2.2-21.27 6.85-30 13.36v-257.45c0-54.952 44.548-99.5 99.5-99.5h50c13.258 0 25.908 2.592 37.473 7.297z" fill="#4d4e59"/><path d="m217.598 274.069c16.271 10.175 3.43 35.144-14.38 27.997-36.629-14.7-62.216-50.393-62.216-91.935v-40.52c0-3.68 3.28-6.5 6.92-5.92 2.735.438 5.462.732 8.175.886 8.366.476 14.906 7.391 14.906 15.77v9.784c-.002 36.497 19.186 66.797 46.595 83.938z" fill="#ffebd2"/><path d="m204.721 367.69c-4.41 1.61-9.18 2.48-14.15 2.48-41.074 0-74.57 33.276-74.57 74.57v27.26h-22c-4.42 0-8-3.58-8-8v-39.26c0-41.223 33.446-74.57 74.57-74.57 6.02 0 11.74-1.28 16.9-3.59 0 .1-.238-.174 27.25 21.11z" fill="#4d4e59"/><path d="m240.001 395c-41.749 19.776-95.311 16.195-126.62-28 13.887-11.303 30.46-16.83 47.19-16.83 6.02 0 11.74-1.28 16.9-3.59 0 .1-.749-.57 62.53 48.42z" fill="#d6f4fc"/><path d="m183.93 351.591c7.555 5.85 4.565 18.027-4.877 19.495-15.862 2.466-29.912 9.781-40.661 20.394-11.93-7.91-19.97-17.36-25.01-24.48 13.822-11.254 30.384-16.83 47.19-16.83 6.02 0 11.74-1.28 16.9-3.59v.01z" fill="#e8f8fc"/><path d="m275.281 367.69c4.41 1.61 9.18 2.48 14.15 2.48 41.074 0 74.57 33.276 74.57 74.57v27.26h22c4.42 0 8-3.58 8-8v-39.26c0-41.223-33.446-74.57-74.57-74.57-6.02 0-11.74-1.28-16.9-3.59 0 .1.238-.174-27.25 21.11z" fill="#2c2c33"/><path d="m366.621 367c-31.15 43.971-84.569 47.919-126.62 28 62.736-48.57 62.53-48.318 62.53-48.42 5.16 2.31 10.88 3.59 16.9 3.59 18.134 0 34.857 6.591 47.19 16.83z" fill="#d6f4fc"/><path d="m296.072 351.591c-7.555 5.85-4.565 18.027 4.877 19.495 15.862 2.466 29.912 9.781 40.661 20.394 11.93-7.91 19.97-17.36 25.01-24.48-13.822-11.254-30.384-16.83-47.19-16.83-6.02 0-11.74-1.28-16.9-3.59v.01z" fill="#bdeffc"/><path d="m240.001 395-10 77h-20l19.15-72.58c5.51-1.93 9.33-3.7 10.85-4.42z" fill="#ff6d7a"/><path d="m402.001 424.743v47.257c0 4.418-3.582 8-8 8s-8-3.582-8-8v-47.257c0-36.795-29.775-66.571-66.573-66.571-17.411 0-33.209-8.87-42.258-23.729-2.299-3.773-1.103-8.695 2.671-10.993 3.771-2.3 8.694-1.104 10.993 2.671 6.122 10.051 16.812 16.051 28.594 16.051 45.635-.002 82.573 36.93 82.573 82.571zm-54.057-37.388c2.418 3.697 1.381 8.655-2.317 11.073-24.949 16.32-54.31 19.26-83.472 12.483l15.582 59.047c1.127 4.271-1.422 8.648-5.694 9.776-4.255 1.125-8.645-1.408-9.776-5.694l-18.105-68.61c-1.575-.601-2.966-1.166-4.159-1.673-1.193.506-2.584 1.072-4.159 1.672l-18.105 68.61c-.947 3.588-4.186 5.961-7.73 5.961-5.258 0-9.077-4.98-7.741-10.043l15.583-59.049c-44.176 10.265-81.243-3.313-105.481-32.051-11.846 12.43-18.366 28.651-18.366 45.884v47.259c0 4.418-3.582 8-8 8s-8-3.582-8-8v-47.257c0-24.761 10.845-47.803 30-63.674v-253.569c0-59.275 48.224-107.5 107.5-107.5h50c59.275 0 107.5 48.225 107.5 107.5v216.5c0 4.418-3.582 8-8 8s-8-3.582-8-8v-216.5c0-50.453-41.047-91.5-91.5-91.5h-50c-50.453 0-91.5 41.047-91.5 91.5v243.19c11.233-5.56 23.672-8.519 36.571-8.519 18.464 0 33.429-14.877 33.429-33.342v-2.11c-36.042-17.233-61-54.053-61-96.595v-23.124c0-4.418 3.582-8 8-8s8 3.582 8 8v23.125c0 50.178 40.822 91 91 91s91-40.822 91-91v-49.316c-18.141-6.575-33.978-19.009-44.636-36.313-12.427 17.906-30.001 32.658-52.303 41.896-6.093 2.525-12.472-3.027-10.801-9.414 1.076-4.117 1.364-8.339.855-12.557-17.468 18.843-39.475 27.816-59.368 27.816-4.334 0-7.896-3.464-7.995-7.819-.1-4.417 3.4-8.079 7.817-8.179 23.352-.529 42.585-13.398 55.828-32.756 3.344-4.889 10.674-4.563 13.575.596 3.716 6.607 5.855 13.898 6.302 21.479 16.666-9.559 30.45-23.635 39.63-41.254 3.144-6.035 12-5.632 14.53.745 8.383 21.116 25.991 36.357 46.751 42.256 3.052.84 5.517 3.619 5.782 7.08.051.654.039 56.167.028 56.579-.547 70.613-68.806 121.947-137.167 101.825-1.048 13.275-7.378 25.738-18.338 34.541l48.508 37.555 28.529-22.088c3.494-2.705 8.518-2.064 11.224 1.429 2.704 3.494 2.064 8.519-1.429 11.224l-22.26 17.233c27.484 8.861 56.669 8.135 80.805-7.643 3.7-2.422 8.655-1.382 11.073 2.315zm-124.009 5.325-47.798-37.005c-8.677 2.862-16.328 2.497-15.563 2.497-12.917 0-25.264 3.67-35.878 10.49 25.11 29.658 62.25 35.941 99.239 24.018z"/></svg>