<svg id="Layer_1" enable-background="new 0 0 480.336 480.336" height="512" viewBox="0 0 480.336 480.336" width="512" xmlns="http://www.w3.org/2000/svg"><path d="m394.168 424.74v39.26c0 4.42-3.58 8-8 8h-292c-4.42 0-8-3.58-8-8v-39.26c0-41.173 33.385-74.57 74.57-74.57 22.892 0 41.43-18.498 41.43-41.34v-6.83l.15-.37c-5.86-2.42-11.43-5.39-16.65-8.85-16.99-1.85-33.89-4.59-50.56-8.23-11.05-2.41-18.94-12.16-18.94-23.47v-129.08c0-68.479 55.519-124 124-124 68.48 0 124 55.52 124 124 0-.65 0 85.29 0 129.08.01 11.3-7.88 21.06-18.93 23.47-25.828 5.617-49.55 8.21-50.55 8.21-5.23 3.47-10.81 6.45-16.67 8.87l.15.37v6.83c0 22.794 18.495 41.34 41.43 41.34 41.173 0 74.57 33.385 74.57 74.57z" fill="#ffd6a6"/><path d="m294.698 292.76s0 .01-.01 0c-65.499 43.457-153.52-3.877-153.52-82.63v-56.052c0-5.112 4.721-8.913 9.713-7.812 34.058 7.515 68.976 10.702 103.728 9.48 2.368-.083 4.477-1.542 5.364-3.738 2.525-6.253 5.02-12.594 7.408-18.874 1.66-4.367 7.898-5.75 11.007-.563 3.305 5.521 5.225 10.872 6.359 15.373.775 3.076 3.758 5.056 6.882 4.501 12.713-2.259 25.427-4.515 38.14-6.774 4.901-.871 9.399 2.898 9.399 7.876v56.584c0 34.519-17.67 64.919-44.47 82.629z" fill="#ffdfba"/><path d="m185.668 292.78c-16.99-1.85-33.89-4.59-50.56-8.23-11.05-2.41-18.94-12.16-18.94-23.47v-129.08c0-68.478 55.518-124 124-124 68.48 0 124 55.52 124 124 0-.65 0 85.29 0 129.08.01 11.3-7.88 21.06-18.93 23.47-16.51 3.59-33.4 6.34-50.54 8.21 26.8-17.71 44.47-48.11 44.47-82.63v-56.584c0-4.978-4.498-8.747-9.399-7.876-12.713 2.259-25.427 4.514-38.14 6.774-3.123.555-6.107-1.425-6.882-4.501-1.377-5.466-3.579-10.847-6.654-15.86-2.601-4.241-8.944-3.6-10.712 1.05-2.391 6.288-4.887 12.632-7.408 18.874-.887 2.197-2.996 3.655-5.364 3.738-34.713 1.221-69.632-1.956-103.728-9.48-4.992-1.101-9.713 2.7-9.713 7.812v56.052c0 34.531 17.68 64.941 44.5 82.651z" fill="#42434d"/><path d="m394.168 424.74v39.26c0 4.418-3.582 8-8 8h-292c-4.418 0-8-3.582-8-8v-39.26c0-41.173 33.385-74.57 74.57-74.57 12 0 22.81-5.08 30.37-13.22l.06.05c12.85 24.954 29.105 48.626 48.71 70.19 24.66-26.07 40.04-51.85 49.29-70.19l.06-.05c7.56 8.14 18.37 13.22 30.37 13.22 41.173 0 74.57 33.385 74.57 74.57z" fill="#ffa4b8"/><path d="m279.298 318.42c-24.637 10.313-51.712 11.113-78.26 0 1.356-5.626 1.13-9.27 1.13-16.42l.15-.37c24.082 9.996 51.571 10.016 75.7 0l.15.37c0 7.153-.226 10.796 1.13 16.42z" fill="#f7c388"/><path d="m141.168 154.08v56.05c0 21.056 6.616 40.878 18.189 57.204 6.564 9.26-1.469 21.744-12.616 19.606-3.957-.759-7.84-1.558-11.634-2.39-11.05-2.41-18.94-12.16-18.94-23.47v-129.08c0-65.256 50.536-119.21 115.38-123.709 14.839-1.029 18.677 20.376 4.396 24.536-46.859 13.649-84.696 54.466-89.303 108.29-.65 7.599-5.472 7.046-5.472 12.963z" fill="#4d4e59"/><path d="m208.238 366.31c-9.376 4.371-16.708 3.755-20.95 3.94-39.58 1.8-71.12 34.47-71.12 74.49v27.26h-22c-4.42 0-8-3.58-8-8v-39.26c0-41.173 33.385-74.57 74.57-74.57 12 0 22.81-5.08 30.37-13.22.379.314 5.909 12.214 17.13 29.36z" fill="#ffb1bf"/><path d="m191.168 337c12.817 24.891 29.057 48.571 48.71 70.19-7.982 8.474-16.993 16.922-26.13 24.48-22.018-23.216-41.376-50.524-56.46-81.42 4.531-.199 20.506 1.035 33.82-13.3z" fill="#d6f4fc"/><path d="m183.789 370.493c-3.895.328-8.402 1.018-14.131 2.708-4.77-8.05-8.86-15.75-12.37-22.95 4.532-.198 20.506 1.035 33.82-13.3.23.191.973 2.061 5.272 9.763 5.674 10.166-.989 22.802-12.591 23.779z" fill="#e8f8fc"/><path d="m272.193 366.354c9.376 4.371 16.613 3.71 20.855 3.896 39.58 1.8 71.12 34.47 71.12 74.49v27.26h22c4.42 0 8-3.58 8-8v-39.26c0-41.173-33.384-74.57-74.57-74.57-12 0-22.81-5.08-30.37-13.22-.411.341-6.316 13.025-17.035 29.404z" fill="#ff99af"/><path d="m289.228 336.95c7.56 8.14 18.37 13.22 30.37 13.22 1.16 0 2.31.03 3.45.08-23.692 48.6-59.05 90.4-102.91 121.75h-69.97c58.108-27.207 108.075-73.684 139-135z" fill="#d6f4fc"/><path d="m239.878 407.19c-7.983 8.476-16.992 16.921-26.13 24.48-2.78-2.93-5.62-6.04-8.5-9.31 10.132-8.393 20.89-18.782 26.28-24.74 2.8 3.35 5.59 6.54 8.35 9.57z" fill="#bdeffc"/><path d="m296.547 370.493c3.895.328 8.402 1.018 14.131 2.708 4.77-8.05 8.86-15.75 12.37-22.95-4.532-.198-20.506 1.035-33.82-13.3-.23.191-.973 2.061-5.272 9.763-5.674 10.166.989 22.802 12.591 23.779z" fill="#bdeffc"/><path d="m216.54 273.351c16.346 10.583 3.13 35.614-14.812 28.045-35.533-14.991-60.56-50.18-60.56-91.266v-56.05c0-5.11 4.72-8.92 9.71-7.81 2.431.537 4.924 1.064 7.48 1.579 7.441 1.498 12.81 8.018 12.81 15.608v26.673c0 33.728 17.009 64.857 45.372 83.221z" fill="#ffebd2"/><path d="m402.168 424.743v47.257c0 4.418-3.582 8-8 8s-8-3.582-8-8v-47.257c0-34.445-25.896-62.097-58.392-66.057-24.359 47.944-59.816 89.073-103.466 120.164-3.605 2.567-8.596 1.72-11.157-1.874-2.563-3.599-1.725-8.594 1.874-11.157 38.329-27.303 71.572-63.882 95.422-108.492-6.827-1.261-13.22-3.931-18.845-7.795-30.939 56.639-79.119 102.127-138.045 129.713-4.001 1.874-8.764.148-10.637-3.854-1.874-4.001-.148-8.764 3.854-10.637 56.938-26.657 103.573-71.108 132.907-126.833-.82-1.125-1.613-2.274-2.347-3.479-2.299-3.773-1.103-8.695 2.671-10.993 3.771-2.3 8.694-1.104 10.993 2.671 6.122 10.051 16.812 16.051 28.594 16.051 45.64.001 82.574 36.931 82.574 82.572zm-269.336-132.598 4.758 1.12c4.282 1.011 8.604-1.638 9.62-5.954 1.013-4.301-1.653-8.607-5.954-9.62l-4.756-1.12c-7.261-1.711-12.332-8.115-12.332-15.574v-128.997c0-63.963 52.038-116 116.001-116 63.962.001 115.999 52.038 115.999 116 0 17.928-.003 74.511.004 129.087.001 7.456-5.265 14.025-12.52 15.62-1.442.316-2.902.631-4.382.94-4.324.907-7.094 5.148-6.188 9.473.907 4.324 5.147 7.087 9.473 6.188 1.528-.321 3.039-.646 4.53-.974 14.537-3.194 25.087-16.337 25.086-31.249-.007-43.598-.004-130.508-.004-129.085 0-72.784-59.215-131.999-132-132-72.785 0-132 59.215-132 132v128.996c.001 14.918 10.143 27.727 24.665 31.149zm43.461 106.185c1.555 2.23 4.041 3.425 6.568 3.425 6.409 0 10.265-7.257 6.555-12.577-7.106-10.189-13.646-20.866-19.526-31.854 6.773-1.258 13.164-3.911 18.835-7.814 7.235 13.232 15.463 25.981 24.567 37.989 1.574 2.075 3.963 3.166 6.381 3.166 6.551 0 10.377-7.545 6.369-12.834-9.519-12.554-18.034-25.957-25.377-39.895 5.395-7.344 8.61-15.992 9.333-25.149 68.295 20.107 136.619-31.147 137.167-101.824.005-.179.003-27.784.003-27.963 0-4.418-3.582-8-8-8s-8 3.582-8 8v27.125c0 50.178-40.822 91-91 91s-91-40.822-91-91v-56.045c34.8 7.676 71.679 11.188 109.699 9.506 3.117-.138 5.869-2.075 7.051-4.963 2.672-6.531 5.287-13.135 7.408-18.65 2.279 4.575 3.83 9.505 4.622 14.704.674 4.418 4.852 7.455 9.309 6.672l53.311-9.472c4.351-.773 7.25-4.926 6.478-9.276-.773-4.35-4.926-7.249-9.276-6.478l-45.728 8.125c-2.809-10.018-7.939-19.132-15.03-26.713-4.082-4.362-11.305-2.863-13.352 2.705-3.408 9.27-6.935 18.425-10.613 27.556-37.141 1.174-74.165-2.755-109.967-11.564-5.03-1.241-9.911 2.574-9.911 7.769v67.353c0 38.614 22.899 77.153 61 95.371v2.107c0 18.444-14.945 33.342-33.427 33.342-45.508 0-82.573 36.816-82.573 82.571v47.255c0 4.418 3.582 8 8 8s8-3.582 8-8v-47.257c0-34.438 25.887-62.097 58.393-66.057 6.975 13.724 14.939 27.04 23.731 39.644z"/></svg>