<svg id="Layer_1" enable-background="new 0 0 480.459 480.459" height="512" viewBox="0 0 480.459 480.459" width="512" xmlns="http://www.w3.org/2000/svg"><path d="m394.076 425.197v39.26c0 4.42-3.58 8-8 8h-292c-4.42 0-8-3.58-8-8v-39.26c0-41.144 33.351-74.57 74.57-74.57 22.8 0 41.43-18.421 41.43-41.34v-6.83l.15-.37c-5.19-2.14-10.15-4.72-14.85-7.69-.297.304-26.548 2.095-64.44 11.75-11.14 2.83-22.74-2.71-27.6-13.13-39.49-84.62-21.64-207.99 54.74-259.56 50.39-34.02 129.75-33.93 180 0 61.46 41.5 70.6 111.75 73.77 137.6 6.45 52.59-7.66 95.89-19.46 121.82-4.803 10.552-16.572 16.234-28.02 13.19-62.827-11.529-63.492-11.569-63.59-11.67-4.7 2.97-9.66 5.55-14.85 7.69l.15.37v6.83c0 22.902 18.611 41.34 41.43 41.34 41.078 0 74.57 33.301 74.57 74.57z" fill="#ffd6a6"/><path d="m394.076 425.197v39.26c0 4.42-3.58 8-8 8h-292c-4.42 0-8-3.58-8-8v-39.26c0-41.137 33.344-74.57 74.57-74.57 9.15 0 17.61-2.96 24.47-7.98l1.8 11.65 48.26 37.37c2.89 2.23 6.91 2.23 9.8 0l48.26-37.37 1.8-11.65c6.86 5.02 15.32 7.98 24.47 7.98 41.083 0 74.57 33.307 74.57 74.57z" fill="#d6f4fc"/><path d="m329.677 146.128c4.901-.871 9.399 2.898 9.399 7.876v56.584c0 35.3-18.48 66.29-46.29 83.81 0 .01 0 .01-.01 0-32.126 20.301-73.398 20.223-105.4 0-.01.01-.01.01-.01 0-27.81-17.52-46.29-48.51-46.29-83.81v-56.052c0-5.112 4.721-8.913 9.713-7.812 34.056 7.515 68.973 10.702 103.726 9.48 2.369-.083 4.48-1.543 5.367-3.741 2.525-6.252 5.019-12.591 7.407-18.871 1.769-4.651 8.112-5.292 10.713-1.05 2.903 4.733 5.195 10.07 6.653 15.858.775 3.076 3.759 5.056 6.882 4.501 12.713-2.259 25.426-4.515 38.14-6.773z" fill="#ffdfba"/><path d="m339.076 210.587v-56.584c0-4.978-4.498-8.747-9.399-7.876-12.713 2.259-25.427 4.514-38.14 6.773-3.124.555-6.107-1.425-6.882-4.501-1.134-4.501-3.054-9.852-6.359-15.373-3.12-5.205-9.358-3.774-11.008.565-2.391 6.286-4.886 12.627-7.407 18.871-.888 2.198-2.998 3.657-5.367 3.741-34.712 1.221-69.629-1.956-103.726-9.48-4.992-1.101-9.713 2.7-9.713 7.812v56.052c0 35.3 18.48 66.29 46.29 83.81-24.1 2.69-45.71 6.98-64.43 11.75-11.14 2.83-22.74-2.71-27.6-13.13-39.49-84.62-21.64-207.99 54.74-259.56 50.39-34.02 129.75-33.93 180 0 61.46 41.5 70.6 111.75 73.77 137.6 6.45 52.59-7.66 95.89-19.46 121.82-4.803 10.552-16.57 16.232-28.02 13.19-21.2-3.89-42.38-7.78-63.58-11.67 27.811-17.52 46.291-48.51 46.291-83.81z" fill="#42434d"/><path d="m279.206 318.877c-24.637 10.313-51.712 11.113-78.26 0 1.356-5.626 1.13-9.27 1.13-16.42l.15-.37c24.082 9.996 51.571 10.016 75.7 0l.15.37c0 7.153-.226 10.796 1.13 16.42z" fill="#f7c388"/><path d="m293.236 354.297-18.2 118.16h-69.92l-18.2-118.16 48.262 37.368c2.883 2.233 6.912 2.233 9.795 0z" fill="#fe4f60"/><path d="m190.816 379.607c-46.89 1.204-75.74 36.509-75.74 74.59v18.26h-21c-4.418 0-8-3.582-8-8v-39.26c0-41.137 33.344-74.57 74.57-74.57 9.15 0 17.61-2.96 24.47-7.98 2.274 14.72 1.078 6.966 5.7 36.96z" fill="#e8f8fc"/><path d="m289.336 379.607c46.89 1.204 75.74 36.509 75.74 74.59v18.26h21c4.418 0 8-3.582 8-8v-39.26c0-41.137-33.344-74.57-74.57-74.57-9.15 0-17.61-2.96-24.47-7.98-2.275 14.72-1.078 6.966-5.7 36.96z" fill="#bdeffc"/><path d="m225.116 472.457h-20l-18.2-118.16 22.71 17.58z" fill="#e84857"/><path d="m216.448 273.808c16.346 10.583 3.13 35.614-14.812 28.045-35.533-14.991-60.56-50.18-60.56-91.266v-56.05c0-5.11 4.72-8.92 9.71-7.81 2.431.537 4.924 1.064 7.48 1.579 7.441 1.498 12.81 8.018 12.81 15.608v26.673c0 33.728 17.009 64.857 45.372 83.221z" fill="#ffebd2"/><path d="m252.719 8.281c18.727 1.306 19.014 28.731.323 30.474-128.788 12.01-165.85 150.072-140.555 248.159 2.737 10.614-12.331 16.426-17.151 6.103-52.177-111.807-5.616-296.103 157.383-284.736z" fill="#4d4e59"/><path d="m402.076 425.2v47.257c0 4.418-3.582 8-8 8s-8-3.582-8-8v-47.257c0-36.795-29.775-66.571-66.573-66.571-6.406 0-12.589-1.21-18.302-3.467l-18.26 118.513c-.608 3.954-4.016 6.783-7.896 6.783-4.909 0-8.663-4.37-7.916-9.219l19.3-125.266c-3.518-3.176-6.628-6.876-9.184-11.073-2.299-3.773-1.103-8.695 2.671-10.993 3.771-2.3 8.694-1.104 10.993 2.671 6.071 9.966 16.771 16.051 28.594 16.051 45.638-.002 82.573 36.93 82.573 82.571zm-132.14-52.86c-2.706-3.493-7.73-4.135-11.224-1.429l-18.637 14.429-45.744-35.415-.61-3.962c9.514-8.576 15.193-20.149 16.185-32.719 68.295 20.107 136.619-31.147 137.167-101.824.005-.179.003-27.784.003-27.963 0-4.418-3.582-8-8-8s-8 3.582-8 8v27.125c0 50.178-40.822 91-91 91s-91-40.822-91-91v-56.045c34.8 7.676 71.679 11.188 109.699 9.506 3.117-.138 5.869-2.075 7.051-4.963 2.672-6.531 5.287-13.135 7.408-18.65 6.047 12.139 2.878 16.424 7.871 20.001 1.753 1.257 3.938 1.748 6.06 1.375l53.311-9.472c4.351-.773 7.25-4.926 6.478-9.276-.774-4.35-4.92-7.249-9.276-6.478l-45.728 8.125c-2.809-10.018-7.939-19.132-15.03-26.713-4.082-4.362-11.305-2.863-13.352 2.705-3.408 9.27-6.935 18.425-10.613 27.556-37.141 1.174-74.165-2.755-109.967-11.564-5.029-1.24-9.911 2.572-9.911 7.769v67.353c0 27.516 11.879 56.395 34.276 77.183-15.605 2.382-31.141 5.518-46.386 9.397-7.4 1.887-15.134-1.798-18.38-8.754-35.992-77.136-23.502-198.593 51.966-249.549 47.96-32.382 123.093-32.381 171.047-.001 59.007 39.844 67.511 109.167 70.306 131.946 6.085 49.608-6.865 91.294-18.8 117.529-3.235 7.113-11.085 10.811-18.671 8.78l-6.278-1.679c-4.275-1.139-8.652 1.396-9.794 5.665-1.14 4.27 1.396 8.653 5.665 9.794l6.274 1.677c15.181 4.056 30.887-3.368 37.368-17.612 12.785-28.105 26.654-72.798 20.116-126.102-3.014-24.569-12.186-99.338-77.233-143.259-52.975-35.77-135.973-35.77-188.953 0-80.439 54.312-98.243 182.283-57.513 269.575 6.493 13.913 21.978 21.265 36.825 17.494 19.906-5.065 40.322-8.831 60.725-11.231 2.738 1.625 5.552 3.135 8.439 4.516v2.107c0 8.913-3.476 17.287-9.787 23.581-11.06 11.028-25.196 9.761-23.642 9.761-45.637 0-82.571 36.93-82.571 82.571v47.257c0 4.418 3.582 8 8 8s8-3.582 8-8v-47.257c0-36.795 29.775-66.571 66.573-66.571 6.37 0 12.551-1.204 18.299-3.487l18.263 118.533c.68 4.421 4.823 7.361 9.124 6.688 4.367-.673 7.361-4.758 6.688-9.124l-15.151-98.339 37.307 28.883c2.883 2.231 6.91 2.232 9.795 0l23.534-18.22c3.493-2.705 4.132-7.729 1.428-11.223z"/></svg>