<svg id="Layer_1" enable-background="new 0 0 480 480" height="512" viewBox="0 0 480 480" width="512" xmlns="http://www.w3.org/2000/svg"><path d="m411 95v147.18c0 5.011-4.57 8.87-9.47 7.87-21.43-4.38-37.53-23.33-37.53-46.05v80.33c0 7-8.36 10.64-13.46 5.86-10.91-10.21-18.2-23.801-20.49-38.891-10.38 22.681-29.08 40.76-52.2 50.33l.15.371v6.83c0 22.87 18.56 41.34 41.43 41.34 41.311 0 74.57 33.542 74.57 74.57v39.26c0 4.42-3.58 8-8 8h-292c-4.42 0-8-3.58-8-8v-39.26c0-41.181 33.39-74.57 74.57-74.57 22.93 0 41.43-18.524 41.43-41.34v-6.83l.15-.37c-23.12-9.57-41.82-27.649-52.2-50.33-2.29 15.09-9.58 28.681-20.48 38.891-5.11 4.779-13.47 1.14-13.47-5.86v-80.331c0 22.88-16.33 41.92-37.96 46.13-4.69.91-9.04-2.729-9.04-7.5v-147.63c0-39.76 32.24-72 72-72l20.57.87c15.54-10.04 34.05-15.87 53.93-15.87h49c19.88 0 38.39 5.83 53.93 15.87l20.57-.87c39.76 0 72 32.24 72 72z" fill="#ffd6a6"/><path d="m202.15 301.63c-36.142-14.96-61.15-50.515-61.15-91.5v-39.314c0-4.691 4.201-8.32 8.826-7.534 27.491 4.671 53.65-6.103 71.022-26.85 3.13-3.738 9.263-2.336 10.387 2.408.769 3.244 1.157 6.627 1.121 10.047-.048 4.554 4.84 7.435 8.857 5.287 15.968-8.537 29.885-20.866 40.269-36.745 2.443-3.736 8.002-3.54 10.199.345 9.549 16.885 24.641 29.295 42.304 35.618 3.019 1.081 5.015 3.96 5.015 7.167v49.572c0 70.674-72.041 118.401-136.85 91.499z" fill="#ffdfba"/><path d="m279.13 318.42c-24.637 10.313-51.712 11.113-78.26 0 1.356-5.626 1.13-9.27 1.13-16.42l.15-.37c24.082 9.996 51.571 10.016 75.7 0l.15.37c0 7.153-.226 10.796 1.13 16.42z" fill="#f7c388"/><path d="m339 23-20.57.87c-15.54-10.04-34.05-15.87-53.93-15.87h-49c-19.88 0-38.39 5.83-53.93 15.87l-20.57-.87c-39.764 0-72 32.235-72 72v147.628c0 4.776 4.347 8.417 9.035 7.505 21.637-4.21 37.965-23.254 37.965-46.133v80.334c0 6.995 8.358 10.634 13.465 5.854 10.908-10.208 18.197-23.801 20.485-38.889-5.75-12.54-8.95-26.479-8.95-41.17v-39.319c0-4.682 4.186-8.319 8.802-7.539 28.073 4.747 54.36-6.657 71.032-26.745 3.168-3.817 9.329-2.313 10.449 2.521.74 3.192 1.1 6.459 1.075 9.731-.036 4.552 4.735 7.595 8.753 5.454 16.457-8.77 30.218-21.313 40.307-36.705 2.487-3.795 8.054-3.646 10.289.303 9.478 16.749 24.584 29.233 42.264 35.558 3.023 1.081 5.03 3.955 5.03 7.165v49.577c0 14.69-3.2 28.63-8.95 41.17 2.288 15.089 9.577 28.682 20.485 38.889 5.107 4.779 13.465 1.141 13.465-5.854v-80.335c0 22.717 16.102 41.666 37.528 46.046 4.907 1.003 9.472-2.855 9.472-7.863v-147.183c-.001-39.765-32.236-72-72.001-72z" fill="#ffa4b8"/><path d="m394 424.74v39.26c0 4.418-3.582 8-8 8h-292c-4.418 0-8-3.582-8-8v-39.26c0-41.18 33.39-74.57 74.57-74.57 2.5 0 4.96-.22 7.34-.64l.09.47c58.565 52.55 140.26 63.197 210.72 29.52 9.59 12.55 15.28 28.22 15.28 45.22z" fill="#fe4f60"/><path d="m294.92 28h-49.42c-54.96 0-99.5 44.56-99.5 99.5v32.1c0 5.705-5 5.379-5 11.21 0 40.53-1.84 55.801 8.07 78.521.61 1.4.74 2.96.45 4.46-2.65 13.94-9.63 26.64-20.05 36.4-5.11 4.779-13.47 1.14-13.47-5.86v-176.831c0-29.05 12.45-55.2 32.31-73.39-33.71 6-59.31 35.46-59.31 70.89v131.7c0 5.772-3.49 11.605-10.96 13.43-4.69.92-9.04-2.729-9.04-7.5v-147.63c0-39.76 32.24-72 72-72l20.57.87c15.54-10.04 34.05-15.87 53.93-15.87 51.827 0 61.94-1.449 82.03 5.62 7.89 2.77 5.75 14.42-2.61 14.38z" fill="#ffb1bf"/><path d="m407.218 234.918c7.603 5.576 2.676 16.839-5.688 15.132-21.43-4.38-37.53-23.33-37.53-46.05v-96.5c0-35.07-18.15-65.91-45.57-83.63 28.999-1.227 52.991 15.823 62.556 39.862 4.526 11.375 7.014 23.781 7.014 36.768v96.5c0 15.565 7.559 29.368 19.218 37.918z" fill="#ff99af"/><path d="m178.738 358.965c5.318 4.123 3.445 12.516-3.093 14.107-41.443 10.082-59.645 39.169-59.645 71.668v27.26h-22c-4.418 0-8-3.582-8-8v-39.26c0-41.18 33.39-74.57 74.57-74.57 2.5 0 4.96-.22 7.34-.64l.09.47c2.913 2.617 6.495 5.675 10.738 8.965z" fill="#ff6d7a"/><path d="m394 424.74v39.26c0 4.42-3.58 8-8 8h-22v-27.26c0-19.82-6.77-38.38-21.46-52.12 16.98-4.36 29.59-9.95 36.18-13.1 9.59 12.55 15.28 28.22 15.28 45.22z" fill="#e84857"/><path d="m217.597 274.069c16.271 10.175 3.43 35.144-14.38 27.997-36.629-14.701-62.217-50.394-62.217-91.936v-40.52c0-3.68 3.28-6.5 6.92-5.92 2.735.438 5.462.732 8.175.886 8.366.476 14.906 7.391 14.906 15.77v9.784c-.001 36.498 19.187 66.798 46.596 83.939z" fill="#ffebd2"/><path d="m378.461 25.396c-3.841-2.184-8.725-.837-10.907 3.005s-.837 8.725 3.005 10.907c20.01 11.366 32.441 32.707 32.441 55.692v147.175c-17.681-3.699-31-19.411-31-38.175 0-14.417 0-86.059 0-96.5 0-59.275-48.224-107.5-107.5-107.5h-49c-19.966 0-38.674 5.478-54.712 15h-19.788c-44.112 0-80 35.888-80 80v156c0 4.418 3.582 8 8 8 6.288 0 12.458-1.055 18.34-3.135 4.166-1.473 6.348-6.043 4.875-10.209s-6.043-6.351-10.209-4.875c-1.638.579-3.31 1.046-5.006 1.399v-147.18c0-34.965 28.188-63.453 63.031-63.976-19.762 19.505-32.031 46.583-32.031 76.476v192.5c0 6.096 6.569 9.957 11.896 6.987 13.925-7.765 25.564-19.876 32.458-35.559 10.567 15.063 24.91 27.289 41.646 35.291v2.11c0 8.913-3.476 17.287-9.788 23.581-11.192 11.161-25.298 9.761-23.641 9.761-45.637 0-82.571 36.93-82.571 82.571v47.258c0 4.418 3.582 8 8 8s8-3.582 8-8v-47.257c0-36.795 29.775-66.571 66.573-66.571 1.354 0 2.795-.062 4.368-.199 49.116 42.836 115.82 59.941 182.987 41.255 4.256-1.184 6.747-5.595 5.563-9.852-1.184-4.255-5.592-6.751-9.852-5.563-58.091 16.161-115.576 3.358-160.12-31.258 14.325-7.511 24.915-22.066 26.312-39.769 43.814 12.899 91.214-3.443 117.815-41.361 6.893 15.683 18.533 27.795 32.459 35.562 5.276 2.943 11.895-.848 11.895-6.987v-57.261c9.969 10.036 23.77 16.261 39 16.261 4.418 0 8-3.582 8-8v-156c0-28.729-15.534-55.4-40.539-69.604zm-22.461 258.943c-9.126-8.522-15.28-19.614-17.658-32.054 5.872-13.644 8.658-28.171 8.658-41.552 0-60.259.076-56.215-.18-57.412-.542-2.521-2.282-4.69-4.8-5.728-2.379-.954-15.532-3.861-28.704-15.572-10.44-9.282-16.029-19.791-18.88-26.973-2.526-6.367-11.38-6.795-14.53-.745-8.697 16.691-22.058 31.175-39.63 41.254-.446-7.567-2.579-14.86-6.302-21.479-2.924-5.2-10.261-5.437-13.575-.596-13.244 19.357-32.474 32.226-55.828 32.756-4.417.1-7.917 3.762-7.817 8.179.099 4.355 3.66 7.819 7.995 7.819 4.689 0 11.749-.81 18.254-2.491 15.247-3.94 29.463-12.76 41.114-25.325.508 4.217.221 8.439-.855 12.557-1.669 6.381 4.703 11.944 10.801 9.414 22.185-9.188 39.815-23.899 52.303-41.896 10.653 17.297 26.487 29.736 44.636 36.313v49.316c0 12.912-2.709 25.201-7.579 36.338-.54.783-.946 1.657-1.181 2.594-14.617 30.754-45.984 52.068-82.24 52.068s-67.622-21.314-82.24-52.068c-.235-.937-.641-1.811-1.181-2.594-9.067-20.729-7.581-35.765-7.581-59.462 0-4.418-3.582-8-8-8s-8 3.582-8 8c0 24.923-1.481 41.71 8.66 65.277-2.375 12.429-8.52 23.527-17.66 32.062v-176.839c0-50.453 41.047-91.5 91.5-91.5h49c50.453 0 91.5 41.047 91.5 91.5zm46 140.404v47.257c0 4.418-3.582 8-8 8s-8-3.582-8-8v-47.257c0-36.794-29.774-66.571-66.573-66.571-17.412 0-33.209-8.87-42.259-23.729-2.298-3.773-1.103-8.695 2.671-10.993 3.773-2.3 8.695-1.104 10.994 2.671 6.122 10.051 16.811 16.051 28.594 16.051 45.638-.002 82.573 36.93 82.573 82.571z"/></svg>