<svg id="Layer_1" enable-background="new 0 0 480.01 480.01" height="512" viewBox="0 0 480.01 480.01" width="512" xmlns="http://www.w3.org/2000/svg"><path d="m394.005 424.75v39.26c0 4.42-3.58 8-8 8h-292c-4.42 0-8-3.58-8-8v-39.26c0-41.19 33.39-74.561 74.58-74.57 14.57 0 27.39-7.5 34.77-18.86 7.414-11.394 6.65-21.309 6.65-29.31l.15-.37c-5.86-2.42-11.44-5.39-16.66-8.85-16.98-1.86-33.88-4.59-50.55-8.23-11.05-2.41-18.94-12.16-18.94-23.47 0-140.052-.261-133.291.69-142.2-26-4.8-45.69-27.59-45.69-54.97 0-30.88 25.03-55.91 55.91-55.91 17.74 0 33.56 8.27 43.8 21.16 41.792-28.228 96.783-28.231 138.58 0 10.24-12.89 26.06-21.16 43.8-21.16 30.88 0 55.91 25.03 55.91 55.91 0 27.38-19.69 50.17-45.69 54.97.95 8.907.69 2.173.69 142.2.01 11.3-7.88 21.06-18.93 23.47-16.51 3.59-33.41 6.34-50.54 8.21-5.23 3.471-10.81 6.45-16.68 8.87l.15.37v6.83c0 22.823 18.517 41.34 41.42 41.34 41.19.01 74.58 33.38 74.58 74.57z" fill="#ffd6a6"/><path d="m394.005 424.75v39.26c0 4.418-3.582 8-8 8h-292c-4.418 0-8-3.582-8-8v-39.26c0-41.19 33.394-74.556 74.584-74.57 14.564-.005 27.388-7.504 34.766-18.86 25.83 22.05 63.562 21.971 89.3 0 7.378 11.356 20.202 18.855 34.766 18.86 41.189.014 74.584 33.38 74.584 74.57z" fill="#fe4f60"/><path d="m339.005 210.14c0 41.005-25.076 76.628-61.15 91.5-64.95 26.96-136.85-20.954-136.85-91.5v-56.052c0-5.093 4.703-8.918 9.677-7.82 34.09 7.525 69.025 10.712 103.8 9.487 2.358-.083 4.447-1.555 5.331-3.742 2.512-6.218 4.992-12.526 7.407-18.874 1.758-4.62 8.086-5.311 10.674-1.1 3.016 4.907 5.264 10.253 6.685 15.89.778 3.086 3.754 5.083 6.887 4.526 12.713-2.259 25.427-4.515 38.14-6.774 4.901-.871 9.399 2.898 9.399 7.876z" fill="#ffdfba"/><path d="m216.376 273.361c16.346 10.583 3.13 35.614-14.812 28.045-35.533-14.991-60.56-50.18-60.56-91.266v-56.05c0-5.11 4.72-8.92 9.71-7.81 2.431.537 4.924 1.064 7.48 1.579 7.441 1.498 12.81 8.018 12.81 15.608v26.673c.001 33.728 17.009 64.857 45.372 83.221z" fill="#ffebd2"/><path d="m409.005 63.92c0-30.88-25.03-55.91-55.91-55.91-17.74 0-33.56 8.27-43.8 21.16-41.792-28.228-96.783-28.231-138.58 0-10.24-12.89-26.06-21.16-43.8-21.16-30.88 0-55.91 25.03-55.91 55.91 0 27.38 19.69 50.17 45.69 54.97-.951 8.908-.69 2.176-.69 142.2 0 11.31 7.89 21.06 18.94 23.47 16.67 3.641 33.57 6.37 50.55 8.23-26.81-17.721-44.49-48.12-44.49-82.65v-56.052c0-5.093 4.703-8.918 9.676-7.82 34.117 7.531 69.053 10.712 103.8 9.487 2.358-.083 4.447-1.555 5.331-3.743 2.512-6.217 4.992-12.524 7.407-18.873 1.758-4.62 8.087-5.312 10.675-1.1 3.017 4.909 5.264 10.256 6.684 15.889.778 3.086 3.754 5.083 6.887 4.526 12.714-2.26 25.427-4.515 38.14-6.773 4.901-.871 9.399 2.897 9.399 7.875v56.584c0 34.521-17.67 64.92-44.47 82.63 17.13-1.87 34.03-4.62 50.54-8.21 11.05-2.41 18.94-12.17 18.93-23.47 0-138.359.295-132.97-.69-142.2 26.001-4.8 45.691-27.59 45.691-54.97z" fill="#42434d"/><path d="m279.135 318.43c-24.637 10.313-51.712 11.113-78.26 0 1.356-5.626 1.13-9.27 1.13-16.42l.15-.37c24.082 9.996 51.571 10.016 75.7 0l.15.37c0 7.153-.226 10.796 1.13 16.42z" fill="#f7c388"/><path d="m200.886 374.337c-3.698 1.163-7.664 1.804-11.916 1.841-41.296.364-74.966 33.017-74.966 74.315v7.517c0 7.732-6.268 14-14 14h-6c-4.418 0-8-3.582-8-8v-39.26c0-41.19 33.395-74.555 74.585-74.57 14.564-.005 27.387-7.504 34.765-18.86 2.974 2.54 6.158 4.823 9.512 6.822 14.753 8.791 12.402 31.044-3.98 36.195z" fill="#ff6d7a"/><path d="m279.123 374.337c3.698 1.163 7.664 1.804 11.916 1.841 41.296.364 74.966 33.017 74.966 74.315v7.517c0 7.732 6.268 14 14 14h6c4.418 0 8-3.582 8-8v-39.26c0-41.19-33.395-74.555-74.585-74.57-14.564-.005-27.387-7.504-34.765-18.86-2.974 2.54-6.158 4.823-9.512 6.822-14.753 8.791-12.402 31.044 3.98 36.195z" fill="#e84857"/><path d="m385.275 109.64c-6.45 4.55-13.9 7.76-21.96 9.25-3.92-37.34-24.43-69.75-54.02-89.72 5.47-6.89 12.54-12.46 20.64-16.14 29.7 23.13 50.259 57.45 55.34 96.61z" fill="#2c2c33"/><path d="m243.385 30.83c-50.43 11.29-92.1 53.8-96.91 110.32-.642 7.568-5.47 7.029-5.47 12.94 0 59.689-1.3 68.17 5 87.189 3.35 10.11 8.28 19.49 14.5 27.86 6.28 8.44-.98 20.22-11.32 18.3-4.9-.91-9.67-1.88-14.24-2.88-11.05-2.41-18.94-12.16-18.94-23.47v-129.079c0-30.996 11.381-59.658 30.73-81.71 4.403-5.018.29-12.737-6.341-11.969-18.979 2.198-35.257 14.175-43.559 30.679-6.396 12.694-26.295 8.808-25.79-7.34 1.13-28.75 24.39-52.22 53.13-53.59 18.85-.9 35.78 7.54 46.54 21.09-.09.06-.17.12-.25.18 20.047-13.603 43.723-21.34 70.48-21.34 13.68.11 15.789 19.83 2.44 22.82z" fill="#4d4e59"/><path d="m402.005 424.753v47.257c0 4.418-3.582 8-8 8s-8-3.582-8-8v-47.257c0-36.795-29.775-66.571-66.573-66.571-17.411 0-33.209-8.87-42.258-23.729-2.299-3.773-1.103-8.695 2.671-10.993 3.771-2.3 8.694-1.104 10.993 2.671 6.122 10.051 16.812 16.051 28.594 16.051 45.637-.002 82.573 36.93 82.573 82.571zm-49-424.743c-17.167 0-33.305 6.757-45.263 18.749-41.617-24.986-93.774-25.037-135.476 0-11.956-11.992-28.093-18.749-45.261-18.749-35.29 0-64 28.71-64 64 0 19.171 8.488 37.17 23.287 49.382 3.407 2.812 8.45 2.33 11.262-1.078 2.812-3.407 2.329-8.45-1.079-11.262-11.103-9.163-17.47-22.664-17.47-37.042 0-41.381 49.071-63.186 79.776-35.98-30.888 24.182-50.776 61.801-50.776 103.98v128.996c0 14.918 10.142 27.727 24.664 31.148 5.02 1.182 5.393 1.335 6.598 1.335 3.627 0 6.913-2.484 7.78-6.169 1.013-4.301-1.653-8.607-5.954-9.62l-4.757-1.12c-7.261-1.71-12.332-8.115-12.332-15.574v-128.996c0-63.963 52.038-116 116-116 63.962.001 116 52.038 116 116 0 47.078-.003 78.409.004 129.087.001 7.456-5.265 14.025-12.52 15.62-1.442.316-2.902.631-4.382.94-4.324.907-7.094 5.148-6.188 9.473.907 4.324 5.149 7.093 9.473 6.188 1.528-.321 3.039-.646 4.53-.974 14.537-3.194 25.087-16.337 25.086-31.249-.007-43.472-.004-128.488-.004-129.084 0-41.513-19.346-79.374-50.776-103.981 30.69-27.19 79.777-5.419 79.777 35.98 0 11.047-3.844 21.83-10.822 30.364-2.798 3.42-2.292 8.46 1.128 11.257 3.42 2.798 8.461 2.291 11.257-1.128 9.311-11.384 14.438-25.765 14.438-40.493 0-35.29-28.709-64-64-64zm-88 402c4.418 0 8-3.582 8-8s-3.582-8-8-8h-17v-30.603c2.784-.293 5.551-.733 8.281-1.328 4.317-.94 7.054-5.203 6.113-9.52s-5.207-7.053-9.52-6.113c-16.75 3.651-33.748-.055-47.23-9.313 2.314-5.12 3.735-10.628 4.186-16.336 69.017 20.319 137.17-32.284 137.17-102.054v-27.733c0-4.418-3.582-8-8-8s-8 3.582-8 8v27.125c0 50.178-40.822 91-91 91s-91-40.822-91-91v-56.045c35.604 7.853 72.485 11.152 109.699 9.506 3.117-.138 5.869-2.075 7.051-4.963 2.672-6.531 5.287-13.135 7.408-18.65 6.047 12.139 2.878 16.424 7.871 20.001 1.752 1.257 3.939 1.751 6.06 1.375l53.311-9.472c4.351-.773 7.25-4.926 6.478-9.276-.773-4.351-4.923-7.243-9.276-6.478l-45.728 8.125c-2.809-10.018-7.939-19.132-15.03-26.713-4.086-4.366-11.308-2.856-13.352 2.705-3.408 9.27-6.935 18.425-10.613 27.556-37.14 1.174-74.164-2.755-109.967-11.564-5.055-1.24-9.911 2.595-9.911 7.769v67.353c0 38.609 22.895 77.151 61 95.37v2.107c0 18.442-14.944 33.342-33.427 33.342-45.556 0-82.573 36.847-82.573 82.571v47.257c0 4.418 3.582 8 8 8s8-3.582 8-8v-47.257c0-36.795 29.775-66.571 66.573-66.571 13.457 0 26.501-5.348 36.192-15.744 10.503 7.169 22.617 11.625 35.235 12.956v30.616h-17c-4.418 0-8 3.582-8 8s3.582 8 8 8h17v34h-17c-4.418 0-8 3.582-8 8s3.582 8 8 8h17v20c0 4.418 3.582 8 8 8s8-3.582 8-8v-20h17c4.418 0 8-3.582 8-8s-3.582-8-8-8h-17v-34h16.999z"/></svg>