<svg id="Layer_1" enable-background="new 0 0 480 480" height="512" viewBox="0 0 480 480" width="512" xmlns="http://www.w3.org/2000/svg"><path d="m393.995 464c0 4.42-3.58 8-8 8h-292c-4.42 0-8-3.58-8-8v-39.26c0-29.66 17.33-55.29 42.41-67.3-8.02-15.82-12.41-33.561-12.41-51.971v-173.469c0-68.48 55.52-124 124-124s124 55.52 124 124c.01 235.227-.07 232.97.03 232.97 17.52 13.101 29.09 33.71 29.92 57.061.07 2.106.05-.873.05 41.969z" fill="#bdeffc"/><path d="m393.945 422.03c-58.476 38.185-134.349 22.729-197.99-5.98-28.242 31.032-68.204 44.394-109.96 39.95v-31.26c0-29.66 17.33-55.29 42.41-67.3-8.02-15.82-12.41-33.561-12.41-51.971v-173.469c0-68.48 55.52-124 124-124s124 55.52 124 124c.01 235.227-.07 232.97.03 232.97 17.52 13.1 29.09 33.71 29.92 57.06z" fill="#ffa4b8"/><path d="m265.635 97.13c-16.509-1.458-33.679-1.554-51.28 0-41.612 3.646-73.36 38.423-73.36 79.94v33.05c0 54.68 44.32 99 99 99s99-44.32 99-99v-33.05c0-41.492-31.726-76.293-73.36-79.94z" fill="#ffdfba"/><path d="m195.955 416.05c-5.3 5.82-12.15 12.28-20.81 18.32-1.983-.931-8.791-4.177-9.63-4.62-25.007-12.171-44.907-33.09-55.84-59.51 5.52-5.17 11.83-9.5 18.73-12.8 18.768 37.062 47.881 49.713 67.55 58.61z" fill="#ff99af"/><path d="m272.046 37.943c-59.296-.716-116.091 41.556-124.922 107.296-.138 1.028-.402 2.039-.78 3.005-6.629 16.986-5.349 28.234-5.349 61.877 0 10.194 1.536 20.019 4.403 29.27.383 1.237.597 2.52.597 3.815 0 .589-.001 92.398.002 92.987.091 14.513-20.28 17.78-24.655 3.942-3.497-11.063-5.347-22.736-5.347-34.664v-172.032c0-79.814 77.631-144.994 159.878-120.168 13.897 4.195 10.688 24.847-3.827 24.672z" fill="#ffb1bf"/><path d="m215.068 291.849c-5.175 7.711-14.341 9.397-21.287 5.668-31.445-16.88-52.776-50.395-52.785-88.526-.01-34.03-.36-37.16 1.28-46.21 5.02-27.86 24.46-50.89 50.63-60.771-10.5 11.11-17.82 25.181-20.63 40.771-1.65 9.109-1.28 12.06-1.28 47.34 0 33.533 16.169 61.841 40.07 79.504 7.045 5.206 8.884 14.949 4.002 22.224z" fill="#ffebd2"/><path d="m265.635 97.13c36.64 3.21 65.77 30.61 72.08 65.65-63.202-22.375-132.257-22.368-195.44 0 6.31-35.04 35.44-62.44 72.08-65.65 16.68-1.474 33.854-1.539 51.28 0z" fill="#42434d"/><path d="m175.3 131.127c-2.508 7.338-3.967 15.106-4.254 23.113-11.1 2.68-20.76 5.7-28.77 8.54 2.71-15.04 9.622-28.672 19.527-39.588 5.815-6.41 16.296-.255 13.497 7.935z" fill="#4d4e59"/><path d="m401.894 420.771c-1.092-23.396-11.802-44.781-29.891-59.69l-.008-229.081c0-72.785-59.215-132-132-132s-132 59.215-132 132l.001 173.472c0 16.774 3.43 33.261 9.988 48.531-24.52 14.823-39.989 41.787-39.989 70.74v47.257c0 4.418 3.582 8 8 8s8-3.582 8-8v-7.368c39.211 1.927 76.112-11.023 103.859-38.995 59.73 26.019 129.934 40.289 188.141 10.296v36.067c0 4.418 3.582 8 8 8s8-3.582 8-8c0-45.619.056-50.22-.101-51.229zm-307.899 27.846v-23.874c0-22.958 12.065-44.368 31.271-56.44 14.605 24.565 33.348 38.875 56.946 50.166-24.345 22.19-55.457 31.94-88.217 30.148zm89.995-47.055c-36.444-17.746-59.993-55.464-59.994-96.09l-.001-173.472c0-63.963 52.037-116 116-116s116 52.037 116 116l.007 218.7c-11.288-5.601-23.702-8.528-36.576-8.528-4.439 0-8.005 3.595-8.005 8 0 4.419 3.582 8 8 8 14.29 0 27.894 4.455 39.383 12.902.276.236.568.453.875.65 14.866 11.3 24.086 27.791 25.955 46.071-60.584 36.538-137.883 14.681-201.644-16.233zm163.005-190.828v-33.663c0-45.843-35.081-83.907-80.655-87.916-17.504-1.538-35.172-1.541-52.689.001-40.365 3.549-72.238 33.694-79.219 72.078-1.836 9.294-1.436 15.331-1.436 49.5 0 57.205 47.064 106.391 107 106.391 59.93 0 106.999-49.18 106.999-106.391zm-107 90.391c-50.178 0-91-40.822-91-91 0-36.03-.153-35.714.484-41.357 48.199-16.153 99.7-19.098 149.34-8.626 4.327.911 8.567-1.854 9.479-6.177.911-4.323-1.854-8.567-6.177-9.479-47.564-10.031-98.51-8.743-148.173 6.09 9.708-24.873 32.786-42.991 61.104-45.481 16.513-1.451 33.368-1.451 49.885 0 37.659 3.313 66.058 34.257 66.058 71.978v33.054c0 50.176-40.822 90.998-91 90.998z"/></svg>