<svg id="Layer_1" enable-background="new 0 0 480.001 480.001" height="512" viewBox="0 0 480.001 480.001" width="512" xmlns="http://www.w3.org/2000/svg"><path d="m394 424.74v39.26c0 4.42-3.58 8-8 8h-292c-4.42 0-8-3.58-8-8v-39.26c0-24.471 11.79-46.19 30-59.79v-257.45c0-54.95 44.551-99.5 99.5-99.5h50c54.95 0 99.5 44.55 99.5 99.5v258.22c17.641 13.63 29 35 29 59.02z" fill="#ffd6a6"/><path d="m394 424.74v39.26c0 4.42-3.58 8-8 8h-292c-4.42 0-8-3.58-8-8v-39.26c0-41.149 33.356-74.57 74.57-74.57 6.13 0 11.95-1.33 17.18-3.71l.25.54 38.13 29.52c28.67-19.96 55.74-31.149 74.87-37.52l.05-.05c7.42 6.96 17.41 11.22 28.38 11.22 40.996 0 74.57 33.218 74.57 74.57z" fill="#fe4f60"/><path d="m319.43 350.17c-22.828 0-41.43-18.448-41.43-41.34v-6.83l-.15-.37c35.9-14.86 61.15-50.23 61.15-91.5v-39.864c0-3.158-1.846-6.037-4.731-7.321-33.736-15.009-63.537-36.067-88.435-62.542-3.169-3.37-8.499-3.37-11.668 0-24.864 26.439-54.653 47.513-88.435 62.542-2.886 1.284-4.731 4.162-4.731 7.321v39.864c0 41.27 25.25 76.64 61.15 91.5l-.15.37v6.83c0 22.901-18.596 41.34-41.43 41.34-16.71 0-32.13 5.5-44.57 14.78 0-7.983 0-265.027 0-257.45 0-54.952 44.548-99.5 99.5-99.5h50c54.952 0 99.5 44.548 99.5 99.5v258.22c-13.21-10.224-29.22-15.55-45.57-15.55z" fill="#42434d"/><path d="m334.269 162.946c2.886 1.284 4.731 4.162 4.731 7.321v39.864c0 41.27-25.25 76.64-61.15 91.5-64.916 26.946-136.85-20.925-136.85-91.501v-39.864c0-3.158 1.846-6.037 4.731-7.321 33.736-15.009 63.537-36.067 88.435-62.542 3.169-3.37 8.499-3.37 11.668 0 24.865 26.44 54.654 47.514 88.435 62.543z" fill="#ffdfba"/><path d="m160.57 350.17c6.13 0 11.95-1.33 17.18-3.71l.25.54 38.13 29.52c-36.095 25.12-65.742 57.907-87.13 95.48h-35c-4.418 0-8-3.582-8-8v-39.26c0-41.143 33.35-74.57 74.57-74.57z" fill="#ffaa64"/><path d="m279.13 318.42c-24.637 10.313-51.712 11.113-78.26 0 1.356-5.626 1.13-9.27 1.13-16.42l.15-.37c24.082 9.996 51.571 10.016 75.7 0l.15.37c0 7.153-.225 10.796 1.13 16.42z" fill="#f7c388"/><path d="m302.973 15.297c12.188 4.959 8.15 23.053-5.005 22.733-2.017-.049-53.471-.03-52.468-.03-54.952 0-99.5 44.548-99.5 99.5v19.366c0 7.819-5 7.615-5 13.404 0 42.063-1.219 52.218 5 71.011 9.048 27.294 29.67 49.397 56.15 60.35l-.15.369c0 7.337.031 7.871-.11 9.97-1.16 15.38-10.73 28.391-24.14 34.49-15.373 6.995-23.373.166-45.54 9.295-7.734 3.185-16.21-2.621-16.21-10.985v-237.27c0-54.952 44.548-99.5 99.5-99.5h50c13.258 0 25.908 2.592 37.473 7.297z" fill="#4d4e59"/><path d="m216.899 274.864c16.019 9.68 3.707 34.175-13.665 27.208-37.003-14.84-62.234-50.775-62.234-91.942v-39.86c0-3.182 1.88-6.051 4.788-7.345.538-.239 1.078-.482 1.621-.727 10.118-4.578 21.591 2.802 21.591 13.907v14.025c0 37.073 19.792 67.749 47.899 84.734z" fill="#ffebd2"/><path d="m183.263 351.075c8.005 6.199 5.224 18.981-4.658 21.182-26.423 5.885-62.605 21.49-62.605 72.483v27.26h-22c-4.418 0-8-3.582-8-8v-39.26c0-41.149 33.356-74.57 74.57-74.57 6.13 0 11.95-1.33 17.18-3.71l.25.54z" fill="#ffbd7b"/><path d="m394 424.74v39.26c0 4.42-3.58 8-8 8h-12v-27.26c0-35.399-24.627-64.867-57.42-72.58-21.466-5.064-35.623 3.629-51.53-23.13 9.63-4.261 18.41-7.521 25.95-10.03l.05-.05c7.42 6.96 17.41 11.22 28.38 11.22 41.025 0 74.57 33.248 74.57 74.57z" fill="#e84857"/><path d="m319.43 350.17c5.9 0 11.64.69 17.15 1.99-62.486 22.635-115.326 64.413-151.58 119.84h-56c35.857-62.992 93.414-110.162 162-133l.05-.05c7.42 6.96 17.41 11.22 28.38 11.22z" fill="#d6f4fc"/><path d="m336.581 352.16c-11.17 4.04-24.81 9.71-39.77 17.67-1.586-.128-3.137-.28-4.66-.493-16.115-2.255-18.252-24.561-2.837-29.774 1.854-.627 1.637-.513 1.738-.613 15.835 14.855 28.734 9.137 45.529 13.21z" fill="#bdeffc"/><path d="m402 424.743v47.257c0 4.418-3.582 8-8 8s-8-3.582-8-8v-47.257c0-36.795-29.775-66.571-66.573-66.571-17.411 0-33.209-8.87-42.258-23.729-2.299-3.773-1.103-8.695 2.671-10.993 3.771-2.3 8.694-1.104 10.993 2.671 6.122 10.051 16.812 16.051 28.594 16.051 45.638-.002 82.573 36.93 82.573 82.571zm-170-280.743v8c0 4.418 3.582 8 8 8s8-3.582 8-8v-8c0-4.418-3.582-8-8-8s-8 3.582-8 8zm13.819 223.475c3.869-2.134 5.275-6.999 3.142-10.868s-7.001-5.274-10.868-3.142c-7.386 4.073-14.62 8.479-21.656 13.175l-24.943-19.312c10.447-8.394 17.238-20.612 18.338-34.541 68.55 20.182 137.168-31.551 137.168-102.662v-14.125c0-4.418-3.582-8-8-8s-8 3.582-8 8v14.125c0 50.178-40.822 91-91 91s-91-40.822-91-91v-39.883c34.708-15.446 65.377-37.121 91-64.364 26.803 28.498 59.163 50.935 95.88 66.488 4.066 1.723 8.762-.177 10.486-4.246 1.724-4.068-.178-8.763-4.246-10.486-26.909-11.398-51.412-26.753-72.83-45.635-23.702-20.895-22.606-25.999-29.29-25.999-6.665 0-5.653 5.164-29.291 25.999-36.69 32.346-71.486 44.526-74.21 46.389-1.32.902-2.323 2.175-2.899 3.578-.838 2.048-.6-.178-.6 48.159 0 42.542 24.958 79.362 61 96.595v2.11c0 8.913-3.476 17.287-9.787 23.581-11.192 11.161-25.298 9.761-23.642 9.761-12.9 0-25.339 2.959-36.571 8.519v-243.191c0-50.453 41.047-91.5 91.5-91.5h50c50.453 0 91.5 41.047 91.5 91.5v216.5c0 4.418 3.582 8 8 8s8-3.582 8-8v-216.5c0-59.275-48.224-107.5-107.5-107.5h-50c-59.275 0-107.5 48.225-107.5 107.5v253.569c-19.105 15.831-30 38.844-30 63.674v47.257c0 4.418 3.582 8 8 8s8-3.582 8-8v-47.257c0-36.987 29.986-66.571 66.573-66.571 5.291 0 10.53-.837 15.563-2.497l26.652 20.634c-32.64 24.502-60.028 55.35-80.74 91.733-2.187 3.84-.846 8.725 2.994 10.91 3.824 2.18 8.718.857 10.91-2.994 26.833-47.132 65.32-83.914 109.867-108.483zm37.398.744c-40.808 23.615-77.177 56.996-104.912 99.402-2.418 3.697-1.381 8.655 2.316 11.074 3.703 2.421 8.658 1.377 11.074-2.316 24.538-37.52 58.003-70.276 99.535-94.313 3.824-2.213 5.13-7.106 2.917-10.931-2.211-3.823-7.104-5.132-10.93-2.916z"/></svg>