<svg id="Layer_1" enable-background="new 0 0 480.001 480.001" height="512" viewBox="0 0 480.001 480.001" width="512" xmlns="http://www.w3.org/2000/svg"><path d="m394.001 424.74v39.26c0 4.42-3.58 8-8 8h-292c-4.42 0-8-3.58-8-8v-39.26c0-24.47 11.79-46.19 30-59.79v-257.45c0-54.95 44.55-99.5 99.5-99.5h50c54.95 0 99.5 44.55 99.5 99.5v258.22c17.64 13.63 29 35 29 59.02z" fill="#ffdfba"/><path d="m394.001 424.74v39.26c0 4.42-3.58 8-8 8h-292c-4.42 0-8-3.58-8-8v-39.26c0-41.137 33.344-74.57 74.57-74.57 9.15 0 17.61-2.96 24.47-7.98l1.8 11.65 48.26 37.37c2.89 2.23 6.91 2.23 9.8 0l48.26-37.37 1.8-11.65c6.86 5.02 15.32 7.98 24.47 7.98 41.08 0 74.57 33.304 74.57 74.57z" fill="#ffa4b8"/><path d="m293.161 353.84-18.2 118.16h-69.92l-18.2-118.16 48.262 37.368c2.883 2.233 6.912 2.233 9.795 0z" fill="#d6f4fc"/><path d="m339.001 210.13v-49.313c0-3.362-2.094-6.369-5.256-7.513-17.401-6.293-32.092-18.417-41.536-34.614-2.756-4.726-9.312-5.417-12.892-1.281-32.96 38.083-78.399 63.258-131.268 69.688-4.022.489-7.048 3.888-7.048 7.939v15.092c0 41.27 25.25 76.64 61.15 91.5l-.15.37v6.83c0 22.896-18.605 41.34-41.43 41.34-16.71 0-32.13 5.5-44.57 14.78 0-7.983 0-265.027 0-257.45 0-54.952 44.548-99.5 99.5-99.5h50c54.952 0 99.5 44.548 99.5 99.5v258.22c-12.6-9.75-28.41-15.55-45.57-15.55-22.8 0-41.43-18.42-41.43-41.34v-6.828l-.15-.37c35.9-14.86 61.15-50.23 61.15-91.5z" fill="#c79a83"/><path d="m333.744 153.305c3.162 1.143 5.256 4.15 5.256 7.513v49.313c0 41.27-25.25 76.64-61.15 91.5-64.917 26.947-136.85-20.924-136.85-91.5v-15.092c0-4.052 3.026-7.45 7.048-7.939 52.839-6.426 98.288-31.583 131.268-69.688 3.58-4.137 10.136-3.445 12.892 1.281 9.437 16.182 24.121 28.314 41.536 34.612z" fill="#ffebd2"/><path d="m279.131 318.42c-24.637 10.313-51.712 11.113-78.26 0 1.356-5.626 1.13-9.27 1.13-16.42l.15-.37c24.082 9.996 51.571 10.016 75.7 0l.15.37c0 7.153-.226 10.796 1.13 16.42z" fill="#ffd6a6"/><path d="m302.973 15.297c12.188 4.959 8.15 23.053-5.005 22.733-2.017-.049-53.472-.03-52.468-.03-54.952 0-99.5 44.548-99.5 99.5v44.397c0 7.291-5 7.489-5 13.143 0 15.988-.747 27.884 4.432 44.475.366 1.172.568 2.39.568 3.618v99.252c0 5.125-3.252 9.745-8.134 11.306-7.95 2.541-15.318 6.377-21.866 11.26v-257.451c0-54.952 44.548-99.5 99.5-99.5h50c13.258 0 25.909 2.592 37.473 7.297z" fill="#e0b7a3"/><path d="m217.991 273.393c16.687 10.386 3.507 36.002-14.736 28.687-37.03-14.847-62.254-50.788-62.254-91.951v-15.09c0-4.045 3.013-7.45 7.029-7.937 3.79-.46 7.707-1.039 11.728-1.753 5.779-1.027 11.216 3.103 11.722 8.951 3.164 36.589 21.694 63.648 46.511 79.093z" fill="#fff3e4"/><path d="m190.741 379.15c-46.89 1.204-75.74 36.509-75.74 74.59v18.26h-21c-4.418 0-8-3.582-8-8v-39.26c0-41.137 33.344-74.57 74.57-74.57 9.15 0 17.61-2.96 24.47-7.98 2.274 14.72 1.078 6.966 5.7 36.96z" fill="#ffb1bf"/><path d="m289.261 379.15c46.89 1.204 75.74 36.509 75.74 74.59v18.26h21c4.418 0 8-3.582 8-8v-39.26c0-41.137-33.344-74.57-74.57-74.57-9.15 0-17.61-2.96-24.47-7.98-2.275 14.72-1.079 6.966-5.7 36.96z" fill="#ff99af"/><path d="m225.041 472h-20l-18.2-118.16 22.71 17.58z" fill="#bdeffc"/><path d="m402.001 424.743v47.257c0 4.418-3.582 8-8 8s-8-3.582-8-8v-47.257c0-36.794-29.775-66.572-66.573-66.571-6.405 0-12.588-1.21-18.302-3.467l-18.26 118.514c-.672 4.369-4.76 7.361-9.124 6.688-4.367-.673-7.361-4.758-6.688-9.125l19.3-125.265c-3.517-3.176-6.628-6.876-9.184-11.073-2.299-3.773-1.104-8.695 2.67-10.994 3.772-2.3 8.695-1.103 10.994 2.67 6.059 9.946 16.761 16.051 28.594 16.051 45.636 0 82.573 36.93 82.573 82.572zm-132.14-52.86c-2.706-3.493-7.73-4.134-11.224-1.428l-18.637 14.428-45.744-35.415-.611-3.963c9.199-8.286 15.161-19.74 16.185-32.718 68.296 20.106 136.619-31.147 137.166-101.824.005-.178.003-55.785.003-55.963 0-3-1.723-5.859-4.551-7.21-1.745-.837-34.143-7.798-48.014-42.741-2.282-5.752-10.012-6.86-13.796-1.901-29.275 38.373-70.847 64.005-117.444 73.241-4.334.859-7.15 5.069-6.292 9.403.756 3.809 4.099 6.446 7.839 6.446 2.01 0 69.356-9.956 120.584-69.472 10.653 18.22 26.964 31.263 45.674 38.044v49.316c0 50.178-40.822 91-91 91-46.964 0-91-36.503-91-94.125 0-4.418-3.582-8-8-8s-8 3.582-8 8c0 .414-.008 4.417.013 4.815.652 41.825 25.424 77.904 60.987 94.908v2.107c0 8.913-3.476 17.287-9.787 23.581-11.232 11.199-25.725 9.761-23.642 9.761-12.9 0-25.339 2.959-36.571 8.519v-243.192c0-50.453 41.047-91.5 91.5-91.5h50c50.453 0 91.5 41.047 91.5 91.5v216.5c0 4.418 3.582 8 8 8s8-3.582 8-8v-216.5c0-59.276-48.225-107.5-107.5-107.5h-50c-59.275 0-107.5 48.224-107.5 107.5v253.57c-19.144 15.864-30 38.892-30 63.673v47.257c0 4.418 3.582 8 8 8s8-3.582 8-8v-47.257c0-17.782 6.925-34.5 19.499-47.074 22.224-22.224 50.474-19.498 47.075-19.498 6.37 0 12.552-1.205 18.298-3.488l18.263 118.534c.608 3.954 4.016 6.783 7.896 6.783 4.923 0 8.661-4.382 7.916-9.219l-15.151-98.339 37.307 28.883c2.889 2.236 6.917 2.229 9.795 0l23.534-18.22c3.494-2.704 4.134-7.729 1.43-11.222z"/></svg>