<svg id="Layer_1" enable-background="new 0 0 480.024 480.024" height="512" viewBox="0 0 480.024 480.024" width="512" xmlns="http://www.w3.org/2000/svg"><path d="m413.533 236.894c-8.18 6.208-11.41 16.746-8.53 26.25 9.8 32.49-15.29 67.03-49.22 67.75-10.12.21-19 6.66-22.33 16.22-.49 1.41-1.04 2.77-1.64 4.11 35.33 5.89 62.2 36.62 62.2 73.54v39.26c0 4.42-3.58 8-8 8h-292c-4.42 0-8-3.58-8-8v-39.26c0-36.93 26.88-67.65 62.2-73.54-.6-1.34-1.15-2.7-1.64-4.11-3.33-9.56-12.21-16.01-22.33-16.22-33.93-.72-59.02-35.26-49.22-67.75 2.92-9.69-.47-20.13-8.53-26.25-27.02-20.52-27.02-63.22 0-83.74 8.06-6.12 11.45-16.56 8.53-26.25-9.8-32.49 15.29-67.03 49.22-67.75 10.12-.21 19-6.66 22.33-16.22 11.17-32.04 51.77-45.23 79.64-25.88 8.32 5.78 19.28 5.78 27.6 0 27.87-19.36 68.47-6.16 79.64 25.88 3.33 9.56 12.21 16.01 22.33 16.22 33.93.72 59.02 35.26 49.22 67.75-2.92 9.69.47 20.13 8.53 26.25 27.02 20.52 27.02 63.22 0 83.74z" fill="#c79a83"/><path d="m339.013 136.774v26.48c-63.709-22.881-133.794-23.06-198 0v-26.48c0-14.46 9.68-27.18 23.65-30.89 49.37-13.146 101.322-13.148 150.7 0 13.97 3.71 23.65 16.43 23.65 30.89z" fill="#befa91"/><path d="m339.013 163.254v46.89c0 41.27-25.25 76.64-61.15 91.5-64.917 26.947-136.85-20.924-136.85-91.5v-46.89c63.709-22.881 133.793-23.06 198 0z" fill="#e0b7a3"/><path d="m339.013 210.144c0-7.75 0-65.551 0-73.37 0-14.46-9.68-27.18-23.65-30.89-49.37-13.146-101.322-13.148-150.7 0-13.97 3.71-23.65 16.43-23.65 30.89v73.37c0 41.27 25.25 76.64 61.15 91.5l-.15.38v6.83c0 16.99-10.25 31.56-24.9 37.92-11.361 4.94-16.515 2.355-28.9 4.45-.6-1.34-1.15-2.7-1.64-4.11-3.33-9.56-12.21-16.01-22.33-16.22-33.93-.72-59.02-35.26-49.22-67.75 2.92-9.69-.47-20.13-8.53-26.25-27.02-20.52-27.02-63.22 0-83.74 8.06-6.12 11.45-16.56 8.53-26.25-9.8-32.49 15.29-67.03 49.22-67.75 10.12-.21 19-6.66 22.33-16.22 11.17-32.04 51.77-45.23 79.64-25.88 8.32 5.78 19.28 5.78 27.6 0 27.87-19.36 68.47-6.16 79.64 25.88 3.33 9.56 12.21 16.01 22.33 16.22 33.93.72 59.02 35.26 49.22 67.75-2.92 9.69.47 20.13 8.53 26.25 27.02 20.52 27.02 63.22 0 83.74-8.18 6.208-11.41 16.745-8.53 26.25 9.8 32.49-15.29 67.03-49.22 67.75-10.12.21-19 6.66-22.33 16.22-.49 1.41-1.04 2.77-1.64 4.11-12.37-2.092-17.546.486-28.9-4.45-14.65-6.36-24.9-20.93-24.9-37.92v-6.83l-.15-.38c35.9-14.86 61.15-50.23 61.15-91.5z" fill="#42434d"/><path d="m160.583 350.194c5.87 0 11.47-1.22 16.53-3.42v.01c10.95 24.91 35.7 41.06 62.9 41.06s51.95-16.15 62.9-41.06v-.01c5.06 2.2 10.66 3.42 16.53 3.42 41.233 0 74.57 33.44 74.57 74.57v39.26c0 4.418-3.582 8-8 8h-292c-4.418 0-8-3.582-8-8v-39.26c0-41.143 33.349-74.57 74.57-74.57z" fill="#ffa4b8"/><path d="m279.143 318.444c-24.637 10.313-51.712 11.113-78.26 0 1.356-5.626 1.13-9.27 1.13-16.42l.15-.37c24.082 9.996 51.571 10.016 75.7 0l.15.37c0 7.153-.226 10.796 1.13 16.42z" fill="#a07765"/><path d="m280.875 8.06c22.47-.885 31.868 28.08 13.291 40.75-9.497 6.477-20.187 5.639-27.953.243-27.87-19.35-68.47-6.16-79.64 25.88-3.33 9.56-12.21 16.01-22.33 16.22-33.93.72-59.02 35.26-49.22 67.75 2.92 9.69-.47 20.13-8.53 26.25-27.02 20.52-27.02 63.22 0 83.74 7.562 5.742 11.62 15.722 8.423 26.611-5.313 18.09-30.36 20.038-37.77 2.702-4.599-10.76-5.745-23.051-2.123-35.063 2.92-9.69-.47-20.13-8.53-26.25-27.02-20.52-27.02-63.22 0-83.74 8.06-6.12 11.45-16.56 8.53-26.25-9.8-32.49 15.29-67.03 49.22-67.75 10.12-.21 19-6.66 22.33-16.22 11.17-32.04 51.77-45.23 79.64-25.88 8.32 5.78 19.28 5.78 27.6 0 8.266-5.744 17.654-8.622 27.062-8.993z" fill="#4d4e59"/><path d="m217.599 274.075c16.277 10.183 3.448 35.155-14.37 28.004-36.578-14.679-62.217-50.341-62.217-91.936v-46.89c8.24-2.96 18.32-6.16 30-8.98v35.87c.001 36.524 19.199 66.798 46.587 83.932z" fill="#f2d1c2"/><path d="m171.013 104.274v50c-11.68 2.82-21.76 6.02-30 8.98v-26.48c0-14.44 9.66-27.15 23.6-30.87 0-.057 6.345-1.617 6.4-1.63z" fill="#d0ffad"/><path d="m181.26 354.752c5.506 9.073.512 20.907-9.749 23.615-24.507 6.468-56.498 23.706-56.498 71.397v22.26h-21c-4.418 0-8-3.582-8-8v-39.26c0-41.01 33.11-75.01 74.11-74.57 6.04.06 11.8-1.16 16.99-3.42v.01c1.217 2.767 2.605 5.427 4.147 7.968z" fill="#ffb1bf"/><path d="m298.765 354.752c-5.506 9.073-.512 20.907 9.749 23.615 24.507 6.468 56.498 23.706 56.498 71.397v22.26h21c4.418 0 8-3.582 8-8v-39.26c0-41.01-33.11-75.01-74.11-74.57-6.04.06-11.8-1.16-16.99-3.42v.01c-1.217 2.767-2.605 5.427-4.147 7.968z" fill="#ff99af"/><path d="m418.372 146.784c-5.441-4.132-7.683-11.028-5.709-17.57 11.343-37.602-17.453-77.222-56.709-78.053-6.831-.146-12.698-4.408-14.946-10.86-12.925-37.084-59.51-52.214-91.757-29.813-5.612 3.898-12.865 3.897-18.476 0-32.258-22.407-78.835-7.263-91.758 29.814-2.248 6.452-8.115 10.714-14.946 10.859-39.265.831-68.049 40.463-56.709 78.053 1.974 6.542-.268 13.438-5.71 17.571-31.278 23.755-31.269 72.732.001 96.479 5.441 4.132 7.683 11.028 5.709 17.57-11.342 37.599 17.453 77.222 56.709 78.053 5.244.112 9.912 2.656 12.82 6.749-33.628 10.02-58.878 41.306-58.878 79.131v47.257c0 4.418 3.582 8 8 8s8-3.582 8-8v-47.257c0-36.793 29.775-66.571 66.573-66.571 4.097 0 8.296-.502 12.506-1.592 23.507 42.011 79.477 52.207 116.34 21.176 3.38-2.846 3.813-7.893.968-11.272-2.846-3.381-7.894-3.813-11.272-.968-28.755 24.207-72.255 16.771-91.341-15.47 12.267-8.1 20.813-21.494 22.056-37.259 9.573 2.818 19.697 4.338 30.17 4.338 59.931 0 107-49.18 107-106.391v-73.984c0-18.106-12.171-33.989-29.597-38.625-50.75-13.498-104.054-13.499-154.807 0-17.426 4.636-29.597 20.519-29.597 38.625v73.984c0 40.219 23.6 78.105 61 95.987v2.108c0 18.444-14.945 33.342-33.427 33.342-2.425 0-4.832.122-7.229.328-4.907-11.558-16.279-19.365-28.946-19.633-28.741-.609-49.995-30.041-41.73-57.436 3.863-12.807-.698-26.846-11.351-34.934-22.792-17.309-22.876-53.621-.001-70.995 10.653-8.09 15.215-22.129 11.352-34.935-8.27-27.41 13.011-56.827 41.73-57.436 13.371-.283 25.313-8.96 29.716-21.59 9.419-27.027 43.927-38.326 67.521-21.939 10.984 7.631 25.745 7.631 36.731 0 23.513-16.335 58.066-5.187 67.52 21.938 4.402 12.631 16.344 21.308 29.716 21.591 28.613.606 50.027 29.934 41.73 57.436-3.863 12.807.698 26.845 11.351 34.934 22.802 17.316 22.878 53.62.001 70.995-10.653 8.09-15.215 22.129-11.352 34.935 5.648 18.725-2.331 39.504-19.405 50.53-3.712 2.397-4.777 7.35-2.381 11.061s7.348 4.777 11.061 2.381c23.03-14.873 33.74-43.079 26.044-68.593-1.974-6.542.268-13.438 5.71-17.571 31.275-23.752 31.269-72.731-.001-96.478zm-269.359 63.365v-41.2c48.734-16.432 100.458-19.197 149.823-8.783 4.327.913 8.567-1.854 9.479-6.177.911-4.323-1.854-8.567-6.177-9.479-50.326-10.616-103.062-8.283-153.126 7.613v-15.349c0-10.864 7.282-20.389 17.71-23.162 48.055-12.782 98.523-12.783 146.58 0 10.428 2.773 17.71 12.298 17.71 23.162v73.375c0 50.178-40.822 91-91 91s-90.999-40.822-90.999-91zm253 214.618v47.257c0 4.418-3.582 8-8 8s-8-3.582-8-8v-47.257c0-36.793-29.775-66.571-66.573-66.571-17.411 0-33.209-8.87-42.258-23.729-2.299-3.773-1.103-8.695 2.671-10.993 3.771-2.301 8.694-1.104 10.993 2.671 6.122 10.051 16.812 16.051 28.594 16.051 45.637-.002 82.573 36.93 82.573 82.571z"/></svg>