<svg id="Layer_1" enable-background="new 0 0 480 480" height="512" viewBox="0 0 480 480" width="512" xmlns="http://www.w3.org/2000/svg"><path d="m388.482 424.74v39.26c0 4.42-3.58 8-8 8h-292c-4.42 0-8-3.58-8-8v-39.26c0-41.03 33.15-74.95 74.18-74.57 23.118.193 41.82-18.397 41.82-41.34v-6.83l.15-.37c-35.9-14.86-61.15-50.23-61.15-91.5v1.2c-13.81 0-25-11.19-25-25v-78.33c0-55.23 44.77-100 100-100h48c23.04 0 44.26 7.79 61.16 20.89l.01-.01c7.51-12.51 21.21-20.88 36.86-20.88 23.73 0 42.97 19.24 42.97 42.97 0 24.37-20.224 42.96-41.99 42.96 1.32 9.201.99 7.311.99 92.4 0 13.785-11.161 25-25.01 25-.48 40.75-25.59 75.58-61.14 90.3l.15.37v6.83c0 22.933 18.692 41.533 41.82 41.34 41.03-.38 74.18 33.54 74.18 74.57z" fill="#ffdfba"/><path d="m388.482 424.74v39.26c0 4.418-3.582 8-8 8h-292c-4.418 0-8-3.582-8-8v-39.26c0-41.031 33.148-74.952 74.178-74.572 6.013.056 11.75-1.169 16.922-3.418v.01c12.118 27.55 40.904 44.111 70.9 40.59 23.97-2.81 45.03-18.15 54.9-40.59v-.01c5.173 2.249 10.91 3.474 16.922 3.418 41.03-.38 74.178 33.541 74.178 74.572z" fill="#ffa4b8"/><path d="m325.91 154.258c4.247.242 7.572 3.732 7.572 7.986 0 51.074.006 48.432-.01 49.086-.48 40.75-25.59 75.58-61.14 90.3-64.917 26.947-136.85-20.924-136.85-91.5v-47.19c0-4.689 4.016-8.394 8.686-7.971 47.987 4.351 95.242-7.767 134.923-34.499 4.513-3.04 10.727-.788 12.152 4.464 4.956 18.266 18.463 28.401 34.667 29.324z" fill="#ffebd2"/><path d="m357.492 93.93c1.32 9.201.99 7.311.99 92.4 0 13.785-11.161 25-25.01 25 .016-.654.01 1.989.01-49.09 0-4.25-3.32-7.74-7.57-7.98-15.83-.905-29.598-10.679-34.67-29.33-1.42-5.25-7.64-7.5-12.15-4.46-40.075 26.994-87.381 38.798-134.92 34.5-4.67-.42-8.69 3.28-8.69 7.97v48.39c-13.81 0-25-11.19-25-25v-78.33c0-55.23 44.77-100 100-100h48c23.04 0 44.26 7.79 61.16 20.89l.01-.01c7.51-12.51 21.21-20.88 36.86-20.88 23.73 0 42.97 19.24 42.97 42.97 0 24.37-20.224 42.96-41.99 42.96z" fill="#d6f4fc"/><path d="m175.729 354.728c5.506 9.073.512 20.907-9.749 23.615-24.507 6.468-56.498 23.706-56.498 71.397v22.26h-21c-4.418 0-8-3.582-8-8v-39.26c0-41.01 33.11-75.01 74.11-74.57 6.04.06 11.8-1.16 16.99-3.42v.01c1.217 2.767 2.605 5.427 4.147 7.968z" fill="#ffb1bf"/><path d="m293.235 354.728c-5.506 9.073-.512 20.907 9.749 23.615 24.507 6.468 56.498 23.706 56.498 71.397v22.26h21c4.418 0 8-3.582 8-8v-39.26c0-41.01-33.11-75.01-74.11-74.57-6.04.06-11.8-1.16-16.99-3.42v.01c-1.218 2.767-2.605 5.427-4.147 7.968z" fill="#ff99af"/><path d="m273.612 318.42c-24.637 10.313-51.712 11.113-78.26 0 1.356-5.626 1.13-9.27 1.13-16.42l.15-.37c24.082 9.996 51.571 10.016 75.7 0l.15.37c0 7.153-.226 10.796 1.13 16.42z" fill="#ffd6a6"/><path d="m295.981 15.274c12.209 4.944 8.154 23.077-5.014 22.756-2.03-.049-51.495-.03-50.485-.03-55.228 0-100 44.772-100 100v11.781c0 7.237-5 7.503-5 13.159v29.126c0 12.436-16.844 16.532-22.39 5.401-1.671-3.353-2.61-7.135-2.61-11.137v-78.33c0-55.228 44.772-100 100-100h48c13.269 0 25.927 2.588 37.499 7.274z" fill="#e8f8fc"/><path d="m399.482 50.97c0 15.71-8.43 29.44-21 36.94 0-30.568-13.912-58.676-36.7-77.32 27.857-10.196 57.7 10.464 57.7 40.38z" fill="#d6f4fc"/><path d="m378.341 82.583c.179 3.362-1.697 6.51-4.788 7.845-5.378 2.323-11.426 3.502-16.061 3.502-3.71-26.39-17.73-49.48-37.85-65.04 1-1 5.077-9.792 17.004-16.029 3.005-1.572 6.661-1.073 9.168 1.21 19.121 17.416 31.11 41.852 32.527 68.512z" fill="#bdeffc"/><path d="m215.503 276.449c14.939 10 3.553 33.13-13.41 27.177-37.286-13.084-66.611-47.883-66.611-93.497v-47.19c0-4.69 4.02-8.39 8.69-7.97 3.832.348 8.04.622 12.581.761 8.219.25 14.729 7.037 14.729 15.26v23.14c0 34.826 17.756 64.738 44.021 82.319z" fill="#fff3e4"/><path d="m396.482 424.743v47.257c0 4.418-3.582 8-8 8s-8-3.582-8-8v-47.257c0-36.794-29.775-66.572-66.573-66.571-17.41 0-33.208-8.87-42.258-23.728-2.299-3.773-1.104-8.695 2.67-10.994 3.772-2.3 8.695-1.103 10.994 2.67 6.123 10.051 16.812 16.051 28.594 16.051 45.637 0 82.573 36.93 82.573 82.572zm-122.885-59.227c-28.754 24.206-72.254 16.774-91.342-15.47 12.271-8.103 20.814-21.5 22.057-37.259 68.295 20.105 136.619-31.146 137.167-101.823.003-.1.039-57.157-.06-57.96-.511-4.059-4.089-7.244-8.432-6.979-1.402.086-11.035 1.743-20.382-3.88-15.05-9.054-15.125-28.895-15.124-29.093.042-6.501-7.31-10.341-12.622-6.581-32.812 23.227-71.368 39.121-113.433 45.01-4.375.613-7.426 4.656-6.813 9.032.56 4 3.986 6.892 7.913 6.892 2.391 0 56.667-5.952 110.952-40.717 5.902 22.154 22.473 34.435 42.004 35.544v47.894c0 50.178-40.822 91-91 91s-91-40.822-91-91v-56.126c0-4.418-3.582-8-8-8s-8 3.582-8 8v47.325c-5.35-2.867-9-8.509-9-14.992v-78.329c0-50.731 41.273-92.004 92.004-92.004h47.996c50.729 0 92 41.271 92 92v78.333c0 4.418 3.582 8 8 8s8-3.582 8-8v-78.333c0-31.92-13.924-60.646-36.012-80.435 6.569-7.334 15.898-11.565 26.012-11.565 30.182 0 46.088 35.795 26.189 58.219-4.601 5.186-.841 13.31 5.981 13.31 2.208 0 4.406-.909 5.987-2.69 29.074-32.766 5.731-84.839-38.157-84.839-14.904 0-29.064 6.671-38.67 17.803-17.039-11.245-37.432-17.803-59.33-17.803h-47.996c-59.554 0-108.004 48.451-108.004 108.004v78.329c0 15.554 10.82 28.621 25.327 32.09 3.007 38.992 26.997 72.198 60.673 88.3v2.107c0 18.441-14.944 33.341-33.427 33.341-45.731 0-82.573 37.02-82.573 82.571v47.258c0 4.418 3.582 8 8 8s8-3.582 8-8v-47.257c0-36.793 29.775-66.572 66.573-66.571 4.114 0 8.312-.506 12.506-1.593 12.163 21.736 34.174 36.227 58.921 38.818v76.603c0 4.418 3.582 8 8 8s8-3.582 8-8v-76.617c15.166-1.602 29.639-7.709 41.42-17.627 3.38-2.845 3.813-7.892.968-11.272-2.845-3.381-7.895-3.812-11.273-.968z"/></svg>