<svg id="Layer_1" enable-background="new 0 0 480 480" height="512" viewBox="0 0 480 480" width="512" xmlns="http://www.w3.org/2000/svg"><path d="m394 424.74v39.26c0 4.42-3.58 8-8 8h-292c-4.42 0-8-3.58-8-8v-39.26c0-31.734 19.856-58.895 47.85-69.64 3.746-9.669 2.053-5.3 7.65-19.74 3.79-9.78 15.82-13.33 24.31-7.17l19.27 13.98c10.26-7.52 16.92-19.64 16.92-33.34v-6.83l.15-.37c-35.9-14.86-61.15-50.23-61.15-91.5v-3.13c-14.255 0-25-11.265-25-24.54v-59.55c8.048-63.124 58.009-103.109 119.86-114.22 7.491-1.367 7.312 5.933 31.14 21.31 12.15 7.84 28.18 14.33 43.69 19.41 31.8 10.41 53.31 40.05 53.31 73.5v59.09c0 13.81-11.19 25-25 25v3.13c0 41.27-25.25 76.64-61.15 91.5l.15.37v6.83c0 13.7 6.66 25.82 16.92 33.34l19.27-13.98c8.49-6.16 20.52-2.61 24.31 7.18 5.639 14.538 3.997 10.301 7.65 19.73 27.978 10.739 47.85 37.887 47.85 69.64z" fill="#ffdfba"/><path d="m394 424.74v39.26c0 4.418-3.582 8-8 8h-292c-4.418 0-8-3.582-8-8v-39.26c0-31.734 19.856-58.895 47.85-69.64 3.746-9.669 2.053-5.3 7.65-19.74 3.79-9.78 15.82-13.33 24.31-7.17 24.488 17.766 11.878 8.619 60.1 43.59 8.4 6.1 19.78 6.1 28.18 0 48.279-35.012 35.604-25.819 60.1-43.59 8.49-6.16 20.52-2.61 24.31 7.18 5.639 14.538 3.997 10.301 7.65 19.73 27.978 10.739 47.85 37.887 47.85 69.64z" fill="#ffaa64"/><path d="m364 122.91v59.09c0 13.81-11.19 25-25 25v-61.77c0-26.51-21.49-48-48-48h-102c-26.51 0-48 21.49-48 48v61.77c-14.255 0-25-11.265-25-24.54v-59.55c8.047-63.119 57.993-103.109 119.855-114.224 2.527-.454 5.114.321 6.959 2.106 20.673 20 40.6 29.685 67.876 38.619 31.8 10.409 53.31 40.049 53.31 73.499z" fill="#ffe773"/><path d="m339 210.13c0 41.27-25.25 76.64-61.15 91.5-64.917 26.947-136.85-20.923-136.85-91.5 0-6.721 0-57.228 0-64.9 0-26.51 21.48-48 47.99-48h102.01c26.51 0 48 21.49 48 48z" fill="#ffebd2"/><path d="m178.38 337.31c-6.26 3.619-6.644 7.435-14.53 27.79-27.977 10.739-47.85 37.887-47.85 69.64v37.26h-22c-4.418 0-8-3.582-8-8v-39.26c0-31.734 19.856-58.895 47.85-69.64 4.355-11.242 7.664-19.777 7.651-19.744 3.792-9.783 15.816-13.328 24.309-7.166z" fill="#ffbd7b"/><path d="m301.62 337.31c6.26 3.619 6.644 7.435 14.53 27.79 27.978 10.738 47.85 37.887 47.85 69.64v37.26h22c4.418 0 8-3.582 8-8v-39.26c0-31.734-19.856-58.895-47.85-69.64-4.355-11.242-7.664-19.777-7.651-19.744-3.792-9.783-15.816-13.328-24.309-7.166z" fill="#faa157"/><path d="m217.584 274.058c16.277 10.183 3.442 35.156-14.376 28.004-36.634-14.704-62.208-50.403-62.208-91.932v-64.9c0-10.084 3.11-19.442 8.422-27.168 6.657-9.68 21.65-4.88 21.578 6.868v65.2c0 36.51 19.193 66.79 46.584 83.928z" fill="#fff3e4"/><path d="m279.13 318.42c-24.637 10.313-51.712 11.113-78.26 0 1.356-5.626 1.13-9.27 1.13-16.42l.15-.37c24.082 9.996 51.571 10.016 75.7 0l.15.37c0 7.153-.225 10.796 1.13 16.42z" fill="#ffd6a6"/><path d="m237.447 36.178c-37.304 13.173-69.227 38.717-83.927 76.712-7.77 8.53-12.52 19.88-12.52 32.34v37.523c0 16.05-24.158 16.975-24.969.945-.049-.97-.031 2.756-.031-60.788 8.083-63.395 58.341-103.176 119.866-114.226 2.462-.442 4.985.216 7.133 2.288 8.13 7.843 5.101 21.445-5.552 25.206z" fill="#ffec8f"/><path d="m372 182.46v-59.545c0-36.993-23.637-69.589-58.817-81.11-27.489-9.003-47.123-18.731-67.481-39.416-1.799-1.828-4.364-2.683-6.899-2.299-63.661 9.635-121.692 51.047-130.738 121.81-.1.786-.064-3.032-.064 60.559 0 15.304 10.707 28.167 25.077 31.622 1.494 40.859 26.004 75.946 60.923 92.642v2.107c0 8.805-3.355 16.98-9.349 23.144l-14.144-10.258c-12.74-9.24-30.777-3.936-36.469 10.757l-6.406 16.531c-29.561 12.851-49.633 42.21-49.633 75.739v47.257c0 4.418 3.582 8 8 8s8-3.582 8-8v-47.257c0-26.626 16.24-50.985 40.635-61.326 29.742 7.576 27.889 7.204 29.281 7.204 3.57 0 6.825-2.408 7.747-6.027 1.091-4.281-1.496-8.636-5.778-9.727l-21.267-5.417 4.338-11.195c1.896-4.892 7.904-6.67 12.157-3.586l60.099 43.588c11.237 8.15 26.337 8.151 37.575 0l60.098-43.587c4.248-3.08 10.259-1.311 12.156 3.586l4.337 11.195-21.264 5.416c-4.282 1.091-6.869 5.446-5.778 9.727 1.09 4.279 5.442 6.869 9.727 5.778 32.482-8.274 30.975-7.804 30.975-7.804 4.12-1.596 6.166-6.23 4.57-10.35l-7.647-19.742c-5.687-14.68-23.717-20.008-36.47-10.759l-14.134 10.251c-1.393-1.441-2.66-3.002-3.782-4.682-2.453-3.676-7.421-4.665-11.095-2.212-3.675 2.453-4.666 7.42-2.212 11.095 1.234 1.849 2.587 3.603 4.046 5.259l-32.921 23.876c-5.618 4.075-13.168 4.076-18.788 0l-32.945-23.894c6.981-7.947 11.295-18.004 12.159-28.626 68.995 20.319 137.181-32.25 137.181-102.05v-65.503c0-30.877-25.121-55.997-55.998-55.997h-102.007c-30.875 0-55.995 25.122-55.995 56v51.863c-5.344-2.772-9-8.289-9-14.638v-59.028c7.803-59.201 54.688-96.301 113.275-106.869 21.425 20.706 42.162 31.027 70.928 40.448 28.589 9.363 47.797 35.848 47.797 65.905v59.545c0 4.418 3.582 8 8 8s8-3.582 8-8zm-223-37.226c0-22.056 17.941-40 39.995-40h102.008c22.055 0 39.998 17.942 39.998 39.997v64.895c0 50.177-40.822 91-91 91s-91-40.822-91-91v-64.892zm253 279.509v47.257c0 4.418-3.582 8-8 8s-8-3.582-8-8v-47.257c0-16.351-5.984-32.071-16.852-44.265-2.939-3.299-2.648-8.355.65-11.295 3.299-2.939 8.356-2.648 11.295.65 13.482 15.129 20.907 34.629 20.907 54.91zm-184.232-7.495c-5.958 18.692-16.759 36.31-32.355 50.643-1.537 1.412-3.477 2.11-5.411 2.11-7.233 0-10.796-8.946-5.415-13.89 12.759-11.726 22.497-26.658 27.937-43.722 1.342-4.209 5.842-6.534 10.052-5.192 4.209 1.341 6.534 5.841 5.192 10.051zm87.645 38.862c3.253 2.99 3.467 8.051.478 11.304-2.99 3.253-8.05 3.467-11.304.477-14.61-13.427-25.991-30.676-32.355-50.643-1.342-4.21.983-8.71 5.192-10.052 4.211-1.342 8.71.983 10.052 5.192 5.169 16.212 14.521 31.392 27.937 43.722z"/></svg>