<svg id="Layer_1" enable-background="new 0 0 480.121 480.121" height="512" viewBox="0 0 480.121 480.121" width="512" xmlns="http://www.w3.org/2000/svg"><path d="m394.203 424.536v39.48c0 4.42-3.58 8-8 8h-292c-4.42 0-8-3.58-8-8v-39.48c0-41.24 33.74-73.95 74.98-74.35 13.726-.146 26.043-6.939 33.56-17.65l-.06-.06c8.29-11.793 7.468-22.418 7.48-30.49l.15-.37c-35.85-14.86-61.07-50.2-61.09-91.41v-3.26c-14.353 0-24.99-11.384-24.98-24.55.007-9.316.062-86.384.07-97.46.01-14.91 12.1-27 27.01-26.99 12.126-30.245 41.436-49.97 73.89-49.95l107.57.08c5.59.01 9.46 5.61 7.47 10.84l-6.85 18.06c-1.65 4.37.77 9.22 5.25 10.52l5.54 1.61c16.605 4.821 29.11 19.951 29.11 38.54 0 7.51-.03 60.27-.05 93.29 0 14.37-11.66 26.01-26.03 26.01v3.26c-.03 41.3-25.34 76.68-61.29 91.49v.01l.12.28c0 7.707-.903 18.564 7.47 30.5 7.295 10.413 19.667 17.551 33.7 17.7 41.24.4 74.98 33.11 74.98 74.35z" fill="#ffdfba"/><path d="m394.203 424.536v39.48c0 4.42-3.58 8-8 8h-292c-4.42 0-8-3.58-8-8v-39.48c0-41.24 33.74-73.95 74.98-74.35 13.637-.145 25.995-6.858 33.57-17.67 27.048 30.057 32.094 35.663 39.5 43.9 3.18 3.53 8.72 3.53 11.9 0 7.578-8.428 12.77-14.196 39.439-43.832 7.248 10.345 19.645 17.454 33.631 17.602 41.24.4 74.98 33.11 74.98 74.35z" fill="#d6f4fc"/><path d="m298.083 370.266c39.58 1.8 71.12 34.47 71.12 74.49v27.26h17c4.418 0 8-3.582 8-8v-39.418c0-41.254-33.753-73.989-75.006-74.414-5.641-.058-11.02-1.242-15.914-3.338-.125.264-5.138 23.134-5.2 23.42z" fill="#bdeffc"/><path d="m303.283 346.846c-.124.264-9.994 45.164-9.931 44.878-1.302 5.907-8.778 7.809-12.745 3.242-26.257-30.236-22.675-26.293-25.334-28.691l30.319-33.692c4.4 6.281 10.561 11.203 17.691 14.263z" fill="#e8f8fc"/><path d="m194.753 332.516 29.66 32.96-24.603 29.155c-3.932 4.66-11.5 2.792-12.812-3.163-.063-.285-9.75-44.359-9.875-44.623 7.13-3.059 13.23-8.049 17.63-14.329z" fill="#e8f8fc"/><path d="m365.303 87.646c0 7.51-.03 60.27-.05 93.29 0 14.37-11.66 26.01-26.03 26.01.01-10.88.03-37.31.04-61.63.02-26.51-21.45-48.01-47.96-48.03l-102-.07c-26.51-.02-48.02 21.46-48.04 47.97l-.04 61.76c-14.353 0-24.99-11.384-24.98-24.55.007-9.316.062-86.384.07-97.46.01-14.91 12.1-27 27.01-26.99 12.126-30.246 41.436-49.97 73.89-49.95l107.569.081c5.596.004 9.458 5.605 7.474 10.837l-6.851 18.061c-1.656 4.365.763 9.215 5.246 10.519l5.541 1.611c16.606 4.821 29.111 19.952 29.111 38.541z" fill="#42434d"/><path d="m291.303 97.286c26.51.02 47.98 21.52 47.96 48.03-.009 22.657-.04 64.89-.04 64.89-.03 41.3-25.34 76.68-61.29 91.49v.01c-65.072 26.834-136.676-21.17-136.71-91.5 0-5.218.036-58.338.04-65.02.02-26.51 21.53-47.99 48.04-47.97z" fill="#ffebd2"/><path d="m279.333 318.436c-24.637 10.313-51.712 11.113-78.26 0 1.356-5.626 1.13-9.27 1.13-16.42l.15-.37c24.082 9.996 51.571 10.016 75.7 0l.15.37c0 7.152-.226 10.796 1.13 16.42z" fill="#ffd6a6"/><path d="m217.787 274.073c16.277 10.183 3.442 35.156-14.376 28.004-36.634-14.704-62.208-50.404-62.208-91.932v-64.9c0-10.084 3.11-19.442 8.423-27.168 6.657-9.68 21.65-4.88 21.578 6.868-.002.245-.001 64.955-.001 65.2 0 36.511 19.192 66.791 46.584 83.928z" fill="#fff3e4"/><path d="m332.253 18.916c-7.09 18.694-6.989 18.258-7.16 19.14l-77.88-.06c-30.228-.019-57.731 17.092-71.159 43.883-1.684 3.36-4.731 5.877-8.406 6.661-12.186 2.601-21.326 13.433-21.334 26.396l-.01 8.85c-3.22 6.44-5.03 13.71-5.04 21.4l-.024 37.513c-.011 16.199-25.009 17.273-24.996-.303.007-9.316.062-86.384.07-97.46.01-14.91 12.1-27 27.01-26.99 12.126-30.245 41.436-49.97 73.89-49.95l107.57.08c5.589.01 9.459 5.61 7.469 10.84z" fill="#4d4e59"/><path d="m195.383 374.516c1.49 6.77 3.08 13.98 4.43 20.11-3.932 4.661-11.5 2.799-12.811-3.157-3.845-17.462-9.794-44.445-9.878-44.623 7.13-3.06 13.23-8.05 17.63-14.33l8.54 9.5c-7.341 9.14-10.451 20.99-7.911 32.5z" fill="#f1fafc"/><path d="m182.323 370.266c-39.58 1.8-71.12 34.47-71.12 74.49v27.26h-17c-4.418 0-8-3.582-8-8v-39.418c0-41.254 33.753-73.989 75.006-74.414 5.641-.058 11.02-1.242 15.914-3.338.124.264 5.137 23.134 5.2 23.42z" fill="#e8f8fc"/><path d="m319.559 342.242c-11.782-.008-22.467-6.016-28.583-16.071-2.295-3.774-7.215-4.974-10.992-2.678-3.774 2.296-4.974 7.217-2.678 10.992 4.253 6.993 10.014 12.641 16.721 16.685l-8.316 37.621-19.973-23.031c3.713-4.264 2.666-9.126-.364-11.764-3.332-2.901-8.385-2.554-11.287.78l-14.077 16.166-35.405-39.394c3.014-5.777 4.844-12.117 5.376-18.727 68.509 20.074 137.064-31.12 137.243-102.381 0-2.724.041-61.149.044-65.122.022-30.95-25.007-56.013-55.961-56.035l-102.001-.07c-31.105 0-56.017 25.134-56.038 55.962l-.036 51.878c-5.345-2.771-8.994-8.268-8.99-14.657l.066-97.46c.007-10.473 8.528-18.987 19-18.987 3.378 0 6.259-2.067 7.444-5.024 10.759-26.84 36.814-44.925 66.454-44.925l107.569.073-9.92 26.162c-1.652 4.361.764 9.215 5.247 10.519l13.861 4.029c13.248 3.851 23.289 15.988 23.344 30.852l-.065 94.92c-.003 4.418 3.576 8.002 7.994 8.006 4.436 0 8.003-3.591 8.006-7.994 0-.591.066-94.705.064-95.296-.074-21.049-14.416-39.904-34.876-45.852l-5.543-1.611 10.954-28.89c1.981-5.227-1.884-10.832-7.475-10.836l-119.15-.082c-34.331-.01-65.062 19.924-79.315 50.366-16.731 2.606-29.58 17.107-29.592 34.56l-.066 97.46c-.01 15.541 10.863 28.254 25.053 31.648 1.464 41.229 26.174 76.176 60.861 92.741l-.001 2.039c-.012 18.439-14.96 33.319-33.425 33.319-43.195-.771-82.622 35.205-82.654 82.515l-.033 47.257c-.003 4.418 3.576 8.002 7.995 8.005 4.436 0 8.002-3.591 8.005-7.995l.033-47.257c.025-36.757 29.772-66.525 66.57-66.525 2.777.049 6.744-.303 10.501-1.103l11.128 50.668c1.412 6.425 9.555 8.473 13.851 3.533l28.808-33.127 7.169 7.977-.033 47.93c-.003 4.418 3.576 8.002 7.995 8.005 4.436 0 8.002-3.591 8.005-7.995l.033-48.008 7.024-8.067 28.918 33.345c4.305 4.965 12.441 2.888 13.855-3.515l11.197-50.654c3.388.723 6.883 1.117 10.451 1.119 36.792.024 66.554 29.819 66.527 66.617l-.032 47.257c-.003 4.418 3.576 8.002 7.994 8.005 4.437 0 8.003-3.591 8.006-7.995l.032-47.257c.033-45.634-36.874-82.597-82.517-82.626zm-170.336-132.214.044-64.841c.015-22.048 17.955-39.973 40-39.973.048 0 101.979.07 102.027.07 22.106.015 39.989 17.912 39.973 40.024l-.045 65.226c-.21 50.075-40.766 90.607-91.062 90.607-50.142-.035-90.937-40.545-90.937-91.113zm45.268 178.701-8.267-37.643c3.051-1.839 5.913-4.031 8.552-6.537l19.382 21.565z"/></svg>